<svg xmlns="http://www.w3.org/2000/svg" width="74.077" height="74.077" viewBox="0 0 74.077 74.077">
  <g id="Grupo_136241" data-name="Grupo 136241" transform="translate(-981.68 -398.765)">
    <path id="Trazado_126902" data-name="Trazado 126902" d="M282.022,170.23l30.646-16.309a13.558,13.558,0,0,0,5.6-18.339l-16.309-30.646a13.558,13.558,0,0,0-18.339-5.6l-30.646,16.309a13.558,13.558,0,0,0-5.6,18.339l16.309,30.645a13.558,13.558,0,0,0,18.339,5.6" transform="translate(735.898 301.021)" fill="#133d60"/>
    <path id="Trazado_126904" data-name="Trazado 126904" d="M330.212,442.908a6.483,6.483,0,0,1,4.612,1.91l4.021,4.021,4.021-4.021a6.522,6.522,0,0,1,9.223,9.224l-4.021,4.021,4.021,4.021a6.522,6.522,0,0,1-9.223,9.225l-4.021-4.021-4.021,4.021a6.523,6.523,0,0,1-9.226-9.224l4.023-4.022-4.022-4.021a6.522,6.522,0,0,1,4.612-11.134Zm8.633,10.173-6.142-6.142a3.522,3.522,0,0,0-4.982,4.981l6.144,6.142-6.144,6.142a3.523,3.523,0,0,0,4.983,4.982l6.142-6.142,6.142,6.142a3.522,3.522,0,0,0,4.98-4.983l-6.141-6.141,6.142-6.142a3.522,3.522,0,0,0-4.981-4.981Z" transform="translate(678.011 -22.259)" fill="#fff"/>
  </g>
</svg>
