<svg xmlns="http://www.w3.org/2000/svg" xmlns:xlink="http://www.w3.org/1999/xlink" width="108.856" height="112.981" viewBox="0 0 108.856 112.981">
  <defs>
    <filter id="Unión_7" x="2.37" y="49.395" width="61.686" height="63.382" filterUnits="userSpaceOnUse">
      <feOffset dy="3" input="SourceAlpha"/>
      <feGaussianBlur stdDeviation="3" result="blur"/>
      <feFlood flood-opacity="0.161"/>
      <feComposite operator="in" in2="blur"/>
      <feComposite in="SourceGraphic"/>
    </filter>
    <filter id="Unión_7-2" x="28.491" y="32.324" width="80.365" height="80.657" filterUnits="userSpaceOnUse">
      <feOffset dy="3" input="SourceAlpha"/>
      <feGaussianBlur stdDeviation="3" result="blur-2"/>
      <feFlood flood-opacity="0.161"/>
      <feComposite operator="in" in2="blur-2"/>
      <feComposite in="SourceGraphic"/>
    </filter>
    <filter id="Unión_7-3" x="0" y="0" width="76.442" height="75.506" filterUnits="userSpaceOnUse">
      <feOffset dy="3" input="SourceAlpha"/>
      <feGaussianBlur stdDeviation="3" result="blur-3"/>
      <feFlood flood-opacity="0.161"/>
      <feComposite operator="in" in2="blur-3"/>
      <feComposite in="SourceGraphic"/>
    </filter>
  </defs>
  <g id="Grupo_136205" data-name="Grupo 136205" transform="translate(-1189.405 -124.783)">
    <g id="Grupo_136201" data-name="Grupo 136201" transform="translate(1201.334 180.694)">
      <g id="Grupo_136202" data-name="Grupo 136202" transform="translate(0 0.001)">
        <g transform="matrix(1, 0, 0, 1, -11.93, -55.91)" filter="url(#Unión_7)">
          <path id="Unión_7-4" data-name="Unión 7" d="M12.1.455A5.666,5.666,0,0,0,9.765,9.021L.677,12.9A1.112,1.112,0,0,0,.09,14.359L3.5,22.347a1.1,1.1,0,0,0,1.555.5,6.288,6.288,0,0,1,5.11-.325,1.309,1.309,0,0,1,.291.14c4.563,2.976,3.516,8.665-.443,10.354-.173.073-.347.138-.52.191a1.12,1.12,0,0,0-.718,1.506l3.4,7.961a1.112,1.112,0,0,0,1.46.587l9.163-3.908a5.662,5.662,0,1,0,9.989-4.261l9.164-3.909a1.114,1.114,0,0,0,.587-1.463l-3.4-7.982a1.1,1.1,0,0,0-1.564-.506,6.278,6.278,0,0,1-5.138.309,1.262,1.262,0,0,1-.294-.144c-4.515-3.008-3.468-8.651.479-10.337.171-.073.345-.136.521-.191a1.12,1.12,0,0,0,.717-1.506l-3.4-7.959a1.113,1.113,0,0,0-1.46-.589L19.9,4.7A5.671,5.671,0,0,0,14.322,0,5.652,5.652,0,0,0,12.1.455Z" transform="translate(54.55 100.28) rotate(180)" fill="#dfeaf1" stroke="rgba(0,0,0,0)" stroke-miterlimit="10" stroke-width="1"/>
        </g>
      </g>
    </g>
    <g id="Grupo_136204" data-name="Grupo 136204" transform="matrix(0.788, 0.616, -0.616, 0.788, 1254.958, 163.858)">
      <g id="Grupo_136202-2" data-name="Grupo 136202" transform="translate(0 0.001)">
        <g transform="matrix(0.79, -0.62, 0.62, 0.79, -75.71, 9.57)" filter="url(#Unión_7-2)">
          <path id="Unión_7-5" data-name="Unión 7" d="M12.1.455A5.666,5.666,0,0,0,9.765,9.021L.677,12.9A1.112,1.112,0,0,0,.09,14.359L3.5,22.347a1.1,1.1,0,0,0,1.555.5,6.288,6.288,0,0,1,5.11-.325,1.309,1.309,0,0,1,.291.14c4.563,2.976,3.516,8.665-.443,10.354-.173.073-.347.138-.52.191a1.12,1.12,0,0,0-.718,1.506l3.4,7.961a1.112,1.112,0,0,0,1.46.587l9.163-3.908a5.662,5.662,0,1,0,9.989-4.261l9.164-3.909a1.114,1.114,0,0,0,.587-1.463l-3.4-7.982a1.1,1.1,0,0,0-1.564-.506,6.278,6.278,0,0,1-5.138.309,1.262,1.262,0,0,1-.294-.144c-4.515-3.008-3.468-8.651.479-10.337.171-.073.345-.136.521-.191a1.12,1.12,0,0,0,.717-1.506l-3.4-7.959a1.113,1.113,0,0,0-1.46-.589L19.9,4.7A5.671,5.671,0,0,0,14.322,0,5.652,5.652,0,0,0,12.1.455Z" transform="matrix(-0.79, -0.62, 0.62, -0.79, 71.83, 100.28)" fill="#aed4f5" stroke="rgba(0,0,0,0)" stroke-miterlimit="10" stroke-width="1"/>
        </g>
      </g>
    </g>
    <g id="Grupo_136203" data-name="Grupo 136203" transform="translate(1199.094 170.963) rotate(-68)">
      <g id="Grupo_136202-3" data-name="Grupo 136202" transform="translate(0 0.001)">
        <g transform="matrix(0.37, 0.93, -0.93, 0.37, 39.19, -26.28)" filter="url(#Unión_7-3)">
          <path id="Unión_7-6" data-name="Unión 7" d="M12.1.455A5.666,5.666,0,0,0,9.765,9.021L.677,12.9A1.112,1.112,0,0,0,.09,14.359L3.5,22.347a1.1,1.1,0,0,0,1.555.5,6.288,6.288,0,0,1,5.11-.325,1.309,1.309,0,0,1,.291.14c4.563,2.976,3.516,8.665-.443,10.354-.173.073-.347.138-.52.191a1.12,1.12,0,0,0-.718,1.506l3.4,7.961a1.112,1.112,0,0,0,1.46.587l9.163-3.908a5.662,5.662,0,1,0,9.989-4.261l9.164-3.909a1.114,1.114,0,0,0,.587-1.463l-3.4-7.982a1.1,1.1,0,0,0-1.564-.506,6.278,6.278,0,0,1-5.138.309,1.262,1.262,0,0,1-.294-.144c-4.515-3.008-3.468-8.651.479-10.337.171-.073.345-.136.521-.191a1.12,1.12,0,0,0,.717-1.506l-3.4-7.959a1.113,1.113,0,0,0-1.46-.589L19.9,4.7A5.671,5.671,0,0,0,14.322,0,5.652,5.652,0,0,0,12.1.455Z" transform="translate(66.79 23.28) rotate(112)" fill="#006ac1" stroke="rgba(0,0,0,0)" stroke-miterlimit="10" stroke-width="1"/>
        </g>
      </g>
    </g>
  </g>
</svg>
