<svg id="Grupo_136199" data-name="Grupo 136199" xmlns="http://www.w3.org/2000/svg" xmlns:xlink="http://www.w3.org/1999/xlink" width="77.548" height="129.501" viewBox="0 0 77.548 129.501">
  <defs>
    <clipPath id="clip-path">
      <rect id="Rectángulo_36370" data-name="Rectángulo 36370" width="77.548" height="129.501" fill="none"/>
    </clipPath>
  </defs>
  <g id="Grupo_136198" data-name="Grupo 136198" clip-path="url(#clip-path)">
    <path id="Trazado_129290" data-name="Trazado 129290" d="M113,20.422a.193.193,0,0,0-.192-.192h-7.874a.192.192,0,0,0-.192.192V32.4H113Z" transform="translate(-69.541 -13.432)" fill="#dfeaf1"/>
    <path id="Trazado_129291" data-name="Trazado 129291" d="M190.149,20.422a.192.192,0,0,0-.192-.192h-7.874a.192.192,0,0,0-.192.192v15.46h8.258Z" transform="translate(-120.769 -13.432)" fill="#dfeaf1"/>
    <path id="Trazado_129292" data-name="Trazado 129292" d="M151.572,20.422a.192.192,0,0,0-.192-.192h-7.874a.192.192,0,0,0-.192.192v4.763h8.258Z" transform="translate(-95.155 -13.432)" fill="#dfeaf1"/>
    <path id="Trazado_129293" data-name="Trazado 129293" d="M77.923,26.107V7.95a6.815,6.815,0,0,0-6.808-6.807H7.951A6.815,6.815,0,0,0,1.143,7.95V26.107a6.815,6.815,0,0,0,6.808,6.807H71.115a6.815,6.815,0,0,0,6.808-6.807m-61.365.054a9.133,9.133,0,1,1,9.13-9.13,9.129,9.129,0,0,1-9.13,9.13m28.039.148a.577.577,0,0,1-.576.576H36.147a.577.577,0,0,1-.576-.576V7.749a.577.577,0,0,1,.576-.576h7.874a.576.576,0,0,1,.576.576Zm12.963,0a.577.577,0,0,1-.576.576H49.11a.577.577,0,0,1-.576-.576V7.749a.577.577,0,0,1,.576-.576h7.874a.577.577,0,0,1,.576.576Zm12.963,0a.577.577,0,0,1-.576.576H62.073a.577.577,0,0,1-.576-.576V7.749a.577.577,0,0,1,.576-.576h7.874a.577.577,0,0,1,.576.576Z" transform="translate(-0.759 -0.759)" fill="#dfeaf1"/>
    <path id="Trazado_129294" data-name="Trazado 129294" d="M1.143,296.494V314.65a6.816,6.816,0,0,0,6.807,6.808H71.115a6.815,6.815,0,0,0,6.807-6.808V296.494a6.815,6.815,0,0,0-6.807-6.808H7.95a6.815,6.815,0,0,0-6.807,6.808m31.931,1.364h5.713v-.976a1.2,1.2,0,1,1,2.4,0v.976h28.7a.192.192,0,0,1,0,.384h-28.7v.8a1.2,1.2,0,0,1-2.4,0v-.8H33.074a.192.192,0,1,1,0-.384m0,7.509H45.061v-.876a1.2,1.2,0,1,1,2.4,0v.876H69.883a.192.192,0,0,1,0,.384H47.461v.9a1.2,1.2,0,0,1-2.4,0v-.9H33.074a.192.192,0,1,1,0-.384m0,7.342H67.659v-.888a1.2,1.2,0,1,1,2.4,0v1a.187.187,0,0,1,.016.076.185.185,0,0,1-.016.076v1a1.2,1.2,0,1,1-2.4,0v-.888H33.074a.192.192,0,1,1,0-.384M16.558,296.438a9.132,9.132,0,1,1-9.13,9.134,9.079,9.079,0,0,1,9.13-9.134" transform="translate(-0.759 -192.341)" fill="#dfeaf1"/>
    <path id="Trazado_129295" data-name="Trazado 129295" d="M1.143,152.222v18.156a6.815,6.815,0,0,0,6.807,6.808H71.115a6.815,6.815,0,0,0,6.807-6.808V152.222a6.815,6.815,0,0,0-6.807-6.808H7.95a6.816,6.816,0,0,0-6.807,6.808M33.65,163.465l3.329,6.965,4.865-14.455,2.689,3.009,1.985-7.17H53.3L54.9,163.4l2.881-4.9,3.393,6.982h5.517l1.331,4.948h-37.9Zm-17.092-11.3a9.134,9.134,0,1,1-9.13,9.134,9.079,9.079,0,0,1,9.13-9.134" transform="translate(-0.759 -96.549)" fill="#dfeaf1"/>
    <path id="Trazado_129296" data-name="Trazado 129296" d="M99.935,100.571a4.011,4.011,0,0,1-4.007,4.007H63.408a4.4,4.4,0,0,0-4.391,4.391v3.8H59.4v-3.8a4.011,4.011,0,0,1,4.007-4.007h32.52a4.4,4.4,0,0,0,4.391-4.391V96.832h-.384Z" transform="translate(-39.185 -64.293)" fill="#361524"/>
    <path id="Trazado_129297" data-name="Trazado 129297" d="M59.017,244.843a4.4,4.4,0,0,0,4.391,4.391h32.52a4.011,4.011,0,0,1,4.007,4.007v3.8h.384v-3.8a4.4,4.4,0,0,0-4.391-4.391H63.408a4.012,4.012,0,0,1-4.007-4.007V241.1h-.384Z" transform="translate(-39.185 -160.084)" fill="#361524"/>
    <path id="Trazado_129298" data-name="Trazado 129298" d="M70.356,0H7.192A7.2,7.2,0,0,0,0,7.192V25.348a7.2,7.2,0,0,0,7.192,7.192H60.75v-.192a.192.192,0,0,1,.192-.192H7.192A6.815,6.815,0,0,1,.384,25.348V7.192A6.815,6.815,0,0,1,7.192.384H70.356a6.815,6.815,0,0,1,6.807,6.807V25.348a6.815,6.815,0,0,1-6.807,6.807H60.941a.192.192,0,0,1,.192.192v.192h9.223a7.2,7.2,0,0,0,7.192-7.192V7.192A7.2,7.2,0,0,0,70.356,0" fill="#06141f"/>
    <path id="Trazado_129299" data-name="Trazado 129299" d="M180.975,95.689a.192.192,0,0,0-.192.192v.192h.384v-.192a.192.192,0,0,0-.192-.192" transform="translate(-120.033 -63.534)" fill="#06141f"/>
    <path id="Trazado_129300" data-name="Trazado 129300" d="M20.024,176.427H7.192A6.816,6.816,0,0,1,.384,169.62V151.464a6.816,6.816,0,0,1,6.808-6.807H20.024a.192.192,0,0,1-.192-.192v-.192H7.192A7.2,7.2,0,0,0,0,151.464V169.62a7.2,7.2,0,0,0,7.192,7.192h12.64v-.192a.192.192,0,0,1,.192-.192" transform="translate(0 -95.791)" fill="#06141f"/>
    <path id="Trazado_129301" data-name="Trazado 129301" d="M59.589,144.656h50.332a6.815,6.815,0,0,1,6.807,6.807V169.62a6.815,6.815,0,0,1-6.807,6.807H59.589a.192.192,0,0,1,.192.192v.192h50.141a7.2,7.2,0,0,0,7.192-7.192V151.464a7.2,7.2,0,0,0-7.192-7.192H59.781v.192a.192.192,0,0,1-.192.192" transform="translate(-39.565 -95.791)" fill="#06141f"/>
    <path id="Trazado_129302" data-name="Trazado 129302" d="M59.017,144.463a.192.192,0,1,0,.384,0v-.192h-.384Z" transform="translate(-39.185 -95.791)" fill="#06141f"/>
    <path id="Trazado_129303" data-name="Trazado 129303" d="M59.209,239.961a.192.192,0,0,0-.192.192v.192H59.4v-.192a.192.192,0,0,0-.192-.192" transform="translate(-39.185 -159.325)" fill="#06141f"/>
    <path id="Trazado_129304" data-name="Trazado 129304" d="M60.942,288.928h9.415a6.815,6.815,0,0,1,6.807,6.807v18.156a6.816,6.816,0,0,1-6.807,6.808H7.192a6.816,6.816,0,0,1-6.808-6.808V295.736a6.816,6.816,0,0,1,6.808-6.807h53.75a.192.192,0,0,1-.192-.192v-.192H7.192A7.2,7.2,0,0,0,0,295.736v18.156a7.2,7.2,0,0,0,7.192,7.192H70.357a7.2,7.2,0,0,0,7.192-7.192V295.736a7.2,7.2,0,0,0-7.192-7.192H61.134v.192a.192.192,0,0,1-.192.192" transform="translate(0 -191.582)" fill="#06141f"/>
    <path id="Trazado_129305" data-name="Trazado 129305" d="M180.782,288.736a.192.192,0,1,0,.384,0v-.192h-.384Z" transform="translate(-120.032 -191.582)" fill="#06141f"/>
    <path id="Trazado_129306" data-name="Trazado 129306" d="M34.131,22.834a9.133,9.133,0,1,0,3.975,7.54h-9.13Z" transform="translate(-13.177 -14.103)" fill="#aed4f5"/>
    <path id="Trazado_129307" data-name="Trazado 129307" d="M52.17,25.984l-5.154,7.54h9.13a9.128,9.128,0,0,0-3.975-7.54" transform="translate(-31.217 -17.252)" fill="#fff"/>
    <path id="Trazado_129308" data-name="Trazado 129308" d="M28.976,328.044a9.053,9.053,0,0,0,4.375-1.118l-4.375-8.012,7.271,5.523a9.131,9.131,0,1,0-7.271,3.607" transform="translate(-13.177 -205.682)" fill="#aed4f5"/>
    <path id="Trazado_129309" data-name="Trazado 129309" d="M51.39,344.973a9.075,9.075,0,0,0,2.9-2.489l-7.271-5.523Z" transform="translate(-31.216 -223.729)" fill="#fff"/>
    <path id="Trazado_129310" data-name="Trazado 129310" d="M27.744,181.079a9.132,9.132,0,1,0,6.476-15.571v9.134Z" transform="translate(-18.421 -109.891)" fill="#aed4f5"/>
    <path id="Trazado_129311" data-name="Trazado 129311" d="M22.5,181.079l6.476-6.437v-9.134A9.134,9.134,0,0,0,22.5,181.079" transform="translate(-13.177 -109.891)" fill="#fff"/>
    <path id="Trazado_129312" data-name="Trazado 129312" d="M112.045,19.087h-7.874a.577.577,0,0,0-.576.576V38.222a.577.577,0,0,0,.576.576h7.874a.577.577,0,0,0,.576-.576V19.663a.577.577,0,0,0-.576-.576m.384,19.519h-8.642V31.641h.192V19.663a.192.192,0,0,1,.192-.192h7.874a.192.192,0,0,1,.192.192V31.641h.192Z" transform="translate(-68.783 -12.673)" fill="#06141f"/>
    <path id="Trazado_129313" data-name="Trazado 129313" d="M150.622,19.087h-7.874a.577.577,0,0,0-.576.576V38.222a.577.577,0,0,0,.576.576h7.874a.577.577,0,0,0,.576-.576V19.663a.577.577,0,0,0-.576-.576m.384,19.519h-8.642V24.426h.192V19.663a.192.192,0,0,1,.192-.192h7.874a.192.192,0,0,1,.192.192v4.763h.192Z" transform="translate(-94.397 -12.673)" fill="#06141f"/>
    <path id="Trazado_129314" data-name="Trazado 129314" d="M189.2,19.087h-7.874a.577.577,0,0,0-.576.576V38.222a.577.577,0,0,0,.576.576H189.2a.577.577,0,0,0,.576-.576V19.663a.577.577,0,0,0-.576-.576m.384,19.519h-8.642V35.123h.192V19.663a.192.192,0,0,1,.192-.192H189.2a.192.192,0,0,1,.192.192v15.46h.192Z" transform="translate(-120.011 -12.673)" fill="#06141f"/>
    <path id="Trazado_129315" data-name="Trazado 129315" d="M104.929,63.218H112.8a.192.192,0,0,0,.192-.192V56.445h-8.258v6.581a.193.193,0,0,0,.192.192" transform="translate(-69.541 -37.477)" fill="#aed4f5"/>
    <path id="Trazado_129316" data-name="Trazado 129316" d="M112.616,63.027a.193.193,0,0,1-.192.192H104.55a.192.192,0,0,1-.192-.192V56.446h-.192v6.965h8.642V56.446h-.192Z" transform="translate(-69.162 -37.478)" fill="#06141f"/>
    <path id="Trazado_129317" data-name="Trazado 129317" d="M143.506,48.964h7.874a.192.192,0,0,0,.192-.192v-13.8h-8.258v13.8a.193.193,0,0,0,.192.192" transform="translate(-95.155 -23.223)" fill="#aed4f5"/>
    <path id="Trazado_129318" data-name="Trazado 129318" d="M151.193,48.772a.192.192,0,0,1-.192.192h-7.874a.192.192,0,0,1-.192-.192v-13.8h-.192v14.18h8.642V34.976h-.192Z" transform="translate(-94.776 -23.223)" fill="#06141f"/>
    <path id="Trazado_129319" data-name="Trazado 129319" d="M182.083,70.1h7.874a.192.192,0,0,0,.192-.192v-3.1h-8.258v3.1a.193.193,0,0,0,.192.192" transform="translate(-120.769 -44.359)" fill="#aed4f5"/>
    <path id="Trazado_129320" data-name="Trazado 129320" d="M189.77,69.908a.192.192,0,0,1-.192.192H181.7a.192.192,0,0,1-.192-.192v-3.1h-.192v3.482h8.642V66.81h-.192Z" transform="translate(-120.39 -44.359)" fill="#06141f"/>
    <path id="Trazado_129321" data-name="Trazado 129321" d="M90.923,199.132,87.4,206.1h6.85Z" transform="translate(-58.031 -132.216)" fill="#aed4f5"/>
    <path id="Trazado_129322" data-name="Trazado 129322" d="M137.5,178.128h-5.517l-3.393-6.982-2.881,4.9-1.6-11.587h-6.786l-1.985,7.17-2.689-3.009-4.865,14.455h31.046Z" transform="translate(-71.566 -109.196)" fill="#aed4f5"/>
    <path id="Trazado_129323" data-name="Trazado 129323" d="M95.786,336.735h11.987v-.384H95.786a.192.192,0,0,0,0,.384" transform="translate(-63.471 -223.324)" fill="#06141f"/>
    <path id="Trazado_129324" data-name="Trazado 129324" d="M161.4,336.735a.192.192,0,0,0,0-.384H138.98v.384Z" transform="translate(-92.278 -223.324)" fill="#06141f"/>
    <path id="Trazado_129325" data-name="Trazado 129325" d="M149.006,314.389a.192.192,0,0,0,0-.384h-28.7v.384Z" transform="translate(-79.882 -208.488)" fill="#06141f"/>
    <path id="Trazado_129326" data-name="Trazado 129326" d="M95.786,314.389H101.5v-.384H95.786a.192.192,0,0,0,0,.384" transform="translate(-63.471 -208.488)" fill="#06141f"/>
    <path id="Trazado_129327" data-name="Trazado 129327" d="M95.786,358.586h34.585V358.2H95.786a.192.192,0,0,0,0,.384" transform="translate(-63.471 -237.833)" fill="#06141f"/>
    <path id="Trazado_129328" data-name="Trazado 129328" d="M206.244,358.622a.193.193,0,0,0-.016-.076v.153a.193.193,0,0,0,.016-.076" transform="translate(-136.928 -238.061)" fill="#06141f"/>
    <path id="Trazado_129329" data-name="Trazado 129329" d="M113.167,315.947a1.2,1.2,0,0,0,2.4,0v-.8h-2.4Z" transform="translate(-75.139 -209.246)" fill="#06141f"/>
    <path id="Trazado_129330" data-name="Trazado 129330" d="M115.568,308.728a1.2,1.2,0,0,0-2.4,0v.976h2.4Z" transform="translate(-75.139 -204.187)" fill="#06141f"/>
    <rect id="Rectángulo_36368" data-name="Rectángulo 36368" width="2.401" height="0.384" transform="translate(38.028 105.517)" fill="#06141f"/>
    <path id="Trazado_129331" data-name="Trazado 129331" d="M131.837,338.395a1.2,1.2,0,1,0,2.4,0v-.9h-2.4Z" transform="translate(-87.535 -224.083)" fill="#06141f"/>
    <path id="Trazado_129332" data-name="Trazado 129332" d="M134.237,331.374a1.2,1.2,0,0,0-2.4,0v.876h2.4Z" transform="translate(-87.534 -219.223)" fill="#06141f"/>
    <rect id="Rectángulo_36369" data-name="Rectángulo 36369" width="2.401" height="0.384" transform="translate(44.302 113.027)" fill="#06141f"/>
    <path id="Trazado_129333" data-name="Trazado 129333" d="M201.485,354.19v-1a1.2,1.2,0,0,0-2.4,0v.888h2.225a.192.192,0,0,1,.176.116" transform="translate(-132.184 -233.705)" fill="#06141f"/>
    <path id="Trazado_129334" data-name="Trazado 129334" d="M201.309,359.116h-2.225V360a1.2,1.2,0,1,0,2.4,0v-1a.192.192,0,0,1-.176.116" transform="translate(-132.184 -238.363)" fill="#06141f"/>
    <path id="Trazado_129335" data-name="Trazado 129335" d="M201.309,358.586a.192.192,0,0,0,.176-.116v-.152a.192.192,0,0,0-.176-.116h-2.225v.384Z" transform="translate(-132.184 -237.833)" fill="#06141f"/>
  </g>
</svg>
