<svg xmlns="http://www.w3.org/2000/svg" width="29.891" height="25.752" viewBox="0 0 29.891 25.752">
  <g id="Grupo_78296" data-name="Grupo 78296" transform="translate(11034.756 12017.259)">
    <path id="Trazado_99257" data-name="Trazado 99257" d="M415.723,103.5a.755.755,0,1,1-.755-.721A.739.739,0,0,1,415.723,103.5Z" transform="translate(-11448.363 -12119.432)" fill="#fff"/>
    <path id="Trazado_99257_-_Contorno" data-name="Trazado 99257 - Contorno" d="M414.575,101.779a1.329,1.329,0,1,1-1.361,1.328A1.347,1.347,0,0,1,414.575,101.779Zm0,1.443a.118.118,0,1,0-.147-.115A.137.137,0,0,0,414.575,103.222Z" transform="translate(-11447.97 -12119.038)" fill="#fff"/>
    <path id="Trazado_99258" data-name="Trazado 99258" d="M424.169,103.5a.755.755,0,1,1-.754-.721A.738.738,0,0,1,424.169,103.5Z" transform="translate(-11450.018 -12119.432)" fill="#fff"/>
    <path id="Trazado_99258_-_Contorno" data-name="Trazado 99258 - Contorno" d="M423.022,101.779a1.329,1.329,0,1,1-1.362,1.328A1.346,1.346,0,0,1,423.022,101.779Zm0,1.443a.119.119,0,1,0-.148-.115A.136.136,0,0,0,423.022,103.222Z" transform="translate(-11449.624 -12119.038)" fill="#fff"/>
    <path id="Trazado_99259" data-name="Trazado 99259" d="M432.615,103.5a.755.755,0,1,1-.754-.721A.739.739,0,0,1,432.615,103.5Z" transform="translate(-11451.672 -12119.432)" fill="#fff"/>
    <path id="Trazado_99259_-_Contorno" data-name="Trazado 99259 - Contorno" d="M431.468,101.779a1.329,1.329,0,1,1-1.362,1.328A1.346,1.346,0,0,1,431.468,101.779Zm0,1.443a.119.119,0,1,0-.148-.115A.136.136,0,0,0,431.468,103.222Z" transform="translate(-11451.278 -12119.038)" fill="#fff"/>
    <path id="Trazado_99260" data-name="Trazado 99260" d="M441.062,103.5a.755.755,0,1,1-.755-.721A.739.739,0,0,1,441.062,103.5Z" transform="translate(-11453.326 -12119.432)" fill="#fff"/>
    <path id="Trazado_99260_-_Contorno" data-name="Trazado 99260 - Contorno" d="M439.914,101.779a1.329,1.329,0,1,1-1.361,1.328A1.347,1.347,0,0,1,439.914,101.779Zm0,1.443a.118.118,0,1,0-.147-.115A.137.137,0,0,0,439.914,103.222Z" transform="translate(-11452.933 -12119.038)" fill="#fff"/>
    <path id="Trazado_99261" data-name="Trazado 99261" d="M449.508,103.5a.755.755,0,1,1-.754-.721A.739.739,0,0,1,449.508,103.5Z" transform="translate(-11454.98 -12119.432)" fill="#fff"/>
    <path id="Trazado_99261_-_Contorno" data-name="Trazado 99261 - Contorno" d="M448.361,101.779A1.329,1.329,0,1,1,447,103.107,1.346,1.346,0,0,1,448.361,101.779Zm0,1.443a.119.119,0,1,0-.148-.115A.136.136,0,0,0,448.361,103.222Z" transform="translate(-11454.587 -12119.038)" fill="#fff"/>
    <ellipse id="Elipse_3975" data-name="Elipse 3975" cx="0.755" cy="0.722" rx="0.755" ry="0.722" transform="translate(-11034.149 -12010.878)" fill="#fff"/>
    <path id="Elipse_3975_-_Contorno" data-name="Elipse 3975 - Contorno" d="M.361-1A1.347,1.347,0,0,1,1.723.329,1.347,1.347,0,0,1,.361,1.657,1.347,1.347,0,0,1-1,.329,1.347,1.347,0,0,1,.361-1Zm0,1.443A.136.136,0,0,0,.509.329.136.136,0,0,0,.361.214.136.136,0,0,0,.214.329.136.136,0,0,0,.361.443Z" transform="translate(-11033.756 -12010.485)" fill="#fff"/>
    <path id="Trazado_99268" data-name="Trazado 99268" d="M424.169,111.008a.755.755,0,1,1-.754-.721A.739.739,0,0,1,424.169,111.008Z" transform="translate(-11450.018 -12121.165)" fill="#fff"/>
    <path id="Trazado_99268_-_Contorno" data-name="Trazado 99268 - Contorno" d="M423.022,109.287a1.329,1.329,0,1,1-1.362,1.328A1.346,1.346,0,0,1,423.022,109.287Zm0,1.443a.119.119,0,1,0-.148-.115A.136.136,0,0,0,423.022,110.73Z" transform="translate(-11449.624 -12120.772)" fill="#fff"/>
    <ellipse id="Elipse_3976" data-name="Elipse 3976" cx="0.755" cy="0.722" rx="0.755" ry="0.722" transform="translate(-11020.565 -12010.878)" fill="#fff"/>
    <path id="Elipse_3976_-_Contorno" data-name="Elipse 3976 - Contorno" d="M.361-1A1.347,1.347,0,0,1,1.723.329,1.347,1.347,0,0,1,.361,1.657,1.347,1.347,0,0,1-1,.329,1.347,1.347,0,0,1,.361-1Zm0,1.443A.136.136,0,0,0,.509.329.136.136,0,0,0,.361.214.136.136,0,0,0,.214.329.136.136,0,0,0,.361.443Z" transform="translate(-11020.172 -12010.485)" fill="#fff"/>
    <path id="Trazado_99269" data-name="Trazado 99269" d="M441.062,111.008a.755.755,0,1,1-.755-.721A.739.739,0,0,1,441.062,111.008Z" transform="translate(-11453.326 -12121.165)" fill="#fff"/>
    <path id="Trazado_99269_-_Contorno" data-name="Trazado 99269 - Contorno" d="M439.914,109.287a1.329,1.329,0,1,1-1.361,1.328A1.347,1.347,0,0,1,439.914,109.287Zm0,1.443a.118.118,0,1,0-.147-.115A.136.136,0,0,0,439.914,110.73Z" transform="translate(-11452.933 -12120.772)" fill="#fff"/>
    <path id="Trazado_99270" data-name="Trazado 99270" d="M449.508,111.008a.755.755,0,1,1-.754-.721A.739.739,0,0,1,449.508,111.008Z" transform="translate(-11454.98 -12121.165)" fill="#fff"/>
    <path id="Trazado_99270_-_Contorno" data-name="Trazado 99270 - Contorno" d="M448.361,109.287A1.329,1.329,0,1,1,447,110.615,1.346,1.346,0,0,1,448.361,109.287Zm0,1.443a.119.119,0,1,0-.148-.115A.136.136,0,0,0,448.361,110.73Z" transform="translate(-11454.587 -12120.772)" fill="#fff"/>
    <path id="Trazado_99274" data-name="Trazado 99274" d="M415.723,118.516a.755.755,0,1,1-.755-.722A.739.739,0,0,1,415.723,118.516Z" transform="translate(-11448.363 -12122.9)" fill="#fff"/>
    <path id="Trazado_99274_-_Contorno" data-name="Trazado 99274 - Contorno" d="M414.575,119.452a1.329,1.329,0,1,1,1.362-1.329A1.347,1.347,0,0,1,414.575,119.452Zm0-1.444a.119.119,0,1,0,.148.115A.136.136,0,0,0,414.575,118.008Z" transform="translate(-11447.97 -12122.507)" fill="#fff"/>
    <path id="Trazado_99275" data-name="Trazado 99275" d="M424.169,118.516a.755.755,0,1,1-.754-.722A.739.739,0,0,1,424.169,118.516Z" transform="translate(-11450.018 -12122.9)" fill="#fff"/>
    <path id="Trazado_99275_-_Contorno" data-name="Trazado 99275 - Contorno" d="M423.022,119.452a1.329,1.329,0,1,1,1.361-1.329A1.347,1.347,0,0,1,423.022,119.452Zm0-1.444a.119.119,0,1,0,.147.115A.136.136,0,0,0,423.022,118.008Z" transform="translate(-11449.624 -12122.507)" fill="#fff"/>
    <path id="Trazado_99276" data-name="Trazado 99276" d="M432.615,118.516a.755.755,0,1,1-.754-.722A.739.739,0,0,1,432.615,118.516Z" transform="translate(-11451.672 -12122.9)" fill="#fff"/>
    <path id="Trazado_99276_-_Contorno" data-name="Trazado 99276 - Contorno" d="M431.468,119.452a1.329,1.329,0,1,1,1.361-1.329A1.347,1.347,0,0,1,431.468,119.452Zm0-1.444a.119.119,0,1,0,0,.231.119.119,0,1,0,0-.231Z" transform="translate(-11451.278 -12122.507)" fill="#fff"/>
    <path id="Trazado_99277" data-name="Trazado 99277" d="M441.062,118.516a.755.755,0,1,1-.755-.722A.739.739,0,0,1,441.062,118.516Z" transform="translate(-11453.326 -12122.9)" fill="#fff"/>
    <path id="Trazado_99277_-_Contorno" data-name="Trazado 99277 - Contorno" d="M439.914,119.452a1.329,1.329,0,1,1,1.362-1.329A1.347,1.347,0,0,1,439.914,119.452Zm0-1.444a.119.119,0,1,0,.148.115A.136.136,0,0,0,439.914,118.008Z" transform="translate(-11452.933 -12122.507)" fill="#fff"/>
    <path id="Trazado_99278" data-name="Trazado 99278" d="M449.508,118.516a.755.755,0,1,1-.754-.722A.739.739,0,0,1,449.508,118.516Z" transform="translate(-11454.98 -12122.9)" fill="#fff"/>
    <path id="Trazado_99278_-_Contorno" data-name="Trazado 99278 - Contorno" d="M448.361,119.452a1.329,1.329,0,1,1,1.361-1.329A1.347,1.347,0,0,1,448.361,119.452Zm0-1.444a.119.119,0,1,0,.147.115A.136.136,0,0,0,448.361,118.008Z" transform="translate(-11454.587 -12122.507)" fill="#fff"/>
    <ellipse id="Elipse_3980" data-name="Elipse 3980" cx="0.755" cy="0.722" rx="0.755" ry="0.722" transform="translate(-11034.149 -11999.331)" fill="#fff"/>
    <path id="Elipse_3980_-_Contorno" data-name="Elipse 3980 - Contorno" d="M.361-1A1.347,1.347,0,0,1,1.723.329,1.347,1.347,0,0,1,.361,1.657,1.347,1.347,0,0,1-1,.329,1.347,1.347,0,0,1,.361-1Zm0,1.443A.136.136,0,0,0,.509.329.136.136,0,0,0,.361.214.136.136,0,0,0,.214.329.136.136,0,0,0,.361.443Z" transform="translate(-11033.756 -11998.938)" fill="#fff"/>
    <path id="Trazado_99285" data-name="Trazado 99285" d="M424.169,126.024a.755.755,0,1,1-.754-.722A.738.738,0,0,1,424.169,126.024Z" transform="translate(-11450.018 -12124.634)" fill="#fff"/>
    <path id="Trazado_99285_-_Contorno" data-name="Trazado 99285 - Contorno" d="M423.022,126.959a1.329,1.329,0,1,1,1.361-1.328A1.347,1.347,0,0,1,423.022,126.959Zm0-1.443a.118.118,0,1,0,.147.115A.136.136,0,0,0,423.022,125.516Z" transform="translate(-11449.624 -12124.24)" fill="#fff"/>
    <ellipse id="Elipse_3981" data-name="Elipse 3981" cx="0.755" cy="0.722" rx="0.755" ry="0.722" transform="translate(-11020.565 -11999.331)" fill="#fff"/>
    <path id="Elipse_3981_-_Contorno" data-name="Elipse 3981 - Contorno" d="M.361-1A1.347,1.347,0,0,1,1.723.329,1.347,1.347,0,0,1,.361,1.657,1.347,1.347,0,0,1-1,.329,1.347,1.347,0,0,1,.361-1Zm0,1.443A.136.136,0,0,0,.509.329.136.136,0,0,0,.361.214.136.136,0,0,0,.214.329.136.136,0,0,0,.361.443Z" transform="translate(-11020.172 -11998.938)" fill="#fff"/>
    <path id="Trazado_99286" data-name="Trazado 99286" d="M441.062,126.024a.755.755,0,1,1-.755-.722A.739.739,0,0,1,441.062,126.024Z" transform="translate(-11453.326 -12124.634)" fill="#fff"/>
    <path id="Trazado_99286_-_Contorno" data-name="Trazado 99286 - Contorno" d="M439.914,126.959a1.329,1.329,0,1,1,1.362-1.328A1.346,1.346,0,0,1,439.914,126.959Zm0-1.443a.119.119,0,1,0,.148.115A.136.136,0,0,0,439.914,125.516Z" transform="translate(-11452.933 -12124.24)" fill="#fff"/>
    <path id="Trazado_99287" data-name="Trazado 99287" d="M449.508,126.024a.755.755,0,1,1-.754-.722A.738.738,0,0,1,449.508,126.024Z" transform="translate(-11454.98 -12124.634)" fill="#fff"/>
    <path id="Trazado_99287_-_Contorno" data-name="Trazado 99287 - Contorno" d="M448.361,126.959a1.329,1.329,0,1,1,1.361-1.328A1.347,1.347,0,0,1,448.361,126.959Zm0-1.443a.119.119,0,1,0,.147.115A.136.136,0,0,0,448.361,125.516Z" transform="translate(-11454.587 -12124.24)" fill="#fff"/>
    <ellipse id="Elipse_3985" data-name="Elipse 3985" cx="0.755" cy="0.722" rx="0.755" ry="0.722" transform="translate(-11034.149 -11993.558)" fill="#fff"/>
    <path id="Elipse_3985_-_Contorno" data-name="Elipse 3985 - Contorno" d="M.361-1A1.347,1.347,0,0,1,1.723.329,1.347,1.347,0,0,1,.361,1.657,1.347,1.347,0,0,1-1,.329,1.347,1.347,0,0,1,.361-1Zm0,1.443A.136.136,0,0,0,.509.329.136.136,0,0,0,.361.214.136.136,0,0,0,.214.329.136.136,0,0,0,.361.443Z" transform="translate(-11033.756 -11993.164)" fill="#fff"/>
    <path id="Trazado_99291" data-name="Trazado 99291" d="M424.169,133.532a.755.755,0,1,1-.754-.722A.738.738,0,0,1,424.169,133.532Z" transform="translate(-11450.018 -12126.367)" fill="#fff"/>
    <path id="Trazado_99291_-_Contorno" data-name="Trazado 99291 - Contorno" d="M423.022,134.467a1.329,1.329,0,1,1,1.361-1.328A1.347,1.347,0,0,1,423.022,134.467Zm0-1.443a.118.118,0,1,0,.147.115A.137.137,0,0,0,423.022,133.024Z" transform="translate(-11449.624 -12125.975)" fill="#fff"/>
    <ellipse id="Elipse_3986" data-name="Elipse 3986" cx="0.755" cy="0.722" rx="0.755" ry="0.722" transform="translate(-11020.565 -11993.558)" fill="#fff"/>
    <path id="Elipse_3986_-_Contorno" data-name="Elipse 3986 - Contorno" d="M.361-1A1.347,1.347,0,0,1,1.723.329,1.347,1.347,0,0,1,.361,1.657,1.347,1.347,0,0,1-1,.329,1.347,1.347,0,0,1,.361-1Zm0,1.443A.136.136,0,0,0,.509.329.136.136,0,0,0,.361.214.136.136,0,0,0,.214.329.136.136,0,0,0,.361.443Z" transform="translate(-11020.172 -11993.164)" fill="#fff"/>
    <path id="Trazado_99292" data-name="Trazado 99292" d="M441.062,133.532a.755.755,0,1,1-.755-.722A.739.739,0,0,1,441.062,133.532Z" transform="translate(-11453.326 -12126.367)" fill="#fff"/>
    <path id="Trazado_99292_-_Contorno" data-name="Trazado 99292 - Contorno" d="M439.914,134.467a1.329,1.329,0,1,1,1.362-1.328A1.346,1.346,0,0,1,439.914,134.467Zm0-1.443a.119.119,0,1,0,.148.115A.136.136,0,0,0,439.914,133.024Z" transform="translate(-11452.933 -12125.975)" fill="#fff"/>
    <path id="Trazado_99293" data-name="Trazado 99293" d="M449.508,133.532a.755.755,0,1,1-.754-.722A.738.738,0,0,1,449.508,133.532Z" transform="translate(-11454.98 -12126.367)" fill="#fff"/>
    <path id="Trazado_99293_-_Contorno" data-name="Trazado 99293 - Contorno" d="M448.361,134.467a1.329,1.329,0,1,1,1.361-1.328A1.347,1.347,0,0,1,448.361,134.467Zm0-1.443a.118.118,0,1,0,.147.115A.137.137,0,0,0,448.361,133.024Z" transform="translate(-11454.587 -12125.975)" fill="#fff"/>
  </g>
</svg>
