<svg xmlns="http://www.w3.org/2000/svg" xmlns:xlink="http://www.w3.org/1999/xlink" width="610" height="283" viewBox="0 0 610 283">
  <defs>
    <clipPath id="clip-path">
      <rect id="AdobeStock_40011019" width="590" height="266.625" transform="translate(810 404)" fill="#aed4f5"/>
    </clipPath>
  </defs>
  <g id="Grupo_136241" data-name="Grupo 136241" transform="translate(-810 -404)">
    <rect id="Rect치ngulo_33765" data-name="Rect치ngulo 33765" width="83" height="241" transform="translate(1337 446)" fill="#3ba3f8"/>
    <rect id="AdobeStock_40011019-2" data-name="AdobeStock_40011019" width="590" height="266.625" transform="translate(810 404)" fill="#aed4f5"/>
    <g id="Enmascarar_grupo_103" data-name="Enmascarar grupo 103" clip-path="url(#clip-path)">
      <g id="Grupo_136133" data-name="Grupo 136133">
        <path id="Trazado_126381" data-name="Trazado 126381" d="M408.552,295.6s-26.362-32.366-96.013-26.17-61.986,34.432-110.209,33.055S101.609,281.136,58.777,320.357c-49.689,45.5,35.221,84.2,1.5,112.007-60.422,49.819,0,108.54,134.94,97.392,111.91-9.242,112.912-22.211,177.871-6.5s124.024-42.3,100.426-87.715-83.574-28.1-55.472-65.184S408.552,295.6,408.552,295.6Z" transform="translate(877.956 135.359)" fill="#deeefc" opacity="0.506"/>
        <path id="Trazado_126379" data-name="Trazado 126379" d="M9.741,84.787a8.054,8.054,0,0,1-4.664-.109,6.857,6.857,0,0,1-3.108-3.3C-2.246,73.31.9,63.281,5.828,55.632s11.594-14.25,15.24-22.587C24.145,26,24.891,18.081,28.248,11.168S39.146-1.769,46.5.479c16.489,5.039,11.327,39.343,6.627,51.29C46.515,68.588,26.913,81.525,9.741,84.787Z" transform="translate(846.869 495.72) rotate(-25)" fill="#deeefc"/>
        <path id="Trazado_126382" data-name="Trazado 126382" d="M11.221,97.666a9.277,9.277,0,0,1-5.372-.125,7.9,7.9,0,0,1-3.58-3.8c-4.857-9.291-1.235-20.843,4.445-29.655S20.069,47.668,24.269,38.064c3.543-8.113,4.4-17.237,8.27-25.2S45.092-2.038,53.559.552c18.993,5.8,13.048,45.319,7.634,59.08C53.58,79.006,31,93.909,11.221,97.666Z" transform="translate(1406.397 521.418) rotate(115)" fill="#deeefc"/>
      </g>
      <g id="Grupo_136134" data-name="Grupo 136134" transform="translate(6277.879 11789.671)">
        <path id="Trazado_128642" data-name="Trazado 128642" d="M363.845,187.456c-.477,4.271,2.8,8.519,1.659,12.649-1.33,4.768-6.883,6.218-9.446,10.132a4.325,4.325,0,0,0-.4.688,3.98,3.98,0,0,0-.26.522,2.861,2.861,0,0,0-.191.476c-.023.046-.048.117-.071.166a4.811,4.811,0,0,0-.143.522,7.427,7.427,0,0,0-.285.948c-1.779,6.717-.331,13.36-3.937,19.934a33.674,33.674,0,0,1-14.976,13.954c-9.989,4.7-22.378,4.6-33.055,2.775-4.08-.688-8.307-1.756-12.341-.711-3.063.782-5.7,2.729-8.378,4.413a66.863,66.863,0,0,1-50.452,8.567c-1.019-.237-2.016-.5-3.012-.782-.951-.285-1.993-.642-3.06-1.045-7.143-2.729-16.446-7.785-23.448-6.337a9.085,9.085,0,0,0-2.11.665c-.214.1-.405.191-.594.262-6.406,2.7-8.5.5-15.592,0-4.222-.308-8.091,2.184-12.147,3.346-7.665,2.207-16.186-.545-22.19-5.79-5.412-4.77-8.949-11.345-11.082-18.25-.24-.713-.454-1.447-.64-2.184-.479-1.779-.928-3.677-2.207-4.984a4.791,4.791,0,0,0-.973-.757c-2.563-1.567-6.243-.736-9.375-.24a65.706,65.706,0,0,1-12.983.428c-3.343-.12-6.692-.237-10.035-.331-3.229-.12-6.48-.24-9.729-.451-1.236-.048-2.495-.143-3.728-.262a81.124,81.124,0,0,1-16.018-2.752c-3.774-1.068-7.571-2.635-10.183-5.553-4.268-4.8-4.294-11.867-5.384-18.2-.4-2.349-1-4.747-1.567-7.143-.334-1.33-.64-2.683-.948-4.011-1.353-6.289-2.067-12.484.948-17.942,2.823-5.1,8.592-8.781,9.635-14.334a8.451,8.451,0,0,0,.143-1.068,12.216,12.216,0,0,0-.474-4.034c-.711-2.849-2.018-5.624-2.041-8.567-.025-6.1,5.364-10.751,10.608-13.883,2.181-1.3,4.533-2.609,6.666-4.082a26.6,26.6,0,0,0,3.608-2.872,15.014,15.014,0,0,0,3.466-4.673c3.917-8.45,7.331-25.584,19.435-26.081,2.869-.12,5.955,1.068,8.564-.166.214-.094.408-.214.6-.308a7.184,7.184,0,0,0,2.2-2.421c1.3-2.067,2.115-4.653,3.748-6.5a10.047,10.047,0,0,1,5.981-3.037,26.61,26.61,0,0,1,6.006-.26c2.446.14,5.1.308,7.094-1.116a14.76,14.76,0,0,0,2.732-3.086c4.34-5.5,8.516-5.435,14.5-5.079,6.717.405,8.993-2.658,14.593-5.79,5.649-3.157,12.766-.451,19.173-1.542a26.851,26.851,0,0,0,5.7-1.781c1.068-.4,2.115-.854,3.183-1.233.308-.12.614-.237.922-.334,5.672-1.921,11.775-2.207,17.776-2.467,5.481-.237,10.939-.5,16.4-.736,1.017-.046,2.064-.094,3.106-.094,1.091-.023,2.209-.023,3.323,0,9.278.214,18.818,2.158,23.183,9.872a22.906,22.906,0,0,1,5.815-1.5,24.025,24.025,0,0,1,5.53.025c11.011,1.282,21.428,9.729,23.186,20.882A23.845,23.845,0,0,1,326.017,96.3c.828,1.758,1.516,3.68,2.918,5.007a7.618,7.618,0,0,0,2.823,1.616c1.424.522,2.989.805,4.462,1.21.357.094.688.189,1.019.308,13.5,4.436,19.412,20.645,21.333,34.908,7.525,3.037,12.318,11.011,13.126,19.1.828,8.068-1.781,16.161-5.6,23.326-.262.5-.522.973-.785,1.473a13,13,0,0,0-1.447,4.034c0,.046-.02.117-.02.166" transform="translate(-5384.79 -11405.565)" fill="#fe0065"/>
        <path id="Trazado_128643" data-name="Trazado 128643" d="M135.748,58.111a2.23,2.23,0,0,0,.382-.64,18.3,18.3,0,0,0-1.781-1.218,7.293,7.293,0,0,0,.321,1.063c.51,1.3.573,1.351,1.078.8" transform="translate(-5259.459 -11403.033)" fill="#ff428c"/>
        <path id="Trazado_128644" data-name="Trazado 128644" d="M62.244,100.615c-.319-.469-.306-.66.3-1.162a3.834,3.834,0,0,0,1-1.356,1.423,1.423,0,0,0-.9-2.046c-.372-.084-.627-.341-.563-.576.059-.252.413-.4.787-.326.78.092,1.353-.293,1.231-1.524a2.4,2.4,0,0,1,.691-1.631c.525-.522.66-.894.436-1.221a1.585,1.585,0,0,1,.064-1.338,6.957,6.957,0,0,0,.206-2.688c-.12-1.447.018-2.039.54-2.558.018-.1.038-.171.056-.262C61.4,87.018,57.054,91.319,57.074,96.8c.025,2.943,1.33,5.718,2.041,8.567.018.061.023.12.038.181.675-.928,1.47-1.911,2.4-2.992.966-1.142.986-1.465.691-1.942" transform="translate(-5379.095 -11360.189)" fill="#ff428c"/>
        <path id="Trazado_128645" data-name="Trazado 128645" d="M69.838,88c-.833,1.437-1.08,3.183-.887,3.384.655.665.877.3,1.521-1.343a18.894,18.894,0,0,1,1.57-2.867c.39-.637.489-1.075.222-1.333-.191-.206-1.57.721-2.426,2.158" transform="translate(-5360.804 -11357.273)" fill="#ff428c"/>
        <path id="Trazado_128646" data-name="Trazado 128646" d="M101.269,70.219a5.008,5.008,0,0,0,1.835-.594c-1.4.161-1.794.382-1.835.594" transform="translate(-5310.673 -11382.331)" fill="#ff428c"/>
        <path id="Trazado_128647" data-name="Trazado 128647" d="M112.927,65.833c-1.323.736-1.588,1.422-.492,1.333.762-.069,2.146-1.373,1.919-1.766-.092-.168-.721.025-1.427.433" transform="translate(-5294.443 -11388.966)" fill="#ff428c"/>
        <path id="Trazado_128648" data-name="Trazado 128648" d="M114.377,64.275c-.313,1.027,1.19,1.2,2.095.27.708-.729.619-.846-.739-.976-1-.082-1.152,0-1.356.706" transform="translate(-5290.445 -11391.748)" fill="#ff428c"/>
        <path id="Trazado_128649" data-name="Trazado 128649" d="M98.708,70.367c-.724-1.256-1.2-1.241-.879-.53a1.259,1.259,0,0,0,.879.53" transform="translate(-5316.157 -11382.754)" fill="#ff428c"/>
        <path id="Trazado_128650" data-name="Trazado 128650" d="M98.829,70.8a1.465,1.465,0,0,0-1.1.2c-.178.183.13.395.719.489.548.094,1.108.005,1.149-.194s-.359-.423-.77-.492" transform="translate(-5316.229 -11380.55)" fill="#ff428c"/>
        <path id="Trazado_128651" data-name="Trazado 128651" d="M123.5,57.68c-.821.359-.8,1.338,0,1.251.573-.066,1.259-.749,1.21-1.277-.031-.344-.273-.344-1.213.025" transform="translate(-5277.195 -11401.258)" fill="#ff428c"/>
        <path id="Trazado_128652" data-name="Trazado 128652" d="M130.389,59.306c-.059.4.036.752.545.68a3.4,3.4,0,0,0,.076-1.325c-.3-.048-.558.219-.622.645" transform="translate(-5265.613 -11399.313)" fill="#ff428c"/>
        <path id="Trazado_128653" data-name="Trazado 128653" d="M117.158,59.7c-.013.637.91,1.111,1.068.571a.835.835,0,0,0-.2-.805c-.41-.339-.856-.234-.864.234" transform="translate(-5286.074 -11398.366)" fill="#ff428c"/>
        <path id="Trazado_128654" data-name="Trazado 128654" d="M129.116,58.851c1.266.657,1.529.448,1.162-.1-.255-.38-.474-.359-1.162.1" transform="translate(-5267.561 -11399.581)" fill="#ff428c"/>
        <path id="Trazado_128655" data-name="Trazado 128655" d="M95.2,69.9c.084.624.51,1.065.629.556a2.147,2.147,0,0,0,.01-.78c-.122-.622-.726-.459-.64.224" transform="translate(-5320.083 -11382.848)" fill="#ff428c"/>
        <path id="Trazado_128656" data-name="Trazado 128656" d="M71.016,103.534a17.84,17.84,0,0,0,2.51-4.087c.869-1.789,1.473-3.634,1.187-3.488-.354.074-1.4,2.7-3.7,7.576" transform="translate(-5357.51 -11341.575)" fill="#ff428c"/>
        <path id="Trazado_128657" data-name="Trazado 128657" d="M69.924,95.91c-.5.262-.558.4-.833,1.8-.311,1.516.477,2.072,1.223.815.6-1.055.291-2.984-.39-2.617" transform="translate(-5360.6 -11341.709)" fill="#ff428c"/>
        <path id="Trazado_128658" data-name="Trazado 128658" d="M68.222,98.107c-.209.433-.247.887-.076.994.456.306,1.035-.719.076-.994" transform="translate(-5362.122 -11338.235)" fill="#ff428c"/>
        <path id="Trazado_128659" data-name="Trazado 128659" d="M68.835,90.065c-.535.461-.5,1.063.046,1.244.3.082.612-.2.7-.606.168-.785-.214-1.1-.744-.637" transform="translate(-5361.48 -11351.021)" fill="#ff428c"/>
        <path id="Trazado_128660" data-name="Trazado 128660" d="M96.395,71.095a1.5,1.5,0,0,0,0-1.552c-.224-.349-.344-.423-.377-.143a3.942,3.942,0,0,0,.018.688c.038.51.028.922-.043.925s-.074.372.015.818a11.674,11.674,0,0,1,.168,1.356,14.956,14.956,0,0,0-1.633-3.5c-.059.538-.148.729-.293.736s-.166.293-.053.581c.324.826.525,1.129.65,1.1.061-.025.344.262.6.642.438.645.441.688.395.854a1.125,1.125,0,0,0,.721,1.366c.115.015.171-.051.2-.183a.942.942,0,0,0,.064-.41,8.716,8.716,0,0,0-.339-1.847c-.306-1.083-.324-1.2-.094-1.43" transform="translate(-5321.74 -11382.945)" fill="#ff428c"/>
        <path id="Trazado_128661" data-name="Trazado 128661" d="M76.418,86.462c.836-.227.568-.831-.336-.772-1.022.071-1.717,1.317-.971,1.679a5.2,5.2,0,0,1,1.307-.907" transform="translate(-5351.654 -11357.467)" fill="#ff428c"/>
        <path id="Trazado_128662" data-name="Trazado 128662" d="M77.5,85.228c.214-1.073-.1-1.33-.354-1.243-.245.948.056,1.21.354,1.243" transform="translate(-5348.166 -11360.123)" fill="#ff428c"/>
        <path id="Trazado_128663" data-name="Trazado 128663" d="M71.908,87.723c-.324-.482-.573-.527-.68-.41.377.466.609.477.68.41" transform="translate(-5357.183 -11355.031)" fill="#ff428c"/>
        <path id="Trazado_128664" data-name="Trazado 128664" d="M75.342,89.533a.458.458,0,0,1-.082.155c.008-.24-.117.754-.234,1.437-.135.782-.265,1.534-.382,2.209-.352,1.753-.668,3.323-.922,4.592-.869,3.578-1.014,5.114.168,2.421.224-.525.5-1.274.785-2.191.227-.757.476-1.723.614-2.456s.395-2.128.614-3.626c.094-.67.2-1.407.3-2.163.028-.173.043-.069.048-.12.059-.048.046-.1-.023-.145-.683-.242-.869-.194-.887-.112" transform="translate(-5354.383 -11351.612)" fill="#ff428c"/>
        <path id="Trazado_128665" data-name="Trazado 128665" d="M74.535,89.577a1.823,1.823,0,0,0-.367-.255c-.038-.005.046.084.209.206a3.88,3.88,0,0,0,.385.257c.048.025-.061-.074-.227-.209" transform="translate(-5352.644 -11351.836)" fill="#ff428c"/>
        <path id="Trazado_128666" data-name="Trazado 128666" d="M103.8,219.013c-2.4-2.176-4.52-4.347-5.769-5.542a66.647,66.647,0,0,1-7.051-8.057,27.863,27.863,0,0,1-4.513-7.645,13.982,13.982,0,0,1-.772-3.313,16.655,16.655,0,0,1-.018-3.975,15.739,15.739,0,0,1,.889-3.7c.4-1,.8-1.679.994-2.148a40.216,40.216,0,0,1,3.155-5.1c1.289-1.853,2.383-3.46,2.925-4.408.576-1,.708-1.465.52-1.605-.155-.145-3.379,3.68-5.6,6.432l-2.118,2.635a2.548,2.548,0,0,0-.55.91.753.753,0,0,0,.023.673c.209.461.178.581-.275.665-.6.074-.838.981-.454,1.455.092.125,0,.313-.211.433-.237.11-.418.647-.4,1.182a8.6,8.6,0,0,1-.344,2.214c-.349,1.272-.344,1.323-1.287,1.424a13.415,13.415,0,0,0-1.5.25c-.42.112-.568-.038-.635-.624-.094-.655.071-.8.7-.9.81-.138.994-.494.54-.884-.133-.125-.115-.525.168-.866.375-.482.336-.691-.036-1.07-.4-.405-.428-.561.064-.747.622-.245.385-.522-.594-.815-.714-.2-1.384-.961-1.249-1.371.143-.313.752-.168,1.432.278.591.382,1.43.443,1.58.168.087-.161-.173-.347-.813-.6-.866-.344-.915-.443-.66-1.078.382-.851-.79-2.3-1.343-1.414a1.328,1.328,0,0,1-.968.494c-.436-.005-.652.181-.693.568-.023.489-.122.545-.744.336-.93-.329-1.042-.033-.25.6.553.431.581.527.061.805-.762.408-1.335.186-1.4-.668a2.144,2.144,0,0,0-.591-1.157,1.514,1.514,0,0,1-.469-1.18c.336-2.09.382-2.321-.507-2.89s-.573-1,.354-.466a2.351,2.351,0,0,0,1.534-.036c.856-.293,1.162-.229,1.7.262a1.5,1.5,0,0,0,1.435.451c1.057-.189,1.85.6,1.542,1.409-.265.711.713,1.534,1.017,1.1.55.161.51.334.324.4.245.408.438.222.759-.42.5-1.052.252-2.908-.91-3.371-.642-.27-.762-1.236-.11-2.077,1.45-1.875,1.763-2.388,1.631-3.037-.1-.632-.321-.688-1.348-.395-1.628.41-1.972.071-1.394-1.921.487-1.7,3.139-5.746,4.026-6.182a2.869,2.869,0,0,0,1.853-2.816c-.125-1.078.11-1.381,1.853-4.095a12.353,12.353,0,0,0,2.069-4.76c.051-.849-.5-.843-1.61-.191-.956.55-1,.51-.956-.474.025-.571-.178-1.134-.454-1.259-.387-.178-.29-.627.42-2.156.079-.181.158-.359.219-.494a4.518,4.518,0,0,0,.372-2.326.9.9,0,0,1,.415-1.228c.51-.344.624-.708.459-1.47-.15-.675-.038-1.391.329-1.616.65-.578,2.028-.3,1.881.252a.692.692,0,0,0,.02.362.944.944,0,0,0,.173.489c.1.11.219-.056.354-.464a3.366,3.366,0,0,0,.3-.861c.189-.793.166-1.065-.082-.808-.311.329-.619.359-1.72.1-1.493-.336-1.506-.4-.685-1.241.377-.377.494-.7.329-.956a4.4,4.4,0,0,1,.576-2.533c.734-1.435,1.2-1.993.963-2.339-.232-.367-.094-.456.617-.349.871.143.828.1.782-.815-.028-.777.217-1.111,1.3-1.547.879-.306,1.358-.627,1.414-.943.053-.367.214-.441.553-.255a.989.989,0,0,0,.948-.1c.581-.433,2-.153,2.212.392.087.2-.064.385-.341.405-.652.033-1.534,1.43-1.2,1.875.242.357.958.418,1.766.227l1.58-.316a13.418,13.418,0,0,0,1.539-.329c1.432-.382,2.569-.7,3.445-1,1.728-.589,2.2-.989,2.166-1.43-.069-.917,1.827-1.784,3.575-1.689a8.69,8.69,0,0,0,3.725-1.18c1.982-.981,4.523-2.462,6.526-3.636,1.962-1.165,3.206-2.046,3.114-1.715a11.71,11.71,0,0,1-.953,1.43c-.515.7-.665,1.289-.349,1.623a7.01,7.01,0,0,1,1.017,1.621c.53,1.144,1.537.915,2.181-.538a9.488,9.488,0,0,1,2.3-2.174c2.479-1.949,2.6-3.091.813-3.473-1.256-.278-2.179-.979-1.794-1.3,0,0,.39-.459.663-.849.38-.55.642-.51,1.175.181a3.667,3.667,0,0,0,3,.8c1.175-.082,2.319-.517,2.6-1.2.627-1.215,4.289-5.856,4.923-6.077.375-.138.571.122.693.928.206,1.424.747,1.99,1.626,1.613.578-.245.688-.15.759.652.094,1.17-1.2,2.051-1.9,1.292a1.43,1.43,0,0,0-1.47-.1c-1.187.53-1.613,1.5-.637,1.463,1.147-.038,1.323,1.233-.01,2.214a5.111,5.111,0,0,0-1.552,1.975c-.42,1.33-2.184,2.91-4.436,4.085-1.5.787-1.8,1.017-2.653,3.012-.846,1.817-1.221,2.319-2.671,2.958a19.176,19.176,0,0,0-5.884,3.728,14.776,14.776,0,0,1-2.388,1.552,32.465,32.465,0,0,1-3.427,1.5c-1.037.357-2,.721-2.727,1.027a3.35,3.35,0,0,0-1.144.6c-.122.357-3.114,1.419-6.146,2.123-.471.107-1.18.436-1.1.568-.054.178-.059.326-.186.4-.306.219.133.5.408.685a.686.686,0,0,1,.153.158c.031.023.005.061.074.066a4.182,4.182,0,0,0,.5-.138l.543-.161c.854-.255,2.484-.78,5-1.661a81.218,81.218,0,0,0,10.218-4.352,59.455,59.455,0,0,0,6.072-3.644,50.285,50.285,0,0,0,4.936-3.733,40.27,40.27,0,0,0,3.466-3.119c.889-.892,1.6-1.6,2.061-2.072,1.542-1.687,4.477-5.03,6.233-7.237,1.616-1.952,2.668-3.4,3.669-4.752.871-1.228,1.6-2.316,2.2-3.292a27.1,27.1,0,0,0,2.444-5.158c.354-.981-.084-1.351-1.17-.953-1.022.375-1.458.122-1.1-.663a9.381,9.381,0,0,0,.479-1.5,2.235,2.235,0,0,1,1.063-1.384c1.017-.606,1.735-.2,1.249.471-.387.563-.1,1.791.42,1.85.907-.089,3.259-2.668,2.961-3.175a1.716,1.716,0,0,1,.426-1.027c.227-.275-.031-.336-.313-.861a9.63,9.63,0,0,1-1.45-2.515,9.891,9.891,0,0,0-.652-1.455c-.25-.438-.4-.823-.331-.846s.125-.189.14-.367c-.008-.211.362-.471.734-.759.347-.347.787-.606.833-.976.158-.8.451-.8.612.082a1.474,1.474,0,0,0,.217.629c.15.181.336-.018.8-.405.38-.352.617-.339.652-.084.079.446.555.668.568.211.041-.5.046-.9.339-1.07a.756.756,0,0,1,.933.115c.619.487.821.5,1.328.079.512-.349.971-.377,2.1-.031a11.642,11.642,0,0,0,4.918.168c1.743-.27,3.3-.884,3.573-1.616,1.351,1.552,2.8,1.794,6.021.609,2.049-.841,2.123-.866,4.092-.459l.489.107a2.941,2.941,0,0,0,2.418-.41,5.841,5.841,0,0,1,2.357-.8,2.834,2.834,0,0,0,1.84-.714,3.2,3.2,0,0,1,1.452-.9,8.448,8.448,0,0,0,2.276-1.5,6.306,6.306,0,0,0,1.529-1.814c.11-.247.973-.477,1.873-.538,1.621-.1,1.735-.163,2.612-1.43a10.46,10.46,0,0,1,2.467-2.291,23.8,23.8,0,0,0,2.161-1.547,1.1,1.1,0,0,1,1.432-.082c1.014.617,1.21.471,1.458-1.05.173-1.06.372-1.315,1.58-1.891,1.437-.673,2.737-2.342,2.344-2.976,1.516.494,2.214-.714,1.526-1.682-.392-.54-.324-.8.405-1.307.622-.428.777-.747.54-1.1-.859-1.218,1.017-2.077,4.019-1.488a1.212,1.212,0,0,0,.973-.237.768.768,0,0,0-.364-1.322c.153-.94.4-.887.928-.291,1,1.114,2.021.553,1.638-.866-.2-.724-.13-1.139.232-1.317s.586-.036.711.456a2.509,2.509,0,0,0,1.119,1.226c.517.3.866.663.79.805s.428.41,1.1.6c1.73.487,3.144-.736,1.748-1.644-.849-.53-.864-.527-.27-1.4a2.755,2.755,0,0,0,.545-1.254c.871-.29,1.289-.522,1.463-.859,1.029,0,.606,1.317-.031,1.585-.339.14-.591.436-.558.655.084.568.566.441.953-.255a1.953,1.953,0,0,1,1.422-.7c.958-.069,1.121-.242,1.374-1.394.321-1.475.744-1.623,1.728-.752.51.456.747.489,1.042.145.561-.634,1.052-.535.821.148-.324.979.178,1.353.882.65.507-.522,1.328-.673,3.644-.632,4.712.206,5.214.525,5.058,1.98-.089.861.028,1.264.372,1.31.362,1.389,1.9.808,3.611-.594,2.016-1.669,2.813-1.8,2.592-.688a1.817,1.817,0,0,0,.838,1.47c1.315,1.1,1.435,1.075,1.743-.257.568-2.477,1.027-3.838,1.251-3.792,0,0,.115-.265.255-.678a41.066,41.066,0,0,0-14.39-2.543c-1.116-.023-2.232-.023-3.323,0-1.045,0-2.089.048-3.109.094-5.458.24-10.916.5-16.4.736-6,.262-12.1.545-17.776,2.469-.308.094-.617.214-.925.331-1.068.38-2.112.831-3.18,1.233a26.942,26.942,0,0,1-5.7,1.781c-6.406,1.091-13.526-1.616-19.175,1.542-5.6,3.132-7.876,6.195-14.593,5.79-5.981-.354-10.157-.426-14.5,5.079a14.821,14.821,0,0,1-2.729,3.086c-1.993,1.424-4.65,1.259-7.1,1.116a26.887,26.887,0,0,0-6,.26,10.046,10.046,0,0,0-5.981,3.037c-1.636,1.853-2.444,4.439-3.748,6.5a7.217,7.217,0,0,1-2.207,2.421c-.191.094-.38.214-.594.308-2.609,1.233-5.7.048-8.567.166a11.857,11.857,0,0,0-2.747.469c-.308.329-.589.525-.879.81l-.5.471-.456.285a10.006,10.006,0,0,1-2.418,1.345c-.423.176-.94.367-1.437.553-4.031,4.054-6.493,10.524-8.585,16.11,1.361-.578,2.742-1.208,4.2-1.939,4.653-2.324,8.985-3.172,9.632-2.225.892-.915.922-.9,1.577-.387a6.11,6.11,0,0,1,.77.78c.194.477-1.073,1.152-1.656.889-.42-.189-.614-.074-.838.441-.217.492-.652.719-1.524.79a3.851,3.851,0,0,0-2.2.925,6.44,6.44,0,0,1-2.133,1.136,2.437,2.437,0,0,0-1.3.673c-.059.158-1.116.553-3.713,1.554-1.205.482-2.767,1.1-4.628,2.036-.2.469-.395.935-.594,1.363a15.014,15.014,0,0,1-3.466,4.676,26.406,26.406,0,0,1-3.606,2.869c-1.2.826-2.456,1.593-3.723,2.344-.55.739-1.063,1.328-1.361,1.3-.966-.107-1.717,2.637-.882,3.045a2.662,2.662,0,0,1,.441,2.936c.441,1.419.39,1.56-.222,1.883a1.179,1.179,0,0,0-.418,2.021c.387.454.395.93.02,2.008a10.745,10.745,0,0,0-.405,3.3,8.484,8.484,0,0,1-.061,1.435,1.439,1.439,0,0,1-.8,1.063c-1.042.612-1.266,1.154-1.371,2.846a3.572,3.572,0,0,1-.9,2.176,4.04,4.04,0,0,0-.966,1.779c-.148.772-.329,1.029-.889,1.157-.533.122-.7.319-.675.805.094.836-2.785,4.271-4.194,5.3a22.887,22.887,0,0,1-1.891,2.635c-.018.387-.143.563-.336.41-2.028,2.436-4.388,4.775-5.909,7.52-3.012,5.458-2.3,11.653-.948,17.942.308,1.328.617,2.681.948,4.011.571,2.4,1.165,4.793,1.567,7.143,1.091,6.335,1.116,13.409,5.387,18.2,2.609,2.92,6.406,4.485,10.18,5.553a81.123,81.123,0,0,0,16.018,2.752c1.236.12,2.492.214,3.725.262,3.251.214,6.5.331,9.732.451,3.346.094,6.692.214,10.037.331.115.005.227.008.341.01-.665-.632-1.363-1.284-2.166-2.026-1.488-1.32-4-3.552-6.531-5.8m51.366-125.18c.178-.087.464.038.65.283.372.492.369.522-.168.431a.821.821,0,0,1-.617-.229.338.338,0,0,1,.135-.484m-1.435,1.088a1.633,1.633,0,0,1,1.19,1.539c.1,1.032.359,1.279.95.968.637-.217,1.088.288,1.114,1.1-.023.721-.115.826-.762.764-.464-.038-.736-.186-.719-.4.041-.484-.4-.887-.706-.627-.652.55-1.781-.1-2.028-1.266-.283-1.272.222-2.4.961-2.074m-1.837,2.813c.826.42.767.877-.3,2.082-1.154,1.338-1.656,1.524-1.807.214-.135-1.279,1.246-2.7,2.1-2.3m-3.993,5.782c.3-.787.27-.767,1.108-.742.948.076.956.428-.071,1.147-.938.647-1.374.479-1.037-.405m-3.03,3.1c1.977-2.263,2.915-2.513,2.688-1.116-.041.227.173.5.474.614a1.221,1.221,0,0,1,.652.91,1.712,1.712,0,0,0,.912,1.157c.8.395.785.459-.339,1.437-2.1,1.822-3.909,2.028-2.655.183,1.654-2.5,1.61-3.267-.1-1.9a2.355,2.355,0,0,0-1.065,1.7c-.145,1.542-1.832,1.858-2.3.426-.359-.976-.161-1.243,1.733-3.412m-7.153-26.037a1.716,1.716,0,0,1-.41,2.632,1.141,1.141,0,0,1-1.878-.953c-.013-1.261,1.618-2.472,2.288-1.679m-10.488-.94c1.621.191,1.8,1,.6,2.276-1.338,1.48-2.265,1.394-2.431-.262s.311-2.181,1.827-2.013m-2.342,4.24c.517-.059.573.66.14,1.154a.554.554,0,0,1-.787.059c-.405-.377-.023-1.134.647-1.213m-2.961.566c.5-.048.594.645.155,1.147a.56.56,0,0,1-.792.061c-.413-.372-.005-1.144.637-1.208M109.3,102.482c.581-.275.691-.232.838.841.127,1.035-.357,1.159-.889.2-.331-.586-.321-.866.051-1.045M90.729,120.5c-.247-.138-.265-.568-.028-.986.642-1.027,1.063-1.1.976-.189-.084,1.017-.4,1.47-.948,1.175m.856,7.237c-.706-.968-.224-1.71.851-1.259-.145,2.286-.051,2.319-.851,1.259m1.944-8.809c-.51-.489-.023-.907,1.3-1.134.512-.076.928.076.925.321-.015.665-1.71,1.31-2.225.813m-2.785-3.071c1.85-.479,3.04-.884,3.236-1.177a4.314,4.314,0,0,1,2.028-.7c1.376-.2,1.661.423.772,1.287a19.022,19.022,0,0,1-4.689,2.072c-1.99.716-3.876,1.422-4.166,1.139-.961-.922-.352-1.746,2.818-2.617M82.2,165.017a5.37,5.37,0,0,0,1.351-2.528c-.094-.7.53-1.559,2.217-3.687.963-1.251,1.3-1.228,1.348.334a1.568,1.568,0,0,1-.657,1.509c-.884.573-2.507,2.862-2.151,3.111.153.1-.609,1.386-1.646,2.642a18.929,18.929,0,0,1-2,2.115c-.415-.364.27-1.891,1.542-3.5m-3.978-16.189a19.754,19.754,0,0,0,.382-2.209,3.992,3.992,0,0,1,.219-.833c.268-.818.726-1.58,1.029-1.5s.347.762.107,1.771a13.776,13.776,0,0,1-.711,1.893c-1.269,2.38-1.363,2.416-1.027.877m.206,28.076c.01.181-.3.324-.663.313-.064-.828.652-.782.663-.313m-.729,9.212c.629.471.387,1.154-.525,1.5-.7.275-.772.265-.843-.426-.145-1.376.484-1.766,1.368-1.07m-2.9-1c.556.262.971,1.032.655,1.17a1.315,1.315,0,0,1-.808-.117c-.637-.275-.433-1.333.153-1.052m-.158,4.171c.056-.563.173-.586,1.616-.459,1.621.161,2.569.866,1.022.856a2.648,2.648,0,0,0-1.139.242,1.556,1.556,0,0,1-1.007.117.717.717,0,0,1-.492-.757m1.646,4.928c-1.1.214-1.4,0-.854-.6.339-.372.525-.4,1.052-.247.9.268.828.642-.2.843m.665-3.262c-.882.15-.714-.556.214-.849a1.932,1.932,0,0,1,1.007-.11c.339.181-.52.833-1.221.958m5.323,3.728c-.347.265-.5.306-.719.153-.385-.316-.186-.571.645-.8.629-.176.627.219.074.647m3.868,18.2a3.861,3.861,0,0,1-.535,1.779c-.385.548-.655.617-1.1.27-1.407-1.162-.917-2.671.775-2.951.91-.155.894-.138.859.9" transform="translate(-5384.789 -11405.565)" fill="#ff428c"/>
        <path id="Trazado_128681" data-name="Trazado 128681" d="M176.528,73.195c-.665.023-1.32.087-1.975.166-6.195,4.21-12.527,7.884-20.724,8.037-10.185.189-27.627-4.982-32.589-14.479a.411.411,0,0,0-.759.206c-.609,10.993,19,16.1,27.169,17.506,8.524,1.473,16.627-.431,23.843-4.345,2.383-1.875,4.709-4.072,5.035-7.092" transform="translate(-5280.951 -11386.834)" fill="#de0057"/>
        <path id="Trazado_128682" data-name="Trazado 128682" d="M126.6,65.7c-.237,3.631-1.684,5.6-2.966,8.852-2.563,6.549-.711,10.014-2.278,16.018-1.376,5.316-5.838,7.973-11.082,8.424-6.669.594-15.118-1.093-20.457-5.221a15.884,15.884,0,0,1-3.157-3.466,15.228,15.228,0,0,1-4.294,10.8c-.617.545-1.921,0-1.544-.9a29.586,29.586,0,0,0,2.541-8.97c.214-3.277-.808-6.123-1.376-9.3,0-.048.023-.12.023-.166a37.7,37.7,0,0,0-4.154-6.977,7.2,7.2,0,0,0,2.209-2.421c5.219,5.053,8.424,15.424,13.834,18.818,3.891,2.444,10.274,5.007,15,3.845,11.556-2.849,8.068-7.025,8.542-13.337.5-6.218,4.391-10.679,6.74-16.326.474-1.187,2.538-1.187,2.421.331" transform="translate(-5346.929 -11390.242)" fill="#de0057"/>
        <path id="Trazado_128683" data-name="Trazado 128683" d="M63.139,126.911c-1.162.214-2.064-1.47-.854-2.041,9.492-4.413,19.15-10.086,20.74-21.428,1.661-11.89-6.928-16.257-15.852-19.769A26.6,26.6,0,0,0,70.781,80.8c8.638,2.943,15.97,9.326,16.563,19.1.854,14.168-11.153,24.679-24.205,27.006" transform="translate(-5371.917 -11365.028)" fill="#de0057"/>
        <path id="Trazado_128684" data-name="Trazado 128684" d="M78.5,93.538c-4.819,5.27-13.266,6.977-20.289,4.984a8.57,8.57,0,0,0,.14-1.068,12.141,12.141,0,0,0-.474-4.034c5.718,2.4,12.175,1.091,19.555-1.71,1.091-.4,1.733,1.091,1.068,1.827" transform="translate(-5377.855 -11348.243)" fill="#de0057"/>
        <path id="Trazado_128685" data-name="Trazado 128685" d="M79.268,107.3c-5.221,5.5-15.947,8.827-24.468,7.025-.331-1.33-.64-2.683-.948-4.011,7.736,1.9,16.612-1.758,23.66-5.27a1.446,1.446,0,0,1,1.756,2.255" transform="translate(-5384.083 -11327.76)" fill="#de0057"/>
        <path id="Trazado_128686" data-name="Trazado 128686" d="M78.145,135.815c-1.233-.048-2.492-.143-3.725-.262a19.009,19.009,0,0,0-3.56-9.681c-3.3-4.413-8.71-6-8.236-12.27a.728.728,0,0,1,1.424-.189c1.638,5.29,7.12,6.406,10.228,10.369,2.327,2.966,3.109,6.883,3.654,10.537l.214,1.5" transform="translate(-5370.549 -11315.341)" fill="#de0057"/>
        <path id="Trazado_128687" data-name="Trazado 128687" d="M79.526,128.7c-10.351-6.878-7.866-19.98-3.692-29.686.512-1.193-1.114-2.245-1.791-1.047-6.075,10.707-10.445,27.734,4.37,33.376,1.6.612,2.408-1.784,1.114-2.642" transform="translate(-5361.571 -11339.271)" fill="#de0057"/>
        <path id="Trazado_128688" data-name="Trazado 128688" d="M117.842,89.162c-3.259.675-6.037,2.033-9.482,1.687-3.122-.316-5.611-1.842-8.5-2.862-.7-.247-1.142.586-.879,1.144,1.187,2.551,3.848,4.312,6.913,5.206-.033,1.819.181,3.646.2,5.471a28.773,28.773,0,0,0,.158,5.779A16.465,16.465,0,0,1,95.026,115.63c-8.088,2.12-11.48-3.353-17.519-6.763a.3.3,0,0,0-.436.178c-.8,3.891,1.149,6.7,4.192,8.564-.046.046-.107.069-.135.135-2.625,6.039-1.845,13.877,2.9,18.694,6.4,6.5,16.349,7.02,20.278,16.288.4.953,1.748.367,1.8-.487.339-6.235-4.253-9.726-9.4-12.456-4.011-2.125-8.949-3.68-11.559-7.693-2.683-4.125-1.7-9.209-2.625-13.783,4.589,2.237,10.891,2.671,14.593,1.557,7.724-2.321,17.2-11.9,13.579-20.3A17.456,17.456,0,0,0,110,95c3.659.133,7.27-.922,9.3-3.325a1.515,1.515,0,0,0-1.46-2.51" transform="translate(-5348.415 -11353.973)" fill="#de0057"/>
        <path id="Trazado_128689" data-name="Trazado 128689" d="M218.88,119.814c-.451,24.277-29.4,36.926-49.432,40.437-2.23.4-4.556.736-6.951,1.022a33.791,33.791,0,0,1-5.721.948,1.04,1.04,0,0,1-.782-.237c-28.073,2.778-63.386,3.8-66.946,35.547-.237-.711-.451-1.447-.64-2.181-.474-1.781-.925-3.68-2.207-4.984a4.9,4.9,0,0,0-.973-.759c4.011-16.612,27.577-26.746,42.738-29.1,3.417-.52,6.86-.9,10.3-1.256a.586.586,0,0,1,.1-.166c7.782-9.8,6.857-19.7,2.7-30.708-1.947-5.2-5.293-10.585-4.864-16.4.357-5.173,3.18-8.116,6.906-11.367,7.334-6.432,10.537-11.51,13.717-20.574a1.091,1.091,0,0,1,2.135.283c.451,6.243-2.089,11.938-6.195,16.637a44.139,44.139,0,0,1-5.079,4.6c-8.85,7.476-6.714,16.423-3.178,25.867,3.843,10.277,6.075,23.423-2.469,31.468,7.1-.64,14.214-1.139,21.262-2.087,6.1-3.206,10.442-7.713,10.442-16.3,0-3.631-.948-7.285-1.3-10.845-.571-5.649-.928-11.416,1.684-16.66,4.271-8.5,11.3-13.169,11.367-24.014.023-4.8.308-7.285,4.154-10.42.117-.094.283.025.212.143-4.722,7.973-.354,16.8-5.053,24.893-4.034,6.931-8.33,8.567-9.281,17.919-.52,5.173,1.473,10.417,1.875,15.541.594,7.619-.948,13.788-4.65,18.13,1.875-.4,3.748-.831,5.6-1.351,13.217-3.631,22.852-10.157,29.9-19.863-.191-2.278-.166-4.556-.38-6.834-.334-3.631-1.3-7.191-1.9-10.8a.858.858,0,0,1,1.565-.64,21.506,21.506,0,0,1,3.774,13.6,73.109,73.109,0,0,0,4.77-9.872c.571-1.4,2.849-1.33,2.8.38" transform="translate(-5335.509 -11368.537)" fill="#de0057"/>
        <path id="Trazado_128690" data-name="Trazado 128690" d="M209.731,99.767c-.446-.629-1.3.064-1.144.739,3.534,15.478-.9,26.264-15.174,30.634-7.548,2.309-14.864,3.371-22.22,6.641-15.078,6.7-29.806,6.009-45.554,8.641-7.971,1.333-21.721,4.625-25.232,14.318C98.143,166.991,101.718,174,108,171.845c.9-.308,1.1-2.079,0-2.253q-4.549-10.92,2.986-14.132,2.775-1.334,5.547-2.665a50.854,50.854,0,0,1,9.574-2.515c7.667-1.371,15.475-1.391,23.183-2.314,12.733-1.526,22.844-8.536,35.048-11.6,9.574-2.4,20.411-3.5,25.976-13.8,3.776-6.995,3.99-16.364-.584-22.8" transform="translate(-5313.066 -11336.049)" fill="#de0057"/>
        <path id="Trazado_128691" data-name="Trazado 128691" d="M114.083,143.171a4.775,4.775,0,0,0-.545.166,15.584,15.584,0,0,0-2.184,1.068c.071-2.632-.665-5.219-.95-7.879a15.05,15.05,0,0,1,.025-4.722,6.969,6.969,0,0,1,.759-2.586,6.612,6.612,0,0,1,1.59-1.21.484.484,0,0,1-.477-.308,2.043,2.043,0,0,0-.094-.308.55.55,0,0,1,.38-.665,3.285,3.285,0,0,1,.428-.166.769.769,0,0,1,.854.331c.879,1.97-1.019,3.988-1.185,6.029-.311,3.44,1.256,6.786,1.4,10.251" transform="translate(-5296.802 -11294.24)" fill="#de0057"/>
        <path id="Trazado_128692" data-name="Trazado 128692" d="M156.243,138.272c-4.842,5.03-12.506,3.157-17.8,6.928-6.169,4.391-3.132,10.254-10.369,13.337l-1.068.428c-1.022-.237-2.018-.5-3.015-.785-.95-.283-1.993-.64-3.06-1.042a16.723,16.723,0,0,0,4.865-1.9c5.221-3.206,4.128-6.954,7.214-10.7,2.3-2.755,5.672-3.94,9.018-4.913,5.41-1.567,10.725-.594,13.5-8.236-.262,0,1.139-8.519,1.233-8.993a1.291,1.291,0,0,1,2.467,0c1.353,5.267,1.022,11.722-2.989,15.875" transform="translate(-5280.229 -11302.039)" fill="#de0057"/>
        <path id="Trazado_128693" data-name="Trazado 128693" d="M213.073,121.543c-2.586,2.161-5.744,3.94-6.857,7.048a6.232,6.232,0,0,0-.38,1.733,27.755,27.755,0,0,1-19.792.4c-6.694-2.515-9.4-6.834-9.755-12.221-6.026,8.733-14.9,15.236-25.8,16.66-1.091.143-1.045-1.376-.237-1.71,12.221-5.053,21.667-11.864,27.266-24.228.831-1.875,3.68-.5,3.206,1.376-6.075,23.706,21.476,17.488,32.344,10.939" transform="translate(-5235.751 -11322.401)" fill="#de0057"/>
        <path id="Trazado_128694" data-name="Trazado 128694" d="M141.8,82.6c-2.637,5.958-6.765,9.943-11.867,13.811-5.578,4.225-12.766,7.713-14.925,15.093-2.352,8.068,1.942,13.48,7,18.818a1.113,1.113,0,0,1-1.353,1.733,15.157,15.157,0,0,1-7.308-6.811c-.688,3.015-2.018,4.556-3.68,7.665-3.583,6.692-4.768,11.747-3.417,19.246,1.093,6.218,3.394,12.458,2.184,18.841-1.493,7.785-8.113,14.713-16.232,11.225-1.091-.451-.474-2.135.594-2.135,5.792,0,12.2-10.7,12.435-15.781.143-3.251-1.091-6.5-1.684-9.683a43.849,43.849,0,0,1-1.259-10.394c.405-8.21,6-14.048,10.157-20.763a20.493,20.493,0,0,1,2.4-18.938c5.861-8.022,16.469-11.034,21.807-19.6,5.507-8.829,5.244-18.63,1.613-27.648,1.068-.4,2.112-.854,3.18-1.233A31.391,31.391,0,0,1,141.8,82.6" transform="translate(-5325.607 -11403.351)" fill="#de0057"/>
        <path id="Trazado_128695" data-name="Trazado 128695" d="M196.3,129.807c-6.049-7.532-5.053-11.339-3.975-20.319.176-1.465.663-2.994.293-4.442-.688-2.716-2.775-4.187-5.163-5.262-5.927-2.673-14.094-1.509-20.309-2.757-12.277-2.464-19.942-9.095-23.782-21.2-.245-.767-1.559-.92-1.718,0-2.67,15.74,14.96,24.187,27.893,26.134,3.639.55,8.032-.025,11.523.968q5.737-1.1,5.043,4.65a6.564,6.564,0,0,1,.558,5.463c0,1.007-.405,2.459-.426,3.511a16.764,16.764,0,0,0,1.819,8.1c-8.45,5.769-9.3,18.887-1.61,25.719,1,.889,2.765-.265,1.952-1.506-5.058-7.721-4.625-15.241,1.157-21.879a14.519,14.519,0,0,0,5.644,4.243.913.913,0,0,0,1.1-1.427" transform="translate(-5248.574 -11373.712)" fill="#de0057"/>
        <path id="Trazado_128696" data-name="Trazado 128696" d="M125.406,80.952c-.454.474-1.284-.143-.9-.688,5.458-7.9,6-16.754,4.391-25.63,1.091-.023,2.207-.023,3.323,0,3.155,9.041-.308,19.389-6.809,26.318" transform="translate(-5274.854 -11405.565)" fill="#de0057"/>
        <path id="Trazado_128697" data-name="Trazado 128697" d="M148.758,58.026a30.254,30.254,0,0,0-4.77,5.672c-2.918,4.533-3.346,10.394-6.477,14.616a.334.334,0,0,1-.571,0c-2.609-5.1.9-12.244,3.631-16.612a35.172,35.172,0,0,1,2.658-3.7,23.883,23.883,0,0,1,5.53.023" transform="translate(-5256.869 -11400.555)" fill="#de0057"/>
        <g id="Grupo_136131" data-name="Grupo 136131" transform="translate(-5331.161 -11373.438)">
          <path id="Trazado_128716" data-name="Trazado 128716" d="M147.2,38.656c-1.809-.922-4.6-.612-6.539-.736q-4.568-.287-9.133-.584,3.792-10.366,6.781-20.992a1.39,1.39,0,0,0-1.33-1.748,107.723,107.723,0,0,0-19.394,3.157.963.963,0,0,0-.464,1.626c-1.835,7.652-3.3,15.343-5.313,22.949-1.213,3.091-2.189,6.258-3.211,9.418-.4,1.226.81,2.026,1.873,1.875q9.082-1.3,18.156-2.648A119.2,119.2,0,0,0,123.5,82.72a1.382,1.382,0,0,0,2.556.693c7.079-12.55,14.283-25.039,21.247-37.652,1.277-2.314,3.091-5.474-.1-7.1m-4.026,8.863q-1.991,3.532-3.985,7.058-6.311,11.18-12.624,22.36a114.62,114.62,0,0,1,5.56-27.35c.4-1.185-.792-1.949-1.809-1.809q-9.028,1.254-18.051,2.538c.882-2.709,1.753-5.417,2.413-8.192a1.544,1.544,0,0,0,.031-.533A89.9,89.9,0,0,0,118.3,19.731c5.57-.882,11.159-1.682,16.777-2.194q-3.058,10.477-6.855,20.707a1.415,1.415,0,0,0,1.353,1.776q3.838.229,7.675.454c1.906.112,5.073-.321,6.822.405,3.229,1.338.347,4.434-.9,6.641" transform="translate(31.859 -14.593)" fill="#fff"/>
          <path id="Trazado_128717" data-name="Trazado 128717" d="M107.064,43.176c-1.58.2-3.257,1.636-4.564,2.411q-3.092,1.831-6.182,3.657-2.118-8.4-4.877-16.607a1.091,1.091,0,0,0-1.636-.545A84.554,84.554,0,0,0,78.626,42.707a.755.755,0,0,0,.415,1.259c2.194,5.772,4.64,11.406,6.7,17.226.578,2.541,1.345,5.025,2.077,7.527a1.214,1.214,0,0,0,2.046.387q5.313-4.854,10.6-9.737a93.62,93.62,0,0,0,10.7,22.847,1.084,1.084,0,0,0,1.962-.68c-.956-11.266-1.8-22.544-2.859-33.8-.194-2.067-.413-4.918-3.206-4.561m1.3,7.525.535,6.337q.845,10.037,1.692,20.075a89.883,89.883,0,0,1-8.478-20.189,1.17,1.17,0,0,0-1.972-.372q-5.3,4.8-10.583,9.619c-.624-2.146-1.259-4.286-2.056-6.378a1.121,1.121,0,0,0-.214-.359,70.461,70.461,0,0,0-7.331-15.761c3.226-3.032,6.5-6.021,9.912-8.837q2.645,8.145,4.7,16.456a1.113,1.113,0,0,0,1.664.556q2.588-1.552,5.175-3.1c1.287-.77,3.15-2.449,4.6-2.752,2.686-.558,2.184,2.721,2.352,4.7" transform="translate(-14.761 -3.864)" fill="#fff"/>
          <path id="Trazado_128718" data-name="Trazado 128718" d="M174.189,49.912c-1.172-1.078-3.351-1.435-4.786-1.934l-6.781-2.37q5.053-7.033,9.556-14.433a1.094,1.094,0,0,0-.64-1.6,84.672,84.672,0,0,0-15.322-1.7A.755.755,0,0,0,155.524,29c-3,5.4-5.731,10.9-8.855,16.224-1.57,2.079-2.976,4.268-4.416,6.439a1.211,1.211,0,0,0,1.022,1.812q7.136.936,14.28,1.832a93.447,93.447,0,0,0-10.57,22.908,1.083,1.083,0,0,0,1.784,1.063c8-7.991,16.077-15.908,24-23.973,1.455-1.478,3.494-3.483,1.422-5.389m-4.913,5.848-4.5,4.5L150.519,74.49a89.8,89.8,0,0,1,9.971-19.5,1.169,1.169,0,0,0-.986-1.748q-7.087-.959-14.176-1.891c1.236-1.863,2.467-3.725,3.55-5.682a1.131,1.131,0,0,0,.135-.4,70.541,70.541,0,0,0,7.329-15.763c4.4.51,8.789,1.083,13.141,1.881q-4.518,7.278-9.548,14.2a1.112,1.112,0,0,0,.647,1.628q2.851.982,5.705,1.962c1.417.487,3.9.828,5.071,1.746,2.156,1.692-.675,3.422-2.082,4.829" transform="translate(83.772 -10.095)" fill="#fff"/>
          <path id="Trazado_128719" data-name="Trazado 128719" d="M79.055,58.558c-6.834-3.509-17.646-3.894-24.967-1.842A.913.913,0,0,0,54.33,58.5c4.013.479,8.062.42,12.081.9,3.99.471,7.876,1.786,11.867,2.028a1.549,1.549,0,0,0,.777-2.867" transform="translate(-53.435 32.634)" fill="#fff"/>
          <path id="Trazado_128720" data-name="Trazado 128720" d="M77.4,60.193c-1.837-2.365-4.6-4.217-6.765-6.309-2.217-2.143-4.457-4.261-6.684-6.388-.759-.729-2.161.234-1.514,1.167a59.825,59.825,0,0,0,5.993,7.425c2.133,2.222,4.421,4.984,7.127,6.493,1.608.9,2.854-1.086,1.842-2.388" transform="translate(-39.754 19.895)" fill="#fff"/>
          <path id="Trazado_128721" data-name="Trazado 128721" d="M186.159,44.143c-7.65,6.052-16.288,12.055-22.743,19.4-.823.938.229,2.533,1.394,1.807,8.434-5.272,15.967-12.611,23.721-18.839,1.689-1.356-.7-3.695-2.372-2.372" transform="translate(116.382 14.495)" fill="#fff"/>
          <path id="Trazado_128722" data-name="Trazado 128722" d="M183.194,52.905c-4.923.222-10.369,1.825-14.053,5.209a1.017,1.017,0,0,0,.981,1.689c4.429-1.506,8.368-2.958,13.072-3.45,2.158-.224,2.255-3.55,0-3.448" transform="translate(125.249 28.664)" fill="#fff"/>
        </g>
      </g>
      <g id="Grupo_136130" data-name="Grupo 136130" transform="translate(6565.008 11659.755)">
        <path id="Trazado_128669" data-name="Trazado 128669" d="M147.451,182.264c0,4.5-32.09,4.127-70.329,4.127s-68.93.374-68.93-4.127c0-3.3,31-4,69.235-4s70.024,2.122,70.024,4" transform="translate(-5748.838 -11081.655)" fill="#e6e6e6"/>
        <rect id="Rect치ngulo_36329" data-name="Rect치ngulo 36329" width="139.258" height="8.133" transform="translate(-5740.646 -10903.389)" fill="none"/>
        <path id="Trazado_128705" data-name="Trazado 128705" d="M30.01,233.7a5.37,5.37,0,0,0,.242,3.139,5.336,5.336,0,0,0,2.114,1.955,14.317,14.317,0,0,0,2.978,1.342,37.753,37.753,0,0,0,7.94,1.584,2.584,2.584,0,0,1,1.636.536,1.751,1.751,0,0,1-.055,2.307c-2.655,3.165-7.7,2.894-11.4,2.626-3.191-.242-6.382-.481-9.573-.59-2.062-.052-5.362,1.129-6.84-.884-.881-1.181-.481-2.817-.081-4.236.19-.619.348-1.235.487-1.878,1.794-7.162,2.171-14.644,2.572-21.968.829-15.286-.991-30.841,3.62-45.672.642-2.065,1.69-4.078,2.413-6.117a11.388,11.388,0,0,0,.726-4.343c-.19-3.943-1.339-7.779-1.29-11.747a5.891,5.891,0,0,1,2.575-5.069,7.88,7.88,0,0,1,3.165-.832c4.452-.484,9.472-.055,12.634,3.139,2.949,2.975,3.516,7.534,3.326,11.718-.377,8.743-3.355,17.164-5.875,25.559C37.36,197.6,34.486,211.2,31.62,224.8c-.619,2.949-1.238,5.927-1.61,8.9" transform="translate(-5733.171 -11146.661)" fill="#f8ab89"/>
        <path id="Trazado_128706" data-name="Trazado 128706" d="M80.335,244.82c-1.342,3.888-6.143,5.417-9.708,6.491-3.058.91-6.143,1.823-9.172,2.868-1.932.671-4.588,2.952-6.707,1.61-1.233-.8-1.42-2.494-1.555-3.969-.026-.377-.081-.752-.132-1.1-.806-7.617-3.165-15.019-5.5-22.261C42.922,213.87,35.679,200,34.74,184.5c-.132-2.171.135-4.424.055-6.595-.323-9.817-7.133-21.645-2.361-31.221a12.374,12.374,0,0,1,9.469-6.811,10.289,10.289,0,0,1,10.111,5.391,17.613,17.613,0,0,1,1.313,6.221c.991,12.741,1.368,25.481,2.278,38.219,1.019,13.867,3.194,27.624,5.339,41.358.481,2.975.939,5.953,1.636,8.876a5.609,5.609,0,0,0,1.339,2.842,5.506,5.506,0,0,0,2.684,1.074,12.492,12.492,0,0,0,2.494.213,34.577,34.577,0,0,0,8.769-1.368,2.925,2.925,0,0,1,1.716-.081,1.8,1.8,0,0,1,.752,2.2" transform="translate(-5706.445 -11153.919)" fill="#f8ab89"/>
        <path id="Trazado_128707" data-name="Trazado 128707" d="M49.934,90.968c6.851,1.2,26.282,4.9,33.654,6.307a2.565,2.565,0,0,1,1.947,3.338L69.626,147.963a2.562,2.562,0,0,1-.89,1.233L56.6,158.345a2.577,2.577,0,0,1-2.408.369L35.644,152.1a2.566,2.566,0,0,1-1.639-3L46.988,92.917a2.567,2.567,0,0,1,2.946-1.95" transform="translate(-5700.436 -11245.841)" fill="#014769"/>
        <path id="Trazado_128708" data-name="Trazado 128708" d="M54.9,104.227c.242-1.083.17-2.226.5-3.289a2.5,2.5,0,0,1,2.353-1.97c1.434.15,1.984,1.927,2.122,3.361.363,3.75.181,7.686-1.535,11.039-1.365,2.664-10.474,9.7-11.756,3.629-1.1-5.21,7.309-8.245,8.32-12.769" transform="translate(-5676.857 -11230.744)" fill="#f8ab89"/>
        <path id="Trazado_128709" data-name="Trazado 128709" d="M31.41,111.311c.2-3.251-1.189-6.356-2.266-9.432a30.165,30.165,0,0,1-1.953-11.773,16.778,16.778,0,0,1,4.539-10.84c3.246-3.243,7.995-4.648,12.582-4.639A13.13,13.13,0,0,1,51.3,76.32c4.472,2.814,5.538,8.778,5.832,13.648a42.3,42.3,0,0,1-2.992,19.013,8.224,8.224,0,0,1-1.567,2.644c-2.082,2.134-6.3-.5-7.347,2.439-.5,1.4.458,9.391-.564,10.589-2.307,2.7-15.353-3.577-15.992-2.111a50.749,50.749,0,0,0,2.739-11.232" transform="translate(-5713.202 -11276.486)" fill="#f8ab89"/>
        <path id="Trazado_128710" data-name="Trazado 128710" d="M56.087,72.1a16.341,16.341,0,0,0-5.722-1.95,21.449,21.449,0,0,0-12.936,2.575,13.605,13.605,0,0,0-5.855,5.279c-1.063,1.987-1.333,4.285-1.927,6.46A22.338,22.338,0,0,1,23.2,95.026c-1.987,1.817-4.3,3.269-6.18,5.2a16.848,16.848,0,0,0-4.628,9.91,8.54,8.54,0,0,0,.236,3.45c.625,1.97,2.272,3.369,3.018,5.264s.6,4.366.458,6.382c-.291,4.2-1.86,9.279,1.028,12.942,2.249,2.848,6.572,3.407,9.944,2.065s5.912-4.2,7.888-7.246c2.526-3.888,4.32-9,2.094-13.063-1.944-3.554-5.886-5.342-3.689-10.059,1.184-2.54,3.467-4.351,5.38-6.4a12.953,12.953,0,0,0,3.781-7.154c.386-3.5-1.379-7.211.009-10.442,1.284-2.986,5.457-4.8,8.585-3.98a9.588,9.588,0,0,1,3.266,2.108c1.8,1.382,1.788,1.912,1.143,4.1-1.187,4.046-2.157,7.45-2.039,11.727a39.082,39.082,0,0,0,2.589,12.948,8.214,8.214,0,0,0,1.054,2.056c2.31,3.024,8.484,3.038,11.81,2.206,6.471-1.618,7.228-7.885,8.671-13.348A21.318,21.318,0,0,1,83.2,93.84c1.967-2.148,1.65-5.1.158-7.456a16.784,16.784,0,0,0-4.53-4.392,14.076,14.076,0,0,0-8.19-2.935c-.72-.037-8.547.415-8.363,1.253A12.329,12.329,0,0,0,56.087,72.1" transform="translate(-5741.076 -11285.23)" fill="#014769"/>
        <path id="Trazado_128711" data-name="Trazado 128711" d="M37.106,96.842c-3.637,5.172-3.47,12.286-4.5,18.523-1.515,9.227,0,36.652-.15,42.559-.184,7.381-3.516,16.856-5.112,24.067-2.226,10.065-3.876,20.245-5.526,30.42q-3.3,20.338-6.595,40.67a3.821,3.821,0,0,0,.124,2.379,3.7,3.7,0,0,0,1.947,1.463c13.674,5.933,14.106.115,36.062,1.322,21.464,1.181,38.089,6.261,41.856-.6,1.656-3.018-8-76.458-8.294-95.949-.282-18.742,2.958-22.708,1.65-41.41-.354-5.045-1.7-9.933-2.436-14.935C84.057,91.293,72.019,92.983,60.822,91.293c-9.458-1.428-17.881-2.747-23.716,5.55" transform="translate(-5735.85 -11247.149)" fill="#fff"/>
        <path id="Trazado_128712" data-name="Trazado 128712" d="M40.969,147.029c2.577,7.295,6.186,15.021,13.17,18.351a9.01,9.01,0,0,0,6.238.867,10.806,10.806,0,0,0,4.458-3c7.508-7.47,17.466-30.337,17.484-32.041.043-4.087-3.617-7.122-6.935-9.512a2.577,2.577,0,0,0-1.955-.7c-.435.1-12.536,19.24-14.457,23.212-4.824-15.232-2.909-32.007-8.945-46.827-1.25-3.067-3.557-5.745-7.177-5.636-5.345.164-7.5,7.387-8.323,11.629-2.819,14.638,1.59,29.931,6.442,43.662" transform="translate(-5700.992 -11244.326)" fill="#e6e6e6"/>
        <path id="Trazado_128713" data-name="Trazado 128713" d="M44.868,181.953c-2.655,3.165-7.7,2.9-11.4,2.629-3.191-.242-6.382-.484-9.576-.59-2.065-.055-5.362,1.126-6.837-.887-.887-1.178-.484-2.814-.081-4.236.187-.616.348-1.233.481-1.878a28.324,28.324,0,0,0,13.679,1.342c1.394-.19,2.788-.484,4.21-.806a37.355,37.355,0,0,0,7.94,1.584,2.6,2.6,0,0,1,1.636.536,1.758,1.758,0,0,1-.055,2.307" transform="translate(-5733.171 -11084.054)" fill="#014769"/>
        <path id="Trazado_128714" data-name="Trazado 128714" d="M65.767,177.788c-1.342,3.888-6.143,5.417-9.708,6.491-3.058.91-6.143,1.823-9.172,2.868-1.932.671-4.588,2.952-6.707,1.61-1.233-.8-1.42-2.494-1.555-3.969-.026-.377-.081-.752-.132-1.1a28.567,28.567,0,0,0,12.283-4.1c1.287-.778,2.52-1.662,3.755-2.549a34.576,34.576,0,0,0,8.769-1.368,2.925,2.925,0,0,1,1.716-.081,1.8,1.8,0,0,1,.752,2.2" transform="translate(-5691.877 -11086.888)" fill="#014769"/>
        <path id="Trazado_128715" data-name="Trazado 128715" d="M37.065,73.179a1.84,1.84,0,0,0-2.845-.366c-.821.642-.847,1.506-1.221,2.4a8.624,8.624,0,0,1-1.264,2.071c-1.14,1.4-2.684,2.036-4.1,3.079a1.639,1.639,0,0,0,.821,3.027c2.433.081,4.775-1.613,6.321-3.367,1.469-1.667,3.459-4.631,2.284-6.848" transform="translate(-5713.685 -11280.838)" fill="#ccc"/>
        <path id="Trazado_128723" data-name="Trazado 128723" d="M13.864,88.955l-.213-.084a1.884,1.884,0,0,0,.213.084" transform="translate(-5738.575 -11249.71)" fill="#013752"/>
        <path id="Trazado_128724" data-name="Trazado 128724" d="M23.474,70.693c.276.167.328.043.1-.248-.075-.1-.032-.222,0-.337-.121.023-.242.037-.363.063a.368.368,0,0,1,.089.213.352.352,0,0,0,.17.308" transform="translate(-5720.596 -11284.981)" fill="#013752"/>
        <path id="Trazado_128725" data-name="Trazado 128725" d="M13.573,82.425A1.022,1.022,0,0,0,13,82.359c-.141.308-.253.619-.363.933a3.06,3.06,0,0,1,.6-.181c.613-.135.809-.5.34-.685" transform="translate(-5740.481 -11261.988)" fill="#013752"/>
        <path id="Trazado_128726" data-name="Trazado 128726" d="M12.81,83.757a1.405,1.405,0,0,1-.343-.276c-.02.107-.043.213-.06.32a.8.8,0,0,0,.4-.043" transform="translate(-5740.914 -11259.841)" fill="#013752"/>
        <path id="Trazado_128727" data-name="Trazado 128727" d="M23.115,71.573c-.282-.049-.386.046-.2.19.256.2.778.219.6.029a.828.828,0,0,0-.4-.219" transform="translate(-5721.334 -11282.25)" fill="#013752"/>
        <path id="Trazado_128728" data-name="Trazado 128728" d="M24.167,70.854c.1-.118-.078-.469-.325-.631-.167-.107-.213-.06-.242.23-.029.256.423.567.567.4" transform="translate(-5719.875 -11284.861)" fill="#013752"/>
        <path id="Trazado_128729" data-name="Trazado 128729" d="M18.634,83.629c-.19-.026.225.337.544.487-.092-.127-.161-.207-.132-.216.072-.026-.245-.242-.412-.271" transform="translate(-5729.297 -11259.566)" fill="#013752"/>
        <path id="Trazado_128730" data-name="Trazado 128730" d="M41.925,83.273c.884-.222,1-.521.515-1.043-.337-.369-.331-.372.1-.619.357-.2.4-.265.23-.389a.211.211,0,0,1-.023-.34c.107-.1.109-.2-.006-.251s-.176-.153-.144-.233c.055-.144-.346-.6-.665-.766-.089-.046.037-.158.285-.245.429-.15.452-.158.164-.446a.682.682,0,0,1-.181-.613,1.646,1.646,0,0,0,.1-.478c-.009-.115.15-.156.478-.118.625.069.639.026.112-.337-.369-.251-.392-.34-.179-.567a.676.676,0,0,0-.32-.991c.766,0,.541-.438-.1-.651-.363-.115-.426-.19-.38-.444.04-.216-.035-.334-.265-.412-.809-.259-.469-.76.729-1.019.132-.029.225-.124.2-.216a.678.678,0,0,0-.683-.354c-.369-.317-.274-.34.141-.236.78.2.858-.127.109-.516-.377-.2-.541-.337-.516-.449s.15-.1.4.032a2.364,2.364,0,0,0,.858.207,1.1,1.1,0,0,1,.564.124c.046.058.3.058.553.006.654-.135.458-.752-.3-.812-.455-.026-.458-.023-.7-.4a1.906,1.906,0,0,0-.423-.49,20.744,20.744,0,0,0-5.7,2.074,13.622,13.622,0,0,0-5.852,5.282c-1.063,1.987-1.336,4.282-1.927,6.457A22.3,22.3,0,0,1,25.7,91.066c.144.153.161.285.017.389a.4.4,0,0,1-.337.06,22.22,22.22,0,0,1-2.721,3.067c-.818.749-1.69,1.431-2.563,2.114.21.59.023.659-.346.271-.639.5-1.273,1.005-1.886,1.532.055.014.107.026.184.052a3.81,3.81,0,0,1,.573.256c.207.193-.132.616-.449.585-.236-.029-.291.049-.207.291s-.017.371-.334.527a.835.835,0,0,0-.492.671,1.291,1.291,0,0,1-.328.732c-.164.15-.242.346-.187.423.167.176-.9.893-2.572,4.271a1.9,1.9,0,0,0-.2,1.054c.135.386-.432,1.354-.818,1.382a.443.443,0,0,0-.072.875c.426.069.766.593.547.78.383.369.366.409.049.524-.487.173-.5.383-.049.564.259.107.308.233.2.541a.717.717,0,0,0-.02.331,2.684,2.684,0,0,0,.291.829c.38.665.415.749.156,1.04-.363.406-.274.7.282,1.235a1.248,1.248,0,0,1,.446.829.93.93,0,0,0,.343.685c.274.2.305.308.153.507s-.124.282.1.36c.458.161,1.1,2.2.778,2.462a.562.562,0,0,1-.562.052c.029,1.152.009,2.41-.063,3.591l.213.084c.268.086.311.1.1.032l-.242-.078a3.287,3.287,0,0,0-.118.8c-.291,4.2-1.86,9.279,1.028,12.942,2.246,2.851,6.569,3.41,9.941,2.068.308-.124.576-.32.87-.467a14.385,14.385,0,0,1,1.742-3.309A9.4,9.4,0,0,1,31.016,134a6.68,6.68,0,0,1,1.7-1.109,4.8,4.8,0,0,1,1.567-.392c.075-.058.014.213.374-.513a17.658,17.658,0,0,0,1.043-2.733,20.67,20.67,0,0,0,.893-5.547,21.31,21.31,0,0,0-.478-4.83,26.021,26.021,0,0,0-1.852-2.454,8.959,8.959,0,0,0,.492.985,2.066,2.066,0,0,1,.458,1.676,7.569,7.569,0,0,0,.132,1.829,15.6,15.6,0,0,0,.395,2.166,2.471,2.471,0,0,1-.055,1.273c-.138.423-.23,1.918-.481,3.306a16.744,16.744,0,0,1-.72,2.667,14.032,14.032,0,0,1-.611,1.4.954.954,0,0,1-.193.323l-.109.107a1.5,1.5,0,0,1-.835-.176c-.279-.1-.645-.239-.812-.3-.23-.078-.285-.127-.233-.207s.124-.069.478.049c.446.1.567.245.7-.8a8.261,8.261,0,0,1,.662-1.69,3.424,3.424,0,0,0,.438-2.223,1.872,1.872,0,0,1,.147-1.578c.369-.688.236-1.29-.346-1.472a2.584,2.584,0,0,1-.982-1.843c-.032-.559.305-.688.8-.251.423.4.867.06.809-.616a.607.607,0,0,0-.648-.573c-.536-.043-.59-.158-.838-1.3-.4-1.477-1.616-2.117-1.29-.818a1.538,1.538,0,0,1-.092,1.086A1.136,1.136,0,0,0,31.5,120.5c.187.59.15.7-.216.726-.564.063-.5.317.075.821.4.334.432.49.216,1.019-.328.766-.677.567-.884-.383a1.845,1.845,0,0,0-.6-1.043,1.942,1.942,0,0,1-.625-.881c-.651-1.832-.838-1.835-1.4-1.788-.59.081-.651-.225-.072-.392a1.178,1.178,0,0,0,.541-.723c.161-.516.285-.651.7-.694a.705.705,0,0,0,.688-.524c.236-.662.864-.732,1.21-.075.291.559,1.08.706.913.138.253-.227.346-.058.328.121.323.222.253-.158-.026-.806-.5-1.149-1.443-1.434-2.019-1.06-.317.248-.832-.06-.994-.452-.173-.544-.124-.383-.423-.374a1.384,1.384,0,0,0-.665.354c-.5.4-.734.521-1.2.429-.418-.081-.76-.628-.492-.8.354-.233.323-.363-.1-.351-.383.009-.429-.046-.348-.383.156-.53-.132-.619-1.045-.3-.386.144-.418.153-.631.075a1.629,1.629,0,0,0-.547-.049c-.251.029-.3-.029-.2-.242a.23.23,0,0,0-.127-.348c-.2-.06-.176-.1.081-.176s.282-.115.1-.213c-.167-.127-.124-.2.026-.285.328-.184,1.2-.167,1.166-.009-.009.06.081.127.2.147.141.02.236-.1.262-.314s0-.3-.135-.216c-.158.1-.337.124-1.034.1-.939-.032-.968-.046-.536-.314.2-.121.23-.213.107-.279-.1-.052-.115-.389.046-.723.2-.429.233-.622.049-.706-.2-.092-.156-.124.222-.132.467-.009.458-.014.147-.288-.259-.233-.262-.354.052-.57.239-.176.317-.314.2-.429s-.1-.167.107-.138c.156.023.3-.032.311-.124.037-.2.642-.262.956-.1.115.06.141.135.049.173-.2.086.043.636.348.755a.826.826,0,0,0,.749-.1c1.238-.812,1.4-.838,1.014-1.175-.406-.314-.291-.559.17-.4a.412.412,0,0,0,.472-.1c.256-.308.91-.513.988-.334a2.492,2.492,0,0,1,.1.311,1.319,1.319,0,0,0,.343.51c.156.164.487.521.74.795.472.513.648.651.426.3-.066-.1-.052-.2.029-.213a.41.41,0,0,0,.112-.363,1.44,1.44,0,0,0-.593-.72c-.484-.383-.922-.861-.832-.91a1.41,1.41,0,0,0,.118-.21c.06-.147.161-.075.449.32.527.723,1.964,1.518,2.05,1.08a3.288,3.288,0,0,1,1.546-1.4c.156.023.253.176.337.541a1.872,1.872,0,0,0,.086.216c.144-.167.279-.343.429-.507a1.06,1.06,0,0,1-.395-.524c-.173-.513-.156-.533.72-1.166.965-.714,1.613-.919,1.382-.158a6.043,6.043,0,0,0,.717-.657c-.455.181-.645.049-.446-.343s.164-.374.619-.291a.567.567,0,0,1,.32.13c.092-.1.187-.184.276-.279a18.45,18.45,0,0,0,2.062-2.678.978.978,0,0,1-.4-.6c-.184-.8.012-1.474.507-1.529.415-.046.622.147.743.553a10.214,10.214,0,0,0,.567-1.57c-.242.17-.435.207-.521.153s-.066-.239.046-.409a.4.4,0,0,1,.325-.187.231.231,0,0,1,.144.037,2.358,2.358,0,0,0,.308-.924,10.07,10.07,0,0,0,.049-1.181c-.052-.06-.086-.118-.069-.158a.822.822,0,0,0,.029-.446.909.909,0,0,1,0-.216c-.19-2.883-1.126-5.823,0-8.444a5.592,5.592,0,0,1,.855-1.339,1.367,1.367,0,0,0-.924-.824M16.536,104c.435-.363.685-.619.622-.743.02-.248.2-.351.383-.461a.479.479,0,0,1,.783.34c.046.475-1.388,2.088-1.788,2-.726-.213-.757-.513,0-1.135m-.107,17.187c-.285.069-.541.06-.585-.052-.058-.158,0-.179.418-.187.726-.032.815.083.167.239m1.472-7.021c-.153-.181-.311-.429-.395-.539-.19-.262-.072-.671.2-.68.288-.006.492.357.484.881.017.662.006.7-.288.337m.455-8.645a.574.574,0,0,1-.395-.32c-.173-.4-.058-.469.274-.161.38.346.455.53.121.481m.366-.812c-.372-.107-.374-.3-.012-.516a.424.424,0,0,1,.441,0c.291.239-.04.631-.429.516m2.8,3.1c-.654-.253-.7-.521-.112-.472.824.757.827.74.112.472m8.242,22.739c-.484-.153-.282-.288.271-.2.242.069.515.078.533.207.115.176-.449.176-.8-.009m2.082,1.466c.357.1.282.132-.13.066-.251-.04-.346-.063-.4-.115-.112-.1.049-.086.533.049m-1.2-5.374c.115-1.679.351-2.33.893-1.521a1.719,1.719,0,0,1-.507,2.088c-.484.331-.49.294-.386-.567m-.772-2.3c.325.179.582,1.063.374,1.247-.092.084-.3.046-.455-.078-.328-.256-.265-1.365.081-1.169m-.772,4.542c.248-.573.314-.6,1.045-.2.824.444.91,1.708.138,1.261a.874.874,0,0,0-.685-.026.474.474,0,0,1-.556-.15,1.04,1.04,0,0,1,.058-.881m-.6,1.714a1.14,1.14,0,0,1,.59.193c.412.236.276.259-.294.069-.6-.2-.694-.294-.3-.262m-.086-13.97c.084.055.049.219-.075.389-.4-.222-.144-.513.075-.389m-3.663-2.652c.063-.219.251-.259.746-.216.245.023.3.066.17.156-.245.167-.17.527.078.455.107-.029.207.127.236.354a1.336,1.336,0,0,1-.049.461.458.458,0,0,1-.634-.354c-.035-.2-.158-.325-.323-.323-.265.006-.343-.15-.225-.533m1.04,20.868c.415.06.409.058-.107.274a6.283,6.283,0,0,1-1.045.334c-.4.078-.536.063-.53-.066,0-.426.922-.665,1.682-.541m4.331-41.58c-.265.161-.8-.138-1.037-.533-.274-.458.17-.711.654-.4.524.348.688.752.383.93m9.049,8.306c-.711.818-.971.832-1.048.132-.066-.66.711-1.572,1.227-1.385s.469.464-.179,1.253" transform="translate(-5740.532 -11284.789)" fill="#013752"/>
        <path id="Trazado_128731" data-name="Trazado 128731" d="M23.522,73.415c-.1.207.13.331.444.251.2-.052.086-.354-.158-.415a.276.276,0,0,0-.285.164" transform="translate(-5720.062 -11279.081)" fill="#013752"/>
        <path id="Trazado_128732" data-name="Trazado 128732" d="M17.026,84.824c-.265.072-.173.141.179.127.184-.012.34-.055.343-.1.009-.083-.259-.1-.521-.029" transform="translate(-5732.518 -11257.403)" fill="#013752"/>
        <path id="Trazado_128733" data-name="Trazado 128733" d="M23.809,72.833c-.4.04-.426.069-.21.236.308.236.927.19.878-.061-.037-.2-.118-.227-.668-.176" transform="translate(-5720.127 -11279.9)" fill="#013752"/>
        <path id="Trazado_128734" data-name="Trazado 128734" d="M17.793,83.85c-.144-.046-.507.311-.717.752s-.259.924-.1.973c.458.156.579.046.78-.435.374-.769.481-1.152.04-1.29" transform="translate(-5732.502 -11259.156)" fill="#013752"/>
        <path id="Trazado_128735" data-name="Trazado 128735" d="M18.022,84.2c.311.115.441.107.464.084-.3-.124-.429-.121-.464-.084" transform="translate(-5730.358 -11258.539)" fill="#013752"/>
        <path id="Trazado_128736" data-name="Trazado 128736" d="M18.664,85.166c.305-.089.256-.144-.276.02a.537.537,0,0,0,.276-.02" transform="translate(-5729.669 -11256.835)" fill="#013752"/>
        <path id="Trazado_128737" data-name="Trazado 128737" d="M18.439,85.052c-.181.06-.173.072.078.1a1.6,1.6,0,0,0,.838-.179,2.42,2.42,0,0,0-.916.081" transform="translate(-5729.808 -11257.081)" fill="#013752"/>
        <path id="Trazado_128738" data-name="Trazado 128738" d="M18.318,83.214a2.532,2.532,0,0,0,.573.469,3.369,3.369,0,0,0-.573-.469" transform="translate(-5729.801 -11260.344)" fill="#013752"/>
        <path id="Trazado_128739" data-name="Trazado 128739" d="M26.508,90.424c-.4.1-.795.2-1.184.331a4.427,4.427,0,0,0,.585-.009c.677-.058.763-.1.6-.323" transform="translate(-5716.631 -11246.79)" fill="#f7f7f7"/>
        <path id="Trazado_128740" data-name="Trazado 128740" d="M18.923,125.449a3.987,3.987,0,0,0-.32,1.109c.628-.317.806-.95.32-1.109" transform="translate(-5729.266 -11180.946)" fill="#f7f7f7"/>
        <path id="Trazado_128741" data-name="Trazado 128741" d="M25.142,124.534a2.247,2.247,0,0,1-.069-.78c.127-.406-.242-.461-.472-.075-.253.435.153,1.077.541.855" transform="translate(-5718.139 -11184.766)" fill="#f7f7f7"/>
        <path id="Trazado_128742" data-name="Trazado 128742" d="M26.911,108.089a.708.708,0,0,0,.265-.51c-.68.464-.654.723-.265.51" transform="translate(-5714.161 -11214.539)" fill="#f7f7f7"/>
        <path id="Trazado_128743" data-name="Trazado 128743" d="M26.952,110.861c.363.046.636-.887.369-1.25a.363.363,0,0,0-.438-.118c-.366.187-.305,1.319.069,1.368" transform="translate(-5714.161 -11211.003)" fill="#f7f7f7"/>
        <path id="Trazado_128744" data-name="Trazado 128744" d="M26.182,92.911c-.242.086-.245.2-.052.611.472-.588.4-.734.052-.611" transform="translate(-5715.375 -11242.19)" fill="#f7f7f7"/>
        <path id="Trazado_128745" data-name="Trazado 128745" d="M27.746,107.969c.029-.32-.037-.587-.156-.6s-.225.181-.248.423a.785.785,0,0,0,.156.6c.109.089.219-.092.248-.423" transform="translate(-5712.844 -11214.929)" fill="#f7f7f7"/>
        <path id="Trazado_128746" data-name="Trazado 128746" d="M27,106.758a1.565,1.565,0,0,0-.354-.68c.1.516.239.674.354.68" transform="translate(-5714.146 -11217.362)" fill="#f7f7f7"/>
        <path id="Trazado_128747" data-name="Trazado 128747" d="M25.123,128.023a.674.674,0,0,0,.035.567c.089.107.228-.032.323-.317s.075-.533-.035-.57-.253.109-.323.32" transform="translate(-5717.09 -11176.718)" fill="#f7f7f7"/>
        <path id="Trazado_128748" data-name="Trazado 128748" d="M26.491,92.806c.216.075.42.066.426-.2a2.085,2.085,0,0,0-.726-.187c-.055.15.069.311.3.389" transform="translate(-5715.024 -11243.042)" fill="#f7f7f7"/>
        <path id="Trazado_128749" data-name="Trazado 128749" d="M26.845,101.626c-.13-.5-.213-.5-.694.052-.346.4-.357.484-.084.755.392.389.933-.179.778-.806" transform="translate(-5715.595 -11226.426)" fill="#f7f7f7"/>
        <path id="Trazado_128750" data-name="Trazado 128750" d="M28.528,111.751c-.636.014-.691-.04-.749-.68-.063-.78-.527-1.172-.852-.737s-.291.6.239.953c.274.181.481.464.449.628s.153.418.4.564a2.131,2.131,0,0,1,.706.89,3.068,3.068,0,0,0-2.232.415,2.092,2.092,0,0,1,.228,1.117.7.7,0,0,0,.228.665c.469.288.677.276.729-.046a1.321,1.321,0,0,1,.518-.625c.452-.317.472-.314.524.109.219,1.725.657,1.659.878-.156.253-2.1-.1-3.125-1.066-3.1" transform="translate(-5714.441 -11209.699)" fill="#f7f7f7"/>
        <path id="Trazado_128751" data-name="Trazado 128751" d="M26.3,102.518c-.107,0-.2.274-.2.616-.006.613.259.827.518.42.17-.271-.063-1.04-.317-1.037" transform="translate(-5715.169 -11224.054)" fill="#f7f7f7"/>
        <path id="Trazado_128752" data-name="Trazado 128752" d="M24.975,99.069c-.274.144-.317.426-.086.573.317.2.8-.2.547-.458a.43.43,0,0,0-.461-.115" transform="translate(-5717.73 -11230.594)" fill="#f7f7f7"/>
        <path id="Trazado_128753" data-name="Trazado 128753" d="M22.663,132.293c-.219.107-.228.161-.124.674.115.564.639.726.792.239.121-.383-.372-1.06-.668-.913" transform="translate(-5721.988 -11168.118)" fill="#f7f7f7"/>
        <path id="Trazado_128754" data-name="Trazado 128754" d="M21.863,130.412c-.3.15-.294.406.017.507a.311.311,0,0,0,.392-.2c.1-.3-.109-.461-.409-.311" transform="translate(-5723.555 -11171.723)" fill="#f7f7f7"/>
        <path id="Trazado_128755" data-name="Trazado 128755" d="M22.331,133.074c-.017.187.058.369.17.394.3.075.383-.369-.17-.394" transform="translate(-5722.263 -11166.613)" fill="#f7f7f7"/>
        <path id="Trazado_128756" data-name="Trazado 128756" d="M25.286,131.1c-.173.708-.536,2.036-.809,2.946-.533,1.791-.547,2.966-.02,2a5.7,5.7,0,0,0,.441-1.218c.1-.38.415-1.624.706-2.768s.562-2.3.587-2.595c-.449.158-.731.927-.9,1.639" transform="translate(-5718.99 -11173.403)" fill="#f7f7f7"/>
        <path id="Trazado_128757" data-name="Trazado 128757" d="M25.055,95.584c-.2-.029-.222.1-.144.683.072.513.608.645.683.176a.848.848,0,0,0-.539-.858" transform="translate(-5717.485 -11237.096)" fill="#f7f7f7"/>
        <path id="Trazado_128758" data-name="Trazado 128758" d="M30.9,251.2c.573-1.981,1.29-4.17,2.1-7.5.57-2.163,1.538-6.039,2.451-9.9,1.014-3.9,1.924-7.77,2.419-9.982l1.063-5.141c.611-2.621.7-3.3.443-3.378a19.072,19.072,0,0,0-1.5,4.133c-.2.674-.539,1.817-.752,2.543a5.028,5.028,0,0,0-.291,2.114c.1.642.046.881-.256,1.218a3.434,3.434,0,0,0-.481,2.373.919.919,0,0,1-.187.671,5.112,5.112,0,0,0-.42,1.693,17.262,17.262,0,0,1-.7,2.929c-.541,1.575-.556,1.6-1.074,1.457a3.547,3.547,0,0,0-.847-.132c-.248.009-.291-.19-.176-.821.127-.708.216-.835.593-.838.461,0,.674-.4.49-.913a1.753,1.753,0,0,1,.265-.991,1.282,1.282,0,0,0,.153-1.261c-.179-.472-.156-.625.138-.884.383-.343.285-.68-.256-.9a1.391,1.391,0,0,1-.639-1.351c.1-.363.452-.34.827.052a.525.525,0,0,0,.93-.153c.069-.236-.066-.412-.432-.556-.49-.19-.518-.288-.337-1.115.268-1.207-.464-2.264-.792-1.14a1.376,1.376,0,0,1-.573.806c-.262.109-.392.343-.415.737-.029.49-.1.562-.452.464-.539-.147-.611.121-.164.613.3.334.311.435,0,.752-.449.461-.769.271-.786-.472a1.793,1.793,0,0,0-.317-.942,1.465,1.465,0,0,1-.268-.933c.147-1.8.107-2-.435-2.223-.559-.228-.435-.582.147-.418a1.229,1.229,0,0,0,.867-.4c.429-.4.611-.446.979-.239a.676.676,0,0,0,.864-.06c.573-.441,1.12-.112,1.043.628-.066.639.527,1.163.691.611.337-.052.32.132.213.268.156.346.294,0,.412-.659.2-1.123-.291-2.189-1-2.183-.4,0-.631-.59-.461-1.2.374-1.359.429-1.639.216-1.938-.19-.285-.317-.276-.786.063-.772.559-1.011.418-1.146-.671-.118-.971.343-3.179.72-3.436a.985.985,0,0,0,.386-1.362c-.262-.406-.233-.6.248-1.734.786-1.829.68-2.37-.4-1.895-.464.2-.5.193-.573-.184a.691.691,0,0,0-.372-.492c-.228-.072-.207-.251.092-.829a1.573,1.573,0,0,0,.242-1.077c-.107-.259-.052-.374.236-.487s.354-.251.288-.608a.891.891,0,0,1,.279-.855c.452-.487,1.221-.305,1.043.245a.672.672,0,0,0,.037.562c.1.115.3-.274.539-1.048.251-.812.282-1.086.089-.8-.239.354-.426.4-1.037.222-.827-.239-.832-.256-.236-1.031.274-.351.38-.651.308-.847a8.456,8.456,0,0,1,.513-2.243c.444-1.377.567-2.01.418-2.183-.161-.193-.1-.3.285-.521.472-.265.481-.3.265-.971a2.181,2.181,0,0,1,.248-1.794,2.435,2.435,0,0,0,.32-1.469c-.109-.268-.072-.406.138-.513a.973.973,0,0,0,.348-.7c.069-.636.723-1.538,1.04-1.437.121.037.132.262.029.5-.23.521-.1,2.1.187,2.192.23.075.579-.472.87-1.362,1.69-5.169,1.9-6.056,1.454-6.264-.464-.219-.357-1.21.2-1.771a3.073,3.073,0,0,0,.562-1.5c.285-1.647,1.057-4.179,1.2-3.92a3.476,3.476,0,0,1,.17.662.617.617,0,0,0,.507.57,6.5,6.5,0,0,1,1.054.251c.665.216.945-.055.639-.619a2.1,2.1,0,0,1,.084-1.123c.334-1.117.009-1.567-.9-1.316-.642.173-1.293.135-1.238-.063a4.3,4.3,0,0,0-.014-.446c-.029-.279.1-.323.573-.19.864.245,2.569-.7,2.387-1.316a8.772,8.772,0,0,1,.507-3.45c.144-.144.314-.075.6.248.5.567.922.683,1.244.334.216-.233.3-.216.556.112.372.475.032,1.057-.533.9a.828.828,0,0,0-.731.262c-.409.455-.32.93.132.708.547-.265.971.245.694.832a1.453,1.453,0,0,0-.069,1.005,2.57,2.57,0,0,1-.51,2.206c-.377.539-.371.645.055,1.385.386.671.409.887.147,1.322a2.657,2.657,0,0,0-.395,2.085,5.571,5.571,0,0,1-.3,2.169,4.254,4.254,0,0,0-.282,1.653c.138.164-.147,1.356-.714,3.093a1.712,1.712,0,0,0-.092.852,20.491,20.491,0,0,1-.567,3.266c-.93,4.147-.775,4.553.282.754.475-1.737,1.037-3.8,1.25-4.585.579-1.935,2.428-11.234,2.632-13.089.1-.847.357-2.563.579-3.813.792-4.288.809-5.878.478-8.45-.089-.694-.412-.74-.844-.135-.406.57-.691.57-.726.006a7.278,7.278,0,0,0-.176-1.031,2.2,2.2,0,0,1,.138-1.3c.337-.795.806-.956.755-.253-.037.518.446,1.181.723.991.412-.3.93-3.591.55-4.239a4.986,4.986,0,0,1-.141-1.561c.026-1.005-.04-1.253-.372-1.328-1.08-.256-1.261-.343-1.575-.766a1.579,1.579,0,0,0-.852-.539c-.282-.049-.5-.187-.481-.305a1.288,1.288,0,0,0-.089-.527,7.306,7.306,0,0,1-.089-1.653,4.486,4.486,0,0,0-.228-1.765c-.346-.573-.3-.95.2-.881s.533-.173.236-1.529c-.15-.691-.15-1.045.006-1.083.265-.06.395-.893.144-.922a.789.789,0,0,1-.53-1.238c.262-.478.265-.642.02-.994a1.58,1.58,0,0,1-.086-1.351c.4-1.63-.337-3.98-1.175-4.173.847-.6.916-1.238.348-2.3-.4-.723-.4-.766-.026-1.437.308-.553.34-.763.138-1.017a1.088,1.088,0,0,1-.112-.847c.078-.294.043-.593-.084-.674a.738.738,0,0,1-.213-.567,3.194,3.194,0,0,0-.887-1.7c-.1-.075-.012-.421.2-.763.369-.6.369-.645-.012-1.215a3.194,3.194,0,0,1-.409-1.411,10.138,10.138,0,0,0-.092-1.227c-.049-.274.084-.475.4-.6.6-.253.593-.383-.049-.887-.446-.348-.51-.533-.409-1.224.127-.844-.294-2.025-.717-2.03.691-.613.291-1.428-.383-1.359-.38.04-.472-.072-.539-.648-.055-.5-.173-.68-.412-.651-.829.107-.769-1.149.2-2.733a.869.869,0,0,0,.092-.631.421.421,0,0,0-.772-.1c-.464-.3-.386-.42.037-.59.795-.325.7-1.054-.138-1.117-.423-.032-.634-.158-.662-.392s.1-.334.38-.311a1.368,1.368,0,0,0,.864-.4c.248-.239.5-.372.567-.3s.294-.17.507-.533c.559-.936.1-1.941-.6-1.287-.42.4-.42.4-.8-.072a1.525,1.525,0,0,0-.593-.5c-.037-.527-.112-.789-.262-.933.156-.562.809-.147.858.245.029.21.158.4.282.412.325.04.311-.256-.006-.57a1.193,1.193,0,0,1-.176-.887c.086-.539.012-.654-.59-.942-.755-.357-.8-.6-.19-1.011.314-.216.363-.34.21-.539-.291-.374-.19-.622.167-.418.51.288.763.063.467-.392-.21-.325-.222-.783.066-1.993.593-2.448.835-2.649,1.624-2.416.467.138.7.121.757-.052.786-.043.636-.89.017-1.915-.746-1.221-.734-1.616-.138-1.385a1.051,1.051,0,0,0,.9-.242c.711-.524.7-.585,0-.9-1.307-.576-2.01-.968-1.961-1.074a6.313,6.313,0,0,0-1.06-.553c-.089-.037-.138-.052-.216-.081a15.065,15.065,0,0,0-5.3,4.8c-3.637,5.172-3.47,12.286-4.5,18.523-1.515,9.227,0,36.652-.15,42.559-.138,5.524-2.039,12.219-3.657,18.264.141.213.112.363-.1.38q-.445,1.667-.838,3.246a3.929,3.929,0,0,1,.536-.1c.271.081.176.919-.124,1.112-.219.144-.233.282-.055.544s.158.527-.078.959a1.989,1.989,0,0,0-.2,1.279,3.154,3.154,0,0,1-.063,1.259,1.108,1.108,0,0,0-.052.737c.107.135-.3,1.947-1.869,7.62a5.435,5.435,0,0,0-.248,1.685c.109.6-.631,2.157-1.043,2.177a.446.446,0,0,0-.317.187c-.055.308-.1.616-.158.924.04.1.086.187.184.216a.907.907,0,0,1,.294,1.258c.236.625.2.7-.158.821-.541.187-.648.492-.3.864.2.216.184.435-.069.881a5.231,5.231,0,0,0-.409,1.866c-.069,1.149-.121,1.308-.536,1.639a2.092,2.092,0,0,0-.34.337q-.151.907-.3,1.814a2.7,2.7,0,0,1-.176,1.071c-.187,1.149-.377,2.3-.562,3.45q-3.3,20.333-6.6,40.667a3.863,3.863,0,0,0,.124,2.379,3.71,3.71,0,0,0,1.95,1.463c4.763,2.068,7.914,2.693,10.935,2.7.078-.21.161-.423.219-.6A64.673,64.673,0,0,0,30.9,251.2m1.739-14.227c.354.075.251.527-.167.729-.253.121-.343.083-.389-.17-.092-.49.075-.66.556-.559m15.214-82.169c.346.063.354.107.1.562-.1.179-.262.305-.363.288s-.153-.23-.112-.472.207-.409.377-.377m-.639,2.177c.423-.311.731-.2,1.066.38.354.648.553.68.757.112.219-.665.6-.625.878.1.2.547.176.671-.164,1.008-.242.239-.42.285-.472.121-.121-.363-.458-.395-.533-.049-.158.746-.9.85-1.365.2-.527-.726-.59-1.564-.167-1.875m-.046,2.739c.53-.092.628.2.446,1.356-.193,1.227-.4,1.414-.832.778-.418-.613-.158-2.039.386-2.134m.262,4.5c-.285.6-.547.631-.622.084-.066-.484-.078-.464.346-.688.49-.265.59-.043.276.6m-1.273,2.413c.363-1.521.752-2.036,1.022-1.221a.358.358,0,0,0,.4.184.685.685,0,0,1,.567.288,1.016,1.016,0,0,0,.769.325c.5-.012.521.029.225.766-.576,1.374-1.4,1.834-1.282.726.176-1.567-.072-1.927-.55-.864a1.168,1.168,0,0,0-.086,1.054c.354.7-.389,1.207-1.011.688-.441-.363-.444-.461-.058-1.947M35.078,156.269a.861.861,0,0,1,.677,1.218.662.662,0,0,1-1.175.132c-.42-.521-.075-1.463.5-1.351m-1.9,35.166c.714,1.325.706,1.354.049,1.057-.6-.274-.628-.829-.049-1.057m-3.583,43.7c-.616-.135-.72-.366-.317-.7.253-.213.36-.2.608.061.429.455.288.766-.291.639m1.077-2.609c-.507-.023-.288-.585.279-.717.262-.06.521-.043.573.04.144.222-.452.7-.852.677m.222-3.378c.052-1.192.406-1.584.878-.968a.956.956,0,0,1-.443,1.377c-.441.216-.461.2-.435-.409m.193,2.3a1.046,1.046,0,0,0-.665.069.6.6,0,0,1-.573-.029.662.662,0,0,1-.164-.674c.115-.449.187-.467.971-.23.878.268,1.282,1.068.432.864m-.916-4.049c.3.19.513.852.308.968a.522.522,0,0,1-.452-.1c-.325-.222-.184-1.074.144-.867m1.385-6.92c-.176-.51.219-.648.305-.357.035.112-.1.274-.305.357m-.216-7.2a2.085,2.085,0,0,0,.158-1.307c-.184-.277-.058-.766.446-1.788.291-.59.478-.579.769.035.147.305.124.515-.063.671-.363.3-.734,1.466-.492,1.541.1.035-.023.662-.279,1.4a9.754,9.754,0,0,1-.564,1.313c-.294-.086-.282-.959.026-1.866m-.956-26.6c.121-.233.314-.36.426-.279.32.228.069,1.184-.314,1.2s-.42-.314-.112-.924m-.314,1.794c.423.435.492.752.176.826-.141.035-.331-.141-.42-.389-.23-.639-.132-.818.245-.438m-4.19,62.479a1.956,1.956,0,0,1-1.017.271c-.377-.037-.49-.155-.452-.49.1-1.08,1.022-1.359,1.63-.541.354.441.351.449-.161.76m1.135-45.292c-.533,1.25-.582,1.3-.51.484.035-.4.081-.924.1-1.155.043-.553.452-1.261.68-1.187.262.083.147.873-.271,1.858m1.215-18.129c.363-.792.53-1.362.443-1.521a1.685,1.685,0,0,1,.248-.962c.291-.585.677-.562.841.058.207.792-.916,4.366-1.359,4.311-.752-.092-.792-.536-.173-1.886" transform="translate(-5735.847 -11245.967)" fill="#f7f7f7"/>
        <path id="Trazado_128759" data-name="Trazado 128759" d="M24.961,122.783c-.455-.36-.665-.323-.7-.213.386.34.6.305.7.213" transform="translate(-5718.63 -11186.503)" fill="#f7f7f7"/>
        <path id="Trazado_128760" data-name="Trazado 128760" d="M23.808,134.8c.346-.409.838-2.569.576-2.514-.17.043-.4.74-.576,2.514" transform="translate(-5719.48 -11168.086)" fill="#f7f7f7"/>
        <path id="Trazado_128761" data-name="Trazado 128761" d="M23.4,127.8c.236.317.386.164.438.009-.216-.386-.366-.23-.438-.009" transform="translate(-5720.253 -11176.964)" fill="#f7f7f7"/>
        <path id="Trazado_128762" data-name="Trazado 128762" d="M22.049,133.438c.285.541.513.21,1.115-1.673.982-3.053,1.29-4.735.893-4.864-.265-.086-2.194,6.192-2.007,6.537" transform="translate(-5722.812 -11178.221)" fill="#f7f7f7"/>
        <path id="Trazado_128763" data-name="Trazado 128763" d="M56.343,114.734c-3.433.818-6.393,2.462-9.985,2.745a53.855,53.855,0,0,1-6.212-.037A49.161,49.161,0,0,1,24.71,114.29c-1.4-.5-2.67,1.6-1.489,2.557,4.769,3.865,10.978,4.294,16.925,4.441,6.281.153,12.6.02,17.369-4.542a1.214,1.214,0,0,0-1.172-2.013" transform="translate(-5721.46 -11202.069)" fill="#ccc"/>
      </g>
      <g id="Grupo_136129" data-name="Grupo 136129" transform="translate(6639.401 11680.527)">
        <path id="Trazado_128616" data-name="Trazado 128616" d="M427.5,181.291c0,4.9-57.724,4.487-126.5,4.487s-123.99.41-123.99-4.487c0-3.592,55.757-4.349,124.534-4.349S427.5,179.253,427.5,181.291" transform="translate(-5619.199 -10956.316)" fill="#e6e6e6"/>
        <rect id="Rect치ngulo_36327" data-name="Rect치ngulo 36327" width="250.491" height="8.843" transform="translate(-5442.193 -10779.371)" fill="none"/>
        <path id="Trazado_128617" data-name="Trazado 128617" d="M243.177,201.963c2.681,8.667-2.752,11.971-10.319,11.6-6.463-.331-22.949-.256-32.46-.075-9.475.221-14.507-.513-14.507-5.509,0-3.561,15.828-4.515,25.926-7.2,4-1.1,7.086-2.425,7.93-4.334,1.948-4.3,2.2-24.124,2.2-24.124l26.81-6.944s-7.382,24.862-5.915,34.96a9.9,9.9,0,0,0,.331,1.617" transform="translate(-5593.051 -10990.329)" fill="#f8ab89"/>
        <path id="Trazado_128618" data-name="Trazado 128618" d="M281.168,208.02c0,4.957-5.031,5.69-14.542,5.509-9.476-.221-25.962-.3-32.425.036-7.567.367-13-2.938-10.319-11.64a8.912,8.912,0,0,0,.367-1.873c1.285-10.209-5.95-34.665-5.95-34.665l26.77,6.94s.3,19.83,2.2,24.089c.919,1.983,4.223,3.379,8.486,4.479,10.1,2.646,25.41,3.636,25.41,7.125" transform="translate(-5497.669 -10990.329)" fill="#f8ab89"/>
        <path id="Trazado_128619" data-name="Trazado 128619" d="M307.692,249.3c-9.578-36.861,3.427-87.622-10.583-123.035-2.792-7.062-6.723-14.03-13.036-18.253s-15.465-4.909-21.191.079a15.211,15.211,0,0,0-1.715,1.774,36.119,36.119,0,0,0-3.6-1.7c-5.272-2.039-11.636-2.752-16.262.489-2.713,1.9-4.432,4.886-5.946,7.831-13.77,26.814-16.506,56.711-21.092,86.226-5.2,33.434-18.975,138.37-20.406,157.262,12.8,2.244,19.416,0,31.364,0,10.051-29.227,18.107-109.554,19.7-118.808,1.439-8.356,4.1-16.447,6.9-24.444,2.642-7.531,5.453-15,8.375-22.425.146,1.12.308,2.248.45,3.364,4.55,36.112,26.1,167.116,27.985,167.483,7.879,1.53,32-1.526,32.87-2.453.852-.907-1.79-67.089-13.821-113.386" transform="translate(-5569.595 -11169.249)" fill="#5dc1ff"/>
        <path id="Trazado_128620" data-name="Trazado 128620" d="M232.857,187.472c-6.463-.331-22.949-.256-32.46-.075-9.475.221-14.507-.513-14.507-5.5,0-3.565,15.828-4.519,25.926-7.2.181.035.331.11.513.146a48.6,48.6,0,0,0,28.679,0c.592-.181,1.215-.4,1.838-.587a9.9,9.9,0,0,0,.331,1.617c2.681,8.667-2.752,11.972-10.319,11.6" transform="translate(-5593.051 -10964.236)" fill="#014769"/>
        <path id="Trazado_128621" data-name="Trazado 128621" d="M277.519,182.146c0,4.957-5.031,5.69-14.542,5.509-9.476-.221-25.962-.3-32.425.036-7.567.367-13-2.938-10.319-11.64a8.912,8.912,0,0,0,.367-1.873c.919.3,1.8.623,2.681.883a48.788,48.788,0,0,0,28.714,0c10.213,2.606,25.524,3.6,25.524,7.086" transform="translate(-5494.02 -10964.454)" fill="#014769"/>
        <path id="Trazado_128622" data-name="Trazado 128622" d="M217.853,117.014a.5.5,0,0,0,.438.244c-.556-.8-.722-.714-.438-.244" transform="translate(-5499.381 -11133.748)" fill="#52b3f2"/>
        <path id="Trazado_128623" data-name="Trazado 128623" d="M218.588,117.673c-.028.39-.15.714-.268.722s-.229.308-.24.67a2.6,2.6,0,0,1-.359,1.159,7.348,7.348,0,0,0-1.041-2.851c-.264.41-.481.572-.67.584a.459.459,0,0,0-.371.465c-.035.7.043.966.276.954.118-.008.386.233.6.528.371.517.375.544.11.722-1.092.726-.9,1.289.4,1.12,1.506-.193,2.078-.915,1.723-2.185-.229-.84-.213-.931.2-1.112a.769.769,0,0,0,.205-1.266c-.414-.343-.513-.28-.564.489" transform="translate(-5505.521 -11132.778)" fill="#52b3f2"/>
        <path id="Trazado_128624" data-name="Trazado 128624" d="M207.191,117.724c-.2.414-.063.564.059.584.252-.406.114-.556-.059-.584" transform="translate(-5530.655 -11130.606)" fill="#52b3f2"/>
        <path id="Trazado_128625" data-name="Trazado 128625" d="M206.281,116.779c-.371.52-.091.757,1.356,1.041,2.35.351,3.624.229,3.651-.339.012-.386-4.775-.95-5.008-.7" transform="translate(-5533.474 -11133.569)" fill="#52b3f2"/>
        <path id="Trazado_128626" data-name="Trazado 128626" d="M216.688,117.538c.095.493.82.655.966.221a.84.84,0,0,0-.075-.6c-.252-.442-.99-.126-.891.382" transform="translate(-5502.434 -11132.896)" fill="#52b3f2"/>
        <path id="Trazado_128627" data-name="Trazado 128627" d="M220.359,116.321c.268.181.745-.245.643-.576-.043-.138-.288-.213-.54-.166-.457.087-.509.465-.1.741" transform="translate(-5492.412 -11136.96)" fill="#52b3f2"/>
        <path id="Trazado_128628" data-name="Trazado 128628" d="M220.728,115.519c-.13.572.536,1.179.95.867.331-.252.288-.359-.339-.887-.454-.382-.524-.379-.611.02" transform="translate(-5490.565 -11137.986)" fill="#52b3f2"/>
        <path id="Trazado_128629" data-name="Trazado 128629" d="M217.939,117.627c-.02.166.142.268.375.241s.382-.177.347-.331a.34.34,0,0,0-.375-.237.411.411,0,0,0-.347.327" transform="translate(-5498.73 -11131.864)" fill="#52b3f2"/>
        <path id="Trazado_128630" data-name="Trazado 128630" d="M218.489,117.025a1.151,1.151,0,0,0,.347-.56c-.327.2-.387.406-.347.56" transform="translate(-5497.138 -11134.313)" fill="#52b3f2"/>
        <path id="Trazado_128631" data-name="Trazado 128631" d="M209.127,119.608c-.58-.047-1.676-.185-2.425-.315-1.475-.248-2.417.039-1.6.489a2.852,2.852,0,0,0,1.013.28c.315.028,1.345.13,2.287.221a13.048,13.048,0,0,0,2.129.11c-.177-.56-.824-.737-1.408-.785" transform="translate(-5537.393 -11126.26)" fill="#52b3f2"/>
        <path id="Trazado_128632" data-name="Trazado 128632" d="M209.987,117.364c-.146.623-.075.891.012,1,.146-.722.071-.99-.012-1" transform="translate(-5522.378 -11131.666)" fill="#52b3f2"/>
        <path id="Trazado_128633" data-name="Trazado 128633" d="M204.5,119.086c.312.071.816-.757.682-1.116-.095-.268-.138-.268-.532,0-.438.292-.54,1.033-.15,1.12" transform="translate(-5539.007 -11130.475)" fill="#52b3f2"/>
        <path id="Trazado_128634" data-name="Trazado 128634" d="M209.943,118.552c.319.028.276-.481-.051-.647-.367-.185-.737.576-.493,1.013.288-.229.422-.379.544-.367" transform="translate(-5524.092 -11130.155)" fill="#52b3f2"/>
        <path id="Trazado_128635" data-name="Trazado 128635" d="M208.662,121.095c2.177.331,2.741.319,2.8-.039.028-.185-1.55-.761-3.423-1.266-.556-.166-1.506-.446-2.11-.623a2.65,2.65,0,0,0-1.767-.071c-.548.229-.749.2-1.013-.158a2.039,2.039,0,0,0-1.968-.414.307.307,0,0,1-.221-.008c-.071.359-.138.718-.209,1.073a26.417,26.417,0,0,0,3.584.867c1.159.173,3.107.457,4.326.639" transform="translate(-5549.31 -11128.563)" fill="#52b3f2"/>
        <path id="Trazado_128637" data-name="Trazado 128637" d="M205.781,116.822c-.138-.367-.323-.284-.375.158-.024.233.055.446.177.473.237.051.335-.268.2-.631" transform="translate(-5535.625 -11133.938)" fill="#52b3f2"/>
        <path id="Trazado_128638" data-name="Trazado 128638" d="M201.9,119.285c.284.095.237.576-.122,1.12-.311.477-.292,1.124.043,1.246.189.067.347-.134.5-.647.2-.682.284-.737.95-.619.978.17,1.877-.982.986-1.246a.965.965,0,0,1-.611-.643c-.071-.335-.248-.473-.564-.442-.394.039-.442-.063-.335-.548.166-.741-.035-.808-.473-.154-.3.446-.383.454-.6.055a.847.847,0,0,1-.075-.473c-.217.95-.41,1.9-.619,2.859.276-.343.674-.591.927-.509" transform="translate(-5548.651 -11133.023)" fill="#52b3f2"/>
        <path id="Trazado_128639" data-name="Trazado 128639" d="M207.122,119.641c-.067.154.063.3.3.331s.422-.067.43-.225a.337.337,0,0,0-.3-.331.43.43,0,0,0-.434.225" transform="translate(-5530.614 -11125.634)" fill="#52b3f2"/>
        <path id="Trazado_128640" data-name="Trazado 128640" d="M204.02,119.285c.351.371,2.157.5,2.086.158-.047-.209-.619-.343-2.086-.158" transform="translate(-5539.692 -11126.271)" fill="#52b3f2"/>
        <path id="Trazado_128641" data-name="Trazado 128641" d="M203.951,118.076c-.051.422.308.422.3-.323a.386.386,0,0,0-.3.323" transform="translate(-5539.911 -11130.52)" fill="#52b3f2"/>
        <path id="Trazado_128667" data-name="Trazado 128667" d="M174.122,92.345a21.55,21.55,0,1,1,21.55,21.549,21.551,21.551,0,0,1-21.55-21.549" transform="translate(-5627.687 -11268.728)" fill="#fff"/>
        <path id="Trazado_128670" data-name="Trazado 128670" d="M252.1,86.845a19.024,19.024,0,0,0-1.751-6.936c-2.22-4.416-7.6-8.454-12.275-9.988-5.4-1.774-11.518-.375-16.778-2.867-1.972-.931-3.7-2.382-5.777-3.052-5.185-1.676-11.3,3.111-10.923,8.545.256,3.683,2.946,6.68,6.258,8.466a15.561,15.561,0,0,0,2.693,1.163,31.545,31.545,0,0,0,8.277,1.171c2.748.106,4.783-.063,7.1,1.573a16.3,16.3,0,0,1,6.356,11.557c.457,4.286-.442,8.691.52,12.894a6.783,6.783,0,0,0,1.215,2.792c1.451,1.8,3.135,1.3,4.752.059,7.563-5.8,11.151-15.887,10.331-25.378" transform="translate(-5538.054 -11289.721)" fill="#014769"/>
        <path id="Trazado_128671" data-name="Trazado 128671" d="M280.819,122.47c-3.308-2.228-7.33-3.123-11.285-3.6-3.466-.422-5.9-2.125-9.121-2.95-1.68-.43-6.991-.56-7.074-3.147-.1-3.17-1.459-18-.083-19.27a11.99,11.99,0,0,1,2.39-1.467,10.011,10.011,0,0,0,4.72-5.319,6.854,6.854,0,0,0-1.254-6.81,5.252,5.252,0,0,0-6.609-.871c-.394.276-.828.635-1.289.513a1.288,1.288,0,0,1-.726-.777c-.635-1.364-.177-3.143-1.025-4.243-.765-.994-2.315-1.656-3.364-2.275a15.572,15.572,0,0,0-7.263-1.688c-4.653-.217-9.416.051-13.864-1.337a15.261,15.261,0,0,1-2.693-1.163,10.9,10.9,0,0,0-1.467,3.253,65.056,65.056,0,0,0-1.719,25.378c.647,4.759,2.157,9.9,6.187,12.508a10.329,10.329,0,0,0,5.9,1.546c-.359,3.927-1.136,6.968-3.017,8.028a13.5,13.5,0,0,1-4.55,1.431c-3.088.442-6.171.844-9.255,1.285-.552.075-1.14.185-1.727.256-4.625.808-9.511,2.35-11.238,6.573a15.385,15.385,0,0,0-.658,6.352c1.506,34.7,3.048,69.629,11.053,103.41.513,2.133,1.065,4.334,2.571,5.95,2.421,2.681,6.5,2.9,10.1,2.938q24.014.219,48.032.442c5.8-25.449,7.894-51.6,9.913-77.63q1.124-14.065,2.208-28.127c.166-2.106.122-4.373.493-6.471.032-.17.063-.339.1-.5.276-1.293,1.017-2.457,1.053-3.793.083-3.324-2.871-6.688-5.438-8.419" transform="translate(-5549.48 -11276.77)" fill="#f8ab89"/>
        <path id="Trazado_128672" data-name="Trazado 128672" d="M183.157,100.117a28.188,28.188,0,0,1,.311-8.166,13.918,13.918,0,0,1,3.738-7.165,7.1,7.1,0,0,1,2.011-1.42,7.39,7.39,0,0,1,2.259-.556,5.4,5.4,0,0,1,2.382.185,4.219,4.219,0,0,1,2.559,3.671,7.2,7.2,0,0,1-1.352,4.444,10.167,10.167,0,0,0-1.569,2.677,5.964,5.964,0,0,0-.032,2.547c.45,2.9,1.514,5.7,1.786,8.62a5.151,5.151,0,0,1-.252,2.5c-.659,1.546-2.421,2.263-4.03,2.744-1.8.54-5.244,1.234-6.289-.891-1.234-2.524-1.293-6.427-1.522-9.192" transform="translate(-5601.541 -11233.51)" fill="#f8ab89"/>
        <path id="Trazado_128673" data-name="Trazado 128673" d="M243.868,153.044c-8.474-11.723-21.356-29.645-26.124-36.5a27.039,27.039,0,1,0-17.941,6.838,26.977,26.977,0,0,0,11.364-2.524c3.328,5.016,10.615,15.095,26.309,36.806a3.944,3.944,0,0,0,6.392-4.621m-39.416-38.123a19.194,19.194,0,1,1,5.225-35.075,19.189,19.189,0,0,1-5.225,35.075" transform="translate(-5631.819 -11273.406)" fill="#014769"/>
        <path id="Trazado_128674" data-name="Trazado 128674" d="M285.626,96.763a85.477,85.477,0,0,0-1.376,11.013q-.923,11.741-1.845,23.478c-2.019,26.037-4.113,52.184-9.913,77.633q-24.014-.219-48.032-.442c-3.6-.035-7.677-.256-10.1-2.938-1.506-1.617-2.058-3.821-2.571-5.95-8-33.781-9.546-68.706-11.053-103.41a15.385,15.385,0,0,1,.658-6.352c1.727-4.223,6.613-5.765,11.238-6.573.185,2.35-.146,4.665.513,7.311,2.425,10.134,17.922,12.153,26.443,10.024,7.945-1.972,14.767-7,20.126-13.056,1.27-1.431,2.366-3.588,3.809-4.795,1.4-1.175,3.454-1.38,5.315-1.506a20.413,20.413,0,0,1,12.22,3.048,11.1,11.1,0,0,1,3.509,3.273c1.7,2.658,1.656,6.234,1.057,9.243" transform="translate(-5549.48 -11238.242)" fill="#5dc1ff"/>
        <path id="Trazado_128675" data-name="Trazado 128675" d="M189.844,74.616c-4.1-3.9-12.173-1.376-12.05,4.681a1.092,1.092,0,0,0,2.015.548c1.325-1.778,2.764-3.884,5.3-3.64a3.438,3.438,0,0,1,3.174,3.1c.059,1.506-1.009,2.492-1.948,3.466-1.893,1.956-4.606,4.791-2.843,7.6a1.513,1.513,0,0,0,2.587,0c.848-1.719,1.258-3.147,2.622-4.614a12.243,12.243,0,0,0,2.8-3.837,6.8,6.8,0,0,0-1.656-7.307" transform="translate(-5616.883 -11262.97)" fill="#fe0065"/>
        <path id="Trazado_128676" data-name="Trazado 128676" d="M182.375,78.469a1.76,1.76,0,0,0-1.282-.2,2.293,2.293,0,0,0-1.42.627,2.2,2.2,0,0,0,.351,3.411,2.17,2.17,0,0,0,1.936.465,2.043,2.043,0,0,0,1.388-1.53,2.371,2.371,0,0,0-.974-2.776" transform="translate(-5613.267 -11246.846)" fill="#fe0065"/>
        <path id="Trazado_128678" data-name="Trazado 128678" d="M277.411,83.393c-1.8,25.043-4.223,50.015-7.015,74.988-4.665,41.2-10.355,82.294-16.084,123.386-2.019,14.5-4.077,29.12-8,43.257-4.188.075-18.434-3.525-18.289-4.294,19.645-99.116,25.852-168,25.891-168.741a138.242,138.242,0,0,1-16.782,19.318c-4.188,4-8.742,7.823-14.14,9.953s-11.822,2.35-16.818-.627c-4.223-2.531-6.9-6.975-9.144-11.345-8.557-16.636-14.653-56.332-13.955-57.362.588-.808,9.29-4.554,12.819-5.655,5.871,18.178,11.124,31.175,20.674,47.74,11.274-15.315,18.174-29.929,25.741-47.409,2.461-5.619,6.317-18.4,13-20.382.7-.181,9.215-2.5,15.9-4.294,1.175-.331,2.315-.627,3.34-.883a2.256,2.256,0,0,1,2.867,2.35" transform="translate(-5601.509 -11238.836)" fill="#fff"/>
        <path id="Trazado_128679" data-name="Trazado 128679" d="M279.516,325.593c-.442.883-26.735,8.08-39.254,8.261-2.571,0-14.582-54.641-15.536-59.964-4.515-26.183-10.686-75.65-11.6-117.807-.367-15.461-.036-29.964,1.36-41.936,3.013-25.926,7.015-32.535,9.436-34.081a1.7,1.7,0,0,1,.848-.181c4.073-.477,19.093,2.571,21.96,4.479,5.836,3.892,3.486,16.451,3.375,23.43-1.025,50.307.848,93.091,10.58,142.408,4.882,24.531,19.278,74.546,18.836,75.39" transform="translate(-5513.315 -11242.12)" fill="#fff"/>
        <path id="Trazado_128680" data-name="Trazado 128680" d="M250.655,106.127H213.337c.465,7.224.994,14.456,1.636,21.585.718-.122,1.755-.1,1.912.118.118.162.083.406-.126.864-.371.8-.418,1.4-.134,1.755.189.241.185.351-.032.773-.319.611-.777.28-.714-.517a1.508,1.508,0,0,0-.252-.927c-.2-.241-.375-.276-.481-.185q.183,2,.375,3.979c.158,0,.319,0,.461,0,3.269.059,4.408-.134,6.23-1.033.489-.244.485-.686,0-1.167-.453-.453-.485-.84-.087-.986a3.769,3.769,0,0,0,.722-.418.952.952,0,0,1,.946-.079c.611.288.781.883.272.97a1.1,1.1,0,0,0-.623,1.191c.26.513,2.705.422,3.1-.118a2.173,2.173,0,0,1,1.088-.422c.714-.114.879-.245.887-.706.036-1.506.071-1.767.327-2.256a3.07,3.07,0,0,0,.26-1.238c0-.39.063-.706.15-.7a.613.613,0,0,0,.355-.2,2.927,2.927,0,0,1,1.144-.367,2.017,2.017,0,0,0,1.2-.568c.347-.576.615-.5.643.185s.2.737,1.092.177c.458-.28.7-.319.753-.11.083.351.678.442.658.095-.039-.785.343-1.215.777-.856.371.3.485.292.69-.079.181-.327.426-.4.923-.26a2.29,2.29,0,0,0,2.713-1.9c.56,1.132,1.029,1.207,1.688.4.453-.556.485-.54,1.029-.079.454.386.6.41.753.126a.478.478,0,0,1,.6-.193c.225.091.434.028.473-.146a.42.42,0,0,1,.371-.319c.3-.008.962-.777,1.08-1.27.035-.142.3-.035.6.233.52.473.556.469.9-.067a1.507,1.507,0,0,1,.974-.611,4.316,4.316,0,0,0,.9-.177c.193-.079.375.091.548.509.331.8.434.781.666-.11.162-.619.284-.71.836-.611a1.156,1.156,0,0,0,.229-.024c-.477-4.759-.856-9.511-1.2-14.263" transform="translate(-5512.27 -11164.738)" fill="#e6e6e6"/>
        <path id="Trazado_128700" data-name="Trazado 128700" d="M217.589,83.393c-1.8,25.043-4.223,50.015-7.015,74.988l-7.232-53.1,7.417-6.2-7.417-3.308,8.04-13.841c1.175-.331,2.315-.627,3.34-.883a2.256,2.256,0,0,1,2.867,2.35" transform="translate(-5541.687 -11238.836)" fill="#e6e6e6"/>
        <path id="Trazado_128701" data-name="Trazado 128701" d="M221.422,101.7l7.161,5.509-15.461,48.84c-.367-15.461-.036-29.964,1.36-41.936,3.009-25.926,7.015-32.535,9.436-34.081a1.7,1.7,0,0,1,.848-.181c1.613,3.229,3.375,8.628,3.817,16.893Z" transform="translate(-5513.313 -11242.081)" fill="#e6e6e6"/>
        <path id="Trazado_128702" data-name="Trazado 128702" d="M196.37,92.631c11.368.118,42.062-.043,51.668-.1a3.487,3.487,0,0,1,3.454,2.855l14.038,75.575a3.5,3.5,0,0,1-3.438,4.136H210.467a3.5,3.5,0,0,1-3.438-2.855L192.92,96.771a3.479,3.479,0,0,1,3.45-4.14" transform="translate(-5572.542 -11204.75)" fill="#014769"/>
        <path id="Trazado_128703" data-name="Trazado 128703" d="M204.878,106.751a6.5,6.5,0,0,0-2.721,3.636c-.457,2.232,1.179,4.464,3.226,5.461a15.624,15.624,0,0,0,6.688,1.08q5.862.077,11.719.158a2.432,2.432,0,0,0,2.871-2.744c1.964-13.147-13.7-13.687-21.782-7.591" transform="translate(-5545.4 -11173.939)" fill="#f8ab89"/>
        <path id="Trazado_128704" data-name="Trazado 128704" d="M274.944,182.636c-8.612,5.919-64.664,6.6-65.638,4.483-2.338-5.087-3.73-20.252-2.768-20.445,0,0,14.945.012,51.573-2.468-2.488-21.735-3.111-47.783-3.852-69.68-.154-4.531,2.918-11.4,7.5-13.285,6.771-2.784,11.179,8.091,12.6,13.837,5.86,23.7,9.314,81.561.584,87.558" transform="translate(-5533.188 -11239.3)" fill="#f7f7f7"/>
      </g>
    </g>
  </g>
</svg>
