<svg xmlns="http://www.w3.org/2000/svg" xmlns:xlink="http://www.w3.org/1999/xlink" width="295" height="85" viewBox="0 0 295 85">
  <defs>
    <clipPath id="clip-path">
      <rect id="Rectángulo_36336" data-name="Rectángulo 36336" width="54.256" height="57.141" fill="#133d60"/>
    </clipPath>
  </defs>
  <g id="Grupo_136238" data-name="Grupo 136238" transform="translate(-180 -6887)">
    <path id="Trazado_129339" data-name="Trazado 129339" d="M37.5,0H214.755a37.5,37.5,0,0,1,0,75H37.5a37.5,37.5,0,0,1,0-75Z" transform="translate(222.744 6891)" fill="#133d60"/>
    <path id="Trazado_129340" data-name="Trazado 129340" d="M1.32,15V3.625H4.531a5.169,5.169,0,0,1,2.625.656A4.438,4.438,0,0,1,8.918,6.148,6.078,6.078,0,0,1,9.547,8.93v.727a6.1,6.1,0,0,1-.621,2.82,4.369,4.369,0,0,1-1.773,1.859A5.5,5.5,0,0,1,4.469,15ZM2.82,4.852v8.922H4.4a3.434,3.434,0,0,0,2.7-1.079,4.458,4.458,0,0,0,.965-3.073V8.957a4.529,4.529,0,0,0-.91-3.014A3.239,3.239,0,0,0,4.57,4.852ZM11.2,10.7a4.993,4.993,0,0,1,.488-2.234A3.643,3.643,0,0,1,13.051,6.93a3.7,3.7,0,0,1,1.988-.539,3.565,3.565,0,0,1,2.793,1.2,4.6,4.6,0,0,1,1.066,3.18v.1a5.036,5.036,0,0,1-.473,2.215,3.589,3.589,0,0,1-1.352,1.527,3.743,3.743,0,0,1-2.02.547,3.556,3.556,0,0,1-2.785-1.2A4.575,4.575,0,0,1,11.2,10.8Zm1.453.172a3.616,3.616,0,0,0,.652,2.258,2.211,2.211,0,0,0,3.5-.012,3.955,3.955,0,0,0,.648-2.418,3.61,3.61,0,0,0-.66-2.254,2.1,2.1,0,0,0-1.754-.863,2.075,2.075,0,0,0-1.727.852A3.925,3.925,0,0,0,12.656,10.867ZM24.8,7.844a4.331,4.331,0,0,0-.711-.055A1.9,1.9,0,0,0,22.156,9v6H20.711V6.547h1.406l.023.977a2.251,2.251,0,0,1,2.016-1.133A1.477,1.477,0,0,1,24.8,6.5Zm2.688-1.3.039.938a3.122,3.122,0,0,1,2.508-1.094A2.417,2.417,0,0,1,32.445,7.75a3.2,3.2,0,0,1,1.1-.984,3.242,3.242,0,0,1,1.6-.375q2.781,0,2.828,2.945V15H36.523V9.422a1.941,1.941,0,0,0-.414-1.355,1.823,1.823,0,0,0-1.391-.449,1.917,1.917,0,0,0-1.336.48,1.949,1.949,0,0,0-.617,1.293V15H31.313V9.461a1.613,1.613,0,0,0-1.8-1.844,1.934,1.934,0,0,0-1.945,1.211V15H26.117V6.547ZM41.719,15H40.273V6.547h1.445ZM40.156,4.3a.863.863,0,0,1,.215-.594.807.807,0,0,1,.637-.242.819.819,0,0,1,.641.242.854.854,0,0,1,.219.594.826.826,0,0,1-.219.586.834.834,0,0,1-.641.234.821.821,0,0,1-.637-.234A.834.834,0,0,1,40.156,4.3Zm7.961,3.539a4.331,4.331,0,0,0-.711-.055A1.9,1.9,0,0,0,45.477,9v6H44.031V6.547h1.406l.023.977a2.251,2.251,0,0,1,2.016-1.133,1.477,1.477,0,0,1,.641.109Zm12.445,3.023a5.026,5.026,0,0,1-.891,3.113,2.846,2.846,0,0,1-2.391,1.176A2.947,2.947,0,0,1,54.8,14.023l-.07.977H53.406V3h1.445V7.477a2.93,2.93,0,0,1,2.414-1.086,2.863,2.863,0,0,1,2.418,1.164,5.177,5.177,0,0,1,.879,3.188ZM59.117,10.7a3.906,3.906,0,0,0-.57-2.281,1.888,1.888,0,0,0-1.641-.8,2.122,2.122,0,0,0-2.055,1.328V12.6a2.181,2.181,0,0,0,2.07,1.328,1.878,1.878,0,0,0,1.617-.8A4.153,4.153,0,0,0,59.117,10.7ZM63.953,15H62.508V6.547h1.445ZM62.391,4.3a.863.863,0,0,1,.215-.594.807.807,0,0,1,.637-.242.819.819,0,0,1,.641.242A.854.854,0,0,1,64.1,4.3a.826.826,0,0,1-.219.586.834.834,0,0,1-.641.234.821.821,0,0,1-.637-.234A.834.834,0,0,1,62.391,4.3Zm7.383,10.852a3.693,3.693,0,0,1-2.8-1.129,4.19,4.19,0,0,1-1.078-3.02v-.266a5.073,5.073,0,0,1,.48-2.246,3.748,3.748,0,0,1,1.344-1.547,3.378,3.378,0,0,1,1.871-.559,3.166,3.166,0,0,1,2.563,1.086,4.7,4.7,0,0,1,.914,3.109v.6H67.344a3,3,0,0,0,.73,2.02,2.3,2.3,0,0,0,1.777.77,2.517,2.517,0,0,0,1.3-.312,3.259,3.259,0,0,0,.93-.828l.883.688A3.55,3.55,0,0,1,69.773,15.156Zm-.18-7.578a1.928,1.928,0,0,0-1.469.637A3.1,3.1,0,0,0,67.391,10h4.234V9.891a2.753,2.753,0,0,0-.594-1.707A1.815,1.815,0,0,0,69.594,7.578Zm6.516-1.031.047,1.063a3.08,3.08,0,0,1,2.531-1.219q2.68,0,2.7,3.023V15H79.945V9.406a1.946,1.946,0,0,0-.418-1.352,1.675,1.675,0,0,0-1.277-.437,2.086,2.086,0,0,0-1.234.375,2.546,2.546,0,0,0-.828.984V15H74.742V6.547Z" transform="translate(303 6920)" fill="#fff"/>
    <g id="Grupo_134436" data-name="Grupo 134436" transform="translate(-427.512 2297)">
      <circle id="Elipse_4967" data-name="Elipse 4967" cx="42.5" cy="42.5" r="42.5" transform="translate(625.512 4590)" fill="#aed4f5"/>
      <g id="Grupo_136152" data-name="Grupo 136152" transform="translate(640.884 4603.93)">
        <g id="Grupo_136152-2" data-name="Grupo 136152" clip-path="url(#clip-path)">
          <path id="Trazado_128946" data-name="Trazado 128946" d="M29.355,57.141a1.19,1.19,0,0,1-.567-1.119c.021-2.082,0-4.165.022-6.248a1.245,1.245,0,0,1,.3-.84,1.1,1.1,0,0,1,.855-.18c.4.088.541.458.54.871,0,1.711,0,3.422,0,5.132v.677H61.821c.409,0,.82-.034,1.226-.007s.547-.131.544-.542c-.017-1.859-.007-3.719-.007-5.578q0-4.156,0-8.312c0-.771,0-.779-.745-.77q-12.744.15-25.489.3c-2.064.024-4.127.035-6.191.057-.2,0-.4.037-.655.062v3.483c0,.465.007.93,0,1.395-.011.577-.333.943-.8.935a.865.865,0,0,1-.9-.928c-.011-1.562,0-3.124,0-4.686,0-1.023-.013-2.046.008-3.068a.532.532,0,0,0-.377-.576,4.585,4.585,0,0,1-2.9-4.381q-.034-12.105,0-24.21A4.72,4.72,0,0,1,30.459,3.8c2.138-.009,4.277.008,6.415-.015a1.331,1.331,0,0,0,.787-.284,14.253,14.253,0,0,1,18.749.024,1.244,1.244,0,0,0,.742.262c2.157.02,4.314.008,6.471.013A4.8,4.8,0,0,1,68.637,8.82c0,.558.011,1.116,0,1.673a.837.837,0,1,1-1.67.021c-.018-.65,0-1.3-.009-1.952A3.066,3.066,0,0,0,64.017,5.5c-1.876-.052-3.754-.012-5.685-.012a1.789,1.789,0,0,0,.131.3,9.828,9.828,0,0,1,1.756,5.771q0,9.288-.009,18.576c0,.1.02.21.034.354a3.711,3.711,0,0,1,4.092.828c1.159,1.147,1.053,2.629,1.036,4.2a3.129,3.129,0,0,0,1.572-2.435,6.38,6.38,0,0,0,.015-.725q0-8.73,0-17.46a2.625,2.625,0,0,1,.026-.611.778.778,0,0,1,.836-.666.793.793,0,0,1,.8.709,2.316,2.316,0,0,1,.013.445q0,8.926,0,17.851A4.686,4.686,0,0,1,65.7,37.206c-.383.174-.339.427-.339.714q0,8.981.005,17.963a1.355,1.355,0,0,1-.532,1.258Zm1.134-18.7h.832q12.6,0,25.208,0c2.193,0,4.387-.02,6.58-.011.4,0,.562-.1.555-.53-.023-1.338.007-2.677-.016-4.015a1.928,1.928,0,0,0-3.553-1.087c-.519.707-1.09.711-1.605.012a1.925,1.925,0,0,0-3.276-.013c-.522.707-1.092.713-1.607.016a1.926,1.926,0,0,0-3.276-.019c-.523.711-1.088.719-1.6.021a1.927,1.927,0,0,0-3.307.023.866.866,0,0,1-1.547.028,1.925,1.925,0,0,0-3.367.014.861.861,0,0,1-1.515-.012,1.929,1.929,0,0,0-3.369.008.855.855,0,0,1-1.511-.007c-.056-.074-.1-.154-.163-.226a1.915,1.915,0,0,0-2.1-.655A1.791,1.791,0,0,0,30.5,33.661c-.054,1.557-.015,3.117-.015,4.776m3.421-7.951c.01-.179.025-.321.025-.463q0-9.257,0-18.513a10.123,10.123,0,0,1,1.034-4.63c.23-.458.509-.891.792-1.381-1.98,0-3.907-.031-5.832.016a2.7,2.7,0,0,0-1.895.959,3.267,3.267,0,0,0-.838,2.35q.011,11.849.005,23.7a5.06,5.06,0,0,0,.035.723A3.077,3.077,0,0,0,28.8,35.522c-.014-1.55-.158-3.053,1.016-4.209a3.726,3.726,0,0,1,4.1-.828M47.066,11.534a9.415,9.415,0,0,1-4.9,2.445c-.979.2-1.979.3-2.971.444-.238.034-.5,0-.49.37.023,1.469-.086,2.951.075,4.4a8.3,8.3,0,0,0,6.982,7.189,8.424,8.424,0,0,0,8.7-4.336c1.313-2.4.9-4.977.986-7.551-3.053-.3-6.01-.737-8.384-2.966m2.026,16.674c-1.341-.062-2.59-.124-3.839-.168a.432.432,0,0,0-.345.172c-.341.79-.655,1.592-.984,2.4l.71.469a3.784,3.784,0,0,1,4.9,0l.616-.458c-.222-.458-.438-.867-.622-1.289s-.334-.854-.441-1.129" transform="translate(-18.852 0)" fill="#133d60"/>
          <path id="Trazado_128947" data-name="Trazado 128947" d="M10.5,169.752c-1.064,0-2.011,0-2.959,0-.664,0-1.038-.3-1.047-.814-.01-.535.381-.854,1.071-.857,1.394,0,2.789,0,4.183,0,.43,0,.908.027,1.028.474a1.514,1.514,0,0,1-.186,1.074c-1.134,1.81-2.317,3.589-3.483,5.379-.107.164-.207.331-.376.6,1.008,0,1.894,0,2.779,0a5.578,5.578,0,0,1,.834.035.737.737,0,0,1,.659.776.753.753,0,0,1-.614.816,2.111,2.111,0,0,1-.5.044c-1.469,0-2.937,0-4.406,0-.4,0-.8-.016-1.023-.419a1.018,1.018,0,0,1,.174-1.138q1.758-2.679,3.5-5.367c.109-.167.2-.341.361-.6" transform="translate(-4.694 -124.203)" fill="#133d60"/>
          <path id="Trazado_128948" data-name="Trazado 128948" d="M2.505,33.56c-.572,0-1.016.013-1.458,0-.619-.023-.954-.342-.939-.863.014-.5.334-.791.938-.8.947-.014,1.894-.017,2.841,0,.915.016,1.262.657.774,1.427-.636,1-1.3,1.991-1.942,2.986-.1.15-.181.308-.315.537.591,0,1.1-.008,1.618,0,.576.011.92.319.93.812.011.514-.346.85-.946.856-1.021.01-2.043.016-3.064,0a.839.839,0,0,1-.75-1.38c.73-1.158,1.487-2.3,2.314-3.571" transform="translate(0 -23.559)" fill="#133d60"/>
          <path id="Trazado_128949" data-name="Trazado 128949" d="M191.362,142.653c-.572,0-1.016.014-1.459,0-.6-.024-.955-.365-.936-.877.019-.492.354-.783.949-.789.948-.009,1.9-.013,2.844,0,.906.013,1.244.659.749,1.437-.628.987-1.275,1.963-1.913,2.944-.1.152-.188.31-.337.557.57,0,1.061-.005,1.551,0,.647.009,1.016.329,1,.859-.011.51-.365.807-.989.812-.781.007-1.562.018-2.342,0-.534-.015-1.165.2-1.51-.428s.151-1.048.439-1.5c.614-.969,1.248-1.927,1.95-3.007" transform="translate(-139.559 -104.177)" fill="#133d60"/>
          <path id="Trazado_128950" data-name="Trazado 128950" d="M90.428,62.48a2.316,2.316,0,1,1-4.628-.188.8.8,0,0,1,.774-.856.835.835,0,0,1,.922.77c.016.091-.023.217.026.272.176.2.378.52.571.521s.449-.282.606-.493c.1-.129.022-.371.089-.536a.786.786,0,0,1,.988-.512.866.866,0,0,1,.651,1.023" transform="translate(-63.401 -45.392)" fill="#133d60"/>
          <path id="Trazado_128951" data-name="Trazado 128951" d="M112.746,62.431c0-.594.266-.941.756-.987a.835.835,0,0,1,.944.862c.033.424.144.751.631.735s.575-.365.6-.776a.815.815,0,0,1,.86-.827.852.852,0,0,1,.834.92,2.315,2.315,0,1,1-4.629.072" transform="translate(-83.316 -45.401)" fill="#133d60"/>
        </g>
      </g>
    </g>
    <path id="Trazado_128083" data-name="Trazado 128083" d="M15.142,0A15.142,15.142,0,1,1,0,15.142,15.142,15.142,0,0,1,15.142,0Z" transform="translate(180 6914)" fill="#fcd189"/>
    <path id="Trazado_129341" data-name="Trazado 129341" d="M1.78,0H-.7V-7.881l-2.432.71V-9.045l4.68-1.619H1.78Z" transform="translate(195.249 6934.057)" fill="#12263f"/>
  </g>
</svg>
