<svg xmlns="http://www.w3.org/2000/svg" xmlns:xlink="http://www.w3.org/1999/xlink" width="295" height="81" viewBox="0 0 295 81">
  <defs>
    <clipPath id="clip-path">
      <rect id="Rectángulo_36337" data-name="Rectángulo 36337" width="44.685" height="55.271" fill="#133d60"/>
    </clipPath>
  </defs>
  <g id="Grupo_136240" data-name="Grupo 136240" transform="translate(-495 -6889)">
    <path id="Trazado_129347" data-name="Trazado 129347" d="M37.5,0H235.1a37.5,37.5,0,0,1,0,75H37.5a37.5,37.5,0,0,1,0-75Z" transform="translate(517.404 6892)" fill="#133d60"/>
    <path id="Trazado_129349" data-name="Trazado 129349" d="M1.32,15V3.625H4.531a5.169,5.169,0,0,1,2.625.656A4.438,4.438,0,0,1,8.918,6.148,6.078,6.078,0,0,1,9.547,8.93v.727a6.1,6.1,0,0,1-.621,2.82,4.369,4.369,0,0,1-1.773,1.859A5.5,5.5,0,0,1,4.469,15ZM2.82,4.852v8.922H4.4a3.434,3.434,0,0,0,2.7-1.079,4.458,4.458,0,0,0,.965-3.073V8.957a4.529,4.529,0,0,0-.91-3.014A3.239,3.239,0,0,0,4.57,4.852Zm12.273,10.3a3.693,3.693,0,0,1-2.8-1.129,4.19,4.19,0,0,1-1.078-3.02v-.266A5.073,5.073,0,0,1,11.7,8.5a3.748,3.748,0,0,1,1.344-1.547,3.378,3.378,0,0,1,1.871-.559,3.166,3.166,0,0,1,2.563,1.086,4.7,4.7,0,0,1,.914,3.109v.6H12.664a3,3,0,0,0,.73,2.02,2.3,2.3,0,0,0,1.777.77,2.517,2.517,0,0,0,1.3-.312,3.259,3.259,0,0,0,.93-.828l.883.688A3.55,3.55,0,0,1,15.094,15.156Zm-.18-7.578a1.928,1.928,0,0,0-1.469.637A3.1,3.1,0,0,0,12.711,10h4.234V9.891a2.753,2.753,0,0,0-.594-1.707A1.815,1.815,0,0,0,14.914,7.578Zm10.07,5.18a1.064,1.064,0,0,0-.441-.91A4.249,4.249,0,0,0,23,11.289a7.277,7.277,0,0,1-1.742-.562,2.479,2.479,0,0,1-.953-.781A1.869,1.869,0,0,1,20,8.867a2.193,2.193,0,0,1,.879-1.758,3.432,3.432,0,0,1,2.246-.719,3.532,3.532,0,0,1,2.332.742,2.357,2.357,0,0,1,.895,1.9H24.9a1.3,1.3,0,0,0-.5-1.023,1.888,1.888,0,0,0-1.27-.43,1.976,1.976,0,0,0-1.234.344,1.082,1.082,0,0,0-.445.9.877.877,0,0,0,.414.789,5.1,5.1,0,0,0,1.5.508,7.8,7.8,0,0,1,1.754.578,2.558,2.558,0,0,1,1,.809,1.988,1.988,0,0,1,.324,1.152,2.163,2.163,0,0,1-.906,1.816,3.8,3.8,0,0,1-2.352.684,4.257,4.257,0,0,1-1.8-.359,2.922,2.922,0,0,1-1.223-1,2.42,2.42,0,0,1-.441-1.395h1.445a1.5,1.5,0,0,0,.582,1.152,2.258,2.258,0,0,0,1.434.426,2.331,2.331,0,0,0,1.316-.332A1.02,1.02,0,0,0,24.984,12.758ZM31.7,13.977a2.082,2.082,0,0,0,1.352-.469,1.649,1.649,0,0,0,.641-1.172h1.367a2.621,2.621,0,0,1-.5,1.383,3.293,3.293,0,0,1-1.23,1.047,3.55,3.55,0,0,1-1.629.391A3.482,3.482,0,0,1,28.957,14a4.59,4.59,0,0,1-1.02-3.152v-.242a5.089,5.089,0,0,1,.453-2.2,3.451,3.451,0,0,1,1.3-1.492,3.7,3.7,0,0,1,2-.531,3.39,3.39,0,0,1,2.363.852,3.043,3.043,0,0,1,1,2.211H33.7a1.992,1.992,0,0,0-.621-1.348A1.932,1.932,0,0,0,31.7,7.578a2.023,2.023,0,0,0-1.707.793,3.724,3.724,0,0,0-.605,2.293v.273a3.65,3.65,0,0,0,.6,2.25A2.033,2.033,0,0,0,31.7,13.977ZM41.906,15a3.036,3.036,0,0,1-.2-.891A3.225,3.225,0,0,1,39.3,15.156a2.984,2.984,0,0,1-2.051-.707,2.287,2.287,0,0,1-.8-1.793,2.39,2.39,0,0,1,1-2.051,4.733,4.733,0,0,1,2.824-.73H41.68V9.211A1.623,1.623,0,0,0,41.227,8a1.821,1.821,0,0,0-1.336-.449,2.107,2.107,0,0,0-1.3.391,1.151,1.151,0,0,0-.523.945H36.617a2,2,0,0,1,.449-1.223,3.066,3.066,0,0,1,1.219-.934,4.1,4.1,0,0,1,1.691-.344,3.342,3.342,0,0,1,2.289.73,2.635,2.635,0,0,1,.859,2.012v3.891a4.757,4.757,0,0,0,.3,1.852V15Zm-2.4-1.1a2.54,2.54,0,0,0,1.289-.352,2.127,2.127,0,0,0,.883-.914V10.9H40.547q-2.656,0-2.656,1.555a1.316,1.316,0,0,0,.453,1.063A1.742,1.742,0,0,0,39.508,13.9Zm7.25-7.352L46.8,7.609a3.08,3.08,0,0,1,2.531-1.219q2.68,0,2.7,3.023V15H50.594V9.406a1.946,1.946,0,0,0-.418-1.352A1.675,1.675,0,0,0,48.9,7.617a2.086,2.086,0,0,0-1.234.375,2.546,2.546,0,0,0-.828.984V15H45.391V6.547Zm12.383,6.211a1.064,1.064,0,0,0-.441-.91,4.249,4.249,0,0,0-1.539-.559,7.277,7.277,0,0,1-1.742-.562,2.479,2.479,0,0,1-.953-.781,1.869,1.869,0,0,1-.309-1.078,2.193,2.193,0,0,1,.879-1.758,3.432,3.432,0,0,1,2.246-.719,3.532,3.532,0,0,1,2.332.742,2.357,2.357,0,0,1,.895,1.9H59.055a1.3,1.3,0,0,0-.5-1.023,1.888,1.888,0,0,0-1.27-.43,1.976,1.976,0,0,0-1.234.344,1.082,1.082,0,0,0-.445.9.877.877,0,0,0,.414.789,5.1,5.1,0,0,0,1.5.508,7.8,7.8,0,0,1,1.754.578,2.558,2.558,0,0,1,1,.809,1.988,1.988,0,0,1,.324,1.152,2.163,2.163,0,0,1-.906,1.816,3.8,3.8,0,0,1-2.352.684,4.257,4.257,0,0,1-1.8-.359,2.922,2.922,0,0,1-1.223-1,2.42,2.42,0,0,1-.441-1.395h1.445a1.5,1.5,0,0,0,.582,1.152,2.258,2.258,0,0,0,1.434.426,2.331,2.331,0,0,0,1.316-.332A1.02,1.02,0,0,0,59.141,12.758ZM67.688,15a3.036,3.036,0,0,1-.2-.891,3.225,3.225,0,0,1-2.406,1.047,2.984,2.984,0,0,1-2.051-.707,2.287,2.287,0,0,1-.8-1.793,2.39,2.39,0,0,1,1-2.051,4.733,4.733,0,0,1,2.824-.73h1.406V9.211A1.623,1.623,0,0,0,67.008,8a1.821,1.821,0,0,0-1.336-.449,2.108,2.108,0,0,0-1.3.391,1.151,1.151,0,0,0-.523.945H62.4a2,2,0,0,1,.449-1.223,3.066,3.066,0,0,1,1.219-.934,4.1,4.1,0,0,1,1.691-.344,3.342,3.342,0,0,1,2.289.73,2.635,2.635,0,0,1,.859,2.012v3.891a4.757,4.757,0,0,0,.3,1.852V15Zm-2.4-1.1a2.54,2.54,0,0,0,1.289-.352,2.127,2.127,0,0,0,.883-.914V10.9H66.328q-2.656,0-2.656,1.555a1.316,1.316,0,0,0,.453,1.063A1.742,1.742,0,0,0,65.289,13.9Zm9.969-6.055a4.331,4.331,0,0,0-.711-.055A1.9,1.9,0,0,0,72.617,9v6H71.172V6.547h1.406l.023.977a2.251,2.251,0,0,1,2.016-1.133,1.477,1.477,0,0,1,.641.109Z" transform="translate(617.744 6920)" fill="#fff"/>
    <path id="Trazado_129346" data-name="Trazado 129346" d="M40.5,0A40.5,40.5,0,1,1,0,40.5,40.5,40.5,0,0,1,40.5,0Z" transform="translate(515 6889)" fill="#aed4f5"/>
    <g id="Grupo_136153" data-name="Grupo 136153" transform="translate(531.863 6901.864)">
      <g id="Grupo_136153-2" data-name="Grupo 136153" clip-path="url(#clip-path)">
        <path id="Trazado_128952" data-name="Trazado 128952" d="M27.7,37.93c.441-.336.8-.635,1.188-.9A10.035,10.035,0,1,1,36.15,55.164a9.809,9.809,0,0,1-9.557-3.976A1.078,1.078,0,0,0,25.6,50.7c-1.089.033-2.18.028-3.27,0-.437-.011-.58.108-.6.571a3.9,3.9,0,0,1-2.1,3.566,3.173,3.173,0,0,1-1.3.342c-1.252.048-2.507.04-3.76.02a3.659,3.659,0,0,1-3.532-3.173,3.117,3.117,0,0,1-.047-.378,2.491,2.491,0,0,0-.669-1.794,2.106,2.106,0,0,1-.356-1.323C9.947,42.324,9.954,36.11,9.954,29.9c0-.754,0-.746-.743-.76a9.763,9.763,0,0,1-1.843-.083,3.738,3.738,0,0,1-2.973-3.735c-.006-.981.025-1.963-.016-2.943a1.691,1.691,0,0,0-.321-.925c-.844-1.068-1.75-2.089-2.6-3.149A6.236,6.236,0,0,1,.006,14.016a2.545,2.545,0,0,1,2.476-2.474c.527-.015,1.057.025,1.579-.027a.8.8,0,0,0,.576-.349A3.773,3.773,0,0,1,7.872,8.755c.455-.049.551-.264.645-.622A10.286,10.286,0,0,1,15.5.548,10.51,10.51,0,0,1,29.057,8.192c.086.368.221.55.647.536A3.877,3.877,0,0,1,33.729,11.2a.775.775,0,0,0,.542.32c.429.061.88-.012,1.3.075a2.593,2.593,0,0,1,2,2.478,6.4,6.4,0,0,1-1.52,4.318c-.586.717-1.208,1.407-1.774,2.139a1.5,1.5,0,0,0-.3.827c-.032,1.289-.023,2.58-.012,3.87a3.777,3.777,0,0,1-3.9,3.922c-.651-.045-1.308,0-1.962-.006-.3,0-.468.088-.467.436.009,2.689.006,5.378.008,8.067a1.774,1.774,0,0,0,.064.288M5.617,22.094c.159.215.267.379.393.53C7.4,24.28,8.78,25.943,10.19,27.581a1.878,1.878,0,0,1,.486,1.326c-.017,3.924-.01,7.848-.008,11.772,0,.83.148.965.965.821a1.011,1.011,0,0,0,.48-.3c.281-.283.507-.622.8-.884a.559.559,0,0,0,.137-.8,5.763,5.763,0,0,1-.6-3.742,5.005,5.005,0,0,1,5.2-4.12,6.164,6.164,0,0,1,4.331,2.016c1.45,1.479,2.925,2.933,4.39,4.4.118.118.249.223.484.433,0-.371,0-.585,0-.8.018-2.979.028-5.958.067-8.937a1.623,1.623,0,0,1,.29-.947c1.354-1.661,2.747-3.29,4.125-4.932.2-.243.391-.5.622-.794l-4.917-3.1a1.407,1.407,0,0,0-.162.19A9.712,9.712,0,0,1,23.161,23.2a2.669,2.669,0,0,0-1.3,1.727,3.155,3.155,0,0,1-6.127.137,3.222,3.222,0,0,0-1.572-2.03,9.1,9.1,0,0,1-3.229-3.394c-.11-.2-.227-.4-.377-.668l-4.939,3.12M13.1,5.828l-.251-.16a5.743,5.743,0,0,1-.362.584,9.379,9.379,0,0,0-1.914,5.621c-.022.5-.2.667-.691.749a2.239,2.239,0,0,0,.248,4.463.787.787,0,0,1,.815.687A8.2,8.2,0,0,0,26.6,17.82a.866.866,0,0,1,.888-.74,2.245,2.245,0,0,0,2.177-2.333A2.315,2.315,0,0,0,27.3,12.581c-.67,0-1.342.014-2.01-.022a12.969,12.969,0,0,1-6.653-2.134c-.153-.1-.315-.19-.473-.285a9.248,9.248,0,0,0,.485,1.488c.232.646-.12,1.112-.738,1.011A5.821,5.821,0,0,1,13.1,7.425c-.042-.529-.006-1.065-.006-1.6m4.68,5.9c-.1-.294-.15-.445-.212-.589-.342-.8-.706-1.595-1.015-2.409a.646.646,0,0,1,.138-.6c.139-.092.421.005.632.059.091.023.162.14.237.219a9.921,9.921,0,0,0,5.823,3.066c1.6.255,3.246.284,4.873.385.088.005.271-.256.279-.4a10.173,10.173,0,0,0-3.051-8.052,9.123,9.123,0,0,0-8.656-2.388A9.361,9.361,0,0,0,11.5,4.1a9.837,9.837,0,0,0-2.452,7.45c.022.352.236.419.47.264a.756.756,0,0,0,.266-.518,10.46,10.46,0,0,1,1.267-4.36,7.85,7.85,0,0,1,2.315-2.641c.163-.116.531-.2.619-.108a1.094,1.094,0,0,1,.158.664,1.9,1.9,0,0,1-.118.473,5.254,5.254,0,0,0,1.061,4.809,4.828,4.828,0,0,0,2.7,1.594m7.577,33.511a9.305,9.305,0,1,0,9.325-9.331,9.277,9.277,0,0,0-9.325,9.331M11.715,48h0c0,1.18-.011,2.36,0,3.539a2.982,2.982,0,0,0,2.978,2.976q1.634.005,3.267,0a2.945,2.945,0,0,0,3-2.891c.054-2.158.081-4.319.043-6.477a7.7,7.7,0,0,0-.4-2.392,4.492,4.492,0,0,0-5.478-2.92,5.2,5.2,0,0,0-3.4,4.626c-.021,1.18,0,2.36,0,3.539M27.43,18.269c.228.176.347.283.481.367,1.379.875,2.767,1.735,4.135,2.626a.477.477,0,0,0,.764-.118c.871-1.069,1.775-2.111,2.657-3.171a5.842,5.842,0,0,0,1.4-3.69,1.919,1.919,0,0,0-1.987-2.052c-1.652-.013-3.3-.007-4.955,0a2.342,2.342,0,0,0-.5.114,1.881,1.881,0,0,0,.2.515,2.963,2.963,0,0,1-1.378,4.832,4.132,4.132,0,0,0-.823.576m-17.252-.018a6.488,6.488,0,0,0-.971-.586A2.9,2.9,0,0,1,7.2,14.8a3.067,3.067,0,0,1,.789-2.033,1.391,1.391,0,0,0,.159-.421,1.182,1.182,0,0,0-.341-.112c-1.78-.006-3.56-.033-5.339.011A1.861,1.861,0,0,0,.705,14.12a5.744,5.744,0,0,0,1.4,3.853c.878,1.065,1.783,2.107,2.655,3.175a.481.481,0,0,0,.768.115c1.339-.871,2.7-1.712,4.047-2.567.163-.1.313-.23.6-.445M25.487,41.067c.183-.329.359-.662.551-.985.482-.812.494-.824-.188-1.512q-2.3-2.319-4.623-4.62a5.4,5.4,0,0,0-2.27-1.346,4.53,4.53,0,0,0-4.963,1.425,4.918,4.918,0,0,0-.288,5.147.55.55,0,0,0,.441.249,10.048,10.048,0,0,0,1.15-.446,13,13,0,0,1-.492-1.247,2.771,2.771,0,0,1,2.435-3.786,3.48,3.48,0,0,1,2.9,1.121c1.4,1.372,2.771,2.774,4.169,4.149a3.605,3.605,0,0,1,1.179,1.85M33.212,22.1l-.172-.068L27.8,28.272l.083.158h1.826c2.207,0,3.331-1,3.492-3.2.076-1.038.013-2.087.013-3.131m-27.861.908-.173.067c0,.758.009,1.516,0,2.274-.035,2.31,2.077,3.547,4.608,2.941L5.351,23.009M19.663,35.686a2.759,2.759,0,0,0-3.205-.8c-1.608.831-1.207,2.922-.3,3.894a.419.419,0,0,0,.409,0c1.035-1.015,2.053-2.047,3.093-3.093m4.722,10.166a3.481,3.481,0,0,1-.4.27,12.365,12.365,0,0,1-1.691.8c-.371.12-.506.268-.5.629.011.6.015,1.195,0,1.792-.011.4.152.551.546.545.923-.014,1.846,0,2.769-.008a1.637,1.637,0,0,0,.338-.061l-1.064-3.964M18.773,26.7a2.464,2.464,0,0,0,2.443-2.242c.031-.344-.045-.467-.415-.381a8.663,8.663,0,0,1-4.032,0c-.419-.1-.478.089-.439.423a2.509,2.509,0,0,0,2.444,2.2m-1.21,12.317c.476.221.975.468,1.489.678a.456.456,0,0,0,.372-.128c.626-.606,1.245-1.222,1.846-1.852.082-.087.13-.339.07-.406-.342-.387-.721-.741-.992-1.011l-2.785,2.72m4.186,7.11a3.236,3.236,0,0,0,2.95-2.3c.128-.671.3-1.335.445-2l-.215-.163a2.1,2.1,0,0,1-.309.517c-.9.827-1.821,1.634-2.729,2.454a.43.43,0,0,0-.137.269c-.015.394-.006.789-.006,1.222m-.018-2.163c.234-.187.4-.294.531-.427q.967-.953,1.921-1.918a.932.932,0,0,0-.022-1.53c-.23-.232-.4-.24-.628,0-.656.675-1.335,1.327-1.985,2.008a.7.7,0,0,0-.2.512,13.823,13.823,0,0,0,.382,1.358m-.722-2.228c.489-.532.925-1.015,1.371-1.488,1.129-1.2,1.155-.728-.039-1.977-.037-.039-.077-.1-.119-.107-.126-.01-.3-.047-.373.018-.694.658-1.371,1.335-2.057,2.011l1.218,1.543M32.93,11.506a2.77,2.77,0,0,0-2.842-2c-.75-.01-.75-.01-.706.731.075,1.273.075,1.273,1.386,1.273Zm-27.485,0c.447,0,.87.006,1.294,0,1.725-.031,1.416.281,1.454-1.589,0-.018.006-.044,0-.053-.123-.116-.242-.321-.375-.33a2.64,2.64,0,0,0-2.37,1.974m5.349,32.322.141.024c.1-.359.211-.715.283-1.079.021-.107-.078-.238-.121-.358-.1.1-.278.184-.288.289-.035.372-.014.749-.014,1.124m.071.652-.047,0v4.271h.047Z" transform="translate(0 0)" fill="#133d60"/>
        <path id="Trazado_128953" data-name="Trazado 128953" d="M67.756,71.817c-.551-.236-1.116-.444-1.641-.727-.126-.068-.117-.385-.17-.587.2.011.439-.048.582.045a2.2,2.2,0,0,0,2.6.007c.152-.1.414-.023.626-.028-.069.2-.082.46-.219.586a2.185,2.185,0,0,1-1.713.546l-.063.158" transform="translate(-49.05 -52.433)" fill="#133d60"/>
        <path id="Trazado_128954" data-name="Trazado 128954" d="M51.736,56.686a1.369,1.369,0,0,1-1.413-1.336c.009-.149.152-.289.233-.433.146.1.383.181.42.314.119.432.324.75.8.741.443-.009.64-.314.752-.727.038-.138.269-.224.412-.333.085.158.24.314.243.474a1.362,1.362,0,0,1-1.445,1.3" transform="translate(-37.428 -40.843)" fill="#133d60"/>
        <path id="Trazado_128955" data-name="Trazado 128955" d="M86.5,56.7a1.374,1.374,0,0,1-1.424-1.225c-.019-.17.14-.36.217-.541.158.112.418.2.456.34.111.421.307.71.758.714s.645-.309.784-.7c.052-.146.256-.238.391-.355.095.172.274.347.27.517A1.379,1.379,0,0,1,86.5,56.7" transform="translate(-63.279 -40.858)" fill="#133d60"/>
        <path id="Trazado_128956" data-name="Trazado 128956" d="M103.761,153.113a8.072,8.072,0,1,1,8.119,8.087,8.01,8.01,0,0,1-8.119-8.087m.722,0a7.356,7.356,0,0,0,14.711-.015,7.356,7.356,0,1,0-14.711.015" transform="translate(-77.177 -107.859)" fill="#133d60"/>
        <path id="Trazado_128957" data-name="Trazado 128957" d="M57.812,167.625c0,1.018,0,2.035,0,3.053,0,1.337-.552,1.9-1.862,1.9-.891,0-1.781,0-2.671,0a1.519,1.519,0,0,1-1.688-1.634c-.028-2.18-.035-4.362.011-6.541a4.514,4.514,0,0,1,.406-1.622,2.967,2.967,0,0,1,2.931-1.941,3.2,3.2,0,0,1,2.645,2.292,5.516,5.516,0,0,1,.219,1.389c.032,1.035.01,2.071.01,3.107m-3.117-3.1v0c.617,0,1.235-.01,1.851,0,.39.009.561-.108.5-.542a2.921,2.921,0,0,0-.919-1.859,1.987,1.987,0,0,0-2.064-.474,2.949,2.949,0,0,0-1.711,2.463c0,.324.158.408.435.407.635,0,1.271,0,1.906,0m0,5.12v0c.4,0,.8,0,1.2,0,1.3-.014,1.212.184,1.225-1.293,0-.449-.178-.61-.616-.6-.979.017-1.958-.006-2.937.007-1.362.018-1.285-.271-1.27,1.4,0,.338.154.494.5.489.634-.009,1.269,0,1.9,0m-.03-2.591h1.2c1.34,0,1.33,0,1.255-1.341-.021-.371-.162-.5-.531-.5-1.014.017-2.029.005-3.044.005-1.349,0-1.378.04-1.25,1.4.03.314.147.447.472.438.634-.017,1.268-.005,1.9,0m.086,3.29c-.652,0-1.305-.012-1.957.009a.592.592,0,0,0-.444.188.949.949,0,0,0,.831,1.31c.96.008,1.921,0,2.881,0,.706,0,.975-.254,1.038-.951.034-.375-.07-.582-.5-.565-.615.024-1.232.006-1.848.006" transform="translate(-38.356 -119.625)" fill="#133d60"/>
        <path id="Trazado_128958" data-name="Trazado 128958" d="M133.754,153.483c0-.926,0-1.852,0-2.778,0-.323-.055-.754.4-.747.407.007.371.417.372.725,0,1.707.021,3.414,0,5.121-.006.484.166.633.631.626,1.253-.021,2.506-.011,3.759,0,.255,0,.618-.066.616.342,0,.385-.337.358-.611.359-1.507,0-3.015-.008-4.522.006-.472,0-.654-.2-.65-.656.009-1,0-2,0-3" transform="translate(-99.484 -111.538)" fill="#133d60"/>
      </g>
    </g>
    <path id="Trazado_129348" data-name="Trazado 129348" d="M15.142,0A15.142,15.142,0,1,1,0,15.142,15.142,15.142,0,0,1,15.142,0Z" transform="translate(495 6914)" fill="#fcd189"/>
    <path id="Trazado_129350" data-name="Trazado 129350" d="M3.75,0H-3.691V-1.611l3.428-3.6A4.091,4.091,0,0,0,1-7.507,1.6,1.6,0,0,0,.7-8.555a1.072,1.072,0,0,0-.872-.359,1.086,1.086,0,0,0-.916.48,1.972,1.972,0,0,0-.352,1.2H-3.911A3.5,3.5,0,0,1-3.42-9.049a3.441,3.441,0,0,1,1.362-1.3A4.047,4.047,0,0,1-.11-10.818a3.981,3.981,0,0,1,2.662.8,2.85,2.85,0,0,1,.934,2.292A3.329,3.329,0,0,1,3.252-6.5a5.38,5.38,0,0,1-.729,1.252A18.358,18.358,0,0,1,.93-3.494L-.447-1.9h4.2Z" transform="translate(510.249 6934.057)" fill="#12263f"/>
  </g>
</svg>
