<svg xmlns="http://www.w3.org/2000/svg" width="85.84" height="85.279" viewBox="0 0 85.84 85.279">
  <g id="Grupo_136095" data-name="Grupo 136095" transform="translate(-180 -737)">
    <path id="Trazado_113538" data-name="Trazado 113538" d="M178.553,97.576c-3.376,0-5.043-2.7-6.382-4.862-1.356-2.192-2.275-3.536-4-3.536s-2.646,1.344-4,3.536c-1.339,2.167-3.005,4.862-6.38,4.862s-5.043-2.7-6.382-4.862c-1.355-2.192-2.273-3.536-4-3.536s-2.644,1.344-4,3.536c-1.339,2.167-3.005,4.862-6.38,4.862s-5.041-2.7-6.379-4.862c-1.355-2.192-2.272-3.536-4-3.536s-2.643,1.344-4,3.536c-1.339,2.167-3,4.862-6.379,4.862s-5.04-2.7-6.379-4.862c-1.355-2.192-2.272-3.536-4-3.536a1.4,1.4,0,1,1,0-2.8c3.373,0,5.04,2.7,6.379,4.863,1.353,2.19,2.272,3.534,4,3.534s2.643-1.344,4-3.534c1.339-2.167,3.005-4.863,6.379-4.863s5.04,2.7,6.377,4.862c1.355,2.192,2.272,3.536,4,3.536s2.644-1.344,4-3.536c1.339-2.165,3.005-4.862,6.38-4.862s5.041,2.7,6.382,4.862c1.353,2.192,2.272,3.536,4,3.536s2.644-1.344,4-3.536c1.337-2.165,3.005-4.862,6.38-4.862s5.045,2.7,6.383,4.862c1.356,2.192,2.275,3.536,4,3.536s2.647-1.344,4-3.536c1.339-2.165,3.007-4.862,6.383-4.862a1.4,1.4,0,0,1,0,2.8c-1.729,0-2.647,1.344-4,3.536C183.6,94.881,181.931,97.576,178.553,97.576Z" transform="translate(370.339 873.343) rotate(180)" fill="#3ba3f8"/>
    <path id="Trazado_128604" data-name="Trazado 128604" d="M178.553,97.576c-3.376,0-5.043-2.7-6.382-4.862-1.356-2.192-2.275-3.536-4-3.536s-2.646,1.344-4,3.536c-1.339,2.167-3.005,4.862-6.38,4.862s-5.043-2.7-6.382-4.862c-1.355-2.192-2.273-3.536-4-3.536s-2.644,1.344-4,3.536c-1.339,2.167-3.005,4.862-6.38,4.862s-5.041-2.7-6.379-4.862c-1.355-2.192-2.272-3.536-4-3.536s-2.643,1.344-4,3.536c-1.339,2.167-3,4.862-6.379,4.862s-5.04-2.7-6.379-4.862c-1.355-2.192-2.272-3.536-4-3.536a1.4,1.4,0,1,1,0-2.8c3.373,0,5.04,2.7,6.379,4.863,1.353,2.19,2.272,3.534,4,3.534s2.643-1.344,4-3.534c1.339-2.167,3.005-4.863,6.379-4.863s5.04,2.7,6.377,4.862c1.355,2.192,2.272,3.536,4,3.536s2.644-1.344,4-3.536c1.339-2.165,3.005-4.862,6.38-4.862s5.041,2.7,6.382,4.862c1.353,2.192,2.272,3.536,4,3.536s2.644-1.344,4-3.536c1.337-2.165,3.005-4.862,6.38-4.862s5.045,2.7,6.383,4.862c1.356,2.192,2.275,3.536,4,3.536s2.647-1.344,4-3.536c1.339-2.165,3.007-4.862,6.383-4.862a1.4,1.4,0,0,1,0,2.8c-1.729,0-2.647,1.344-4,3.536C183.6,94.881,181.931,97.576,178.553,97.576Z" transform="translate(370.339 897.462) rotate(180)" fill="#3ba3f8"/>
    <path id="Trazado_126924" data-name="Trazado 126924" d="M178.553,97.576c-3.376,0-5.043-2.7-6.382-4.862-1.356-2.192-2.275-3.536-4-3.536s-2.646,1.344-4,3.536c-1.339,2.167-3.005,4.862-6.38,4.862s-5.043-2.7-6.382-4.862c-1.355-2.192-2.273-3.536-4-3.536s-2.644,1.344-4,3.536c-1.339,2.167-3.005,4.862-6.38,4.862s-5.041-2.7-6.379-4.862c-1.355-2.192-2.272-3.536-4-3.536s-2.643,1.344-4,3.536c-1.339,2.167-3,4.862-6.379,4.862s-5.04-2.7-6.379-4.862c-1.355-2.192-2.272-3.536-4-3.536a1.4,1.4,0,1,1,0-2.8c3.373,0,5.04,2.7,6.379,4.863,1.353,2.19,2.272,3.534,4,3.534s2.643-1.344,4-3.534c1.339-2.167,3.005-4.863,6.379-4.863s5.04,2.7,6.377,4.862c1.355,2.192,2.272,3.536,4,3.536s2.644-1.344,4-3.536c1.339-2.165,3.005-4.862,6.38-4.862s5.041,2.7,6.382,4.862c1.353,2.192,2.272,3.536,4,3.536s2.644-1.344,4-3.536c1.337-2.165,3.005-4.862,6.38-4.862s5.045,2.7,6.383,4.862c1.356,2.192,2.275,3.536,4,3.536s2.647-1.344,4-3.536c1.339-2.165,3.007-4.862,6.383-4.862a1.4,1.4,0,0,1,0,2.8c-1.729,0-2.647,1.344-4,3.536C183.6,94.881,181.931,97.576,178.553,97.576Z" transform="translate(370.339 847.497) rotate(180)" fill="#3ba3f8"/>
    <path id="Trazado_113539" data-name="Trazado 113539" d="M178.553,97.576c-3.376,0-5.043-2.7-6.382-4.862-1.356-2.192-2.275-3.536-4-3.536s-2.646,1.344-4,3.536c-1.339,2.167-3.005,4.862-6.38,4.862s-5.043-2.7-6.382-4.862c-1.355-2.192-2.273-3.536-4-3.536s-2.644,1.344-4,3.536c-1.339,2.167-3.005,4.862-6.38,4.862s-5.041-2.7-6.379-4.862c-1.355-2.192-2.272-3.536-4-3.536s-2.643,1.344-4,3.536c-1.339,2.167-3,4.862-6.379,4.862s-5.04-2.7-6.379-4.862c-1.355-2.192-2.272-3.536-4-3.536a1.4,1.4,0,1,1,0-2.8c3.373,0,5.04,2.7,6.379,4.863,1.353,2.19,2.272,3.534,4,3.534s2.643-1.344,4-3.534c1.339-2.167,3.005-4.863,6.379-4.863s5.04,2.7,6.377,4.862c1.355,2.192,2.272,3.536,4,3.536s2.644-1.344,4-3.536c1.339-2.165,3.005-4.862,6.38-4.862s5.041,2.7,6.382,4.862c1.353,2.192,2.272,3.536,4,3.536s2.644-1.344,4-3.536c1.337-2.165,3.005-4.862,6.38-4.862s5.045,2.7,6.383,4.862c1.356,2.192,2.275,3.536,4,3.536s2.647-1.344,4-3.536c1.339-2.165,3.007-4.862,6.383-4.862a1.4,1.4,0,0,1,0,2.8c-1.729,0-2.647,1.344-4,3.536C183.6,94.881,181.931,97.576,178.553,97.576Z" transform="translate(370.339 860.42) rotate(180)" fill="#3ba3f8"/>
    <path id="Trazado_126923" data-name="Trazado 126923" d="M178.553,97.576c-3.376,0-5.043-2.7-6.382-4.862-1.356-2.192-2.275-3.536-4-3.536s-2.646,1.344-4,3.536c-1.339,2.167-3.005,4.862-6.38,4.862s-5.043-2.7-6.382-4.862c-1.355-2.192-2.273-3.536-4-3.536s-2.644,1.344-4,3.536c-1.339,2.167-3.005,4.862-6.38,4.862s-5.041-2.7-6.379-4.862c-1.355-2.192-2.272-3.536-4-3.536s-2.643,1.344-4,3.536c-1.339,2.167-3,4.862-6.379,4.862s-5.04-2.7-6.379-4.862c-1.355-2.192-2.272-3.536-4-3.536a1.4,1.4,0,1,1,0-2.8c3.373,0,5.04,2.7,6.379,4.863,1.353,2.19,2.272,3.534,4,3.534s2.643-1.344,4-3.534c1.339-2.167,3.005-4.863,6.379-4.863s5.04,2.7,6.377,4.862c1.355,2.192,2.272,3.536,4,3.536s2.644-1.344,4-3.536c1.339-2.165,3.005-4.862,6.38-4.862s5.041,2.7,6.382,4.862c1.353,2.192,2.272,3.536,4,3.536s2.644-1.344,4-3.536c1.337-2.165,3.005-4.862,6.38-4.862s5.045,2.7,6.383,4.862c1.356,2.192,2.275,3.536,4,3.536s2.647-1.344,4-3.536c1.339-2.165,3.007-4.862,6.383-4.862a1.4,1.4,0,0,1,0,2.8c-1.729,0-2.647,1.344-4,3.536C183.6,94.881,181.931,97.576,178.553,97.576Z" transform="translate(370.339 834.575) rotate(180)" fill="#3ba3f8"/>
    <path id="Trazado_126923-2" data-name="Trazado 126923" d="M178.553,97.576c-3.376,0-5.043-2.7-6.382-4.862-1.356-2.192-2.275-3.536-4-3.536s-2.646,1.344-4,3.536c-1.339,2.167-3.005,4.862-6.38,4.862s-5.043-2.7-6.382-4.862c-1.355-2.192-2.273-3.536-4-3.536s-2.644,1.344-4,3.536c-1.339,2.167-3.005,4.862-6.38,4.862s-5.041-2.7-6.379-4.862c-1.355-2.192-2.272-3.536-4-3.536s-2.643,1.344-4,3.536c-1.339,2.167-3,4.862-6.379,4.862s-5.04-2.7-6.379-4.862c-1.355-2.192-2.272-3.536-4-3.536a1.4,1.4,0,1,1,0-2.8c3.373,0,5.04,2.7,6.379,4.863,1.353,2.19,2.272,3.534,4,3.534s2.643-1.344,4-3.534c1.339-2.167,3.005-4.863,6.379-4.863s5.04,2.7,6.377,4.862c1.355,2.192,2.272,3.536,4,3.536s2.644-1.344,4-3.536c1.339-2.165,3.005-4.862,6.38-4.862s5.041,2.7,6.382,4.862c1.353,2.192,2.272,3.536,4,3.536s2.644-1.344,4-3.536c1.337-2.165,3.005-4.862,6.38-4.862s5.045,2.7,6.383,4.862c1.356,2.192,2.275,3.536,4,3.536s2.647-1.344,4-3.536c1.339-2.165,3.007-4.862,6.383-4.862a1.4,1.4,0,0,1,0,2.8c-1.729,0-2.647,1.344-4,3.536C183.6,94.881,181.931,97.576,178.553,97.576Z" transform="translate(370.339 884.539) rotate(180)" fill="#3ba3f8"/>
    <path id="Trazado_128605" data-name="Trazado 128605" d="M178.553,97.576c-3.376,0-5.043-2.7-6.382-4.862-1.356-2.192-2.275-3.536-4-3.536s-2.646,1.344-4,3.536c-1.339,2.167-3.005,4.862-6.38,4.862s-5.043-2.7-6.382-4.862c-1.355-2.192-2.273-3.536-4-3.536s-2.644,1.344-4,3.536c-1.339,2.167-3.005,4.862-6.38,4.862s-5.041-2.7-6.379-4.862c-1.355-2.192-2.272-3.536-4-3.536s-2.643,1.344-4,3.536c-1.339,2.167-3,4.862-6.379,4.862s-5.04-2.7-6.379-4.862c-1.355-2.192-2.272-3.536-4-3.536a1.4,1.4,0,1,1,0-2.8c3.373,0,5.04,2.7,6.379,4.863,1.353,2.19,2.272,3.534,4,3.534s2.643-1.344,4-3.534c1.339-2.167,3.005-4.863,6.379-4.863s5.04,2.7,6.377,4.862c1.355,2.192,2.272,3.536,4,3.536s2.644-1.344,4-3.536c1.339-2.165,3.005-4.862,6.38-4.862s5.041,2.7,6.382,4.862c1.353,2.192,2.272,3.536,4,3.536s2.644-1.344,4-3.536c1.337-2.165,3.005-4.862,6.38-4.862s5.045,2.7,6.383,4.862c1.356,2.192,2.275,3.536,4,3.536s2.647-1.344,4-3.536c1.339-2.165,3.007-4.862,6.383-4.862a1.4,1.4,0,0,1,0,2.8c-1.729,0-2.647,1.344-4,3.536C183.6,94.881,181.931,97.576,178.553,97.576Z" transform="translate(370.339 908.658) rotate(180)" fill="#3ba3f8"/>
  </g>
</svg>
