<svg xmlns="http://www.w3.org/2000/svg" xmlns:xlink="http://www.w3.org/1999/xlink" width="295" height="85" viewBox="0 0 295 85">
  <defs>
    <clipPath id="clip-path">
      <rect id="Rectángulo_36349" data-name="Rectángulo 36349" width="39.977" height="53.907" fill="#133d60"/>
    </clipPath>
  </defs>
  <g id="Grupo_136242" data-name="Grupo 136242" transform="translate(-180 -7007)">
    <path id="Trazado_129356" data-name="Trazado 129356" d="M37,0H239.6a37,37,0,0,1,37,37v1a37,37,0,0,1-37,37H37A37,37,0,0,1,0,38V37A37,37,0,0,1,37,0Z" transform="translate(198.404 7012)" fill="#133d60"/>
    <path id="Trazado_129359" data-name="Trazado 129359" d="M10.063,15H8.555V9.742H2.82V15H1.32V3.625h1.5V8.516H8.555V3.625h1.508Zm4.008,0H12.625V6.547H14.07ZM12.508,4.3a.863.863,0,0,1,.215-.594.807.807,0,0,1,.637-.242A.819.819,0,0,1,14,3.711a.854.854,0,0,1,.219.594A.826.826,0,0,1,14,4.891a.834.834,0,0,1-.641.234.821.821,0,0,1-.637-.234A.834.834,0,0,1,12.508,4.3Zm3.531,6.4a4.968,4.968,0,0,1,.914-3.145,2.923,2.923,0,0,1,2.422-1.168,2.908,2.908,0,0,1,2.414,1.094l.07-.937h1.32V14.8a3.439,3.439,0,0,1-.973,2.586,3.589,3.589,0,0,1-2.613.945,4.348,4.348,0,0,1-1.789-.391,3.08,3.08,0,0,1-1.336-1.07l.75-.867a2.826,2.826,0,0,0,2.273,1.148,2.214,2.214,0,0,0,1.645-.594,2.269,2.269,0,0,0,.59-1.672v-.727a2.971,2.971,0,0,1-2.367,1,2.887,2.887,0,0,1-2.4-1.2A5.224,5.224,0,0,1,16.039,10.7Zm1.453.164a3.79,3.79,0,0,0,.586,2.246,1.9,1.9,0,0,0,1.641.816,2.117,2.117,0,0,0,2.008-1.242V8.828a2.142,2.142,0,0,0-1.992-1.211,1.921,1.921,0,0,0-1.648.82A4.128,4.128,0,0,0,17.492,10.867ZM26.93,15H25.484V6.547H26.93ZM25.367,4.3a.863.863,0,0,1,.215-.594.807.807,0,0,1,.637-.242.819.819,0,0,1,.641.242.854.854,0,0,1,.219.594.826.826,0,0,1-.219.586.834.834,0,0,1-.641.234.821.821,0,0,1-.637-.234A.834.834,0,0,1,25.367,4.3ZM32.75,15.156a3.693,3.693,0,0,1-2.8-1.129,4.19,4.19,0,0,1-1.078-3.02v-.266a5.073,5.073,0,0,1,.48-2.246A3.748,3.748,0,0,1,30.7,6.949a3.378,3.378,0,0,1,1.871-.559,3.166,3.166,0,0,1,2.563,1.086,4.7,4.7,0,0,1,.914,3.109v.6H30.32a3,3,0,0,0,.73,2.02,2.3,2.3,0,0,0,1.777.77,2.517,2.517,0,0,0,1.3-.312,3.259,3.259,0,0,0,.93-.828l.883.688A3.55,3.55,0,0,1,32.75,15.156Zm-.18-7.578a1.928,1.928,0,0,0-1.469.637A3.1,3.1,0,0,0,30.367,10H34.6V9.891a2.753,2.753,0,0,0-.594-1.707A1.815,1.815,0,0,0,32.57,7.578Zm6.516-1.031.047,1.063a3.08,3.08,0,0,1,2.531-1.219q2.68,0,2.7,3.023V15H42.922V9.406A1.946,1.946,0,0,0,42.5,8.055a1.675,1.675,0,0,0-1.277-.437,2.086,2.086,0,0,0-1.234.375,2.546,2.546,0,0,0-.828.984V15H37.719V6.547Zm10.969,8.609a3.693,3.693,0,0,1-2.8-1.129,4.19,4.19,0,0,1-1.078-3.02v-.266A5.073,5.073,0,0,1,46.66,8.5,3.748,3.748,0,0,1,48,6.949a3.378,3.378,0,0,1,1.871-.559,3.166,3.166,0,0,1,2.563,1.086,4.7,4.7,0,0,1,.914,3.109v.6H47.625a3,3,0,0,0,.73,2.02,2.3,2.3,0,0,0,1.777.77,2.517,2.517,0,0,0,1.3-.312,3.259,3.259,0,0,0,.93-.828l.883.688A3.55,3.55,0,0,1,50.055,15.156Zm-.18-7.578a1.928,1.928,0,0,0-1.469.637A3.1,3.1,0,0,0,47.672,10h4.234V9.891a2.753,2.753,0,0,0-.594-1.707A1.815,1.815,0,0,0,49.875,7.578Zm16.25,3.289a5.062,5.062,0,0,1-.883,3.109,2.829,2.829,0,0,1-2.391,1.18,3.1,3.1,0,0,1-2.422-.977v4.07H58.984V6.547H60.3l.07.938a2.977,2.977,0,0,1,2.453-1.094,2.882,2.882,0,0,1,2.41,1.148,5.117,5.117,0,0,1,.887,3.2ZM64.68,10.7a3.735,3.735,0,0,0-.609-2.258A1.963,1.963,0,0,0,62.4,7.617,2.125,2.125,0,0,0,60.43,8.781V12.82a2.129,2.129,0,0,0,1.984,1.156,1.954,1.954,0,0,0,1.652-.824A4.077,4.077,0,0,0,64.68,10.7Zm6.789,4.453a3.693,3.693,0,0,1-2.8-1.129,4.19,4.19,0,0,1-1.078-3.02v-.266a5.073,5.073,0,0,1,.48-2.246,3.748,3.748,0,0,1,1.344-1.547,3.378,3.378,0,0,1,1.871-.559,3.166,3.166,0,0,1,2.563,1.086,4.7,4.7,0,0,1,.914,3.109v.6H69.039a3,3,0,0,0,.73,2.02,2.3,2.3,0,0,0,1.777.77,2.517,2.517,0,0,0,1.3-.312,3.259,3.259,0,0,0,.93-.828l.883.688A3.55,3.55,0,0,1,71.469,15.156Zm-.18-7.578a1.928,1.928,0,0,0-1.469.637A3.1,3.1,0,0,0,69.086,10H73.32V9.891a2.753,2.753,0,0,0-.594-1.707A1.815,1.815,0,0,0,71.289,7.578Zm9.234.266a4.331,4.331,0,0,0-.711-.055A1.9,1.9,0,0,0,77.883,9v6H76.438V6.547h1.406l.023.977a2.251,2.251,0,0,1,2.016-1.133,1.477,1.477,0,0,1,.641.109Zm6.25,4.914a1.064,1.064,0,0,0-.441-.91,4.249,4.249,0,0,0-1.539-.559,7.277,7.277,0,0,1-1.742-.562,2.479,2.479,0,0,1-.953-.781,1.869,1.869,0,0,1-.309-1.078,2.193,2.193,0,0,1,.879-1.758,3.432,3.432,0,0,1,2.246-.719,3.532,3.532,0,0,1,2.332.742,2.357,2.357,0,0,1,.895,1.9H86.688a1.3,1.3,0,0,0-.5-1.023,1.888,1.888,0,0,0-1.27-.43,1.976,1.976,0,0,0-1.234.344,1.082,1.082,0,0,0-.445.9.877.877,0,0,0,.414.789,5.1,5.1,0,0,0,1.5.508A7.8,7.8,0,0,1,86.9,10.7a2.558,2.558,0,0,1,1,.809,1.988,1.988,0,0,1,.324,1.152,2.163,2.163,0,0,1-.906,1.816,3.8,3.8,0,0,1-2.352.684,4.257,4.257,0,0,1-1.8-.359,2.922,2.922,0,0,1-1.223-1A2.42,2.42,0,0,1,81.5,12.4h1.445a1.5,1.5,0,0,0,.582,1.152,2.258,2.258,0,0,0,1.434.426,2.331,2.331,0,0,0,1.316-.332A1.02,1.02,0,0,0,86.773,12.758ZM89.719,10.7a4.993,4.993,0,0,1,.488-2.234A3.643,3.643,0,0,1,91.566,6.93a3.7,3.7,0,0,1,1.988-.539,3.565,3.565,0,0,1,2.793,1.2,4.6,4.6,0,0,1,1.066,3.18v.1a5.036,5.036,0,0,1-.473,2.215,3.589,3.589,0,0,1-1.352,1.527,3.743,3.743,0,0,1-2.02.547,3.556,3.556,0,0,1-2.785-1.2A4.575,4.575,0,0,1,89.719,10.8Zm1.453.172a3.616,3.616,0,0,0,.652,2.258,2.211,2.211,0,0,0,3.5-.012,3.955,3.955,0,0,0,.648-2.418,3.61,3.61,0,0,0-.66-2.254,2.1,2.1,0,0,0-1.754-.863,2.075,2.075,0,0,0-1.727.852A3.925,3.925,0,0,0,91.172,10.867Zm9.422-4.32.047,1.063a3.08,3.08,0,0,1,2.531-1.219q2.68,0,2.7,3.023V15H104.43V9.406a1.946,1.946,0,0,0-.418-1.352,1.675,1.675,0,0,0-1.277-.437,2.086,2.086,0,0,0-1.234.375,2.546,2.546,0,0,0-.828.984V15H99.227V6.547ZM113.273,15a3.036,3.036,0,0,1-.2-.891,3.225,3.225,0,0,1-2.406,1.047,2.984,2.984,0,0,1-2.051-.707,2.288,2.288,0,0,1-.8-1.793,2.39,2.39,0,0,1,1-2.051,4.733,4.733,0,0,1,2.824-.73h1.406V9.211A1.623,1.623,0,0,0,112.594,8a1.821,1.821,0,0,0-1.336-.449,2.108,2.108,0,0,0-1.3.391,1.151,1.151,0,0,0-.523.945h-1.453a2,2,0,0,1,.449-1.223,3.066,3.066,0,0,1,1.219-.934,4.1,4.1,0,0,1,1.691-.344,3.342,3.342,0,0,1,2.289.73,2.635,2.635,0,0,1,.859,2.012v3.891a4.757,4.757,0,0,0,.3,1.852V15Zm-2.4-1.1a2.54,2.54,0,0,0,1.289-.352,2.127,2.127,0,0,0,.883-.914V10.9h-1.133q-2.656,0-2.656,1.555a1.316,1.316,0,0,0,.453,1.063A1.742,1.742,0,0,0,110.875,13.9Zm7.453,1.1h-1.445V3h1.445Z" transform="translate(302.744 7040)" fill="#fff"/>
    <path id="Trazado_129357" data-name="Trazado 129357" d="M42.5,0A42.5,42.5,0,1,1,0,42.5,42.5,42.5,0,0,1,42.5,0Z" transform="translate(198 7007)" fill="#aed4f5"/>
    <g id="Grupo_136157" data-name="Grupo 136157" transform="translate(220.643 7022.913)">
      <g id="Grupo_136156" data-name="Grupo 136156" clip-path="url(#clip-path)">
        <path id="Trazado_128968" data-name="Trazado 128968" d="M19.121,107.331q-8.177,0-16.354,0a2.617,2.617,0,0,1-1.309-4.959,1.074,1.074,0,0,0,.464-.521,3.453,3.453,0,0,1,4.543-2.093.506.506,0,0,0,.68-.159,7.8,7.8,0,0,1,6.1-2.7c.489,0,.978.012,1.467,0a.873.873,0,0,0,.924-.92c0-.036,0-.073,0-.109a1.929,1.929,0,0,0-1.059-2.226,6.315,6.315,0,0,1-2.655-3.277.584.584,0,0,0-.631-.43A3.429,3.429,0,0,1,7.98,87.519a3.494,3.494,0,0,1,1.271-3.867.9.9,0,0,0,.291-.612c.028-1.177.007-2.354.014-3.532A6.958,6.958,0,0,1,16.5,72.557q2.635-.018,5.27,0a6.958,6.958,0,0,1,6.905,6.881q.019,1.63,0,3.26a.586.586,0,0,0,.359.627,2.482,2.482,0,0,1,1.378,2.243c.022.615.02,1.232,0,1.847a2.515,2.515,0,0,1-2.553,2.5,1.691,1.691,0,0,0-1.935,1.171,6.484,6.484,0,0,1-2.942,3.026.623.623,0,0,0-.4.671c.033.377,0,.76.01,1.14a.891.891,0,0,0,.98.976,26.673,26.673,0,0,1,3.137.172A7.284,7.284,0,0,1,31.093,99.6a.5.5,0,0,0,.678.162,3.452,3.452,0,0,1,4.544,2.088,1.08,1.08,0,0,0,.463.523,2.628,2.628,0,0,1,1.4,2.909,2.584,2.584,0,0,1-2.593,2.05q-8.231.009-16.462,0m10.936-6.221a5.243,5.243,0,0,0-3.229-2.226,23.03,23.03,0,0,0-3.342-.241,2.631,2.631,0,0,1-2.628-2.625c-.007-.341,0-.682,0-.943H17.378c0,.282.007.623,0,.965a2.6,2.6,0,0,1-2.6,2.594c-.634.013-1.268-.011-1.9.008a5.945,5.945,0,0,0-4.287,1.929,1.168,1.168,0,0,0,.34,1.8,2.6,2.6,0,0,1,1.419,2.939,2.487,2.487,0,0,0-.022.263h8.009c-.2-2.067.739-3.4,2.419-3.451a2.512,2.512,0,0,1,1.917.747,2.652,2.652,0,0,1,.672,2.7h4.538a.263.263,0,0,0,.018-.072c-.016-.106-.038-.212-.053-.319a2.325,2.325,0,0,1,1.027-2.509,2.686,2.686,0,0,0,1.181-1.56m-3.13-18.133c0-1.335.062-2.6-.013-3.865A5.169,5.169,0,0,0,21.868,74.3q-2.767-.05-5.536,0a5.067,5.067,0,0,0-4.922,4.308A35.679,35.679,0,0,0,11.3,82.62a2.317,2.317,0,0,0,.049.361c1.537,0,3.039.04,4.539-.01a4.26,4.26,0,0,0,4-3.51c.1-.542.1-1.1.145-1.648h1.692c0,1.161-.009,2.282,0,3.4a1.684,1.684,0,0,0,1.525,1.748c1.206.057,2.416.014,3.673.014M25.21,84.693c-2.062.163-3.941.067-4.957-2.089a6.451,6.451,0,0,1-5.48,2.127c-.57-.03-1.143,0-1.736,0,0,.981-.019,1.885,0,2.788a6.081,6.081,0,0,0,11.78,1.933c.573-1.527.319-3.1.389-4.754m7.78,20.9c.832,0,1.663.006,2.495,0,.609-.005.989-.323,1.014-.826.024-.479-.294-.824-.876-.909a.9.9,0,0,1-.86-.88,1.737,1.737,0,0,0-3.473-.017.9.9,0,0,1-.844.9c-.614.1-.937.45-.89.947s.421.785,1.047.79c.8.005,1.591,0,2.386,0m-27.816,0c.832,0,1.663.006,2.495,0,.608-.006.988-.324,1.012-.827.023-.479-.295-.822-.878-.907a.9.9,0,0,1-.858-.882,1.737,1.737,0,0,0-3.473-.014.9.9,0,0,1-.846.894c-.613.095-.936.451-.887.949s.422.784,1.049.788c.8.005,1.591,0,2.386,0M26.947,84.728V88.2c.3,0,.584.015.867,0a.848.848,0,0,0,.859-.867c.022-.578.022-1.158,0-1.735a.846.846,0,0,0-.86-.865c-.267-.017-.536,0-.865,0m-15.673,3.45V84.755a1.712,1.712,0,1,0,0,3.423m9.605,15.677a.866.866,0,1,0,.842.876.875.875,0,0,0-.842-.876" transform="translate(0 -53.425)" fill="#133d60"/>
        <path id="Trazado_128969" data-name="Trazado 128969" d="M25.334,6.958c0-.826,0-1.568,0-2.309,0-.769.116-.932.869-1.218,0-.78,0-1.574,0-2.369C26.211.316,26.517.009,27.263,0Q28.812,0,30.36,0c.745,0,1.052.313,1.058,1.059.006.778,0,1.556,0,2.378.739.137.909.644.877,1.318-.034.7-.008,1.41-.008,2.2h.593q4.346,0,8.693,0a2.63,2.63,0,0,1,2.884,2.907c0,.471.013.942-.006,1.413a.864.864,0,0,1-.893.894c-.144.009-.29,0-.435,0H14.494c-1.108,0-1.329-.223-1.33-1.333,0-.362,0-.725,0-1.087a2.614,2.614,0,0,1,2.778-2.8q4.374-.006,8.747,0ZM14.9,10.4h27.78c.135-1.467-.077-1.7-1.491-1.7H16.326c-.163,0-.326-.006-.489,0a.871.871,0,0,0-.93.91c-.012.251,0,.5,0,.792M30.526,5.248H27.107V6.92h3.419Zm-.883-3.464H27.971V3.456h1.673Z" transform="translate(-9.694 0)" fill="#133d60"/>
        <path id="Trazado_128970" data-name="Trazado 128970" d="M8.489,101.567A2.6,2.6,0,1,1,5.9,98.977a2.616,2.616,0,0,1,2.592,2.59m-2.608-.851a.866.866,0,1,0,.87.847.872.872,0,0,0-.87-.847" transform="translate(-2.415 -72.888)" fill="#133d60"/>
        <path id="Trazado_128971" data-name="Trazado 128971" d="M134.489,98.976a2.605,2.605,0,1,1-2.59,2.648,2.612,2.612,0,0,1,2.59-2.648m.04,1.739a.866.866,0,1,0,.842.875.874.874,0,0,0-.842-.875" transform="translate(-97.133 -72.887)" fill="#133d60"/>
        <path id="Trazado_128972" data-name="Trazado 128972" d="M121.316,143.767a2.605,2.605,0,1,1,2.6-2.636,2.613,2.613,0,0,1-2.6,2.636m.864-2.591a.865.865,0,1,0-.867.851.873.873,0,0,0,.867-.851" transform="translate(-87.419 -102.035)" fill="#133d60"/>
        <path id="Trazado_128973" data-name="Trazado 128973" d="M8.489,144.449A2.6,2.6,0,1,1,5.9,141.855a2.617,2.617,0,0,1,2.588,2.594m-2.605-.855a.866.866,0,1,0,.867.85.871.871,0,0,0-.867-.85" transform="translate(-2.415 -104.464)" fill="#133d60"/>
        <rect id="Rectángulo_36340" data-name="Rectángulo 36340" width="1.672" height="3.409" transform="translate(5.247 13.938)" fill="#133d60"/>
        <rect id="Rectángulo_36341" data-name="Rectángulo 36341" width="1.666" height="3.429" transform="translate(18.28 13.925)" fill="#133d60"/>
        <rect id="Rectángulo_36342" data-name="Rectángulo 36342" width="1.659" height="3.425" transform="translate(31.333 13.935)" fill="#133d60"/>
        <rect id="Rectángulo_36343" data-name="Rectángulo 36343" width="1.669" height="3.416" transform="translate(11.324 15.678)" fill="#133d60"/>
        <rect id="Rectángulo_36344" data-name="Rectángulo 36344" width="1.687" height="3.415" transform="translate(25.224 15.688)" fill="#133d60"/>
        <rect id="Rectángulo_36345" data-name="Rectángulo 36345" width="1.678" height="3.406" transform="translate(5.244 20.9)" fill="#133d60"/>
        <rect id="Rectángulo_36346" data-name="Rectángulo 36346" width="1.669" height="3.416" transform="translate(31.318 20.895)" fill="#133d60"/>
        <rect id="Rectángulo_36347" data-name="Rectángulo 36347" width="1.671" height="1.681" transform="translate(15.67 32.195)" fill="#133d60"/>
        <rect id="Rectángulo_36348" data-name="Rectángulo 36348" width="1.688" height="1.66" transform="translate(20.867 32.215)" fill="#133d60"/>
      </g>
    </g>
    <path id="Trazado_128082" data-name="Trazado 128082" d="M15.142,0A15.142,15.142,0,1,1,0,15.142,15.142,15.142,0,0,1,15.142,0Z" transform="translate(180 7034)" fill="#fcd189"/>
    <path id="Trazado_129358" data-name="Trazado 129358" d="M-3.545-5.209l.652-5.455H3.34v1.9H-.886l-.242,2.133A2.911,2.911,0,0,1-.436-6.9,3.158,3.158,0,0,1,.4-7.017a3.129,3.129,0,0,1,2.443.941A3.791,3.791,0,0,1,3.7-3.435a3.784,3.784,0,0,1-.458,1.857A3.146,3.146,0,0,1,1.956-.3,4.058,4.058,0,0,1,0,.146,4.367,4.367,0,0,1-1.882-.267,3.377,3.377,0,0,1-3.259-1.4,2.756,2.756,0,0,1-3.75-3.03h2.476A1.4,1.4,0,0,0-.9-2.1a1.186,1.186,0,0,0,.886.344Q1.23-1.758,1.23-3.6q0-1.7-1.523-1.7a1.52,1.52,0,0,0-1.289.555Z" transform="translate(195.249 7054.057)" fill="#12263f"/>
  </g>
</svg>
