<svg xmlns="http://www.w3.org/2000/svg" xmlns:xlink="http://www.w3.org/1999/xlink" width="295" height="83" viewBox="0 0 295 83">
  <defs>
    <clipPath id="clip-path">
      <rect id="Rectángulo_36354" data-name="Rectángulo 36354" width="41.677" height="54.38" fill="#133d60"/>
    </clipPath>
  </defs>
  <g id="Grupo_136243" data-name="Grupo 136243" transform="translate(-495 -7008)">
    <path id="Trazado_129360" data-name="Trazado 129360" d="M37.5,0H225.756a37.5,37.5,0,0,1,0,75H37.5a37.5,37.5,0,0,1,0-75Z" transform="translate(526.744 7012)" fill="#133d60"/>
    <path id="Trazado_129364" data-name="Trazado 129364" d="M9.688,11.391a4.185,4.185,0,0,1-1.332,2.785,4.365,4.365,0,0,1-2.98.98,4.008,4.008,0,0,1-3.23-1.445A5.815,5.815,0,0,1,.93,9.844V8.75A6.481,6.481,0,0,1,1.5,5.961,4.231,4.231,0,0,1,3.1,4.113a4.47,4.47,0,0,1,2.406-.645A4.11,4.11,0,0,1,8.414,4.48a4.235,4.235,0,0,1,1.273,2.8H8.18a3.268,3.268,0,0,0-.848-1.975A2.565,2.565,0,0,0,5.508,4.7,2.684,2.684,0,0,0,3.254,5.759a4.882,4.882,0,0,0-.816,3.026v1.1a5.018,5.018,0,0,0,.773,2.948A2.5,2.5,0,0,0,5.375,13.93a2.887,2.887,0,0,0,1.918-.566,3.143,3.143,0,0,0,.887-1.973Zm7.039,2.773a3.07,3.07,0,0,1-2.477.992,2.628,2.628,0,0,1-2.059-.785,3.4,3.4,0,0,1-.715-2.324v-5.5h1.445v5.461q0,1.922,1.563,1.922a2.163,2.163,0,0,0,2.2-1.234V6.547h1.445V15H16.758ZM21.9,15H20.453V6.547H21.9ZM20.336,4.3a.863.863,0,0,1,.215-.594.807.807,0,0,1,.637-.242.819.819,0,0,1,.641.242.854.854,0,0,1,.219.594.826.826,0,0,1-.219.586.834.834,0,0,1-.641.234.821.821,0,0,1-.637-.234A.834.834,0,0,1,20.336,4.3Zm3.523,6.4a4.952,4.952,0,0,1,.922-3.129,3.137,3.137,0,0,1,4.766-.168V3h1.445V15H29.664l-.07-.906a2.943,2.943,0,0,1-2.414,1.063,2.887,2.887,0,0,1-2.395-1.2,5.008,5.008,0,0,1-.926-3.141Zm1.445.164a3.749,3.749,0,0,0,.594,2.25,1.92,1.92,0,0,0,1.641.813A2.108,2.108,0,0,0,29.547,12.7V8.813a2.125,2.125,0,0,0-1.992-1.2,1.929,1.929,0,0,0-1.656.82A4.128,4.128,0,0,0,25.3,10.867ZM38.453,15a3.036,3.036,0,0,1-.2-.891,3.225,3.225,0,0,1-2.406,1.047,2.984,2.984,0,0,1-2.051-.707,2.287,2.287,0,0,1-.8-1.793,2.39,2.39,0,0,1,1-2.051,4.733,4.733,0,0,1,2.824-.73h1.406V9.211A1.623,1.623,0,0,0,37.773,8a1.821,1.821,0,0,0-1.336-.449,2.107,2.107,0,0,0-1.3.391,1.151,1.151,0,0,0-.523.945H33.164a2,2,0,0,1,.449-1.223,3.066,3.066,0,0,1,1.219-.934,4.1,4.1,0,0,1,1.691-.344,3.342,3.342,0,0,1,2.289.73,2.635,2.635,0,0,1,.859,2.012v3.891a4.757,4.757,0,0,0,.3,1.852V15Zm-2.4-1.1a2.54,2.54,0,0,0,1.289-.352,2.127,2.127,0,0,0,.883-.914V10.9H37.094q-2.656,0-2.656,1.555a1.316,1.316,0,0,0,.453,1.063A1.742,1.742,0,0,0,36.055,13.9Zm9.492-3.2a4.952,4.952,0,0,1,.922-3.129,3.137,3.137,0,0,1,4.766-.168V3H52.68V15H51.352l-.07-.906a2.943,2.943,0,0,1-2.414,1.063,2.887,2.887,0,0,1-2.395-1.2,5.008,5.008,0,0,1-.926-3.141Zm1.445.164a3.749,3.749,0,0,0,.594,2.25,1.92,1.92,0,0,0,1.641.813A2.108,2.108,0,0,0,51.234,12.7V8.813a2.125,2.125,0,0,0-1.992-1.2,1.929,1.929,0,0,0-1.656.82A4.128,4.128,0,0,0,46.992,10.867ZM58.43,15.156a3.693,3.693,0,0,1-2.8-1.129,4.19,4.19,0,0,1-1.078-3.02v-.266a5.073,5.073,0,0,1,.48-2.246,3.748,3.748,0,0,1,1.344-1.547,3.378,3.378,0,0,1,1.871-.559,3.166,3.166,0,0,1,2.563,1.086,4.7,4.7,0,0,1,.914,3.109v.6H56a3,3,0,0,0,.73,2.02,2.3,2.3,0,0,0,1.777.77,2.517,2.517,0,0,0,1.3-.312,3.259,3.259,0,0,0,.93-.828l.883.688A3.55,3.55,0,0,1,58.43,15.156Zm-.18-7.578a1.928,1.928,0,0,0-1.469.637A3.1,3.1,0,0,0,56.047,10h4.234V9.891a2.753,2.753,0,0,0-.594-1.707A1.815,1.815,0,0,0,58.25,7.578ZM68.93,15H67.484V3H68.93Zm7.531,0a3.036,3.036,0,0,1-.2-.891,3.225,3.225,0,0,1-2.406,1.047,2.984,2.984,0,0,1-2.051-.707,2.288,2.288,0,0,1-.8-1.793,2.39,2.39,0,0,1,1-2.051,4.733,4.733,0,0,1,2.824-.73h1.406V9.211A1.623,1.623,0,0,0,75.781,8a1.821,1.821,0,0,0-1.336-.449,2.108,2.108,0,0,0-1.3.391,1.151,1.151,0,0,0-.523.945H71.172a2,2,0,0,1,.449-1.223,3.066,3.066,0,0,1,1.219-.934,4.1,4.1,0,0,1,1.691-.344,3.342,3.342,0,0,1,2.289.73,2.635,2.635,0,0,1,.859,2.012v3.891a4.757,4.757,0,0,0,.3,1.852V15Zm-2.4-1.1a2.54,2.54,0,0,0,1.289-.352,2.127,2.127,0,0,0,.883-.914V10.9H75.1q-2.656,0-2.656,1.555a1.316,1.316,0,0,0,.453,1.063A1.742,1.742,0,0,0,74.063,13.9Zm14.766-1.141a1.064,1.064,0,0,0-.441-.91,4.249,4.249,0,0,0-1.539-.559,7.277,7.277,0,0,1-1.742-.562,2.479,2.479,0,0,1-.953-.781,1.869,1.869,0,0,1-.309-1.078,2.193,2.193,0,0,1,.879-1.758,3.432,3.432,0,0,1,2.246-.719,3.532,3.532,0,0,1,2.332.742,2.357,2.357,0,0,1,.895,1.9H88.742a1.3,1.3,0,0,0-.5-1.023,1.888,1.888,0,0,0-1.27-.43,1.976,1.976,0,0,0-1.234.344,1.082,1.082,0,0,0-.445.9.877.877,0,0,0,.414.789,5.1,5.1,0,0,0,1.5.508,7.8,7.8,0,0,1,1.754.578,2.558,2.558,0,0,1,1,.809,1.988,1.988,0,0,1,.324,1.152,2.163,2.163,0,0,1-.906,1.816,3.8,3.8,0,0,1-2.352.684,4.257,4.257,0,0,1-1.8-.359,2.922,2.922,0,0,1-1.223-1,2.42,2.42,0,0,1-.441-1.395H85a1.5,1.5,0,0,0,.582,1.152,2.258,2.258,0,0,0,1.434.426,2.331,2.331,0,0,0,1.316-.332A1.02,1.02,0,0,0,88.828,12.758ZM97.375,15a3.036,3.036,0,0,1-.2-.891,3.225,3.225,0,0,1-2.406,1.047,2.984,2.984,0,0,1-2.051-.707,2.288,2.288,0,0,1-.8-1.793,2.39,2.39,0,0,1,1-2.051,4.733,4.733,0,0,1,2.824-.73h1.406V9.211A1.623,1.623,0,0,0,96.7,8a1.821,1.821,0,0,0-1.336-.449,2.108,2.108,0,0,0-1.3.391,1.151,1.151,0,0,0-.523.945H92.086a2,2,0,0,1,.449-1.223,3.066,3.066,0,0,1,1.219-.934,4.1,4.1,0,0,1,1.691-.344,3.342,3.342,0,0,1,2.289.73,2.635,2.635,0,0,1,.859,2.012v3.891a4.757,4.757,0,0,0,.3,1.852V15Zm-2.4-1.1a2.54,2.54,0,0,0,1.289-.352,2.127,2.127,0,0,0,.883-.914V10.9H96.016q-2.656,0-2.656,1.555a1.316,1.316,0,0,0,.453,1.063A1.742,1.742,0,0,0,94.977,13.9ZM102.43,15h-1.445V3h1.445Zm7.531-.836a3.07,3.07,0,0,1-2.477.992,2.628,2.628,0,0,1-2.059-.785,3.4,3.4,0,0,1-.715-2.324v-5.5h1.445v5.461q0,1.922,1.563,1.922a2.163,2.163,0,0,0,2.2-1.234V6.547h1.445V15h-1.375Zm3.25-3.461a4.952,4.952,0,0,1,.922-3.129,3.137,3.137,0,0,1,4.766-.168V3h1.445V15h-1.328l-.07-.906a2.943,2.943,0,0,1-2.414,1.063,2.887,2.887,0,0,1-2.395-1.2,5.008,5.008,0,0,1-.926-3.141Zm1.445.164a3.749,3.749,0,0,0,.594,2.25,1.92,1.92,0,0,0,1.641.813A2.108,2.108,0,0,0,118.9,12.7V8.813a2.125,2.125,0,0,0-1.992-1.2,1.929,1.929,0,0,0-1.656.82A4.128,4.128,0,0,0,114.656,10.867ZM6.016,36.758a1.064,1.064,0,0,0-.441-.91,4.249,4.249,0,0,0-1.539-.559,7.277,7.277,0,0,1-1.742-.562,2.479,2.479,0,0,1-.953-.781,1.869,1.869,0,0,1-.309-1.078,2.193,2.193,0,0,1,.879-1.758,3.432,3.432,0,0,1,2.246-.719,3.532,3.532,0,0,1,2.332.742,2.357,2.357,0,0,1,.895,1.9H5.93a1.3,1.3,0,0,0-.5-1.023,1.888,1.888,0,0,0-1.27-.43,1.976,1.976,0,0,0-1.234.344,1.082,1.082,0,0,0-.445.9.877.877,0,0,0,.414.789,5.1,5.1,0,0,0,1.5.508,7.8,7.8,0,0,1,1.754.578,2.558,2.558,0,0,1,1,.809,1.988,1.988,0,0,1,.324,1.152,2.163,2.163,0,0,1-.906,1.816,3.8,3.8,0,0,1-2.352.684,4.257,4.257,0,0,1-1.8-.359,2.922,2.922,0,0,1-1.223-1A2.42,2.42,0,0,1,.742,36.4H2.188a1.5,1.5,0,0,0,.582,1.152,2.258,2.258,0,0,0,1.434.426,2.331,2.331,0,0,0,1.316-.332A1.02,1.02,0,0,0,6.016,36.758Zm6.836,2.4a3.693,3.693,0,0,1-2.8-1.129,4.19,4.19,0,0,1-1.078-3.02v-.266a5.073,5.073,0,0,1,.48-2.246A3.748,3.748,0,0,1,10.8,30.949a3.378,3.378,0,0,1,1.871-.559,3.166,3.166,0,0,1,2.563,1.086,4.7,4.7,0,0,1,.914,3.109v.6H10.422a3,3,0,0,0,.73,2.02,2.3,2.3,0,0,0,1.777.77,2.517,2.517,0,0,0,1.3-.312,3.258,3.258,0,0,0,.93-.828l.883.688A3.55,3.55,0,0,1,12.852,39.156Zm-.18-7.578a1.928,1.928,0,0,0-1.469.637A3.1,3.1,0,0,0,10.469,34H14.7v-.109a2.753,2.753,0,0,0-.594-1.707A1.815,1.815,0,0,0,12.672,31.578Zm7.984,2.055,1.875-3.086h1.688l-2.766,4.18L24.3,39H22.633L20.68,35.836,18.727,39h-1.68L19.9,34.727l-2.766-4.18H18.8Zm10.313,4.531a3.07,3.07,0,0,1-2.477.992,2.628,2.628,0,0,1-2.059-.785,3.4,3.4,0,0,1-.715-2.324v-5.5h1.445v5.461q0,1.922,1.563,1.922a2.163,2.163,0,0,0,2.2-1.234V30.547h1.445V39H31Zm8.82.836a3.036,3.036,0,0,1-.2-.891,3.225,3.225,0,0,1-2.406,1.047,2.984,2.984,0,0,1-2.051-.707,2.287,2.287,0,0,1-.8-1.793,2.39,2.39,0,0,1,1-2.051,4.733,4.733,0,0,1,2.824-.73h1.406v-.664A1.623,1.623,0,0,0,39.109,32a1.821,1.821,0,0,0-1.336-.449,2.107,2.107,0,0,0-1.3.391,1.151,1.151,0,0,0-.523.945H34.5a2,2,0,0,1,.449-1.223,3.066,3.066,0,0,1,1.219-.934,4.1,4.1,0,0,1,1.691-.344,3.342,3.342,0,0,1,2.289.73,2.635,2.635,0,0,1,.859,2.012v3.891a4.757,4.757,0,0,0,.3,1.852V39Zm-2.4-1.1a2.54,2.54,0,0,0,1.289-.352,2.127,2.127,0,0,0,.883-.914V34.9H38.43q-2.656,0-2.656,1.555a1.316,1.316,0,0,0,.453,1.063A1.742,1.742,0,0,0,37.391,37.9ZM44.844,39H43.4V27h1.445Z" transform="translate(617.744 7028)" fill="#fff"/>
    <path id="Trazado_129361" data-name="Trazado 129361" d="M41.5,0A41.5,41.5,0,1,1,0,41.5,41.5,41.5,0,0,1,41.5,0Z" transform="translate(515.256 7008)" fill="#aed4f5"/>
    <g id="Grupo_136160" data-name="Grupo 136160" transform="translate(539 7022.31)" clip-path="url(#clip-path)">
      <path id="Trazado_128975" data-name="Trazado 128975" d="M13.078,54.38a2.86,2.86,0,0,1-2.218-2.973c.009-.619,0-1.239,0-1.858v-.6c-.646,0-1.259.022-1.87,0A2.7,2.7,0,0,1,6.37,46.551a2.664,2.664,0,0,1,1.98-2.936,5.518,5.518,0,0,1,1.157-.1c.422-.015.844,0,1.31,0v-2.07c-.439-.129-.911-.257-1.375-.405A13.579,13.579,0,0,1,9.075,15.3a1.128,1.128,0,0,0,.761-.756,13.309,13.309,0,0,1,11.6-9.007,12.957,12.957,0,0,1,8.409,1.989c.088.054.182.1.226.124l2.213-2.208c-.246,0-.464.007-.681,0A2.69,2.69,0,0,1,29,2.756,2.663,2.663,0,0,1,31.556.028q3.768-.057,7.538,0a2.611,2.611,0,0,1,2.56,2.606q.046,3.716,0,7.432A2.65,2.65,0,0,1,39,12.688a2.709,2.709,0,0,1-2.758-2.593c-.012-.211,0-.423,0-.528L34.092,11.7a14.217,14.217,0,0,1,1.73,4.017,13.587,13.587,0,0,1-8.712,16.152.948.948,0,0,0-.684.631,13.513,13.513,0,0,1-9.588,8.809c-.168.047-.338.09-.539.144,0,.585.01,1.149,0,1.713-.007.292.133.36.389.354.477-.01.956-.013,1.433,0A2.691,2.691,0,0,1,20.831,46.2a2.724,2.724,0,0,1-2.722,2.744c-.58.017-1.162,0-1.81,0,0,.7-.041,1.35.008,2A3,3,0,0,1,14.14,54.38ZM21.714,28.99c-.207-.038-.343-.07-.48-.088A9.961,9.961,0,1,1,32.6,18.728a9.792,9.792,0,0,1-5.032,8.982c-.141.086-.347.208-.361.332-.071.6-.086,1.211-.123,1.841a11.759,11.759,0,1,0-16-8.653,11.393,11.393,0,0,0,4.751,7.4,11.227,11.227,0,0,0,5.505,2.085l.373-1.726M9.159,17.238A11.728,11.728,0,1,0,25.2,26.4c-.678-5.091-5.881-10.188-10.319-9.9q-.173.8-.358,1.666c.283.048.473.085.664.112A9.944,9.944,0,1,1,8.729,19.4a.626.626,0,0,0,.309-.365c.066-.577.083-1.16.122-1.794m6.684-2.585c6.1,1.412,9.81,5.146,11.186,11.2a8.087,8.087,0,0,0,3.649-8.287,8.183,8.183,0,0,0-6.821-6.6c-3.185-.463-6.724,1.159-8.014,3.686M20.377,32.5c-6.1-1.41-9.835-5.13-11.182-11.227A8.127,8.127,0,0,0,12.641,36.2c2.983.394,6.59-1.33,7.736-3.7m12.6-22.48c1.163-1.17,2.3-2.31,3.432-3.454a.913.913,0,0,1,1.1-.274.922.922,0,0,1,.537.95c-.01.849-.008,1.7,0,2.548.006.683.34,1.078.9,1.085s.909-.378.911-1.058q.007-3.451,0-6.9c0-.772-.324-1.087-1.106-1.088q-3.424-.006-6.848,0c-.675,0-1.082.345-1.089.895s.391.907,1.064.912q1.274.009,2.548,0a.953.953,0,0,1,.987.57.931.931,0,0,1-.294,1.1q-1.524,1.517-3.041,3.04c-.133.133-.258.274-.351.373l1.254,1.306M14.485,47.168c.226-.011.4-.026.569-.027,1.008,0,2.017.013,3.024-.01a.906.906,0,0,0,.941-.938.891.891,0,0,0-.953-.86c-.477-.014-.955,0-1.433,0H14.466V41.739H12.651v3.589c-1.185,0-2.3,0-3.409,0-.692,0-1.073.327-1.075.892s.385.909,1.065.916c.973.01,1.946,0,2.919,0,.168,0,.335.014.521.022,0,1.414,0,2.758,0,4.1a2.952,2.952,0,0,0,.024.528.91.91,0,0,0,.935.772.875.875,0,0,0,.84-.863c.025-.583.012-1.167.012-1.751,0-.915,0-1.831,0-2.784m.1-27.091c.534,4.445,4.491,6.944,7.04,6.964a7.965,7.965,0,0,0-7.04-6.964" transform="translate(0 0)" fill="#133d60"/>
    </g>
    <path id="Trazado_129362" data-name="Trazado 129362" d="M15.142,0A15.142,15.142,0,1,1,0,15.142,15.142,15.142,0,0,1,15.142,0Z" transform="translate(495 7034)" fill="#fcd189"/>
    <path id="Trazado_129363" data-name="Trazado 129363" d="M2.271-10.818v1.941h-.11a3.706,3.706,0,0,0-2.274.663A2.8,2.8,0,0,0-1.208-6.372,2.886,2.886,0,0,1,.9-7.192a2.692,2.692,0,0,1,2.2,1.011,4.077,4.077,0,0,1,.82,2.651,3.733,3.733,0,0,1-.48,1.868A3.423,3.423,0,0,1,2.106-.333,3.852,3.852,0,0,1,.2.146,3.981,3.981,0,0,1-1.831-.37,3.55,3.55,0,0,1-3.223-1.846a4.86,4.86,0,0,1-.513-2.212v-.989a6.156,6.156,0,0,1,.707-2.963,5.124,5.124,0,0,1,2.018-2.062A5.769,5.769,0,0,1,1.9-10.818ZM.044-5.288a1.416,1.416,0,0,0-.82.226,1.438,1.438,0,0,0-.491.554v.737q0,2.013,1.4,2.013a1.136,1.136,0,0,0,.941-.5A2.045,2.045,0,0,0,1.45-3.523,2.007,2.007,0,0,0,1.066-4.8,1.232,1.232,0,0,0,.044-5.288Z" transform="translate(510.249 7054.057)" fill="#12263f"/>
  </g>
</svg>
