<svg xmlns="http://www.w3.org/2000/svg" xmlns:xlink="http://www.w3.org/1999/xlink" width="295" height="83" viewBox="0 0 295 83">
  <defs>
    <clipPath id="clip-path">
      <rect id="Rectángulo_36353" data-name="Rectángulo 36353" width="48.645" height="43.531" fill="#133d60"/>
    </clipPath>
  </defs>
  <g id="Grupo_136244" data-name="Grupo 136244" transform="translate(-810 -7008)">
    <path id="Trazado_129365" data-name="Trazado 129365" d="M37.5,0H225.756a37.5,37.5,0,0,1,0,75H37.5a37.5,37.5,0,0,1,0-75Z" transform="translate(841.744 7012)" fill="#133d60"/>
    <path id="Trazado_129368" data-name="Trazado 129368" d="M5.492,10.4H2.82V15H1.313V3.625H5.078A4.457,4.457,0,0,1,8.035,4.5,3.148,3.148,0,0,1,9.07,7.047,3.062,3.062,0,0,1,8.5,8.9a3.428,3.428,0,0,1-1.6,1.18L9.57,14.906V15H7.961ZM2.82,9.172h2.3A2.6,2.6,0,0,0,6.9,8.593a1.959,1.959,0,0,0,.66-1.55,2.062,2.062,0,0,0-.629-1.62,2.663,2.663,0,0,0-1.816-.571H2.82Zm11.633,5.984a3.693,3.693,0,0,1-2.8-1.129,4.19,4.19,0,0,1-1.078-3.02v-.266a5.073,5.073,0,0,1,.48-2.246A3.748,3.748,0,0,1,12.4,6.949a3.378,3.378,0,0,1,1.871-.559,3.166,3.166,0,0,1,2.563,1.086,4.7,4.7,0,0,1,.914,3.109v.6H12.023a3,3,0,0,0,.73,2.02,2.3,2.3,0,0,0,1.777.77,2.517,2.517,0,0,0,1.3-.312,3.259,3.259,0,0,0,.93-.828l.883.688A3.55,3.55,0,0,1,14.453,15.156Zm-.18-7.578a1.928,1.928,0,0,0-1.469.637A3.1,3.1,0,0,0,12.07,10H16.3V9.891a2.753,2.753,0,0,0-.594-1.707A1.815,1.815,0,0,0,14.273,7.578ZM24.641,15a3.036,3.036,0,0,1-.2-.891,3.225,3.225,0,0,1-2.406,1.047,2.984,2.984,0,0,1-2.051-.707,2.287,2.287,0,0,1-.8-1.793,2.39,2.39,0,0,1,1-2.051,4.733,4.733,0,0,1,2.824-.73h1.406V9.211A1.623,1.623,0,0,0,23.961,8a1.821,1.821,0,0,0-1.336-.449,2.108,2.108,0,0,0-1.3.391,1.151,1.151,0,0,0-.523.945H19.352A2,2,0,0,1,19.8,7.668a3.066,3.066,0,0,1,1.219-.934,4.1,4.1,0,0,1,1.691-.344A3.342,3.342,0,0,1,25,7.121a2.635,2.635,0,0,1,.859,2.012v3.891a4.757,4.757,0,0,0,.3,1.852V15Zm-2.4-1.1a2.54,2.54,0,0,0,1.289-.352,2.127,2.127,0,0,0,.883-.914V10.9H23.281q-2.656,0-2.656,1.555a1.316,1.316,0,0,0,.453,1.063A1.742,1.742,0,0,0,22.242,13.9ZM29.7,15H28.25V3H29.7Zm3.883,0H32.133V6.547h1.445ZM32.016,4.3a.863.863,0,0,1,.215-.594.807.807,0,0,1,.637-.242.819.819,0,0,1,.641.242.854.854,0,0,1,.219.594.826.826,0,0,1-.219.586.834.834,0,0,1-.641.234.821.821,0,0,1-.637-.234A.834.834,0,0,1,32.016,4.3ZM37.25,13.82H42.2V15H35.484V13.938l4.664-6.2H35.555v-1.2h6.406V7.57ZM49.039,15a3.036,3.036,0,0,1-.2-.891,3.225,3.225,0,0,1-2.406,1.047,2.984,2.984,0,0,1-2.051-.707,2.287,2.287,0,0,1-.8-1.793,2.39,2.39,0,0,1,1-2.051,4.733,4.733,0,0,1,2.824-.73h1.406V9.211A1.623,1.623,0,0,0,48.359,8a1.821,1.821,0,0,0-1.336-.449,2.107,2.107,0,0,0-1.3.391,1.151,1.151,0,0,0-.523.945H43.75A2,2,0,0,1,44.2,7.668a3.066,3.066,0,0,1,1.219-.934,4.1,4.1,0,0,1,1.691-.344,3.342,3.342,0,0,1,2.289.73,2.635,2.635,0,0,1,.859,2.012v3.891a4.757,4.757,0,0,0,.3,1.852V15Zm-2.4-1.1a2.54,2.54,0,0,0,1.289-.352,2.127,2.127,0,0,0,.883-.914V10.9H47.68q-2.656,0-2.656,1.555a1.316,1.316,0,0,0,.453,1.063A1.742,1.742,0,0,0,46.641,13.9ZM61.7,15a3.036,3.036,0,0,1-.2-.891,3.225,3.225,0,0,1-2.406,1.047,2.984,2.984,0,0,1-2.051-.707,2.287,2.287,0,0,1-.8-1.793,2.39,2.39,0,0,1,1-2.051,4.733,4.733,0,0,1,2.824-.73h1.406V9.211A1.623,1.623,0,0,0,61.023,8a1.821,1.821,0,0,0-1.336-.449,2.107,2.107,0,0,0-1.3.391,1.151,1.151,0,0,0-.523.945H56.414a2,2,0,0,1,.449-1.223,3.066,3.066,0,0,1,1.219-.934,4.1,4.1,0,0,1,1.691-.344,3.342,3.342,0,0,1,2.289.73,2.635,2.635,0,0,1,.859,2.012v3.891a4.757,4.757,0,0,0,.3,1.852V15Zm-2.4-1.1a2.54,2.54,0,0,0,1.289-.352,2.127,2.127,0,0,0,.883-.914V10.9H60.344q-2.656,0-2.656,1.555a1.316,1.316,0,0,0,.453,1.063A1.742,1.742,0,0,0,59.3,13.9Zm9.273.078a2.082,2.082,0,0,0,1.352-.469,1.649,1.649,0,0,0,.641-1.172h1.367a2.621,2.621,0,0,1-.5,1.383,3.293,3.293,0,0,1-1.23,1.047,3.55,3.55,0,0,1-1.629.391A3.482,3.482,0,0,1,65.832,14a4.59,4.59,0,0,1-1.02-3.152v-.242a5.089,5.089,0,0,1,.453-2.2,3.451,3.451,0,0,1,1.3-1.492,3.7,3.7,0,0,1,2-.531,3.39,3.39,0,0,1,2.363.852,3.043,3.043,0,0,1,1,2.211H70.57a1.992,1.992,0,0,0-.621-1.348,1.932,1.932,0,0,0-1.379-.527,2.023,2.023,0,0,0-1.707.793,3.724,3.724,0,0,0-.605,2.293v.273a3.65,3.65,0,0,0,.6,2.25A2.033,2.033,0,0,0,68.578,13.977ZM75.523,4.5V6.547H77.1V7.664H75.523v5.249a1.173,1.173,0,0,0,.211.763.888.888,0,0,0,.719.254,3.5,3.5,0,0,0,.688-.094V15a4.215,4.215,0,0,1-1.109.155,1.8,1.8,0,0,1-1.461-.586,2.517,2.517,0,0,1-.492-1.664V7.664H72.539V6.547h1.539V4.5ZM80.359,15H78.914V6.547h1.445ZM78.8,4.3a.863.863,0,0,1,.215-.594.807.807,0,0,1,.637-.242.819.819,0,0,1,.641.242.854.854,0,0,1,.219.594.826.826,0,0,1-.219.586.834.834,0,0,1-.641.234.821.821,0,0,1-.637-.234A.834.834,0,0,1,78.8,4.3Zm6.664,8.734,2.094-6.492h1.477L86,15H84.9L81.836,6.547h1.477ZM91.992,15H90.547V6.547h1.445ZM90.43,4.3a.863.863,0,0,1,.215-.594.807.807,0,0,1,.637-.242.819.819,0,0,1,.641.242.854.854,0,0,1,.219.594.826.826,0,0,1-.219.586.834.834,0,0,1-.641.234.821.821,0,0,1-.637-.234A.834.834,0,0,1,90.43,4.3Zm3.523,6.4a4.952,4.952,0,0,1,.922-3.129,3.137,3.137,0,0,1,4.766-.168V3h1.445V15H99.758l-.07-.906a2.943,2.943,0,0,1-2.414,1.063,2.887,2.887,0,0,1-2.395-1.2,5.008,5.008,0,0,1-.926-3.141Zm1.445.164a3.749,3.749,0,0,0,.594,2.25,1.92,1.92,0,0,0,1.641.813A2.108,2.108,0,0,0,99.641,12.7V8.813a2.125,2.125,0,0,0-1.992-1.2,1.929,1.929,0,0,0-1.656.82A4.128,4.128,0,0,0,95.4,10.867ZM108.547,15a3.036,3.036,0,0,1-.2-.891,3.225,3.225,0,0,1-2.406,1.047,2.984,2.984,0,0,1-2.051-.707,2.288,2.288,0,0,1-.8-1.793,2.39,2.39,0,0,1,1-2.051,4.733,4.733,0,0,1,2.824-.73h1.406V9.211A1.623,1.623,0,0,0,107.867,8a1.821,1.821,0,0,0-1.336-.449,2.108,2.108,0,0,0-1.3.391,1.151,1.151,0,0,0-.523.945h-1.453a2,2,0,0,1,.449-1.223,3.066,3.066,0,0,1,1.219-.934,4.1,4.1,0,0,1,1.691-.344,3.342,3.342,0,0,1,2.289.73,2.635,2.635,0,0,1,.859,2.012v3.891a4.757,4.757,0,0,0,.3,1.852V15Zm-2.4-1.1a2.54,2.54,0,0,0,1.289-.352,2.127,2.127,0,0,0,.883-.914V10.9h-1.133q-2.656,0-2.656,1.555a1.316,1.316,0,0,0,.453,1.063A1.742,1.742,0,0,0,106.148,13.9Zm5.531-3.2a4.952,4.952,0,0,1,.922-3.129,3.137,3.137,0,0,1,4.766-.168V3h1.445V15h-1.328l-.07-.906A2.943,2.943,0,0,1,115,15.156a2.887,2.887,0,0,1-2.395-1.2,5.008,5.008,0,0,1-.926-3.141Zm1.445.164a3.749,3.749,0,0,0,.594,2.25,1.92,1.92,0,0,0,1.641.813,2.108,2.108,0,0,0,2.008-1.234V8.813a2.125,2.125,0,0,0-1.992-1.2,1.929,1.929,0,0,0-1.656.82A4.128,4.128,0,0,0,113.125,10.867ZM1.8,39V31.664H.469V30.547H1.8V29.68a2.878,2.878,0,0,1,.727-2.1,2.745,2.745,0,0,1,2.055-.742,3.816,3.816,0,0,1,.992.132L5.5,28.133a4.151,4.151,0,0,0-.781-.07,1.41,1.41,0,0,0-1.086.411,1.669,1.669,0,0,0-.383,1.18v.893h1.8v1.117H3.25V39Zm6.414,0H6.766V30.547H8.219Zm.016-11.977h1.75l-2.094,2.3-1.164,0Zm7.289,9.734a1.064,1.064,0,0,0-.441-.91,4.249,4.249,0,0,0-1.539-.559,7.277,7.277,0,0,1-1.742-.562,2.479,2.479,0,0,1-.953-.781,1.869,1.869,0,0,1-.309-1.078,2.193,2.193,0,0,1,.879-1.758,3.432,3.432,0,0,1,2.246-.719A3.532,3.532,0,0,1,16,31.133a2.357,2.357,0,0,1,.895,1.9H15.438a1.3,1.3,0,0,0-.5-1.023,1.888,1.888,0,0,0-1.27-.43,1.976,1.976,0,0,0-1.234.344,1.082,1.082,0,0,0-.445.9.877.877,0,0,0,.414.789,5.1,5.1,0,0,0,1.5.508,7.8,7.8,0,0,1,1.754.578,2.558,2.558,0,0,1,1,.809,1.988,1.988,0,0,1,.324,1.152,2.163,2.163,0,0,1-.906,1.816,3.8,3.8,0,0,1-2.352.684,4.257,4.257,0,0,1-1.8-.359,2.922,2.922,0,0,1-1.223-1A2.42,2.42,0,0,1,10.25,36.4H11.7a1.5,1.5,0,0,0,.582,1.152,2.258,2.258,0,0,0,1.434.426,2.331,2.331,0,0,0,1.316-.332A1.02,1.02,0,0,0,15.523,36.758ZM20.422,39H18.977V30.547h1.445ZM18.859,28.3a.863.863,0,0,1,.215-.594.807.807,0,0,1,.637-.242.819.819,0,0,1,.641.242.854.854,0,0,1,.219.594.826.826,0,0,1-.219.586.834.834,0,0,1-.641.234.821.821,0,0,1-.637-.234A.834.834,0,0,1,18.859,28.3Zm7.266,9.672a2.082,2.082,0,0,0,1.352-.469,1.649,1.649,0,0,0,.641-1.172h1.367a2.621,2.621,0,0,1-.5,1.383,3.293,3.293,0,0,1-1.23,1.047,3.55,3.55,0,0,1-1.629.391A3.482,3.482,0,0,1,23.379,38a4.59,4.59,0,0,1-1.02-3.152v-.242a5.089,5.089,0,0,1,.453-2.2,3.451,3.451,0,0,1,1.3-1.492,3.7,3.7,0,0,1,2-.531,3.39,3.39,0,0,1,2.363.852,3.043,3.043,0,0,1,1,2.211H28.117a1.992,1.992,0,0,0-.621-1.348,1.932,1.932,0,0,0-1.379-.527,2.023,2.023,0,0,0-1.707.793,3.724,3.724,0,0,0-.605,2.293v.273a3.65,3.65,0,0,0,.6,2.25A2.033,2.033,0,0,0,26.125,37.977ZM36.328,39a3.036,3.036,0,0,1-.2-.891,3.225,3.225,0,0,1-2.406,1.047,2.984,2.984,0,0,1-2.051-.707,2.287,2.287,0,0,1-.8-1.793,2.39,2.39,0,0,1,1-2.051,4.733,4.733,0,0,1,2.824-.73H36.1v-.664A1.623,1.623,0,0,0,35.648,32a1.821,1.821,0,0,0-1.336-.449,2.107,2.107,0,0,0-1.3.391,1.151,1.151,0,0,0-.523.945H31.039a2,2,0,0,1,.449-1.223,3.066,3.066,0,0,1,1.219-.934,4.1,4.1,0,0,1,1.691-.344,3.342,3.342,0,0,1,2.289.73,2.635,2.635,0,0,1,.859,2.012v3.891a4.757,4.757,0,0,0,.3,1.852V39Zm-2.4-1.1a2.54,2.54,0,0,0,1.289-.352,2.127,2.127,0,0,0,.883-.914V34.9H34.969q-2.656,0-2.656,1.555a1.316,1.316,0,0,0,.453,1.063A1.742,1.742,0,0,0,33.93,37.9Z" transform="translate(932.744 7028)" fill="#fff"/>
    <g id="Grupo_134445" data-name="Grupo 134445" transform="translate(-51.256 2418)">
      <circle id="Elipse_4971" data-name="Elipse 4971" cx="41.5" cy="41.5" r="41.5" transform="translate(881.256 4590)" fill="#aed4f5"/>
    </g>
    <g id="Grupo_136159" data-name="Grupo 136159" transform="translate(847 7028)">
      <g id="Grupo_136158" data-name="Grupo 136158" clip-path="url(#clip-path)">
        <path id="Trazado_128974" data-name="Trazado 128974" d="M0,2.6A7.876,7.876,0,0,1,.619,1.279,3.053,3.053,0,0,1,5.066.731c.134.11.258.231.412.37A3.194,3.194,0,0,1,7.912.02a3.049,3.049,0,0,1,3.014,2.943c.032,1.678.011,3.357.013,5.035,0,.172,0,.344,0,.55h3.9c0-.509.008-1.01,0-1.512A3.1,3.1,0,0,1,16.494,4a3.061,3.061,0,0,1,3.433.33,3.19,3.19,0,0,1,2.742-1.648,3.135,3.135,0,0,1,2.792,1.652,3.246,3.246,0,0,1,2.308-.69,3.094,3.094,0,0,1,2.054,1.076,8.113,8.113,0,0,1,1.667-.584,2.577,2.577,0,0,1,2.873,2.587c.02.6,0,1.2,0,1.855H37.7V6.6c0-1.093.011-2.186,0-3.278A2.993,2.993,0,0,1,39.558.284a2.968,2.968,0,0,1,3.483.71,1.264,1.264,0,0,0,.137.1A3.193,3.193,0,0,1,45.563.019a3.1,3.1,0,0,1,3.063,2.807c.014.157.012.316.012.475,0,1.25,0,2.5,0,3.787H47.212V4.529c0-.459.007-.918,0-1.378a1.656,1.656,0,0,0-1.666-1.7,1.639,1.639,0,0,0-1.658,1.7q-.007,9,0,18a1.662,1.662,0,1,0,3.322-.021q.01-5.962,0-11.924V8.579h1.426v.547c0,3.911-.013,7.823.007,11.734a3.1,3.1,0,0,1-1.89,3.165,3.04,3.04,0,0,1-3.58-.819c-.114.1-.226.2-.341.3a2.965,2.965,0,0,1-3.279.514,2.887,2.887,0,0,1-1.845-2.752c-.03-1.662-.009-3.325-.01-4.988,0-.17,0-.339,0-.535H35.175c0,.7.031,1.388-.007,2.075A8,8,0,0,1,34,21.44c-.423.724-.849,1.446-1.266,2.173a1.128,1.128,0,0,0-.166.433c-.041.456-.04.821.528,1.078A2.36,2.36,0,0,1,34.457,27.4q.031,2.826,0,5.653a2.514,2.514,0,0,1-1.55,2.409.517.517,0,0,0-.352.566c.011,2.312.006,4.624.006,6.936v.553H31.133V41.446H29.495V40.013h1.594V38.582H28.065V37.148h3.026V35.739h-12.8V43.53H16.84v-.556c0-2.3,0-4.592.005-6.888a.578.578,0,0,0-.388-.639,2.471,2.471,0,0,1-1.512-2.336q-.042-2.874,0-5.748a2.536,2.536,0,0,1,1.463-2.328.973.973,0,0,0,.189-1.508c-.929-.861-1.853-1.727-2.806-2.562a1.046,1.046,0,0,1-.386-.9c.02-1.346.008-2.692.006-4.038,0-.09-.018-.181-.03-.292H10.939v.522c0,1.5-.029,3.009.008,4.513A3.1,3.1,0,0,1,9.1,24.008,3.046,3.046,0,0,1,5.479,23.2c-.083.074-.162.142-.238.213A3.089,3.089,0,0,1,.1,21.958c-.026-.09-.064-.176-.1-.265V8.582H1.426v.606q0,5.96,0,11.919A1.651,1.651,0,0,0,3.1,22.849,1.639,1.639,0,0,0,4.752,21.14q.007-9,0-18A1.638,1.638,0,0,0,3.083,1.449,1.652,1.652,0,0,0,1.429,3.161c-.011,1.14,0,2.279,0,3.419v.577H0V2.6M31.2,24.76a2.739,2.739,0,0,1,.587-2.375C32.217,21.7,32.616,21,33,20.291a8.125,8.125,0,0,0,.763-4.6H30.721V14.277h6.943v-4.24H34.33a2.632,2.632,0,0,1-1.78,2.028,2.685,2.685,0,0,1-2.629-.567,3.185,3.185,0,0,1-4.464.487,3.17,3.17,0,0,1-5.549.006l-.761.464.458,1.838h9.625v1.429H19.509v1.724H18.077c0-1.119,0-2.193,0-3.268a1.58,1.58,0,0,0-.64-1.361,1.524,1.524,0,0,0-1.655-.173,1.612,1.612,0,0,0-.941,1.574c0,1.8-.01,3.61.011,5.414a.938.938,0,0,0,.277.6c.941.894,1.913,1.754,2.854,2.648a1.031,1.031,0,0,1,.272.6,12.663,12.663,0,0,1,.012,1.278h4.693v1.429c-1.727,0-3.419,0-5.111,0-1.038,0-1.483.442-1.486,1.469q-.006,2.565,0,5.129c0,1.071.426,1.5,1.494,1.506q6.838.005,13.676,0c1.068,0,1.5-.436,1.5-1.5q0-2.541,0-5.082c0-1.092-.433-1.522-1.527-1.523q-3.253,0-6.505,0h-.549V24.76ZM9.511,12.2v-.9c0-2.707,0-5.413,0-8.12a1.645,1.645,0,0,0-1.824-1.72,1.686,1.686,0,0,0-1.5,1.817q0,8.88,0,17.759c0,.095,0,.19.007.285a1.662,1.662,0,0,0,1.735,1.533,1.632,1.632,0,0,0,1.584-1.725c.007-2.976,0-5.951,0-8.927m29.616-.044c0,2.992,0,5.983,0,8.974a1.632,1.632,0,0,0,1.634,1.723,1.65,1.65,0,0,0,1.69-1.727q.009-8.974-.013-17.949a2.109,2.109,0,0,0-.371-1.092,1.553,1.553,0,0,0-1.82-.545,1.618,1.618,0,0,0-1.119,1.593q-.009,4.511,0,9.022M24.366,8.179V5.949c0-.032,0-.063,0-.095a1.667,1.667,0,1,0-3.329.017q-.024,2.277,0,4.555a1.667,1.667,0,1,0,3.328-.017c.012-.743,0-1.487,0-2.23M19.6,8.172c0-.506.019-1.012,0-1.517a1.633,1.633,0,0,0-1.523-1.589A1.583,1.583,0,0,0,16.314,6.5a24.806,24.806,0,0,0,0,3.313,1.584,1.584,0,0,0,1.712,1.43,1.637,1.637,0,0,0,1.565-1.6c.022-.489,0-.98,0-1.47M25.8,8.134h0c0,.49-.017.98,0,1.469a1.645,1.645,0,0,0,1.578,1.638A1.611,1.611,0,0,0,29.1,9.709a29.354,29.354,0,0,0,0-3.126,1.6,1.6,0,0,0-1.684-1.518,1.632,1.632,0,0,0-1.611,1.6c-.025.489,0,.979,0,1.469M15.3,11.277l-.461-1.238H10.974v4.226H13.4a3.162,3.162,0,0,1,1.9-2.988M30.565,8.141h0c0,.491-.017.982,0,1.472a1.163,1.163,0,0,0,1.1,1.151A1.133,1.133,0,0,0,32.908,9.7c.051-1.026.051-2.058,0-3.084a1.13,1.13,0,0,0-1.217-1.078,1.161,1.161,0,0,0-1.126,1.175c-.018.474,0,.95,0,1.425" transform="translate(0 0.001)" fill="#133d60"/>
        <rect id="Rectángulo_36350" data-name="Rectángulo 36350" width="1.375" height="1.368" transform="translate(25.2 37.18)" fill="#133d60"/>
        <rect id="Rectángulo_36351" data-name="Rectángulo 36351" width="1.366" height="1.367" transform="translate(17.596 27.653)" fill="#133d60"/>
        <rect id="Rectángulo_36352" data-name="Rectángulo 36352" width="1.375" height="1.359" transform="translate(20.446 27.647)" fill="#133d60"/>
      </g>
    </g>
    <path id="Trazado_129366" data-name="Trazado 129366" d="M15.142,0A15.142,15.142,0,1,1,0,15.142,15.142,15.142,0,0,1,15.142,0Z" transform="translate(810 7034)" fill="#fcd189"/>
    <path id="Trazado_129367" data-name="Trazado 129367" d="M2.271-10.818v1.941h-.11a3.706,3.706,0,0,0-2.274.663A2.8,2.8,0,0,0-1.208-6.372,2.886,2.886,0,0,1,.9-7.192a2.692,2.692,0,0,1,2.2,1.011,4.077,4.077,0,0,1,.82,2.651,3.733,3.733,0,0,1-.48,1.868A3.423,3.423,0,0,1,2.106-.333,3.852,3.852,0,0,1,.2.146,3.981,3.981,0,0,1-1.831-.37,3.55,3.55,0,0,1-3.223-1.846a4.86,4.86,0,0,1-.513-2.212v-.989a6.156,6.156,0,0,1,.707-2.963,5.124,5.124,0,0,1,2.018-2.062A5.769,5.769,0,0,1,1.9-10.818ZM.044-5.288a1.416,1.416,0,0,0-.82.226,1.438,1.438,0,0,0-.491.554v.737q0,2.013,1.4,2.013a1.136,1.136,0,0,0,.941-.5A2.045,2.045,0,0,0,1.45-3.523,2.007,2.007,0,0,0,1.066-4.8,1.232,1.232,0,0,0,.044-5.288Z" transform="translate(825.249 7054.057)" fill="#12263f"/>
  </g>
</svg>
