<svg xmlns="http://www.w3.org/2000/svg" xmlns:xlink="http://www.w3.org/1999/xlink" width="109.899" height="107" viewBox="0 0 109.899 107">
  <defs>
    <clipPath id="clip-path">
      <rect id="Rectángulo_36356" data-name="Rectángulo 36356" width="62.012" height="100.377" fill="none"/>
    </clipPath>
  </defs>
  <g id="Grupo_136166" data-name="Grupo 136166" transform="translate(-849 -8787)">
    <g id="Grupo_136081" data-name="Grupo 136081" transform="translate(849 8786.999)">
      <g id="Grupo_135992" data-name="Grupo 135992" transform="translate(0 0)">
        <circle id="Elipse_4973" data-name="Elipse 4973" cx="53.5" cy="53.5" r="53.5" transform="translate(0 0.001)" fill="#ffb12e"/>
        <g id="Grupo_134517" data-name="Grupo 134517" transform="translate(109.899 62.053) rotate(180)">
          <path id="Trazado_113538" data-name="Trazado 113538" d="M23.092,3.491c-1.053,0-1.573-.84-1.99-1.516s-.709-1.1-1.248-1.1-.825.419-1.247,1.1-.937,1.516-1.99,1.516-1.573-.84-1.99-1.516-.709-1.1-1.247-1.1-.825.419-1.247,1.1-.937,1.516-1.99,1.516-1.572-.84-1.989-1.516S7.446.873,6.908.873s-.824.419-1.246,1.1S4.725,3.491,3.672,3.491,2.1,2.651,1.683,1.975.975.873.437.873A.436.436,0,1,1,.437,0C1.489,0,2.008.841,2.426,1.516s.708,1.1,1.246,1.1S4.5,2.2,4.919,1.516,5.856,0,6.908,0,8.479.841,8.9,1.516s.708,1.1,1.247,1.1.825-.419,1.247-1.1S12.327,0,13.38,0s1.572.841,1.99,1.516.708,1.1,1.247,1.1.825-.419,1.247-1.1S18.8,0,19.854,0s1.573.841,1.991,1.516.709,1.1,1.248,1.1.826-.419,1.248-1.1S25.278,0,26.331,0a.436.436,0,1,1,0,.873c-.539,0-.826.419-1.248,1.1S24.146,3.491,23.092,3.491Z" transform="translate(0 0)" fill="#133d60"/>
          <path id="Trazado_126924" data-name="Trazado 126924" d="M23.092,3.491c-1.053,0-1.573-.84-1.99-1.516s-.709-1.1-1.248-1.1-.825.419-1.247,1.1-.937,1.516-1.99,1.516-1.573-.84-1.99-1.516-.709-1.1-1.247-1.1-.825.419-1.247,1.1-.937,1.516-1.99,1.516-1.572-.84-1.989-1.516S7.446.873,6.908.873s-.824.419-1.246,1.1S4.725,3.491,3.672,3.491,2.1,2.651,1.683,1.975.975.873.437.873A.436.436,0,1,1,.437,0C1.489,0,2.008.841,2.426,1.516s.708,1.1,1.246,1.1S4.5,2.2,4.919,1.516,5.856,0,6.908,0,8.479.841,8.9,1.516s.708,1.1,1.247,1.1.825-.419,1.247-1.1S12.327,0,13.38,0s1.572.841,1.99,1.516.708,1.1,1.247,1.1.825-.419,1.247-1.1S18.8,0,19.854,0s1.573.841,1.991,1.516.709,1.1,1.248,1.1.826-.419,1.248-1.1S25.278,0,26.331,0a.436.436,0,1,1,0,.873c-.539,0-.826.419-1.248,1.1S24.146,3.491,23.092,3.491Z" transform="translate(0 8.059)" fill="#133d60"/>
          <path id="Trazado_113539" data-name="Trazado 113539" d="M23.092,3.491c-1.053,0-1.573-.84-1.99-1.516s-.709-1.1-1.248-1.1-.825.419-1.247,1.1-.937,1.516-1.99,1.516-1.573-.84-1.99-1.516-.709-1.1-1.247-1.1-.825.419-1.247,1.1-.937,1.516-1.99,1.516-1.572-.84-1.989-1.516S7.446.873,6.908.873s-.824.419-1.246,1.1S4.725,3.491,3.672,3.491,2.1,2.651,1.683,1.975.975.873.437.873A.436.436,0,1,1,.437,0C1.489,0,2.008.841,2.426,1.516s.708,1.1,1.246,1.1S4.5,2.2,4.919,1.516,5.856,0,6.908,0,8.479.841,8.9,1.516s.708,1.1,1.247,1.1.825-.419,1.247-1.1S12.327,0,13.38,0s1.572.841,1.99,1.516.708,1.1,1.247,1.1.825-.419,1.247-1.1S18.8,0,19.854,0s1.573.841,1.991,1.516.709,1.1,1.248,1.1.826-.419,1.248-1.1S25.278,0,26.331,0a.436.436,0,1,1,0,.873c-.539,0-.826.419-1.248,1.1S24.146,3.491,23.092,3.491Z" transform="translate(0 4.03)" fill="#133d60"/>
          <path id="Trazado_126923" data-name="Trazado 126923" d="M23.092,3.491c-1.053,0-1.573-.84-1.99-1.516s-.709-1.1-1.248-1.1-.825.419-1.247,1.1-.937,1.516-1.99,1.516-1.573-.84-1.99-1.516-.709-1.1-1.247-1.1-.825.419-1.247,1.1-.937,1.516-1.99,1.516-1.572-.84-1.989-1.516S7.446.873,6.908.873s-.824.419-1.246,1.1S4.725,3.491,3.672,3.491,2.1,2.651,1.683,1.975.975.873.437.873A.436.436,0,1,1,.437,0C1.489,0,2.008.841,2.426,1.516s.708,1.1,1.246,1.1S4.5,2.2,4.919,1.516,5.856,0,6.908,0,8.479.841,8.9,1.516s.708,1.1,1.247,1.1.825-.419,1.247-1.1S12.327,0,13.38,0s1.572.841,1.99,1.516.708,1.1,1.247,1.1.825-.419,1.247-1.1S18.8,0,19.854,0s1.573.841,1.991,1.516.709,1.1,1.248,1.1.826-.419,1.248-1.1S25.278,0,26.331,0a.436.436,0,1,1,0,.873c-.539,0-.826.419-1.248,1.1S24.146,3.491,23.092,3.491Z" transform="translate(0 12.089)" fill="#133d60"/>
        </g>
      </g>
      <g id="Grupo_135995" data-name="Grupo 135995" transform="translate(10.549 39.862)">
        <path id="Trazado_113320" data-name="Trazado 113320" d="M2602.212,1501.185a6.741,6.741,0,1,1,6.741-6.741A6.749,6.749,0,0,1,2602.212,1501.185Zm0-10.3a3.558,3.558,0,1,0,3.558,3.558A3.562,3.562,0,0,0,2602.212,1490.886Z" transform="translate(-2595.472 -1487.703)" fill="#133d60"/>
      </g>
    </g>
    <g id="Grupo_136165" data-name="Grupo 136165" transform="translate(873 8790)">
      <g id="Grupo_136164" data-name="Grupo 136164" clip-path="url(#clip-path)">
        <path id="Trazado_129001" data-name="Trazado 129001" d="M15.509,91.532a2.057,2.057,0,0,1-1.855-2.286q.459-6.007.956-12.01c.355-4.361.731-8.719,1.07-13.081a8.579,8.579,0,0,0-1.818-5.765C11.085,54.56,8.21,50.8,5.384,47.008,4.254,45.49,3.1,43.984,2.043,42.419A11.783,11.783,0,0,1,.02,35.592C.051,25.4.076,15.209,0,5.018-.018,2.635.691.916,2.964,0H5.512A11.6,11.6,0,0,1,14.19,5.164c.315.436.557.4.951.109A7.685,7.685,0,0,1,23.269,4.4c.592.262.9.128,1.155-.424A7.256,7.256,0,0,1,27.511.8,5.053,5.053,0,0,1,30.319.1,6.9,6.9,0,0,0,32.173,0h.2c.224.328.6.175.892.259a7.728,7.728,0,0,1,4.95,4c.229.441.352.525.832.275C43.666,2.122,48.6,4.189,50.212,9.2c.137.425.215.551.7.342,5.573-2.4,11.058,1.21,11.036,7.289-.018,5.127.243,10.262-.189,15.378-.564,6.681-1.513,13.3-4.547,19.4-1.85,3.716-4.439,6.984-6.7,10.451a3.167,3.167,0,0,0-.572,2.163C50.659,72.742,51.317,81.272,52,89.8c.212,2.669.425,5.338.657,8.005.117,1.342-.4,2.249-1.48,2.517-1,.246-1.866-.313-2.375-1.531a8.415,8.415,0,0,1-.575-3.636c-.315-4.49-.707-8.975-1.068-13.461-.419-5.2-.782-10.409-1.289-15.6-.092-.941-.1-1.889-.222-2.83a3.663,3.663,0,0,1,.758-2.57c1.584-2.36,3.1-4.764,4.745-7.084a31.973,31.973,0,0,0,5.081-12.212,91.327,91.327,0,0,0,1.526-11.15c.047-.575.071-.952-.753-.662a7.706,7.706,0,0,1-7.669-1.251,1.019,1.019,0,0,0-1.517-.023,7.889,7.889,0,0,1-9.727.155,1.338,1.338,0,0,0-1.941-.012,7.832,7.832,0,0,1-9.657-.067c-.677-.5-1.166-.629-1.734.045a2.046,2.046,0,0,1-.39.294c-.778.563-.8.611-.089,1.31A18.474,18.474,0,0,1,28.4,36.4a14.2,14.2,0,0,1,.975,5.365A2.208,2.208,0,0,1,27.3,44.078a2.175,2.175,0,0,1-2.276-1.969c-.2-.992-.186-2.01-.459-3a16.163,16.163,0,0,0-5.357-7.8,22.64,22.64,0,0,0-3.269-2.321,8.079,8.079,0,0,1-4.02-7.188c-.057-3.2-.009-6.4-.014-9.6A7.891,7.891,0,0,0,5.311,4.34c-.954-.167-1.082-.074-1.089.921-.014,2.091,0,4.181,0,6.272,0,7.743.052,15.486-.03,23.227A10.34,10.34,0,0,0,6.4,41.387c3.005,3.953,5.959,7.945,8.948,11.91a35.519,35.519,0,0,1,2.383,3.35,14.371,14.371,0,0,1,2.047,8.985c-.444,4.476-.766,8.97-1.086,13.46-.234,3.286-.561,6.566-.787,9.853a4.582,4.582,0,0,1-.285,1.338,1.846,1.846,0,0,1-2.112,1.247" transform="translate(0 -0.001)"/>
        <path id="Trazado_129002" data-name="Trazado 129002" d="M99.593.162A.343.343,0,0,1,99.629,0h1.96a4.664,4.664,0,0,1-2,.161" transform="translate(-69.416 -0.001)" fill="#626262"/>
        <path id="Trazado_129003" data-name="Trazado 129003" d="M24.543,100.592c1.564-.4,1.953-.792,2.085-2.386.495-5.955.964-11.911,1.44-17.867.154-1.92.214-3.852.466-5.759a12.435,12.435,0,0,0-2.245-9.09C23.476,61.525,20.5,57.677,17.6,53.775c-1.032-1.387-2.075-2.768-3.071-4.181a8.589,8.589,0,0,1-1.559-5.145q.055-15.238-.009-30.476c0-.964.309-1.058,1.1-.924A8.287,8.287,0,0,1,21.242,21.4c.035,3.1.015,6.206.006,9.31a8.057,8.057,0,0,0,4.269,7.386c3.863,2.332,6.927,5.42,8.312,9.879a13.679,13.679,0,0,1,.436,2.9A1.979,1.979,0,0,0,36.3,52.907a2.009,2.009,0,0,0,1.856-2.313,17.183,17.183,0,0,0-5.1-11.435c-.245-.263-.5-.517-.742-.781a.588.588,0,0,1-.08-.174c.014-.025.02-.062.04-.072.849-.436,1.518-1.389,2.3-1.561.736-.162,1.406,1.011,2.238,1.429a7.785,7.785,0,0,0,8.752-1.146c.479-.439.678-.405,1.134.015a7.7,7.7,0,0,0,10.412-.086c.245-.226.368-.543.813-.135A7.561,7.561,0,0,0,66.7,38.082a1.963,1.963,0,0,1,.365-.067,63.968,63.968,0,0,1-.575,6.921A48.294,48.294,0,0,1,63.2,57.973a34.083,34.083,0,0,1-2.9,4.978c-1.616,2.412-3.215,4.836-4.841,7.24a2.868,2.868,0,0,0-.521,1.931q.854,10.3,1.685,20.6.612,7.565,1.205,15.13c-.292-.492-.777-.38-1.22-.38q-15.346,0-30.691,0a7.641,7.641,0,0,0-1.776-1.987,28,28,0,0,1,.4-4.889" transform="translate(-9.033 -9.061)" fill="#fed9d4"/>
        <path id="Trazado_129004" data-name="Trazado 129004" d="M44.871,318.22a2.238,2.238,0,0,1,1.775,1.987c-.4,1.459-1.217,2.125-2.347,1.909a1.9,1.9,0,0,1-1.6-2.009c.049-1.114.766-1.738,2.17-1.888" transform="translate(-29.761 -221.8)" fill="#010101"/>
        <path id="Trazado_129005" data-name="Trazado 129005" d="M98.637,24.053c0,2.316.009,4.633,0,6.949a3.758,3.758,0,0,1-3.7,3.961,3.714,3.714,0,0,1-3.79-3.866q-.04-7.1,0-14.191a3.748,3.748,0,1,1,7.492,0c.017,2.382,0,4.763,0,7.144" transform="translate(-63.513 -9.081)" fill="#fed9d4"/>
        <path id="Trazado_129006" data-name="Trazado 129006" d="M128.847,33.691c0-1.729-.012-3.458,0-5.186a3.778,3.778,0,0,1,3.644-3.93,3.688,3.688,0,0,1,3.871,3.782q.083,5.43,0,10.862a3.688,3.688,0,0,1-3.866,3.788,3.786,3.786,0,0,1-3.645-3.933c-.02-1.794,0-3.588,0-5.382" transform="translate(-89.803 -17.127)" fill="#fed9d4"/>
        <path id="Trazado_129007" data-name="Trazado 129007" d="M60.8,34.891c0,1.632.011,3.264,0,4.9a3.8,3.8,0,0,1-3.713,4.075,3.863,3.863,0,0,1-3.841-4.073q-.035-4.994,0-9.988a3.783,3.783,0,1,1,7.553,0c.02,1.7,0,3.394,0,5.092" transform="translate(-37.097 -17.983)" fill="#fed9d4"/>
        <path id="Trazado_129008" data-name="Trazado 129008" d="M174.15,48.449c0,.947.02,1.894,0,2.84a3.772,3.772,0,0,1-3.619,3.763,3.664,3.664,0,0,1-3.876-3.567c-.084-2.02-.083-4.049,0-6.069a3.652,3.652,0,0,1,3.877-3.56,3.74,3.74,0,0,1,3.619,3.754c.025.946,0,1.893,0,2.84" transform="translate(-116.112 -29.172)" fill="#fed9d4"/>
        <path id="Trazado_129009" data-name="Trazado 129009" d="M85.025,241.678c2.744,0,5.488-.016,8.231.005a1.923,1.923,0,0,1,2.154,1.793,1.737,1.737,0,0,1-1.277,1.959c-.661.178-.707.51-.69,1.039.023.718.021,1.438-.005,2.156a3.98,3.98,0,0,1-3.55,3.907c-.661.078-.8.328-.779.924.037,1.338.031,2.678,0,4.017a5.579,5.579,0,0,1-11.154.045c-.061-3.33-.016-6.663-.019-9.994,0-1.454-.193-1.692-1.578-1.977a1.966,1.966,0,0,1-1.713-2.042,1.929,1.929,0,0,1,2.049-1.821c2.776-.031,5.553-.01,8.329-.011" transform="translate(-52.025 -168.446)"/>
        <path id="Trazado_129010" data-name="Trazado 129010" d="M92.49,213.681c-1.665,0-3.33.016-4.995-.005a1.921,1.921,0,0,1-2.142-1.9,1.951,1.951,0,0,1,2.159-2q4.995-.03,9.99,0a1.989,1.989,0,0,1,2.2,1.975c-.005,1.179-.836,1.921-2.219,1.936-1.665.018-3.33,0-4.995,0" transform="translate(-59.491 -146.199)"/>
        <path id="Trazado_129011" data-name="Trazado 129011" d="M98.255,260.721c0-1.859.024-3.72-.018-5.578-.009-.424.113-.5.469-.5,2.252.005,4.5,0,6.756.005.1,0,.251-.018.283.033.506.8.1,1.692.225,2.535.068.476-.287.479-.615.548-2.548.538-3.7,1.978-3.709,4.6,0,1.305.015,2.611-.006,3.916a1.617,1.617,0,0,1-1.644,1.788,1.644,1.644,0,0,1-1.682-1.768c-.028-1.86-.008-3.72-.008-5.581h-.05" transform="translate(-68.471 -177.485)" fill="#fe5c7e"/>
      </g>
    </g>
  </g>
</svg>
