<svg xmlns="http://www.w3.org/2000/svg" xmlns:xlink="http://www.w3.org/1999/xlink" width="109.899" height="107" viewBox="0 0 109.899 107">
  <defs>
    <clipPath id="clip-path">
      <rect id="Rectángulo_36358" data-name="Rectángulo 36358" width="97.9" height="84.183" fill="none"/>
    </clipPath>
  </defs>
  <g id="Grupo_136170" data-name="Grupo 136170" transform="translate(-1062 -8787)">
    <g id="Grupo_136082" data-name="Grupo 136082" transform="translate(1062 8786.999)">
      <g id="Grupo_135992" data-name="Grupo 135992" transform="translate(0 0)">
        <circle id="Elipse_4973" data-name="Elipse 4973" cx="53.5" cy="53.5" r="53.5" transform="translate(0 0.001)" fill="#ffb12e"/>
        <g id="Grupo_134517" data-name="Grupo 134517" transform="translate(109.899 62.053) rotate(180)">
          <path id="Trazado_113538" data-name="Trazado 113538" d="M23.092,3.491c-1.053,0-1.573-.84-1.99-1.516s-.709-1.1-1.248-1.1-.825.419-1.247,1.1-.937,1.516-1.99,1.516-1.573-.84-1.99-1.516-.709-1.1-1.247-1.1-.825.419-1.247,1.1-.937,1.516-1.99,1.516-1.572-.84-1.989-1.516S7.446.873,6.908.873s-.824.419-1.246,1.1S4.725,3.491,3.672,3.491,2.1,2.651,1.683,1.975.975.873.437.873A.436.436,0,1,1,.437,0C1.489,0,2.008.841,2.426,1.516s.708,1.1,1.246,1.1S4.5,2.2,4.919,1.516,5.856,0,6.908,0,8.479.841,8.9,1.516s.708,1.1,1.247,1.1.825-.419,1.247-1.1S12.327,0,13.38,0s1.572.841,1.99,1.516.708,1.1,1.247,1.1.825-.419,1.247-1.1S18.8,0,19.854,0s1.573.841,1.991,1.516.709,1.1,1.248,1.1.826-.419,1.248-1.1S25.278,0,26.331,0a.436.436,0,1,1,0,.873c-.539,0-.826.419-1.248,1.1S24.146,3.491,23.092,3.491Z" transform="translate(0 0)" fill="#133d60"/>
          <path id="Trazado_126924" data-name="Trazado 126924" d="M23.092,3.491c-1.053,0-1.573-.84-1.99-1.516s-.709-1.1-1.248-1.1-.825.419-1.247,1.1-.937,1.516-1.99,1.516-1.573-.84-1.99-1.516-.709-1.1-1.247-1.1-.825.419-1.247,1.1-.937,1.516-1.99,1.516-1.572-.84-1.989-1.516S7.446.873,6.908.873s-.824.419-1.246,1.1S4.725,3.491,3.672,3.491,2.1,2.651,1.683,1.975.975.873.437.873A.436.436,0,1,1,.437,0C1.489,0,2.008.841,2.426,1.516s.708,1.1,1.246,1.1S4.5,2.2,4.919,1.516,5.856,0,6.908,0,8.479.841,8.9,1.516s.708,1.1,1.247,1.1.825-.419,1.247-1.1S12.327,0,13.38,0s1.572.841,1.99,1.516.708,1.1,1.247,1.1.825-.419,1.247-1.1S18.8,0,19.854,0s1.573.841,1.991,1.516.709,1.1,1.248,1.1.826-.419,1.248-1.1S25.278,0,26.331,0a.436.436,0,1,1,0,.873c-.539,0-.826.419-1.248,1.1S24.146,3.491,23.092,3.491Z" transform="translate(0 8.059)" fill="#133d60"/>
          <path id="Trazado_113539" data-name="Trazado 113539" d="M23.092,3.491c-1.053,0-1.573-.84-1.99-1.516s-.709-1.1-1.248-1.1-.825.419-1.247,1.1-.937,1.516-1.99,1.516-1.573-.84-1.99-1.516-.709-1.1-1.247-1.1-.825.419-1.247,1.1-.937,1.516-1.99,1.516-1.572-.84-1.989-1.516S7.446.873,6.908.873s-.824.419-1.246,1.1S4.725,3.491,3.672,3.491,2.1,2.651,1.683,1.975.975.873.437.873A.436.436,0,1,1,.437,0C1.489,0,2.008.841,2.426,1.516s.708,1.1,1.246,1.1S4.5,2.2,4.919,1.516,5.856,0,6.908,0,8.479.841,8.9,1.516s.708,1.1,1.247,1.1.825-.419,1.247-1.1S12.327,0,13.38,0s1.572.841,1.99,1.516.708,1.1,1.247,1.1.825-.419,1.247-1.1S18.8,0,19.854,0s1.573.841,1.991,1.516.709,1.1,1.248,1.1.826-.419,1.248-1.1S25.278,0,26.331,0a.436.436,0,1,1,0,.873c-.539,0-.826.419-1.248,1.1S24.146,3.491,23.092,3.491Z" transform="translate(0 4.03)" fill="#133d60"/>
          <path id="Trazado_126923" data-name="Trazado 126923" d="M23.092,3.491c-1.053,0-1.573-.84-1.99-1.516s-.709-1.1-1.248-1.1-.825.419-1.247,1.1-.937,1.516-1.99,1.516-1.573-.84-1.99-1.516-.709-1.1-1.247-1.1-.825.419-1.247,1.1-.937,1.516-1.99,1.516-1.572-.84-1.989-1.516S7.446.873,6.908.873s-.824.419-1.246,1.1S4.725,3.491,3.672,3.491,2.1,2.651,1.683,1.975.975.873.437.873A.436.436,0,1,1,.437,0C1.489,0,2.008.841,2.426,1.516s.708,1.1,1.246,1.1S4.5,2.2,4.919,1.516,5.856,0,6.908,0,8.479.841,8.9,1.516s.708,1.1,1.247,1.1.825-.419,1.247-1.1S12.327,0,13.38,0s1.572.841,1.99,1.516.708,1.1,1.247,1.1.825-.419,1.247-1.1S18.8,0,19.854,0s1.573.841,1.991,1.516.709,1.1,1.248,1.1.826-.419,1.248-1.1S25.278,0,26.331,0a.436.436,0,1,1,0,.873c-.539,0-.826.419-1.248,1.1S24.146,3.491,23.092,3.491Z" transform="translate(0 12.089)" fill="#133d60"/>
        </g>
      </g>
      <g id="Grupo_135995" data-name="Grupo 135995" transform="translate(10.549 39.862)">
        <path id="Trazado_113320" data-name="Trazado 113320" d="M2602.212,1501.185a6.741,6.741,0,1,1,6.741-6.741A6.749,6.749,0,0,1,2602.212,1501.185Zm0-10.3a3.558,3.558,0,1,0,3.558,3.558A3.562,3.562,0,0,0,2602.212,1490.886Z" transform="translate(-2595.472 -1487.703)" fill="#133d60"/>
      </g>
    </g>
    <g id="Grupo_136169" data-name="Grupo 136169" transform="translate(1068 8798)">
      <g id="Grupo_136168" data-name="Grupo 136168" clip-path="url(#clip-path)">
        <path id="Trazado_129049" data-name="Trazado 129049" d="M97.9,49c-1.119,3.69-4.056,4.862-7.462,5.357-1.338.194-1.317.163-1.348,1.484-.067,2.9.235,5.8-.17,8.684A10.212,10.212,0,0,1,79.332,73.1a64.175,64.175,0,0,0-7.056.356c-2.339.343-3.138,1.066-3.625,3.373a33.091,33.091,0,0,0-.589,5.022c-.095,1.7-.745,2.328-2.461,2.328q-16.68,0-33.361,0c-1.646,0-2.315-.643-2.407-2.283a33.188,33.188,0,0,0-.6-5.117c-.485-2.256-1.3-2.986-3.57-3.318a47.615,47.615,0,0,0-6.292-.335A10.3,10.3,0,0,1,8.8,62.48c-.006-2.262-.062-4.527.027-6.785.04-1-.293-1.281-1.231-1.339A10.417,10.417,0,0,1,3.321,53.12,5.769,5.769,0,0,1,.329,45.879a11.076,11.076,0,0,1,1.351-2.826c.312-.48.647-.945.971-1.417,2.468-3.6,4.7-7.3,4.367-11.925C8.491,17.028,15.162,8.061,26.681,2.794a31.431,31.431,0,0,1,21.555-1.62,2.8,2.8,0,0,0,1.486-.019A32.974,32.974,0,0,1,89.486,22.779a25.73,25.73,0,0,1,1.459,8.14,14.425,14.425,0,0,0,2.246,7.468c.492.853.991,1.708,1.561,2.509a18.062,18.062,0,0,1,3.148,6Z" transform="translate(0 0)"/>
        <path id="Trazado_129050" data-name="Trazado 129050" d="M115.19,81.9c-1.467.317-1.948.874-1.922,2.362.034,1.974.09,3.948.19,5.92.031.6-.14.741-.726.738q-7.455-.036-14.911,0c-.7,0-.839-.2-.794-.856a77.739,77.739,0,0,0,.032-10.311,43.382,43.382,0,0,0-5.252-17.885c-1.261-2.355-2.795-4.555-3.907-6.993a28.629,28.629,0,0,1,16.672-38.752,1.716,1.716,0,0,1,1.281-.017c11.064,4.364,17.6,12.338,19.083,24.2a26.959,26.959,0,0,1-3.95,17.548,68.774,68.774,0,0,0-4.238,8,2.008,2.008,0,0,0,.912,2.977,22.126,22.126,0,0,1-1.236,4.476c-.268.261-.643.24-.964.363a1.534,1.534,0,0,0-1.152,1.254,1.691,1.691,0,0,0,.663,1.677c.272.206.626.329.756.694a16.337,16.337,0,0,1-.536,4.6" transform="translate(-56.292 -10.544)" fill="#fec044"/>
        <path id="Trazado_129051" data-name="Trazado 129051" d="M166.406,78.836a42.563,42.563,0,0,1,.384-4.723c.146-.26.428-.243.661-.323a1.714,1.714,0,0,0,1.26-1.307,1.613,1.613,0,0,0-.735-1.646c-.2-.147-.457-.247-.481-.549a25.017,25.017,0,0,1,1.381-4.515c1.411.192,2.008-.105,2.564-1.387a67.2,67.2,0,0,1,4.013-7.581,32.273,32.273,0,0,0-11.064-44.487c-.376-.229-.754-.452-1.362-.817a22.447,22.447,0,0,1,4.1-.11,28.973,28.973,0,0,1,27.316,24.9c.228,1.6.141,3.25.364,4.854.437,3.131,2.016,5.8,3.66,8.421.744,1.185,1.6,2.3,2.309,3.507,1.517,2.578.886,4.02-2.009,4.733a16.339,16.339,0,0,1-3.692.423c-1.637.023-2.29.717-2.3,2.366,0,1.02.314,2.2-.092,3.016-.43.867-1.8.454-2.719.787a22.873,22.873,0,0,0-3.736,1.669,1.913,1.913,0,1,0,1.884,3.317,13.081,13.081,0,0,1,3.889-1.52c.561-.1.834-.052.782.615a25.968,25.968,0,0,1-.121,2.954,6.42,6.42,0,0,1-6.3,5.345c-2.261.05-4.521.047-6.773.321-4.291.522-6.525,2.591-7.262,6.828-.185,1.064-.308,2.141-.41,3.217-.047.5-.174.746-.737.708-.853-.058-1.925.262-2.506-.146-.549-.385-.228-1.539-.279-2.351-.085-1.366-.08-2.738-.1-4.108-.021-1.5-.449-2.055-1.9-2.412" transform="translate(-107.508 -7.484)" fill="#66dff6"/>
        <path id="Trazado_129052" data-name="Trazado 129052" d="M49.532,11.63a32.671,32.671,0,0,0-10.9,9.923C31.069,32.879,30.591,44.59,37.18,56.5a66.045,66.045,0,0,1,5.415,11.129,40.222,40.222,0,0,1,1.921,11.924q.072,3.824-.154,7.643c-.035.608-.223.755-.784.717-.824-.056-1.853.25-2.424-.141-.609-.415-.227-1.547-.427-2.348-.184-.738-.245-1.507-.423-2.247-.874-3.632-3.05-5.531-6.77-5.988a63.634,63.634,0,0,0-6.868-.346,6.451,6.451,0,0,1-6.616-6.661,4.908,4.908,0,0,1,.078-2.072c.321-.628,1.257-.286,1.911-.452a17.581,17.581,0,0,0,4.732-1.988,1.9,1.9,0,0,0-1.823-3.32,17.1,17.1,0,0,1-3.868,1.6c-.719.164-1.135.089-1.049-.826a25.245,25.245,0,0,0,.015-2.579A1.974,1.974,0,0,0,17.821,58.3a13.367,13.367,0,0,1-4.779-.77c-1.722-.688-2.144-1.65-1.485-3.385a12.964,12.964,0,0,1,1.551-2.622A31.325,31.325,0,0,0,17.8,42.4a29.3,29.3,0,0,0,.455-5.031,28.931,28.931,0,0,1,26.151-25.8,21.316,21.316,0,0,1,5.121.059" transform="translate(-7.427 -7.548)" fill="#fe5d7c"/>
        <path id="Trazado_129053" data-name="Trazado 129053" d="M171.713,184.423a2.044,2.044,0,0,1,1.5,1.781,1.866,1.866,0,0,1-.839,1.718,2.323,2.323,0,0,1-1.367.326c-1.242-.482-1.723-1.182-1.551-2.257.159-1,.931-1.531,2.256-1.568" transform="translate(-111.726 -121.618)" fill="#010101"/>
        <path id="Trazado_129054" data-name="Trazado 129054" d="M235.923,104.9a1.863,1.863,0,0,1-1.849,1.888,1.909,1.909,0,0,1-1.945-1.907,1.937,1.937,0,0,1,1.869-1.9,1.9,1.9,0,0,1,1.924,1.922" transform="translate(-153.078 -67.905)" fill="#000101"/>
        <path id="Trazado_129055" data-name="Trazado 129055" d="M44.193,104.846a1.9,1.9,0,0,1,1.873-1.878,1.949,1.949,0,0,1,1.918,1.951,1.913,1.913,0,0,1-1.992,1.858,1.857,1.857,0,0,1-1.8-1.932" transform="translate(-29.143 -67.902)" fill="#010000"/>
      </g>
    </g>
  </g>
</svg>
