<svg id="Grupo_136083" data-name="Grupo 136083" xmlns="http://www.w3.org/2000/svg" xmlns:xlink="http://www.w3.org/1999/xlink" width="109.899" height="107.001" viewBox="0 0 109.899 107.001">
  <defs>
    <clipPath id="clip-path">
      <rect id="Rectángulo_36357" data-name="Rectángulo 36357" width="102.647" height="102.686" fill="none"/>
    </clipPath>
  </defs>
  <g id="Grupo_135992" data-name="Grupo 135992" transform="translate(0 0)">
    <circle id="Elipse_4973" data-name="Elipse 4973" cx="53.5" cy="53.5" r="53.5" transform="translate(0 0.001)" fill="#ffb12e"/>
    <g id="Grupo_134517" data-name="Grupo 134517" transform="translate(109.899 62.053) rotate(180)">
      <path id="Trazado_113538" data-name="Trazado 113538" d="M23.092,3.491c-1.053,0-1.573-.84-1.99-1.516s-.709-1.1-1.248-1.1-.825.419-1.247,1.1-.937,1.516-1.99,1.516-1.573-.84-1.99-1.516-.709-1.1-1.247-1.1-.825.419-1.247,1.1-.937,1.516-1.99,1.516-1.572-.84-1.989-1.516S7.446.873,6.908.873s-.824.419-1.246,1.1S4.725,3.491,3.672,3.491,2.1,2.651,1.683,1.975.975.873.437.873A.436.436,0,1,1,.437,0C1.489,0,2.008.841,2.426,1.516s.708,1.1,1.246,1.1S4.5,2.2,4.919,1.516,5.856,0,6.908,0,8.479.841,8.9,1.516s.708,1.1,1.247,1.1.825-.419,1.247-1.1S12.327,0,13.38,0s1.572.841,1.99,1.516.708,1.1,1.247,1.1.825-.419,1.247-1.1S18.8,0,19.854,0s1.573.841,1.991,1.516.709,1.1,1.248,1.1.826-.419,1.248-1.1S25.278,0,26.331,0a.436.436,0,1,1,0,.873c-.539,0-.826.419-1.248,1.1S24.146,3.491,23.092,3.491Z" transform="translate(0 0)" fill="#133d60"/>
      <path id="Trazado_126924" data-name="Trazado 126924" d="M23.092,3.491c-1.053,0-1.573-.84-1.99-1.516s-.709-1.1-1.248-1.1-.825.419-1.247,1.1-.937,1.516-1.99,1.516-1.573-.84-1.99-1.516-.709-1.1-1.247-1.1-.825.419-1.247,1.1-.937,1.516-1.99,1.516-1.572-.84-1.989-1.516S7.446.873,6.908.873s-.824.419-1.246,1.1S4.725,3.491,3.672,3.491,2.1,2.651,1.683,1.975.975.873.437.873A.436.436,0,1,1,.437,0C1.489,0,2.008.841,2.426,1.516s.708,1.1,1.246,1.1S4.5,2.2,4.919,1.516,5.856,0,6.908,0,8.479.841,8.9,1.516s.708,1.1,1.247,1.1.825-.419,1.247-1.1S12.327,0,13.38,0s1.572.841,1.99,1.516.708,1.1,1.247,1.1.825-.419,1.247-1.1S18.8,0,19.854,0s1.573.841,1.991,1.516.709,1.1,1.248,1.1.826-.419,1.248-1.1S25.278,0,26.331,0a.436.436,0,1,1,0,.873c-.539,0-.826.419-1.248,1.1S24.146,3.491,23.092,3.491Z" transform="translate(0 8.059)" fill="#133d60"/>
      <path id="Trazado_113539" data-name="Trazado 113539" d="M23.092,3.491c-1.053,0-1.573-.84-1.99-1.516s-.709-1.1-1.248-1.1-.825.419-1.247,1.1-.937,1.516-1.99,1.516-1.573-.84-1.99-1.516-.709-1.1-1.247-1.1-.825.419-1.247,1.1-.937,1.516-1.99,1.516-1.572-.84-1.989-1.516S7.446.873,6.908.873s-.824.419-1.246,1.1S4.725,3.491,3.672,3.491,2.1,2.651,1.683,1.975.975.873.437.873A.436.436,0,1,1,.437,0C1.489,0,2.008.841,2.426,1.516s.708,1.1,1.246,1.1S4.5,2.2,4.919,1.516,5.856,0,6.908,0,8.479.841,8.9,1.516s.708,1.1,1.247,1.1.825-.419,1.247-1.1S12.327,0,13.38,0s1.572.841,1.99,1.516.708,1.1,1.247,1.1.825-.419,1.247-1.1S18.8,0,19.854,0s1.573.841,1.991,1.516.709,1.1,1.248,1.1.826-.419,1.248-1.1S25.278,0,26.331,0a.436.436,0,1,1,0,.873c-.539,0-.826.419-1.248,1.1S24.146,3.491,23.092,3.491Z" transform="translate(0 4.03)" fill="#133d60"/>
      <path id="Trazado_126923" data-name="Trazado 126923" d="M23.092,3.491c-1.053,0-1.573-.84-1.99-1.516s-.709-1.1-1.248-1.1-.825.419-1.247,1.1-.937,1.516-1.99,1.516-1.573-.84-1.99-1.516-.709-1.1-1.247-1.1-.825.419-1.247,1.1-.937,1.516-1.99,1.516-1.572-.84-1.989-1.516S7.446.873,6.908.873s-.824.419-1.246,1.1S4.725,3.491,3.672,3.491,2.1,2.651,1.683,1.975.975.873.437.873A.436.436,0,1,1,.437,0C1.489,0,2.008.841,2.426,1.516s.708,1.1,1.246,1.1S4.5,2.2,4.919,1.516,5.856,0,6.908,0,8.479.841,8.9,1.516s.708,1.1,1.247,1.1.825-.419,1.247-1.1S12.327,0,13.38,0s1.572.841,1.99,1.516.708,1.1,1.247,1.1.825-.419,1.247-1.1S18.8,0,19.854,0s1.573.841,1.991,1.516.709,1.1,1.248,1.1.826-.419,1.248-1.1S25.278,0,26.331,0a.436.436,0,1,1,0,.873c-.539,0-.826.419-1.248,1.1S24.146,3.491,23.092,3.491Z" transform="translate(0 12.089)" fill="#133d60"/>
    </g>
  </g>
  <g id="Grupo_135995" data-name="Grupo 135995" transform="translate(10.549 39.862)">
    <path id="Trazado_113320" data-name="Trazado 113320" d="M2602.212,1501.185a6.741,6.741,0,1,1,6.741-6.741A6.749,6.749,0,0,1,2602.212,1501.185Zm0-10.3a3.558,3.558,0,1,0,3.558,3.558A3.562,3.562,0,0,0,2602.212,1490.886Z" transform="translate(-2595.472 -1487.703)" fill="#133d60"/>
  </g>
  <g id="Grupo_136167" data-name="Grupo 136167" transform="translate(3.677)">
    <g id="Grupo_136167-2" data-name="Grupo 136167" clip-path="url(#clip-path)">
      <path id="Trazado_129012" data-name="Trazado 129012" d="M.171,53.561C.744,46.34,6.74,39.536,14.1,37.746c9.567-2.324,18.657,2.664,22.273,12.226.349-.019.483-.328.69-.527a14.69,14.69,0,0,1,10.379-4.259,34.3,34.3,0,0,1,5.106.1A8.4,8.4,0,0,1,57.8,48.129a.753.753,0,0,0,1,.28,8.049,8.049,0,0,1,7.046.472c.718.4.835.1,1.085-.445A18.411,18.411,0,0,1,79.912,37.656a18.644,18.644,0,0,1,8.473,36.312,3.654,3.654,0,0,0-1.488.761c-1.516,1.26-3.053,2.493-4.562,3.76a1.781,1.781,0,0,1-2.013.433,1.569,1.569,0,0,1-.95-1.808c.366-2.27-.307-3.657-2.755-4.215a11.731,11.731,0,0,1-4.361-2.588c-.088.555-.152,1.028-.239,1.5A6.478,6.478,0,0,1,66.31,77.04c-.615.052-.771.289-.872.805a14.083,14.083,0,0,1-6.4,9.409,1.075,1.075,0,0,0-.533.958,4.251,4.251,0,0,0,2.671,4.546A49.92,49.92,0,0,0,70.952,95.9c1.258.325,2.536.59,3.77.99a5.767,5.767,0,0,1,4.314,5.222c.356,4.092.531,8.2.78,12.3.12,1.968.225,3.936.354,5.9.149,2.275-.937,3.467-3.205,3.467q-25.616,0-51.233,0c-2.23,0-3.347-1.178-3.22-3.358q.5-8.505.987-17.011c.226-3.965,1.78-5.876,5.61-6.856,1.163-.3,2.33-.582,3.5-.865a39.735,39.735,0,0,0,9.162-3.074,4.159,4.159,0,0,0,2.409-4.7.794.794,0,0,0-.442-.6,14.316,14.316,0,0,1-6.541-9.658c-.07-.36-.163-.546-.605-.6a6.518,6.518,0,0,1-6.066-6.331c-.009-.1-.029-.195-.046-.3-.362-.039-.522.264-.745.428a16.589,16.589,0,0,1-4.749,2.526c-1.853.588-1.638.747-1.648,2.312q-.005.8,0,1.6a1.61,1.61,0,0,1-.952,1.62,1.651,1.651,0,0,1-1.86-.291c-1.444-1.188-2.91-2.352-4.326-3.572a5.652,5.652,0,0,0-2.357-1.216A18.637,18.637,0,0,1,.176,58.226C-.017,57.908.24,57.512,0,57.2V55.6c.211-.343.054-.721.1-1.079a2.969,2.969,0,0,1,.067-.957" transform="translate(0 -21.101)"/>
      <path id="Trazado_129013" data-name="Trazado 129013" d="M110.854,0a19.5,19.5,0,0,1,2.453.939A6.834,6.834,0,1,1,108.245.2c.152-.037.343.015.4-.2Z" transform="translate(-58.507)"/>
      <path id="Trazado_129014" data-name="Trazado 129014" d="M82.978,0c.28.312.724.475.8.967a1.378,1.378,0,0,1-.709,1.6,1.228,1.228,0,0,1-1.6-.362A1.29,1.29,0,0,1,81.477.472a3.473,3.473,0,0,1,.5-.472Z" transform="translate(-46.074)" fill="#71d5f8"/>
      <path id="Trazado_129015" data-name="Trazado 129015" d="M.171,75.1q0,.5.008,1-.058.175-.179.036v-1A.188.188,0,0,1,.171,75.1" transform="translate(0 -42.643)" fill="#626262"/>
      <path id="Trazado_129016" data-name="Trazado 129016" d="M0,83.539a1.079,1.079,0,0,1,.177,1.025A.974.974,0,0,0,0,84.542Z" transform="translate(0 -47.439)" fill="#707070"/>
      <path id="Trazado_129017" data-name="Trazado 129017" d="M0,77.457a1,1,0,0,0,.179-.036c-.006.356.15.739-.179,1.039Z" transform="translate(0 -43.965)" fill="#141414"/>
      <path id="Trazado_129018" data-name="Trazado 129018" d="M80.064,18.938c-.008.7-.564.9-1.157,1.1A30.347,30.347,0,0,0,70.1,24.622c-.955.722-1.865,1.506-2.771,2.291-.549.475-1.105.7-1.648.085-.513-.58-.226-1.1.27-1.555A33.791,33.791,0,0,1,78.49,18.057c.888-.291,1.533.069,1.574.882" transform="translate(-37.144 -10.197)"/>
      <path id="Trazado_129019" data-name="Trazado 129019" d="M139.615,17.929c.384.125.924.286,1.454.475a33.121,33.121,0,0,1,11.5,7.028c.508.472.72,1.01.19,1.557s-1.079.363-1.578-.109c-.218-.206-.443-.4-.667-.6a31.574,31.574,0,0,0-6.949-4.654,35.048,35.048,0,0,0-4.343-1.743.971.971,0,0,1-.757-1.13c.082-.51.428-.815,1.146-.821" transform="translate(-78.622 -10.181)"/>
      <path id="Trazado_129020" data-name="Trazado 129020" d="M194.491,170.741a1.288,1.288,0,0,1,1.422-1.422c.61,0,.825-.157.786-.785a1.22,1.22,0,0,1,1.208-1.424,1.284,1.284,0,0,1,1.34,1.419c.011.611.169.825.793.785a1.2,1.2,0,0,1,1.4,1.237,1.22,1.22,0,0,1-1.339,1.311c-.649,0-.86.18-.851.843a1.277,1.277,0,1,1-2.547-.045c.032-.616-.16-.81-.782-.793a1.271,1.271,0,0,1-1.427-1.125" transform="translate(-110.444 -94.892)" fill="#87d047"/>
      <path id="Trazado_129021" data-name="Trazado 129021" d="M60.612,11.784A4.91,4.91,0,0,0,56.837,15.5a4.872,4.872,0,0,0-3.9-3.682,4.936,4.936,0,0,0,3.873-3.81,4.949,4.949,0,0,0,3.8,3.774" transform="translate(-30.063 -4.549)" fill="#f4c74c"/>
      <path id="Trazado_129022" data-name="Trazado 129022" d="M168.778,137.01a3.39,3.39,0,0,0-2.436,2.362,3.521,3.521,0,0,0-2.5-2.368,3.5,3.5,0,0,0,2.49-2.415,3.532,3.532,0,0,0,2.447,2.422" transform="translate(-93.039 -76.428)" fill="#fb677f"/>
      <path id="Trazado_129023" data-name="Trazado 129023" d="M194.307,199.965a1.328,1.328,0,1,1-2.652.123,1.331,1.331,0,0,1,1.32-1.439,1.3,1.3,0,0,1,1.332,1.316" transform="translate(-108.833 -112.806)" fill="#f4c84d"/>
      <path id="Trazado_129024" data-name="Trazado 129024" d="M84.108,199.511c-5.447,0-10.893-.023-16.339.022-.928.008-1.235-.162-1.22-1.171.064-4.477.025-8.954.031-13.432,0-.555-.013-1.084-.615-1.354-.71-.318-1.38.214-1.388,1.161-.019,2.439-.041,4.879.013,7.317.017.8-.211,1.021-1,.995-1.769-.058-3.541-.033-5.312-.01-.53.007-.79-.089-.749-.709.268-4.066.468-8.136.772-12.2a3.945,3.945,0,0,1,3.177-3.681c3.024-.822,6.068-1.565,9.1-2.374.506-.135.733.116,1,.427,1.507,1.744,3.013,3.49,4.535,5.221,1.293,1.471,2.59,1.558,4.07.242a16.6,16.6,0,0,0,2.829-2.675c.311-.443,1.68-.312,2.037.139a18.974,18.974,0,0,0,3.257,2.95A2.353,2.353,0,0,0,91.7,179.9q2.336-2.616,4.592-5.3a1.18,1.18,0,0,1,1.445-.431c2.732.749,5.486,1.42,8.233,2.116,2.559.649,3.675,1.914,3.852,4.55.252,3.766.427,7.536.667,11.3.043.678-.107.94-.845.917-1.7-.054-3.408-.048-5.111,0-.7.019-.913-.179-.9-.889.042-2.405.009-4.811.021-7.217,0-.741-.146-1.42-1.014-1.429-.886-.01-1,.677-1,1.417.012,4.511-.026,9.022.032,13.532.012.93-.28,1.075-1.118,1.07-5.479-.037-10.959-.019-16.439-.019" transform="translate(-32.667 -98.831)" fill="#3ca9db"/>
      <path id="Trazado_129025" data-name="Trazado 129025" d="M169.894,79.395c0-.647,0-1.075,0-1.5-.006-2.078-.588-2.868-2.529-3.553a16.33,16.33,0,0,1-10.883-11.606,16.635,16.635,0,1,1,19.985,11.979,5.33,5.33,0,0,0-2.289,1.146c-1.347,1.14-2.72,2.249-4.283,3.537" transform="translate(-88.532 -23.8)" fill="#ecf3fb"/>
      <path id="Trazado_129026" data-name="Trazado 129026" d="M114.86,100.216c-.121,2.236.258,4.92-.329,7.566a12.338,12.338,0,0,1-24.313-1.337c-.355-3.7-.061-7.414-.135-11.122-.019-.965.654-.548,1.043-.5a16.536,16.536,0,0,0,8.45-1.041,13.563,13.563,0,0,0,5.028-3.546c.3-.338.473-.519.937-.143a14.269,14.269,0,0,0,8.316,3.053c.847.054,1.046.328,1.021,1.127-.058,1.836-.019,3.676-.019,5.942" transform="translate(-51.13 -51.042)" fill="#f8cfb3"/>
      <path id="Trazado_129027" data-name="Trazado 129027" d="M23.911,79.306c-1.518-1.246-2.89-2.35-4.235-3.485a5.345,5.345,0,0,0-2.292-1.145A16.647,16.647,0,1,1,37.874,59.584c-.52,6.939-4.234,11.808-10.679,14.47-3.014,1.245-3.177,1.337-3.235,4.556,0,.162-.022.323-.048.7" transform="translate(-2.635 -23.764)" fill="#ecf3fb"/>
      <path id="Trazado_129028" data-name="Trazado 129028" d="M113.728,77.213c-1,.035-1.607-.1-1.666-1.289-.056-1.131-.749-1.514-2.29-1.554a14.354,14.354,0,0,1-4.115-.748,11,11,0,0,1-3.977-2.248,1.7,1.7,0,0,0-2.782.156c-3.512,4.153-8.036,5.212-13.179,4.342a1.779,1.779,0,0,0-2.063.793c-.428.721-1.17.3-1.9.762a22.679,22.679,0,0,0,1.672-5.081,16.712,16.712,0,0,0,.141-5.667,2.092,2.092,0,0,1,.59-1.907,12.819,12.819,0,0,1,10-4.461,24.511,24.511,0,0,1,4.89.156,6.4,6.4,0,0,1,4.161,2.721,1.358,1.358,0,0,0,2.085.51,6.2,6.2,0,0,1,6.382.247c.372.216.695.432.567,1.017a18.513,18.513,0,0,0,1.49,12.253" transform="translate(-46.425 -34.222)" fill="#754e34"/>
      <path id="Trazado_129029" data-name="Trazado 129029" d="M106.141,156.14a14.626,14.626,0,0,0,7.637.712,21.257,21.257,0,0,0,2.121-.546c.419-.124.619-.071.6.423a4.541,4.541,0,0,0,.417,2.137.67.67,0,0,1-.185.8c-1.418,1.637-2.821,3.287-4.243,4.922a2.213,2.213,0,0,1-2.428-.049q-2.067-2.376-4.119-4.765c-.185-.214-.453-.392-.271-.772a6.114,6.114,0,0,0,.472-2.864" transform="translate(-59.971 -88.666)" fill="#f8cfb3"/>
      <path id="Trazado_129030" data-name="Trazado 129030" d="M60.558,222.6c.932,0,1.865.025,2.8-.01.52-.019.789.067.76.686-.05,1.063-.036,2.13,0,3.194.015.478-.131.625-.614.618-1.93-.025-3.861-.02-5.791-.006-.719.006-1.051-.312-1.007-1.027.059-.963.146-1.926.165-2.89.01-.532.289-.576.7-.57,1,.013,2,0,3,0" transform="translate(-32.194 -126.401)" fill="#f8cfb3"/>
      <path id="Trazado_129031" data-name="Trazado 129031" d="M167.7,222.6c.932,0,1.865.022,2.8-.009.521-.017.789.089.787.7,0,.9.089,1.794.156,2.69.055.749-.245,1.115-1.029,1.106q-2.746-.029-5.492,0c-.486.006-.72-.072-.7-.639.046-1.063.04-2.131,0-3.195-.019-.536.167-.684.681-.664.931.036,1.864.01,2.8.01" transform="translate(-93.253 -126.401)" fill="#f8cfb3"/>
      <path id="Trazado_129032" data-name="Trazado 129032" d="M128.095,175.127a3.151,3.151,0,0,1-.436-.275c-.714-.6-1.408-1.232-2.129-1.828a.659.659,0,0,1-.068-1.1q1.816-2.074,3.611-4.165c.215-.25.387-.4.738-.136a16.128,16.128,0,0,0,3,1.581c.328.153.5.264.194.619-1.454,1.658-2.894,3.329-4.34,4.993a.714.714,0,0,1-.573.312" transform="translate(-71.096 -95.108)" fill="#6fd5f8"/>
      <path id="Trazado_129033" data-name="Trazado 129033" d="M79.687,108.453c0,1.3-.03,2.6.013,3.9.02.593-.221.661-.711.586a4.587,4.587,0,0,1-.065-9c.516-.089.8-.038.776.612-.045,1.3-.013,2.6-.013,3.9" transform="translate(-42.736 -59.005)" fill="#f8cfb3"/>
      <path id="Trazado_129034" data-name="Trazado 129034" d="M156.528,108.39a4.689,4.689,0,0,1-3.662,4.534c-.508.095-.79.06-.782-.6q.052-3.9,0-7.8c-.01-.7.337-.66.8-.576a4.674,4.674,0,0,1,3.64,4.446" transform="translate(-86.362 -59)" fill="#f8cfb3"/>
      <path id="Trazado_129035" data-name="Trazado 129035" d="M99,175.158c-.385,0-.531-.243-.7-.438-1.379-1.583-2.739-3.182-4.137-4.748-.374-.419-.257-.559.185-.755a14.363,14.363,0,0,0,2.91-1.522c.319-.241.507-.184.744.093q1.819,2.127,3.66,4.234a.579.579,0,0,1-.035.943c-.755.655-1.506,1.315-2.264,1.966a2.423,2.423,0,0,1-.362.226" transform="translate(-53.346 -95.141)" fill="#6fd5f8"/>
      <path id="Trazado_129036" data-name="Trazado 129036" d="M112.5,4.648a4.815,4.815,0,1,1-4.828,4.83,4.833,4.833,0,0,1,4.828-4.83" transform="translate(-61.143 -2.639)" fill="#86d047"/>
      <path id="Trazado_129037" data-name="Trazado 129037" d="M173.089,71.383a5.075,5.075,0,0,1,2.971-4.492,4.984,4.984,0,0,1,5.548.567c.516.395.783.544,1.383.053a5.261,5.261,0,0,1,7.214,7.611c-1.908,2.056-3.92,4.018-5.944,5.961a2.74,2.74,0,0,1-3.9-.019q-3.029-2.923-5.946-5.961a5.118,5.118,0,0,1-1.328-3.721" transform="translate(-98.291 -37.65)"/>
      <path id="Trazado_129038" data-name="Trazado 129038" d="M113.379,130.848a5.807,5.807,0,0,1,3.9,1.754c.484.487.672,1.032.122,1.569-.5.488-1,.33-1.5-.1a4.164,4.164,0,0,0-5.925-.027c-.529.466-1.05.633-1.569.083-.535-.567-.258-1.089.2-1.572a6.444,6.444,0,0,1,4.765-1.708" transform="translate(-61.396 -74.304)" fill="#010101"/>
      <path id="Trazado_129039" data-name="Trazado 129039" d="M105.093,114.026a1.718,1.718,0,0,1-1.646,1.685,1.693,1.693,0,1,1,.024-3.384,1.7,1.7,0,0,1,1.622,1.7" transform="translate(-57.756 -63.786)" fill="#020101"/>
      <path id="Trazado_129040" data-name="Trazado 129040" d="M129.8,115.712a1.717,1.717,0,0,1-1.706-1.624,1.689,1.689,0,0,1,1.656-1.764,1.694,1.694,0,1,1,.05,3.388" transform="translate(-72.737 -63.785)" fill="#020101"/>
      <path id="Trazado_129041" data-name="Trazado 129041" d="M25,71.765a.769.769,0,0,0-.2,0c-.537.152-1.127-.559-1.568-.028a5.717,5.717,0,0,0-.6,1.469,28.932,28.932,0,0,1-1.2,2.741,2.555,2.555,0,0,1-3.215,1.313,2.68,2.68,0,0,1-1.765-3.1,6.151,6.151,0,0,0,.287-1.96c-.153-.719-1.1-.514-1.652-.857A5.39,5.39,0,0,1,12.531,65.7a2.4,2.4,0,0,0-.128-1.352,4.255,4.255,0,0,1,1.56-5.461,1.114,1.114,0,0,0,.462-.824,4.587,4.587,0,0,1,3.588-4.075,1.857,1.857,0,0,0,1.1-.728,3.988,3.988,0,0,1,4.305-1.644,1.779,1.779,0,0,0,1.42-.188,1.36,1.36,0,0,1,.838-.285c2.086.4,4.349.257,6.071,1.821a1.234,1.234,0,0,0,.879.331,3.223,3.223,0,0,1,2.786,1.671,1.539,1.539,0,0,0,.884.711,4.832,4.832,0,0,1,3.382,4.191,4.472,4.472,0,0,1-2.572,4.588,29.01,29.01,0,0,1-3.942,1.689,7.845,7.845,0,0,0-4.289,3.391A4.21,4.21,0,0,1,25,71.765" transform="translate(-6.815 -29.038)"/>
      <path id="Trazado_129042" data-name="Trazado 129042" d="M117.608,11.828a1.089,1.089,0,0,1-.422.854q-1.35,1.342-2.691,2.694a1.113,1.113,0,0,1-1.813,0c-.558-.575-1.143-1.125-1.7-1.706a.936.936,0,0,1-.031-1.425.958.958,0,0,1,1.429.005c.43.352.75,1.13,1.255,1.015s.883-.764,1.314-1.181c.36-.348.7-.724,1.082-1.042a.864.864,0,0,1,1.028-.111.95.95,0,0,1,.545.9" transform="translate(-62.829 -6.138)"/>
      <path id="Trazado_129043" data-name="Trazado 129043" d="M192.183,74.146a3.474,3.474,0,0,1-1.054,2.554c-1.77,1.773-3.548,3.536-5.308,5.317a1.036,1.036,0,0,1-1.708.022c-1.783-1.805-3.6-3.573-5.374-5.393a3.285,3.285,0,0,1,4.537-4.752c1.468,1.268,1.867,1.257,3.4-.041a3.3,3.3,0,0,1,5.5,2.291" transform="translate(-100.919 -40.305)" fill="#fb657d"/>
      <path id="Trazado_129044" data-name="Trazado 129044" d="M17.04,68.937c.457-1.018.072-2.164-.333-3.355a2.018,2.018,0,0,1,1.07-2.548,2.156,2.156,0,0,0,1.232-1.988A2.521,2.521,0,0,1,21.3,58.433a2.533,2.533,0,0,0,1.966-1.322,2.024,2.024,0,0,1,2.682-.917,2.034,2.034,0,0,0,2.139-.305,1.192,1.192,0,0,1,1.648.084,1.655,1.655,0,0,0,1.669.387,1.284,1.284,0,0,1,1.554.609,1.643,1.643,0,0,0,1.752.872,1.553,1.553,0,0,1,1.822,1.2,1.461,1.461,0,0,0,1.264.992,3.021,3.021,0,0,1,2.474,2.306,2.62,2.62,0,0,1-1.516,2.89,25.775,25.775,0,0,1-3.766,1.614,9.483,9.483,0,0,0-5.146,4.071,2.42,2.42,0,0,1-3.513,1.057,1.836,1.836,0,0,0-1.888.025,1.707,1.707,0,0,1-1.983-.051,1.425,1.425,0,0,0-2.061.135,1.14,1.14,0,0,1-1.471.159,3.382,3.382,0,0,1-1.89-3.3" transform="translate(-9.415 -31.571)" fill="#fb657d"/>
      <path id="Trazado_129045" data-name="Trazado 129045" d="M27.3,97.74a8.938,8.938,0,0,0,2.185.512c-.43,1.05-.817,2.034-1.239,3-.164.377-.421.718-.922.561s-.513-.581-.421-.987a18.866,18.866,0,0,0,.4-3.09" transform="translate(-15.251 -55.503)" fill="#f68da4"/>
      <path id="Trazado_129046" data-name="Trazado 129046" d="M30.71,69.4a.951.951,0,0,0-1.1.642.925.925,0,0,1-1.4.5.936.936,0,0,1-.337-1.454c.444-.636.179-.985-.3-1.391a.949.949,0,0,1-.119-1.489.939.939,0,0,1,1.49.057,2.934,2.934,0,0,0,2.155,1.2.875.875,0,0,1,.853,1.115c-.111.678-.614.888-1.251.819" transform="translate(-15.421 -37.403)" fill="#010101"/>
      <path id="Trazado_129047" data-name="Trazado 129047" d="M50.4,65.168a.912.912,0,0,1-.834.936.885.885,0,0,1-1.106-.754,1.154,1.154,0,0,0-1.106-1.079.887.887,0,0,1-.812-1.069,1,1,0,0,1,1.141-.886A2.933,2.933,0,0,1,50.4,65.168" transform="translate(-26.422 -35.387)" fill="#020101"/>
      <path id="Trazado_129048" data-name="Trazado 129048" d="M192.638,83.829l-2.518-7.272,1.707-5.014,1.637.557-1.516,4.451,2.324,6.712Z" transform="translate(-107.962 -40.627)" fill="#010101"/>
    </g>
  </g>
</svg>
