<svg xmlns="http://www.w3.org/2000/svg" xmlns:xlink="http://www.w3.org/1999/xlink" width="109" height="107" viewBox="0 0 109 107">
  <defs>
    <clipPath id="clip-path">
      <rect id="Rectángulo_36366" data-name="Rectángulo 36366" width="84.172" height="91.819" fill="none"/>
    </clipPath>
  </defs>
  <g id="Grupo_136194" data-name="Grupo 136194" transform="translate(2131 9051.534)">
    <ellipse id="Elipse_4973" data-name="Elipse 4973" cx="53.051" cy="53.5" rx="53.051" ry="53.5" transform="translate(-2131 -9051.534)" fill="#ffb12e"/>
    <g id="Grupo_134517" data-name="Grupo 134517" transform="translate(-2022 -8989.481) rotate(180)">
      <path id="Trazado_113538" data-name="Trazado 113538" d="M23.092,3.491c-1.053,0-1.573-.84-1.99-1.516s-.709-1.1-1.248-1.1-.825.419-1.247,1.1-.937,1.516-1.99,1.516-1.573-.84-1.99-1.516-.709-1.1-1.247-1.1-.825.419-1.247,1.1-.937,1.516-1.99,1.516-1.572-.84-1.989-1.516S7.446.873,6.908.873s-.824.419-1.246,1.1S4.725,3.491,3.672,3.491,2.1,2.651,1.683,1.975.975.873.437.873A.436.436,0,1,1,.437,0C1.489,0,2.008.841,2.426,1.516s.708,1.1,1.246,1.1S4.5,2.2,4.919,1.516,5.856,0,6.908,0,8.479.841,8.9,1.516s.708,1.1,1.247,1.1.825-.419,1.247-1.1S12.327,0,13.38,0s1.572.841,1.99,1.516.708,1.1,1.247,1.1.825-.419,1.247-1.1S18.8,0,19.854,0s1.573.841,1.991,1.516.709,1.1,1.248,1.1.826-.419,1.248-1.1S25.278,0,26.331,0a.436.436,0,1,1,0,.873c-.539,0-.826.419-1.248,1.1S24.146,3.491,23.092,3.491Z" transform="translate(0)" fill="#133d60"/>
      <path id="Trazado_126924" data-name="Trazado 126924" d="M23.092,3.491c-1.053,0-1.573-.84-1.99-1.516s-.709-1.1-1.248-1.1-.825.419-1.247,1.1-.937,1.516-1.99,1.516-1.573-.84-1.99-1.516-.709-1.1-1.247-1.1-.825.419-1.247,1.1-.937,1.516-1.99,1.516-1.572-.84-1.989-1.516S7.446.873,6.908.873s-.824.419-1.246,1.1S4.725,3.491,3.672,3.491,2.1,2.651,1.683,1.975.975.873.437.873A.436.436,0,1,1,.437,0C1.489,0,2.008.841,2.426,1.516s.708,1.1,1.246,1.1S4.5,2.2,4.919,1.516,5.856,0,6.908,0,8.479.841,8.9,1.516s.708,1.1,1.247,1.1.825-.419,1.247-1.1S12.327,0,13.38,0s1.572.841,1.99,1.516.708,1.1,1.247,1.1.825-.419,1.247-1.1S18.8,0,19.854,0s1.573.841,1.991,1.516.709,1.1,1.248,1.1.826-.419,1.248-1.1S25.278,0,26.331,0a.436.436,0,1,1,0,.873c-.539,0-.826.419-1.248,1.1S24.146,3.491,23.092,3.491Z" transform="translate(0 8.059)" fill="#133d60"/>
      <path id="Trazado_113539" data-name="Trazado 113539" d="M23.092,3.491c-1.053,0-1.573-.84-1.99-1.516s-.709-1.1-1.248-1.1-.825.419-1.247,1.1-.937,1.516-1.99,1.516-1.573-.84-1.99-1.516-.709-1.1-1.247-1.1-.825.419-1.247,1.1-.937,1.516-1.99,1.516-1.572-.84-1.989-1.516S7.446.873,6.908.873s-.824.419-1.246,1.1S4.725,3.491,3.672,3.491,2.1,2.651,1.683,1.975.975.873.437.873A.436.436,0,1,1,.437,0C1.489,0,2.008.841,2.426,1.516s.708,1.1,1.246,1.1S4.5,2.2,4.919,1.516,5.856,0,6.908,0,8.479.841,8.9,1.516s.708,1.1,1.247,1.1.825-.419,1.247-1.1S12.327,0,13.38,0s1.572.841,1.99,1.516.708,1.1,1.247,1.1.825-.419,1.247-1.1S18.8,0,19.854,0s1.573.841,1.991,1.516.709,1.1,1.248,1.1.826-.419,1.248-1.1S25.278,0,26.331,0a.436.436,0,1,1,0,.873c-.539,0-.826.419-1.248,1.1S24.146,3.491,23.092,3.491Z" transform="translate(0 4.03)" fill="#133d60"/>
      <path id="Trazado_126923" data-name="Trazado 126923" d="M23.092,3.491c-1.053,0-1.573-.84-1.99-1.516s-.709-1.1-1.248-1.1-.825.419-1.247,1.1-.937,1.516-1.99,1.516-1.573-.84-1.99-1.516-.709-1.1-1.247-1.1-.825.419-1.247,1.1-.937,1.516-1.99,1.516-1.572-.84-1.989-1.516S7.446.873,6.908.873s-.824.419-1.246,1.1S4.725,3.491,3.672,3.491,2.1,2.651,1.683,1.975.975.873.437.873A.436.436,0,1,1,.437,0C1.489,0,2.008.841,2.426,1.516s.708,1.1,1.246,1.1S4.5,2.2,4.919,1.516,5.856,0,6.908,0,8.479.841,8.9,1.516s.708,1.1,1.247,1.1.825-.419,1.247-1.1S12.327,0,13.38,0s1.572.841,1.99,1.516.708,1.1,1.247,1.1.825-.419,1.247-1.1S18.8,0,19.854,0s1.573.841,1.991,1.516.709,1.1,1.248,1.1.826-.419,1.248-1.1S25.278,0,26.331,0a.436.436,0,1,1,0,.873c-.539,0-.826.419-1.248,1.1S24.146,3.491,23.092,3.491Z" transform="translate(0 12.089)" fill="#133d60"/>
    </g>
    <path id="Trazado_113320" data-name="Trazado 113320" d="M2602.212,1501.185a6.741,6.741,0,1,1,6.741-6.741A6.749,6.749,0,0,1,2602.212,1501.185Zm0-10.3a3.558,3.558,0,1,0,3.558,3.558A3.562,3.562,0,0,0,2602.212,1490.886Z" transform="translate(-4715.472 -10485.737)" fill="#133d60"/>
    <g id="Grupo_136193" data-name="Grupo 136193" transform="translate(-2120 -9046.547)">
      <g id="Grupo_136192" data-name="Grupo 136192" clip-path="url(#clip-path)">
        <path id="Trazado_129229" data-name="Trazado 129229" d="M100.322,0a11.377,11.377,0,0,0,2.725.42c8.552,1.365,13.95,6.536,16.912,14.5a21.857,21.857,0,0,1,.767,13.962,11.642,11.642,0,0,1-2.1,3.98,6.606,6.606,0,0,1,3.86,4.3A8.366,8.366,0,0,1,116.125,47.3a2.6,2.6,0,0,0-2.037,1.553,37.033,37.033,0,0,1-8.613,10.479c-.323.277-.6.5-.533,1.016q.357,2.616.623,5.245a.73.73,0,0,0,.612.722c1.019.3,2.036.6,3.045.928a.659.659,0,0,0,.886-.229,3.288,3.288,0,0,1,3.74-1.135c2.151.629,4.31,1.24,6.427,1.971,6.607,2.282,10.317,7.025,11.447,13.93.419,2.56.894,5.11,1.344,7.664.01.059.028.116.038.175.213,1.208-.081,1.911-.891,2.134-.792.218-1.386-.274-1.749-1.447a8.511,8.511,0,0,1-.718-3.013c-.362-1.964-.675-3.939-1.064-5.9a13.357,13.357,0,0,0-9.3-10.744c-1.79-.61-3.6-1.15-5.416-1.686-1.545-.457-1.8-.25-1.867,1.411,0,.119,0,.239,0,.359q-.253,3.014-.764,5.993a1.729,1.729,0,0,1-1.866,1.608c-1.073-.518-1.349-.927-1.219-2.1.178-1.6.436-3.192.628-4.792.128-1.057.051-1.2-.975-1.554-.14-.048-.281-.094-.422-.137-1.218-.373-1.217-.372-1.762.787a1.72,1.72,0,0,1-.223.277C103.8,75.3,100.3,77.251,95.845,77.8c-.674.083-.866.264-.859.952C95.021,82.429,95,86.1,95,89.775a5.222,5.222,0,0,1-.018.8,1.32,1.32,0,0,1-2.629.011,4.428,4.428,0,0,1-.016-.715q0-37.4,0-74.8c0-1.247.2-1.55,1.208-1.852.86-.191,1.474.251,1.647,1.22a10.363,10.363,0,0,1,.054,1.786c.006,1.193.023,2.387-.006,3.58a.965.965,0,0,0,.947,1.134,41.5,41.5,0,0,0,5.989.507,17.381,17.381,0,0,1,6.008.932,13.273,13.273,0,0,1,7.384,6.462c.273.623.475,1.276.736,1.953.414-.124.552-.469.727-.756a10.244,10.244,0,0,0,1.481-4.835c.369-6.875-1.709-12.842-6.7-17.626a13.664,13.664,0,0,0-6.021-3.474A30.744,30.744,0,0,0,96.1,2.957c-.61,0-.834.291-.833.875,0,1.25,0,2.5,0,3.75a3.914,3.914,0,0,1-.079.976,1.283,1.283,0,0,1-1.806.98A1.308,1.308,0,0,1,92.34,8.1c0-1.929.008-3.858,0-5.787A2.567,2.567,0,0,1,93.936,0h.887A16.92,16.92,0,0,0,97.56.092c.387-.044.789.094,1.165-.092h.71a.228.228,0,0,0,.355,0Z" transform="translate(-48.999)"/>
        <path id="Trazado_129230" data-name="Trazado 129230" d="M100.488.168A8.991,8.991,0,0,1,97.638,0h2.838c.056.034.076.07.061.109s-.032.06-.05.06" transform="translate(-51.814)" fill="#111"/>
        <path id="Trazado_129231" data-name="Trazado 129231" d="M103.7.168c-.006-.056-.009-.112-.011-.168h1.064c-.306.344-.7.115-1.053.168" transform="translate(-55.024)" fill="#2b2b2b"/>
        <path id="Trazado_129232" data-name="Trazado 129232" d="M107.821,0c-.118.263-.237.235-.355,0Z" transform="translate(-57.03)" fill="#818181"/>
        <path id="Trazado_129233" data-name="Trazado 129233" d="M13.174,15.909c-1.1-.564-1.335-1.149-.793-2.212,2.578-5.055,6.559-7.934,12.3-8.049a7.174,7.174,0,0,1,2.708.372,1.51,1.51,0,0,0,1.77-.471A20.742,20.742,0,0,1,37.45.74c1.938-.579,3.228.365,3.228,2.391q0,43.594.009,87.188c0,.828-.177,1.521-1.048,1.732-.835.2-1.325-.3-1.634-1.029a1.89,1.89,0,0,1-.232-1.289c-.006-3.4,0-6.794,0-10.191,0-1.065-.008-1.058-1.027-1.237a12.216,12.216,0,0,1-7.156-3.585,9.355,9.355,0,0,1-2.13-3.761c-.368-1.226-.357-1.229-1.6-.876-1.935.59-1.641.484-1.4,2.193a86.468,86.468,0,0,0,4.483,17.2A1.956,1.956,0,0,1,29,91.2c-.88,1.289-1.844,1.22-2.66-.191a1.871,1.871,0,0,1-.577-.987,89.68,89.68,0,0,1-4.615-18.558c-.065-.533-.055-1.071-.143-1.6-.113-.691-.479-.894-1.126-.755a22.548,22.548,0,0,0-2.383.7c-2.128.709-4.361,1.136-6.322,2.3a13.818,13.818,0,0,0-6.8,10.276c-.391,2.507-.88,5-1.316,7.5a1.418,1.418,0,0,1-.348.9c-.046.11-.1.217-.137.329A1.237,1.237,0,0,1,1,92.043a1.253,1.253,0,0,1-.97-1.571c.45-2.645.94-5.283,1.372-7.93a20.482,20.482,0,0,1,1.734-5.977,16.493,16.493,0,0,1,9.859-8.444c2.038-.69,4.12-1.246,6.177-1.882a3.385,3.385,0,0,1,3.97,1.138.608.608,0,0,0,.816.218c1-.34,2.021-.652,3.046-.924a.712.712,0,0,0,.616-.721q.282-2.625.627-5.244a.851.851,0,0,0-.379-.823c-.867-.767-1.731-1.537-2.561-2.343-.874-.849-.865-1.436-.04-2.368.722-.556,1.238-.528,2.015.194.89.828,1.721,1.719,2.683,2.471a18.688,18.688,0,0,0,6.541,3.486c1.116.308,1.254.2,1.259-.935.006-1.582-.015-3.165.01-4.747.009-.622-.208-.914-.834-1.008a5.745,5.745,0,0,1-4.032-2.508,1.521,1.521,0,0,1,.008-2.05,1.57,1.57,0,0,1,1.864-.36,2.521,2.521,0,0,1,.794.7,3,3,0,0,0,1.48.937c.444.124.691-.03.7-.508q.027-1.254,0-2.508c-.012-.492-.358-.635-.742-.756a1.81,1.81,0,0,1-1.139-.79,1.524,1.524,0,0,1,.979-2.319c.873-.124.925-.558.925-1.257q-.018-9.45-.006-18.9a1.045,1.045,0,0,0-.723-1.238,28.635,28.635,0,0,1-4.018-2.192c-.59-.431-1.179-.864-1.748-1.324-1.128-.893-1.121-.89-1.7.433a14.2,14.2,0,0,1-5.626,6.6,8.5,8.5,0,0,0-4.33,7.959,44.379,44.379,0,0,0,.119,5.264c.086,1.248.135,2.5.344,3.735a15.288,15.288,0,0,0,2.447,5.99,7.331,7.331,0,0,1,.8,1.289c.23.571.37,1.155-.246,1.606-1.039.727-1.649.627-2.376-.408a21.245,21.245,0,0,1-2.127-3.6,1.02,1.02,0,0,0-.89-.68A8.437,8.437,0,0,1,10.5,38.529a6.3,6.3,0,0,1,2.873-4.711c.272-.187.559-.27.214-.711-2.4-3.076-3.1-6.686-3.135-10.491-.005-.6.034-1.194.073-1.79.066-1.043.494-1.44,1.577-1.488.895.138,1.224.465,1.291,1.378.062.863.029,1.73.02,2.6A14.072,14.072,0,0,0,15.1,30.186a4.822,4.822,0,0,0,1.416,1.659c.279-.111.248-.353.289-.541A10.678,10.678,0,0,1,22.058,24.1c3.154-1.849,4.613-4.829,5.7-8.115a1.673,1.673,0,0,0,.072-.709c-.205-1.866-.4-3.733-.551-5.6-.052-.633-.5-.836-1.029-.926A9.789,9.789,0,0,0,19.433,10,11.524,11.524,0,0,0,15,14.881c-.543,1.067-.968,1.284-1.83,1.028" transform="translate(0 -0.301)"/>
        <path id="Trazado_129234" data-name="Trazado 129234" d="M59.962,44.911q.012,10.167.022,20.335a1.3,1.3,0,0,1-.053.258,3.793,3.793,0,0,0-.964-.1,1.236,1.236,0,0,0-1.142,1.174,1.156,1.156,0,0,0,.938,1.412c1.224.126,1.327.828,1.239,1.812a13.511,13.511,0,0,0,0,2.148c.041.579-.214.649-.672.552a3.412,3.412,0,0,1-2.08-1.253c-.642-.827-1.411-.991-2.046-.488-.663.525-.688,1.285-.056,2.134a5.6,5.6,0,0,0,4.231,2.3c.5.04.628.191.622.679-.025,2.03-.047,4.062.01,6.091.02.729-.318.682-.785.587a16.578,16.578,0,0,1-6.316-2.9,26.294,26.294,0,0,1-3.764-3.256,1.53,1.53,0,0,0-1.9-.453A19.613,19.613,0,0,0,45.051,73.2a1.732,1.732,0,0,0-.258-2.049,16.452,16.452,0,0,1-3.281-10.579,23.084,23.084,0,0,1-.014-4.366,10.176,10.176,0,0,1,1.656-3.72,11.689,11.689,0,0,1,3.867-4.318,12.056,12.056,0,0,0,4.452-6.074c.173-.443.31-.9.525-1.326.313-.62.764-.9,1.438-.523l1.6,1.2a29.517,29.517,0,0,0,3.535,2.432c.49.3,1.085.47,1.387,1.032" transform="translate(-21.97 -21.067)" fill="#f1d0a4"/>
        <path id="Trazado_129235" data-name="Trazado 129235" d="M5.777,166.3a84.833,84.833,0,0,1,2.055-11.052c1.383-4.639,4.636-7.573,9.15-9.079,1.957-.653,3.942-1.22,5.919-1.811.915-.274,1.295-.079,1.374.793a85.815,85.815,0,0,0,5.114,21.2.81.81,0,0,1,.021.177q-11.259.009-22.519.023a3.073,3.073,0,0,1-1.113-.254" transform="translate(-3.066 -75.825)" fill="#f4dd46"/>
        <path id="Trazado_129236" data-name="Trazado 129236" d="M116.608,32.019a13.308,13.308,0,0,0-11.2-7.2,65.871,65.871,0,0,1-8.193-.662c-.738-.154-1.1-.369-1.056-1.232.079-1.7.031-3.4.02-5.1-.007-1.081-.388-1.491-1.449-1.619.065-1.235.368-2.48-.168-3.687,1.232-.026,1.614-.417,1.619-1.68.006-1.523,0-3.046,0-4.569,0-.3-.047-.6.422-.6a32.614,32.614,0,0,1,10.423,1.159.822.822,0,0,1,.153.09c3.027,1.314,5.1,3.7,6.869,6.377a23.064,23.064,0,0,1,3.737,10.432,17.923,17.923,0,0,1-.454,7.544c-.108.327-.079.9-.725.748" transform="translate(-50.182 -2.979)" fill="#7a6d79"/>
        <path id="Trazado_129237" data-name="Trazado 129237" d="M125.841,156.352c1.194-.067,1.56-.406,1.733-1.669.264-1.936.511-3.874.765-5.812a.484.484,0,0,1,.343-.051c3.13.858,6.291,1.634,8.948,3.673a15.741,15.741,0,0,1,5.973,10.4c.241,1.469.535,2.93.767,4.4.113.717.337,1.184,1.168,1.074a.726.726,0,0,1,.722.242,1.4,1.4,0,0,1-.862.116q-10.994,0-21.988-.011c-.188-.35.028-.635.162-.921a36.648,36.648,0,0,0,1.968-5.452,2.212,2.212,0,0,0-.538-2.6,6.836,6.836,0,0,1,.839-3.391" transform="translate(-65.452 -78.224)" fill="#f4dd46"/>
        <path id="Trazado_129238" data-name="Trazado 129238" d="M26.859,24.5c.879.065,1.308-.458,1.676-1.185a10.92,10.92,0,0,1,8.129-6.263,9.214,9.214,0,0,1,3.7.1.956.956,0,0,1,.839.962c.17,1.9.373,3.8.556,5.7a1.577,1.577,0,0,1-.023.622c-1.111,3.4-2.552,6.52-5.838,8.438a10.479,10.479,0,0,0-5.347,8.075,4.115,4.115,0,0,1-1.885-1.885,15.061,15.061,0,0,1-1.846-7.647c0-.567,0-1.138.053-1.7a1.509,1.509,0,0,0-1.08-1.786c.227-.037.327-.156.378-.4.212-1.013.458-2.019.692-3.027" transform="translate(-13.685 -8.887)" fill="#7a6d79"/>
        <path id="Trazado_129239" data-name="Trazado 129239" d="M151.916,166.209c-.611-.1-1.407.246-1.793-.158-.359-.375-.3-1.155-.432-1.757a60.554,60.554,0,0,0-1.357-6.611,14.613,14.613,0,0,0-9.546-9.67c-1.585-.549-3.194-1.027-4.792-1.538.038-2.6.4-2.493,2.418-1.824,1.567.52,3.16.956,4.734,1.453a13.576,13.576,0,0,1,9.869,11.059c.577,2.98,1.041,5.981,1.557,8.973l-.658.074" transform="translate(-71.108 -75.826)" fill="#f2d232"/>
        <path id="Trazado_129240" data-name="Trazado 129240" d="M120.849,154.682l-.751,3.392a.491.491,0,0,1-.423.274,1.333,1.333,0,0,0-1.1,1.132,34.012,34.012,0,0,1-2.433,6.671c-.2.427-.1.959-.488,1.306-.214-.359-.552-.368-.919-.37-.92-.008-.994-.126-.512-.958a27.957,27.957,0,0,0,2.311-5.477,50.373,50.373,0,0,0,2.176-9.867c.043-.381.133-.758.166-1.139.136-1.549-.382-2.153-1.923-2.269.187-.581-.009-1.462.474-1.7.39-.192,1.094.26,1.655.435,1.635.508,1.643.511,1.427,2.262-.183,1.478-.353,2.958-.6,4.426a1.563,1.563,0,0,0,.938,1.881" transform="translate(-60.46 -76.554)" fill="#efe8e5"/>
        <path id="Trazado_129241" data-name="Trazado 129241" d="M52.92,146.707a11.275,11.275,0,0,0,.213,3.424,65.521,65.521,0,0,0,1.482,8.042,37.882,37.882,0,0,0,2.982,8.2,4.88,4.88,0,0,1,.644,1.464c-.7.076-1.42-.171-2.094.179a2.724,2.724,0,0,0-.224-1.478,89.924,89.924,0,0,1-4.314-15.727c-.157-.91-.246-1.832-.419-2.739-.122-.641.007-1.02.714-1.1a6.764,6.764,0,0,0,1.017-.269" transform="translate(-27.143 -77.119)" fill="#efe8e5"/>
        <path id="Trazado_129242" data-name="Trazado 129242" d="M117.579,181.248a2.174,2.174,0,0,1,.2-1.3,31.7,31.7,0,0,0,2.5-6.749c.277-1.113.6-1.334,1.745-1.338a1.474,1.474,0,0,1,.845,1.971,37.591,37.591,0,0,1-2.526,7,3.564,3.564,0,0,1-.676,1.006c-.721.551-1.445.352-2.087-.591" transform="translate(-62.385 -90.344)"/>
        <path id="Trazado_129243" data-name="Trazado 129243" d="M115.595,57.314a6.264,6.264,0,0,1,1.093,3.615,54.652,54.652,0,0,1-.447,10.181,17.288,17.288,0,0,1-3.57,7.5,31.024,31.024,0,0,1-9.766,9.077A13.157,13.157,0,0,1,98,89.311c0-2.434.007-4.818-.007-7.2,0-.391.176-.434.487-.407A3.775,3.775,0,0,1,101,82.838c.748.783,1.472.868,2.077.3.623-.588.557-1.394-.187-2.195a6,6,0,0,0-4.169-1.9c-.549-.036-.777-.144-.739-.749.054-.862.035-1.731.006-2.6-.016-.48.059-.727.62-.837,1.27-.249,1.756-.849,1.575-1.725s-.776-1.154-2.155-.954V52.854a1.7,1.7,0,0,1,1.124.067,31.226,31.226,0,0,0,4.915.59,27.092,27.092,0,0,1,6.928.78,9.066,9.066,0,0,1,4.6,3.024" transform="translate(-51.994 -27.742)" fill="#f1d0a4"/>
        <path id="Trazado_129244" data-name="Trazado 129244" d="M105.83,141.6a5.657,5.657,0,0,1-2.3,3.166,9.536,9.536,0,0,1-4.984,1.852c-.437.046-.552-.066-.548-.508.027-2.888.028-5.776.037-8.664a.945.945,0,0,1,.668-.393,20.285,20.285,0,0,0,3.681-.945c1.4-.431,2.106.054,2.234,1.507.053.594.165,1.181.2,1.776a1.849,1.849,0,0,0,.74,1.548c.223.154.433.335.274.661" transform="translate(-52.004 -71.469)" fill="#f1d0a4"/>
        <path id="Trazado_129245" data-name="Trazado 129245" d="M130.876,33.4c.445-.063.412-.48.486-.758a20.7,20.7,0,0,0,.088-9.689,23.668,23.668,0,0,0-4.476-9.771A21.12,21.12,0,0,0,121.449,8.3a13.553,13.553,0,0,1,5.86,3.369,21.787,21.787,0,0,1,6.87,18.048,9.428,9.428,0,0,1-2.472,6.082l-.832-2.4" transform="translate(-64.45 -4.365)" fill="#685e68"/>
        <path id="Trazado_129246" data-name="Trazado 129246" d="M142.155,83.568a47.115,47.115,0,0,0,.671-9.006c.012-.536.3-.469.64-.4a3.857,3.857,0,0,1,3.014,3.237,5.674,5.674,0,0,1-4.324,6.172" transform="translate(-75.439 -38.96)" fill="#f1ba87"/>
        <path id="Trazado_129247" data-name="Trazado 129247" d="M115.62,55.99a13.538,13.538,0,0,0-4.592-2.759,18.706,18.706,0,0,0-3.9-.641c-2.9-.18-5.827-.1-8.663-.9-.141-.04-.274-.106-.411-.16-.077-1.4-.079-1.391,1.306-1.15,2.687.466,5.421.319,8.122.6a10.332,10.332,0,0,1,8.141,5.01" transform="translate(-52.02 -26.419)" fill="#f1ba87"/>
        <path id="Trazado_129248" data-name="Trazado 129248" d="M105.841,138.38c-.367-.564-1.17-.776-1.224-1.6-.045-.676-.179-1.347-.207-2.023-.07-1.745-.582-2.144-2.2-1.551a25.141,25.141,0,0,1-4.164,1.02c-.078-1.594-.082-1.614,1.386-1.906a19.424,19.424,0,0,0,6.036-2.491c.244,2.354.491,4.59.7,6.829a3.1,3.1,0,0,1-.323,1.722" transform="translate(-52.016 -68.247)" fill="#f1ba87"/>
        <path id="Trazado_129249" data-name="Trazado 129249" d="M72,6.7v16.8a18.846,18.846,0,0,1-4.656-2.82c-2.737-2.151-2.721-2.165-2.94-5.7a14.2,14.2,0,0,0-.244-2.4,1.565,1.565,0,0,1,.62-1.694A19.075,19.075,0,0,1,71.3,6.843c.167-.059.336-.113.507-.159A.627.627,0,0,1,72,6.7" transform="translate(-34.018 -3.511)" fill="#7a6d79"/>
        <path id="Trazado_129250" data-name="Trazado 129250" d="M71.941,136.084c.01,2.891.011,5.782.041,8.672.005.477-.179.529-.572.479a8.925,8.925,0,0,1-6.251-3.293,5.642,5.642,0,0,1-1.139-4.2c.153-1.451.355-2.9.535-4.343a.729.729,0,0,1,.671.114,19.839,19.839,0,0,0,6.252,2.33.841.841,0,0,1,.463.24" transform="translate(-33.954 -70.102)" fill="#f1cfa3"/>
        <path id="Trazado_129251" data-name="Trazado 129251" d="M53.346,39.086A1.134,1.134,0,0,0,51.974,40a15.194,15.194,0,0,1-3.545,6.1,14.031,14.031,0,0,1-2.1,1.612,11.114,11.114,0,0,0-3.285,4.122c-.444.8-.8,1.653-1.237,2.463a3.227,3.227,0,0,0-.367,1.627c.018,1.162-.01,2.325-.02,3.487a31.262,31.262,0,0,1,.113-7.844,7.481,7.481,0,0,1,3.7-5.23,14.925,14.925,0,0,0,6.516-8.068,4.159,4.159,0,0,1,.212-.4l1.378,1.216" transform="translate(-21.881 -19.907)" fill="#f1ba87"/>
        <path id="Trazado_129252" data-name="Trazado 129252" d="M32.18,83.589a5.777,5.777,0,0,1-4.2-6.181,3.9,3.9,0,0,1,3.009-3.249c.507-.1.591.08.591.536a59.422,59.422,0,0,0,.325,6.971c.071.614.174,1.225.275,1.922" transform="translate(-14.826 -38.969)" fill="#f1ba87"/>
        <path id="Trazado_129253" data-name="Trazado 129253" d="M72.589,134.377a17.26,17.26,0,0,1-6.389-2.114c-.338-.178-.664-.38-1-.571.051-.5.1-1,.161-1.583a19.937,19.937,0,0,0,5.063,2.177c.229.055.459.1.689.151,1.553.317,1.553.317,1.472,1.94" transform="translate(-34.602 -68.394)" fill="#f1c494"/>
        <path id="Trazado_129254" data-name="Trazado 129254" d="M75.383,46.43a29.124,29.124,0,0,1-4.5-2.92.888.888,0,0,1-.42-.545,28.372,28.372,0,0,0,4.588,2.411c.571.208.321.671.335,1.053" transform="translate(-37.392 -22.585)" fill="#ecb786"/>
        <path id="Trazado_129255" data-name="Trazado 129255" d="M63.832,60.025a7.5,7.5,0,0,1,2.944.49,1.383,1.383,0,0,1,.989,1.8,1.318,1.318,0,0,1-1.832.74,6.5,6.5,0,0,0-4.081-.028c-1.026.273-1.694-.015-1.932-.82-.216-.732.209-1.384,1.133-1.726a7.269,7.269,0,0,1,2.778-.458" transform="translate(-31.769 -31.551)"/>
        <path id="Trazado_129256" data-name="Trazado 129256" d="M68.406,75.977c0,.6.041,1.195-.01,1.786a1.275,1.275,0,0,1-1.4,1.28,1.247,1.247,0,0,1-1.224-1.367q-.021-1.742,0-3.485a1.241,1.241,0,0,1,1.222-1.366A1.27,1.27,0,0,1,68.4,74.1c.052.621.01,1.25.01,1.875" transform="translate(-34.896 -38.279)" fill="#010101"/>
        <path id="Trazado_129257" data-name="Trazado 129257" d="M110.278,73.716a1.3,1.3,0,0,1-1.441,1.395c-.531-.051-.58.129-.569.556a4.956,4.956,0,0,1-.081,1.241,1.187,1.187,0,0,1-1.38.974,1.162,1.162,0,0,1-1.158-1.135,13.675,13.675,0,0,1-.02-2.143,1.03,1.03,0,0,0-.788-1.263,1.441,1.441,0,0,1-.795-.537,1.272,1.272,0,0,1-.033-1.577,1.172,1.172,0,0,1,1.474-.5c1.4.609,2.784,1.278,4.158,1.957a1.206,1.206,0,0,1,.632,1.036" transform="translate(-55.061 -37.125)"/>
      </g>
    </g>
  </g>
</svg>
