<svg xmlns="http://www.w3.org/2000/svg" xmlns:xlink="http://www.w3.org/1999/xlink" width="203" height="203" viewBox="0 0 203 203">
  <defs>
    <clipPath id="clip-path">
      <rect id="Rectángulo_36359" data-name="Rectángulo 36359" width="165.63" height="183.624" fill="none"/>
    </clipPath>
  </defs>
  <g id="Grupo_136173" data-name="Grupo 136173" transform="translate(-1008.256 -1036)">
    <circle id="Elipse_4986" data-name="Elipse 4986" cx="101.5" cy="101.5" r="101.5" transform="translate(1008.256 1036)" fill="#133d60"/>
    <g id="Grupo_136172" data-name="Grupo 136172" transform="translate(1027.256 1046)">
      <g id="Grupo_136171" data-name="Grupo 136171" clip-path="url(#clip-path)">
        <path id="Trazado_129056" data-name="Trazado 129056" d="M128.049,192.429a9.884,9.884,0,0,0,5.058-14.834c-1.47-2.325-3.131-4.518-4.649-6.81-1.617-2.44-1.484-2.779,1.328-3.235,2.655-.431,5.289-.968,7.928-1.474,7.012-1.346,11.336-6.23,11.9-13.329.073-.923.177-1.431.476-1.634,0-.017,0-.034,0-.051l.049.023c.316-.17.83-.047,1.708.272.788.287,1.517.705,2.288,1.03a8.616,8.616,0,0,0,8.739-14.63c-1.425-1.1-2.629-2.026-2.328-4.165.181-1.284-1.347-2.495-2.71-2.655a1.808,1.808,0,0,0-.713.014c-4.068,1.194-7.512-.192-11.013-2.225-4.075-2.366-8.384-4.336-12.642-6.373a6.656,6.656,0,0,1-3.939-5.538c-1.136-7.864-2.5-15.7-3.75-23.542a9.055,9.055,0,0,0-7.083-7.7q-5.875-1.617-11.808-3.016A43.559,43.559,0,0,1,97.1,78.634a4.677,4.677,0,0,1-2.582-3.456,3.274,3.274,0,0,1,1.2-3.51,18.268,18.268,0,0,0,6.424-9.9,3.365,3.365,0,0,1,2.588-2.62,8.627,8.627,0,0,0,4.059-14.5,4.04,4.04,0,0,1-1.144-3.086c-.031-2.743.21-5.5-.368-8.221s-1.532-5.174-4.432-6.262a2.2,2.2,0,0,1-1.357-1.772c-1.326-6.47-6.124-8.662-11.889-9.662a35.262,35.262,0,0,0-13.156.652,21.052,21.052,0,0,0-16.6,20.114c-.009.9-.044,1.8.006,2.689a9.337,9.337,0,0,1-2.01,6.746,8.388,8.388,0,0,0,4.608,13.211,3.925,3.925,0,0,1,3.028,3.08,16.3,16.3,0,0,0,6.078,9.275c2.4,1.709,1.671,5.808-.615,6.97a44.374,44.374,0,0,1-9.729,4.067c-3.836.913-7.648,1.929-11.483,2.85-4.549,1.094-7.262,3.836-8.015,8.534-1.219,7.611-2.494,15.214-3.695,22.827a7.236,7.236,0,0,1-4.325,5.873c-4.938,2.409-9.941,4.707-14.685,7.494a10.511,10.511,0,0,1-7.42,1.112c-3.5-.582-4.57.388-4.635,3.9-.024,1.295-1.017,1.665-1.8,2.251a8.637,8.637,0,0,0,8.2,15.087c.94-.383,1.88-.77,2.813-1.171a1.308,1.308,0,0,1,1.167-.091l.118-.055c0,.059.009.109.014.161a1.657,1.657,0,0,1,.411.988,18.458,18.458,0,0,0,1.653,6.38,13.623,13.623,0,0,0,9.309,7.23c3.209.711,6.459,1.213,9.675,1.885,1.934.4,2.1.824,1.01,2.515-1.652,2.56-3.558,4.953-5.114,7.576a9.966,9.966,0,0,0,1.667,12.61,13.074,13.074,0,0,0,3.382,1.989c.485.233,1.263.155,1.261,1.012H44.3c3.483-.839,5.839-3.078,7.95-5.883,4.91-6.524,3.146-5.656,11.468-7.151,6.455-1.159,12.895-2.4,19.336-3.634a4.539,4.539,0,0,1,1.758.058q11.779,2.216,23.567,4.381a6.238,6.238,0,0,1,4.146,2.54c.7.966,1.49,1.871,2.152,2.862,2.057,3.075,4.5,5.671,8.153,6.827h3.944c.006-.864.77-.795,1.272-.982m-.006-27.828c-.946.494-2.412,1.093-3.235.35-4.482-4.044-10.353-4.312-15.689-5.971-5.963-1.854-12.023-3.4-18.538-5.212l19.893-5.524c3.441-.955,6.892-1.875,10.317-2.885,1.071-.316,1.508-.16,1.861,1,1.66,5.467,3.458,10.892,5.157,16.347.191.613.945,1.522.234,1.893m-18.289-45.767c1.255,10.418,5.939,18.05,16.9,20.8l-.471.54L107.365,145.4c.294-8.96-.92-17.874,2.389-26.561m26.535,44.389c-1.394.243-3.085.988-4.12.468-1.088-.546-1.022-2.519-1.464-3.865-1.561-4.749-3.049-9.521-4.619-14.267-.371-1.123-.206-1.777,1.047-1.937a1.1,1.1,0,0,0,.349-.075c2.966-1.489,5.665-.721,8.406.775,2.557,1.4,5.258,2.527,7.891,3.785,2.5,1.191,2.723,1.565,2.711,4.346-.023,5.533-3.941,9.681-10.2,10.77M126.7,118.352c.259,3.387,2.356,5.238,5.234,6.639q7.388,3.594,14.627,7.491c2.934,1.582,5.875,2.563,9.237,1.778.818-.191,2.08-.548,1.429.957-.1,2.24,1.016,3.374,2.679,4.26a5.5,5.5,0,0,1,3,5.793,5.637,5.637,0,0,1-4.449,4.594,5.493,5.493,0,0,1-3.64-.553q-16.245-7.632-32.488-15.273c-5.111-2.41-7.139-6.908-8.111-12.108-.144-.769.344-.864.893-1.031,3.474-1.055,6.948-2.113,10.4-3.227.764-.247,1.119-.123,1.181.681M108.214,50.7a5.671,5.671,0,0,1-3.567,5.311c-.872.328-1.464.382-1.386-.888.087-1.429.02-2.868.02-4.3,0-1.494.045-2.991-.015-4.482-.043-1.078.35-1.209,1.274-.869a5.673,5.673,0,0,1,3.674,5.231M62.849,56.013a5.652,5.652,0,0,1,.182-10.579c.8-.27,1.226-.207,1.194.8-.049,1.543-.013,3.088-.013,4.632,0,1.425-.066,2.855.02,4.275.078,1.274-.529,1.2-1.383.877m3.59-20.628a10.2,10.2,0,0,0-2.085,5.064c-.051.542-.073,1.163-.806,1.174-.907.014-.566-.74-.595-1.193-.054-.832-.015-1.671-.015-2.506-.5-9.075,5.892-18.407,17.989-19.245a34.684,34.684,0,0,1,10.3.431c4,.922,7.274,3.516,7.3,8.037A2.643,2.643,0,0,0,101.07,29.9a3.23,3.23,0,0,1,2.742,2.478c.994,2.774.724,5.652.749,8.507,0,.351,0,.759-.527.753-.729-.008-.845-.532-.89-1.1a10.308,10.308,0,0,0-2.241-5.376,5.117,5.117,0,0,0-7.537-1.129,16.01,16.01,0,0,1-19.181.042c-2.86-2.025-5.677-1.553-7.748,1.308m1.484,22.64c-.261-5.426-.1-10.874-.1-16.312A6.724,6.724,0,0,1,68.965,38c1.175-1.8,1.753-1.906,3.581-.694a19.56,19.56,0,0,0,19.1,1.864A13.96,13.96,0,0,0,95.2,37.113c1.3-1.042,2.255-.686,3.129.57a8,8,0,0,1,1.37,4.734c0,2.51,0,5.021,0,8.123-.17,2.979.378,6.586-.49,10.123a15.966,15.966,0,0,1-16.62,12.144c-8.039-.742-14.285-6.875-14.665-14.781m4.188,23.251a7.524,7.524,0,0,0,4.205-6.32,19.267,19.267,0,0,0,14.174.224c.6-.226.844-.1.946.547a7.112,7.112,0,0,0,4.033,5.539c.74.368.5.741.152,1.237a14.509,14.509,0,0,1-23.771-.014c-.405-.578-.4-.892.26-1.213M41.762,112.645c1.1-6.471,2.1-12.959,3.258-19.419.484-2.7,2.434-4.14,5-4.788,4.162-1.052,8.331-2.079,12.492-3.132a18.618,18.618,0,0,0,4.557-1.557c.847-.471,1.188-.165,1.683.519,7.762,10.737,22.224,10.708,30.031-.035.32-.441.442-1.074,1.338-.68,5.333,2.342,11.09,3.229,16.681,4.66,3.731.955,5.657,2.979,6.143,6.855.7,5.561,1.715,11.084,2.708,16.6.279,1.552.048,2.327-1.63,2.763-3.17.823-6.291,1.851-9.4,2.905-1.226.416-1.654.106-1.867-1.113-.245-1.405-.7-2.773-1.035-4.164a2,2,0,0,0-3.934-.128c-2.322,6.93-4.223,13.927-4.006,21.346.114,3.881-.02,7.768.046,11.651a1.56,1.56,0,0,1-1.352,1.85c-5.817,1.552-11.619,3.16-17.416,4.786a4.309,4.309,0,0,1-2.447.011c-5.739-1.613-11.477-3.229-17.242-4.745a1.833,1.833,0,0,1-1.626-2.206c.1-2.685.031-5.377.031-8.066.6-8.254-1.043-16.156-3.725-23.9-.405-1.17-.783-2.389-2.3-2.3-1.378.077-1.84,1.146-2.041,2.351a1.887,1.887,0,0,1-.11.34c-.559,1.5-.281,3.844-1.514,4.368-1.142.485-3-.679-4.528-1.146-2.281-.7-4.542-1.458-6.837-2.105-.879-.248-1.111-.636-.96-1.522m18.464,32.717-19.3-5.319c4.585-2.3,9.167-3.9,12.144-7.961,2.952-4.024,3.319-8.942,4.914-13.752,3.126,9.022,1.983,18,2.239,27.032M12.9,149.212c-3.619,1.692-7.129.2-8.15-3.369A5.234,5.234,0,0,1,7.227,139.7c2.023-1.1,3.358-2.4,3.009-4.905-.169-1.214.805-.39,1.328-.663,3.611,1.207,6.767-.262,9.944-1.956q7.252-3.866,14.633-7.488c2.607-1.288,4.323-3.145,4.6-6.1.106-1.117.562-1.172,1.507-.86,3.279,1.081,6.572,2.129,9.889,3.084,1.051.3,1.221.695,1.026,1.751-1.121,6.061-4.458,10.06-10.174,12.585-10.128,4.475-20.066,9.379-30.1,14.071m23.071,13.45c-.3.975-.658,1.287-1.738,1.051a51.778,51.778,0,0,1-6.093-1.313,10.814,10.814,0,0,1-7.08-9.836c.062-2.035.406-3.707,2.747-4.582a72.932,72.932,0,0,0,8.728-4.1,7.859,7.859,0,0,1,6.943-.61c2.323.877,2.387.712,1.651,3.039-1.725,5.447-3.472,10.887-5.158,16.346m22.758,14.952a9.737,9.737,0,0,0-6.532,3.972c-1.294,1.787-2.639,3.538-4,5.275-2.529,3.231-6.357,3.906-9.467,1.7-3.05-2.162-3.682-6.174-1.452-9.521,1.95-2.927,3.97-5.807,5.919-8.734a1.631,1.631,0,0,1,1.866-.937q13.859,2.65,27.729,5.242c.037.007.061.087.234.353-4.829.9-9.556,1.819-14.3,2.648m66.387,12.227a6.8,6.8,0,0,1-5.527-2.748c-1.421-1.844-2.838-3.692-4.219-5.567a9.781,9.781,0,0,0-6.394-3.9Q79.424,172.142,49.887,166.6c-3.165-.591-6.331-1.184-9.5-1.728-.9-.155-1.356-.319-.986-1.439,1.905-5.771,3.792-11.549,5.538-17.369.514-1.713,1.485-.79,2.191-.6q18.79,5.145,37.553,10.386c10.964,3.045,21.921,6.113,32.891,9.133a10.516,10.516,0,0,1,6.144,4.329c2.283,3.355,4.6,6.685,6.837,10.072a6.353,6.353,0,0,1,.281,6.952,6.571,6.571,0,0,1-5.721,3.5" transform="translate(-0.917 -9.786)"/>
        <path id="Trazado_129057" data-name="Trazado 129057" d="M68.026,434.711a13.074,13.074,0,0,1-3.382-1.989,9.966,9.966,0,0,1-1.667-12.61c1.557-2.623,3.462-5.015,5.114-7.576,1.09-1.69.925-2.111-1.01-2.515-3.216-.671-6.466-1.174-9.675-1.885a13.622,13.622,0,0,1-9.309-7.23,18.456,18.456,0,0,1-1.653-6.38,1.658,1.658,0,0,0-.411-.988c.025.285.049.485.052.681.136,7.844,4.758,13.244,12.507,14.654,3.3.6,6.6,1.264,10.078,1.934-2.1,3.1-4.13,5.971-6.035,8.92a10.239,10.239,0,0,0,4.379,15.089c.742.337,1.515.607,2.274.908,0-.857-.776-.78-1.261-1.012" transform="translate(-29.489 -252.099)"/>
        <path id="Trazado_129058" data-name="Trazado 129058" d="M356.938,419.49c-1.056-1.661-2.206-3.263-3.31-4.893-.884-1.306-1.764-2.614-2.714-4.023,3.814-.7,7.351-1.265,10.849-2.014a14.141,14.141,0,0,0,11.23-10.347,16.307,16.307,0,0,0,.511-4.988c-.3.2-.4.712-.476,1.635-.565,7.1-4.889,11.983-11.9,13.329-2.639.506-5.274,1.043-7.929,1.474-2.812.456-2.945.795-1.328,3.235,1.518,2.292,3.18,4.485,4.649,6.81a9.884,9.884,0,0,1-5.058,14.834c-.5.186-1.267.117-1.272.982.128-.1.242-.262.386-.3,7.283-1.823,10.372-9.429,6.362-15.735" transform="translate(-224.331 -251.899)"/>
        <path id="Trazado_129059" data-name="Trazado 129059" d="M15.247,150.5c-.933.4-1.872.788-2.813,1.171a8.637,8.637,0,0,1-8.2-15.087c.78-.586,1.773-.957,1.8-2.251.065-3.515,1.13-4.485,4.635-3.9a10.511,10.511,0,0,0,7.42-1.111c4.744-2.788,9.747-5.085,14.685-7.494a7.235,7.235,0,0,0,4.325-5.873c1.2-7.614,2.476-15.216,3.7-22.827.753-4.7,3.466-7.44,8.015-8.533,3.835-.922,7.646-1.938,11.483-2.851a44.364,44.364,0,0,0,9.728-4.067c2.285-1.162,3.013-5.261.615-6.97a16.307,16.307,0,0,1-6.078-9.276,3.923,3.923,0,0,0-3.028-3.079A8.388,8.388,0,0,1,56.92,45.137a9.337,9.337,0,0,0,2.01-6.746c-.05-.894-.016-1.793-.006-2.689a21.053,21.053,0,0,1,16.6-20.115,35.271,35.271,0,0,1,13.157-.652c5.766,1,10.563,3.192,11.889,9.663a2.2,2.2,0,0,0,1.357,1.772c2.9,1.088,3.853,3.526,4.432,6.262s.337,5.478.368,8.221a4.042,4.042,0,0,0,1.144,3.086,8.627,8.627,0,0,1-4.059,14.5,3.364,3.364,0,0,0-2.587,2.62,18.27,18.27,0,0,1-6.424,9.9,3.273,3.273,0,0,0-1.2,3.509,4.678,4.678,0,0,0,2.582,3.456,43.574,43.574,0,0,0,9.784,3.917q5.93,1.389,11.809,3.016a9.056,9.056,0,0,1,7.083,7.7c1.254,7.847,2.614,15.678,3.75,23.543a6.655,6.655,0,0,0,3.939,5.538c4.258,2.037,8.567,4.007,12.642,6.373,3.5,2.033,6.945,3.419,11.013,2.225a1.815,1.815,0,0,1,.713-.014c1.363.161,2.891,1.371,2.71,2.656-.3,2.14.9,3.065,2.328,4.165a8.616,8.616,0,0,1-8.739,14.63c-.77-.325-1.5-.743-2.288-1.029-.878-.32-1.392-.442-1.708-.272,1.287.606,2.386,1.153,3.508,1.64a9.142,9.142,0,0,0,8.407-16.2c-.514-.33-1.367-.287-1.126-1.449.681-3.277-1.046-4.944-4.392-4.538-2.161.263-4.31.85-6.481-.291-5.8-3.049-11.654-5.994-17.492-8.968a3.981,3.981,0,0,1-2.292-3.174c-1.264-8.137-2.635-16.258-3.886-24.4a9.943,9.943,0,0,0-7.689-8.637c-2.767-.726-5.524-1.5-8.317-2.11A48.206,48.206,0,0,1,96.41,77.52c-2.85-1.566-3.249-4.493-.843-6.565a18.372,18.372,0,0,0,6.116-9.877,2.466,2.466,0,0,1,2.242-2.16A9.071,9.071,0,0,0,108.6,44.043a4.749,4.749,0,0,1-1.369-3.614c.053-3.04.2-6.1-.68-9.076-.757-2.563-1.876-4.808-4.785-5.465-.649-.147-.614-.6-.686-1.074-.749-4.894-3.734-7.827-8.268-9.392-4.459-1.539-9.027-1.389-13.638-.975-9.635.864-17.127,6.72-19.848,15.563-1.132,3.678-.857,7.448-.891,11.2a2.43,2.43,0,0,1-.673,2.078,8.708,8.708,0,0,0-2.615,9.292,8.744,8.744,0,0,0,7.321,6.52A1.434,1.434,0,0,1,63.8,60.427a19.047,19.047,0,0,0,7.019,11.117c.4.315.841.559.932,1.215a4.288,4.288,0,0,1-2.394,4.75,44.269,44.269,0,0,1-11.484,4.367c-3.434.744-6.852,1.595-10.231,2.559a9.442,9.442,0,0,0-7.2,8.028c-1.379,8.24-2.776,16.478-4.091,24.728a4.4,4.4,0,0,1-2.634,3.524c-4.582,2.289-9.188,4.545-13.659,7.04-3.4,1.9-6.738,3.015-10.715,2.019A3.321,3.321,0,0,0,5.517,134c.267,1.018-.032,1.292-.8,1.741a9.02,9.02,0,0,0-3.712,12.054,9.118,9.118,0,0,0,11.9,4.235c1.156-.49,2.286-1.048,3.51-1.617a1.307,1.307,0,0,0-1.167.09" transform="translate(0 -9.076)"/>
        <path id="Trazado_129060" data-name="Trazado 129060" d="M49.118,230.72c-1.12,0-1.591-.252-1.527-1.476a2.143,2.143,0,0,0-2.269-2.439,2.189,2.189,0,0,0-2.3,2.43c.014,1-.125,1.53-1.334,1.483a2.226,2.226,0,0,0-2.587,2.326c0,1.612,1.1,2.322,2.622,2.242,1.031-.054,1.334.318,1.3,1.318-.056,1.526.684,2.606,2.283,2.6a2.172,2.172,0,0,0,2.293-2.584c-.081-1.2.451-1.37,1.46-1.338a2.3,2.3,0,0,0,2.52-2.253,2.339,2.339,0,0,0-2.458-2.31" transform="translate(-25.048 -145.291)" fill="#87d047"/>
        <path id="Trazado_129061" data-name="Trazado 129061" d="M334.813,45.958c-.962,3.666-3.07,5.683-6.733,6.711a8.96,8.96,0,0,1,6.756,6.629,8.731,8.731,0,0,1,6.968-6.607,8.984,8.984,0,0,1-6.99-6.733" transform="translate(-210.167 -29.441)" fill="#f4c74c"/>
        <path id="Trazado_129062" data-name="Trazado 129062" d="M402.078,450.536c-.654,2.217-2.307,3.364-4.544,4.325a6.7,6.7,0,0,1,4.672,4.548,5.952,5.952,0,0,1,4.5-4.6,7.2,7.2,0,0,1-4.627-4.276" transform="translate(-254.659 -288.612)" fill="#71d6f8"/>
        <path id="Trazado_129063" data-name="Trazado 129063" d="M299.69.014a2.344,2.344,0,0,0-2.6,2.119,2.384,2.384,0,0,0,2.191,2.732,2.469,2.469,0,0,0,2.548-2.237A2.409,2.409,0,0,0,299.69.014" transform="translate(-190.307 0)" fill="#fb667f"/>
        <path id="Trazado_129064" data-name="Trazado 129064" d="M30.185,285.807a2.363,2.363,0,0,0-2.476,2.264,2.33,2.33,0,0,0,2.323,2.589,2.384,2.384,0,0,0,2.424-2.342,2.445,2.445,0,0,0-2.271-2.511" transform="translate(-17.747 -183.083)" fill="#f4c84d"/>
        <path id="Trazado_129065" data-name="Trazado 129065" d="M114.532,235.643c2.294.648,4.555,1.41,6.836,2.105,1.532.467,3.386,1.632,4.528,1.146,1.233-.524.955-2.872,1.514-4.368a1.888,1.888,0,0,0,.11-.34c.2-1.205.662-2.274,2.041-2.35,1.52-.085,1.9,1.134,2.3,2.3,2.682,7.744,4.327,15.645,3.725,23.9,0,2.689.07,5.381-.031,8.066a1.834,1.834,0,0,0,1.626,2.206c5.764,1.516,11.5,3.131,17.242,4.745a4.308,4.308,0,0,0,2.447-.011c5.8-1.626,11.6-3.234,17.416-4.787a1.56,1.56,0,0,0,1.352-1.85c-.066-3.883.068-7.771-.046-11.651-.217-7.419,1.683-14.416,4.006-21.346a2,2,0,0,1,3.934.128c.335,1.391.791,2.759,1.035,4.165.212,1.219.641,1.529,1.867,1.113,3.1-1.054,6.225-2.082,9.4-2.905,1.678-.436,1.909-1.212,1.63-2.763-.992-5.519-2.012-11.043-2.708-16.6-.485-3.876-2.412-5.9-6.143-6.855-5.591-1.432-11.348-2.318-16.681-4.66-.9-.393-1.017.239-1.338.68-7.807,10.743-22.269,10.772-30.031.035-.495-.685-.836-.99-1.683-.519a18.619,18.619,0,0,1-4.557,1.557c-4.162,1.053-8.33,2.08-12.492,3.132-2.567.649-4.517,2.087-5,4.788-1.158,6.46-2.158,12.948-3.258,19.419-.151.886.081,1.274.96,1.522M136.35,219a12.385,12.385,0,0,1,17.431-.327c1.475,1.413,2.132,1.3,3.576-.016a11.888,11.888,0,0,1,13.63-2.27c4.73,2.109,7.083,6.021,7.258,9.991.044,4.541-1.028,7.472-3.351,9.834q-8.236,8.37-16.59,16.624c-1.77,1.756-3.749,1.736-5.52-.023-5.512-5.475-11.044-10.931-16.462-16.5A12.355,12.355,0,0,1,136.35,219" transform="translate(-72.727 -131.262)" fill="#528fda"/>
        <path id="Trazado_129066" data-name="Trazado 129066" d="M198.271,417.651a6.355,6.355,0,0,0-.281-6.953c-2.234-3.387-4.554-6.717-6.838-10.072a10.514,10.514,0,0,0-6.144-4.328c-10.971-3.02-21.928-6.088-32.891-9.133q-18.771-5.213-37.553-10.386c-.705-.193-1.677-1.116-2.191.6-1.745,5.82-3.632,11.6-5.537,17.369-.37,1.12.081,1.284.986,1.439,3.174.544,6.339,1.138,9.5,1.728q29.541,5.513,59.084,11.022a9.781,9.781,0,0,1,6.394,3.9c1.381,1.875,2.8,3.723,4.219,5.567a6.806,6.806,0,0,0,5.527,2.748,6.571,6.571,0,0,0,5.721-3.5" transform="translate(-68.355 -241.093)" fill="#f8cfb3"/>
        <path id="Trazado_129067" data-name="Trazado 129067" d="M217.458,98.493c.868-3.537.319-7.143.489-10.123,0-3.1,0-5.612,0-8.122a8,8,0,0,0-1.37-4.734c-.874-1.256-1.829-1.612-3.129-.57A13.967,13.967,0,0,1,209.9,77a19.561,19.561,0,0,1-19.1-1.864c-1.827-1.211-2.406-1.111-3.58.694a6.721,6.721,0,0,0-1.139,3.715c0,5.438-.165,10.885.1,16.311.381,7.906,6.626,14.039,14.665,14.781a15.967,15.967,0,0,0,16.62-12.144" transform="translate(-119.167 -47.617)" fill="#f8cfb3"/>
        <path id="Trazado_129068" data-name="Trazado 129068" d="M58.68,304.861c.2-1.056.025-1.448-1.026-1.751-3.318-.956-6.61-2-9.889-3.085-.945-.311-1.4-.256-1.507.86-.282,2.959-2,4.816-4.6,6.1-4.912,2.427-9.8,4.911-14.633,7.488-3.177,1.694-6.332,3.162-9.944,1.956-.523.273-1.5-.551-1.329.663.349,2.5-.985,3.8-3.008,4.905a5.233,5.233,0,0,0-2.482,6.146c1.02,3.572,4.53,5.061,8.149,3.369,10.033-4.692,19.971-9.6,30.1-14.071,5.716-2.525,9.053-6.524,10.174-12.585" transform="translate(-6.429 -192.091)" fill="#f8cfb3"/>
        <path id="Trazado_129069" data-name="Trazado 129069" d="M316.109,303.2c-.549.167-1.037.262-.893,1.031.973,5.2,3,9.7,8.111,12.108q16.236,7.654,32.488,15.274a5.5,5.5,0,0,0,3.64.553,5.638,5.638,0,0,0,4.449-4.594,5.5,5.5,0,0,0-3-5.793c-1.663-.886-2.783-2.021-2.679-4.261.651-1.5-.611-1.148-1.429-.957-3.362.785-6.3-.2-9.237-1.778q-7.23-3.9-14.627-7.49c-2.878-1.4-4.975-3.252-5.234-6.639-.061-.8-.416-.927-1.181-.68-3.456,1.114-6.93,2.172-10.4,3.227" transform="translate(-201.91 -192.091)" fill="#f8cfb3"/>
        <path id="Trazado_129070" data-name="Trazado 129070" d="M183.766,39.823a16.01,16.01,0,0,0,19.181-.042,5.116,5.116,0,0,1,7.536,1.129,10.307,10.307,0,0,1,2.241,5.376c.045.57.161,1.093.89,1.1.522.006.53-.4.527-.753-.025-2.855.245-5.734-.75-8.507a3.23,3.23,0,0,0-2.742-2.478,2.644,2.644,0,0,1-2.543-2.757c-.027-4.522-3.3-7.115-7.3-8.037a34.687,34.687,0,0,0-10.3-.431c-12.1.838-18.485,10.17-17.989,19.245,0,.836-.038,1.674.015,2.506.029.452-.312,1.207.595,1.193.733-.012.755-.632.806-1.174a10.205,10.205,0,0,1,2.085-5.064c2.072-2.86,4.888-3.332,7.748-1.308" transform="translate(-110.497 -15.532)" fill="#5b5d60"/>
        <path id="Trazado_129071" data-name="Trazado 129071" d="M281.551,377.964c-.353-1.162-.79-1.318-1.862-1-3.424,1.011-6.876,1.93-10.316,2.885l-19.893,5.524c6.515,1.816,12.575,3.358,18.538,5.212,5.335,1.659,11.206,1.928,15.688,5.971.823.743,2.289.144,3.236-.35.711-.371-.043-1.281-.234-1.893-1.7-5.455-3.5-10.88-5.157-16.347" transform="translate(-159.816 -241.389)" fill="#f8cfb3"/>
        <path id="Trazado_129072" data-name="Trazado 129072" d="M134.3,449.194q-13.865-2.618-27.729-5.242a1.631,1.631,0,0,0-1.866.937c-1.949,2.927-3.969,5.807-5.919,8.734-2.23,3.346-1.6,7.359,1.452,9.521,3.11,2.2,6.938,1.529,9.467-1.7,1.36-1.737,2.706-3.488,4-5.275a9.738,9.738,0,0,1,6.532-3.973c4.742-.83,9.469-1.748,14.3-2.648-.174-.266-.2-.345-.234-.353" transform="translate(-62.429 -284.367)" fill="#f8cfb3"/>
        <path id="Trazado_129073" data-name="Trazado 129073" d="M365.65,375.3c-2.633-1.257-5.335-2.388-7.891-3.784-2.74-1.5-5.44-2.264-8.406-.775a1.1,1.1,0,0,1-.349.075c-1.253.16-1.418.814-1.047,1.937,1.57,4.746,3.059,9.518,4.619,14.267.442,1.346.377,3.319,1.464,3.865,1.035.52,2.726-.225,4.12-.468,6.259-1.09,10.177-5.238,10.2-10.771.012-2.78-.216-3.155-2.711-4.346" transform="translate(-222.789 -236.983)" fill="#5b5d60"/>
        <path id="Trazado_129074" data-name="Trazado 129074" d="M74.449,370.454a7.859,7.859,0,0,0-6.943.61,72.966,72.966,0,0,1-8.728,4.1c-2.34.874-2.684,2.547-2.747,4.582a10.815,10.815,0,0,0,7.081,9.836A51.75,51.75,0,0,0,69.2,390.89c1.079.235,1.437-.076,1.738-1.052,1.686-5.459,3.433-10.9,5.158-16.346.736-2.326.672-2.161-1.651-3.039" transform="translate(-35.893 -236.963)" fill="#5b5d60"/>
        <path id="Trazado_129075" data-name="Trazado 129075" d="M220.646,188.876c.35-.5.587-.869-.152-1.237a7.113,7.113,0,0,1-4.033-5.539c-.1-.646-.342-.773-.946-.547a19.266,19.266,0,0,1-14.174-.224,7.525,7.525,0,0,1-4.205,6.32c-.657.321-.665.635-.26,1.213a14.509,14.509,0,0,0,23.771.014" transform="translate(-125.942 -116.159)" fill="#f8cfb3"/>
        <path id="Trazado_129076" data-name="Trazado 129076" d="M167.316,104.37c0-1.544-.037-3.089.012-4.632.032-1-.394-1.065-1.194-.8a5.652,5.652,0,0,0-.182,10.579c.855.32,1.461.4,1.384-.877-.087-1.42-.02-2.85-.02-4.275" transform="translate(-104.021 -63.294)" fill="#f5ccb1"/>
        <path id="Trazado_129077" data-name="Trazado 129077" d="M284.751,99.855c.059,1.492.015,2.988.015,4.483,0,1.435.067,2.873-.02,4.3-.078,1.271.515,1.217,1.386.889a5.647,5.647,0,0,0-.106-10.542c-.925-.34-1.318-.209-1.274.868" transform="translate(-182.403 -63.304)" fill="#f5ccb1"/>
        <path id="Trazado_129078" data-name="Trazado 129078" d="M187.124,271.117c1.771,1.76,3.75,1.779,5.521.023q8.337-8.27,16.59-16.624c2.324-2.361,3.395-5.293,3.351-9.834-.175-3.97-2.528-7.882-7.258-9.991a11.888,11.888,0,0,0-13.63,2.27c-1.444,1.317-2.1,1.429-3.576.016a12.412,12.412,0,0,0-17.459,17.641c5.417,5.568,10.95,11.024,16.461,16.5m-11.323-33.1a8.641,8.641,0,0,1,9.836,1.475c4.327,3.669,4.293,3.709,8.461.024a8.945,8.945,0,0,1,12.453.314,8.818,8.818,0,0,1-.1,12.429c-5.185,5.284-10.471,10.47-15.685,15.726-.632.637-1,.753-1.7.049-5.288-5.352-10.635-10.644-15.924-15.994a8.238,8.238,0,0,1-2.371-6.011,8.437,8.437,0,0,1,5.035-8.011" transform="translate(-107.068 -149.571)"/>
        <path id="Trazado_129079" data-name="Trazado 129079" d="M195.528,274.46c.7.7,1.07.589,1.7-.049,5.215-5.256,10.5-10.442,15.685-15.726a8.818,8.818,0,0,0,.1-12.428,8.945,8.945,0,0,0-12.453-.314c-4.167,3.685-4.133,3.645-8.46-.024a8.641,8.641,0,0,0-9.836-1.474,8.437,8.437,0,0,0-5.036,8.011,8.24,8.24,0,0,0,2.372,6.011c5.289,5.35,10.636,10.642,15.924,15.994m-3.885-17.183c2.766-.185,2.783-.193,2.955-3.028.071-1.167.544-2.044,1.76-2.075,1.334-.034,1.8.868,1.846,2.132.089,2.749.116,2.762,3.033,2.969,1.143.081,1.967.479,2.1,1.745a1.7,1.7,0,0,1-1.1,1.679,3.7,3.7,0,0,1-1.057.159c-2.842.179-2.874.175-2.974,3.042-.042,1.194-.51,2.061-1.707,2.1-1.305.045-1.834-.858-1.9-2.114-.152-2.841-.17-2.853-2.974-3.019-1.134-.067-2.05-.406-2.088-1.706-.042-1.393.894-1.805,2.108-1.886" transform="translate(-113.535 -156)" fill="#fb657d"/>
        <path id="Trazado_129080" data-name="Trazado 129080" d="M213.55,276.289c2.8.166,2.822.178,2.974,3.019.068,1.256.6,2.16,1.9,2.115,1.2-.042,1.665-.908,1.707-2.1.1-2.867.132-2.863,2.974-3.042a3.7,3.7,0,0,0,1.057-.159,1.694,1.694,0,0,0,1.1-1.679c-.137-1.266-.96-1.664-2.1-1.745-2.917-.207-2.943-.22-3.033-2.969-.041-1.263-.511-2.165-1.846-2.132-1.215.031-1.688.908-1.76,2.075-.173,2.835-.189,2.843-2.955,3.028-1.214.081-2.149.493-2.108,1.887.039,1.3.955,1.638,2.088,1.705" transform="translate(-135.461 -171.42)" fill="#010000"/>
      </g>
    </g>
  </g>
</svg>
