<svg xmlns="http://www.w3.org/2000/svg" xmlns:xlink="http://www.w3.org/1999/xlink" width="109" height="107" viewBox="0 0 109 107">
  <defs>
    <clipPath id="clip-path">
      <rect id="Rectángulo_36364" data-name="Rectángulo 36364" width="81.331" height="85.312" fill="none"/>
    </clipPath>
  </defs>
  <g id="Grupo_136188" data-name="Grupo 136188" transform="translate(-1169.256 -2646)">
    <ellipse id="Elipse_4973" data-name="Elipse 4973" cx="52.939" cy="53.5" rx="52.939" ry="53.5" transform="translate(1169.256 2646)" fill="#ffb12e"/>
    <g id="Grupo_134517" data-name="Grupo 134517" transform="translate(1278.256 2708.053) rotate(180)">
      <path id="Trazado_113538" data-name="Trazado 113538" d="M23.092,3.491c-1.053,0-1.573-.84-1.99-1.516s-.709-1.1-1.248-1.1-.825.419-1.247,1.1-.937,1.516-1.99,1.516-1.573-.84-1.99-1.516-.709-1.1-1.247-1.1-.825.419-1.247,1.1-.937,1.516-1.99,1.516-1.572-.84-1.989-1.516S7.446.873,6.908.873s-.824.419-1.246,1.1S4.725,3.491,3.672,3.491,2.1,2.651,1.683,1.975.975.873.437.873A.436.436,0,1,1,.437,0C1.489,0,2.008.841,2.426,1.516s.708,1.1,1.246,1.1S4.5,2.2,4.919,1.516,5.856,0,6.908,0,8.479.841,8.9,1.516s.708,1.1,1.247,1.1.825-.419,1.247-1.1S12.327,0,13.38,0s1.572.841,1.99,1.516.708,1.1,1.247,1.1.825-.419,1.247-1.1S18.8,0,19.854,0s1.573.841,1.991,1.516.709,1.1,1.248,1.1.826-.419,1.248-1.1S25.278,0,26.331,0a.436.436,0,1,1,0,.873c-.539,0-.826.419-1.248,1.1S24.146,3.491,23.092,3.491Z" transform="translate(0 0)" fill="#133d60"/>
      <path id="Trazado_126924" data-name="Trazado 126924" d="M23.092,3.491c-1.053,0-1.573-.84-1.99-1.516s-.709-1.1-1.248-1.1-.825.419-1.247,1.1-.937,1.516-1.99,1.516-1.573-.84-1.99-1.516-.709-1.1-1.247-1.1-.825.419-1.247,1.1-.937,1.516-1.99,1.516-1.572-.84-1.989-1.516S7.446.873,6.908.873s-.824.419-1.246,1.1S4.725,3.491,3.672,3.491,2.1,2.651,1.683,1.975.975.873.437.873A.436.436,0,1,1,.437,0C1.489,0,2.008.841,2.426,1.516s.708,1.1,1.246,1.1S4.5,2.2,4.919,1.516,5.856,0,6.908,0,8.479.841,8.9,1.516s.708,1.1,1.247,1.1.825-.419,1.247-1.1S12.327,0,13.38,0s1.572.841,1.99,1.516.708,1.1,1.247,1.1.825-.419,1.247-1.1S18.8,0,19.854,0s1.573.841,1.991,1.516.709,1.1,1.248,1.1.826-.419,1.248-1.1S25.278,0,26.331,0a.436.436,0,1,1,0,.873c-.539,0-.826.419-1.248,1.1S24.146,3.491,23.092,3.491Z" transform="translate(0 8.059)" fill="#133d60"/>
      <path id="Trazado_113539" data-name="Trazado 113539" d="M23.092,3.491c-1.053,0-1.573-.84-1.99-1.516s-.709-1.1-1.248-1.1-.825.419-1.247,1.1-.937,1.516-1.99,1.516-1.573-.84-1.99-1.516-.709-1.1-1.247-1.1-.825.419-1.247,1.1-.937,1.516-1.99,1.516-1.572-.84-1.989-1.516S7.446.873,6.908.873s-.824.419-1.246,1.1S4.725,3.491,3.672,3.491,2.1,2.651,1.683,1.975.975.873.437.873A.436.436,0,1,1,.437,0C1.489,0,2.008.841,2.426,1.516s.708,1.1,1.246,1.1S4.5,2.2,4.919,1.516,5.856,0,6.908,0,8.479.841,8.9,1.516s.708,1.1,1.247,1.1.825-.419,1.247-1.1S12.327,0,13.38,0s1.572.841,1.99,1.516.708,1.1,1.247,1.1.825-.419,1.247-1.1S18.8,0,19.854,0s1.573.841,1.991,1.516.709,1.1,1.248,1.1.826-.419,1.248-1.1S25.278,0,26.331,0a.436.436,0,1,1,0,.873c-.539,0-.826.419-1.248,1.1S24.146,3.491,23.092,3.491Z" transform="translate(0 4.03)" fill="#133d60"/>
      <path id="Trazado_126923" data-name="Trazado 126923" d="M23.092,3.491c-1.053,0-1.573-.84-1.99-1.516s-.709-1.1-1.248-1.1-.825.419-1.247,1.1-.937,1.516-1.99,1.516-1.573-.84-1.99-1.516-.709-1.1-1.247-1.1-.825.419-1.247,1.1-.937,1.516-1.99,1.516-1.572-.84-1.989-1.516S7.446.873,6.908.873s-.824.419-1.246,1.1S4.725,3.491,3.672,3.491,2.1,2.651,1.683,1.975.975.873.437.873A.436.436,0,1,1,.437,0C1.489,0,2.008.841,2.426,1.516s.708,1.1,1.246,1.1S4.5,2.2,4.919,1.516,5.856,0,6.908,0,8.479.841,8.9,1.516s.708,1.1,1.247,1.1.825-.419,1.247-1.1S12.327,0,13.38,0s1.572.841,1.99,1.516.708,1.1,1.247,1.1.825-.419,1.247-1.1S18.8,0,19.854,0s1.573.841,1.991,1.516.709,1.1,1.248,1.1.826-.419,1.248-1.1S25.278,0,26.331,0a.436.436,0,1,1,0,.873c-.539,0-.826.419-1.248,1.1S24.146,3.491,23.092,3.491Z" transform="translate(0 12.089)" fill="#133d60"/>
    </g>
    <path id="Trazado_113320" data-name="Trazado 113320" d="M2602.212,1501.185a6.741,6.741,0,1,1,6.741-6.741A6.749,6.749,0,0,1,2602.212,1501.185Zm0-10.3a3.558,3.558,0,1,0,3.558,3.558A3.562,3.562,0,0,0,2602.212,1490.886Z" transform="translate(-1415.444 1198.158)" fill="#133d60"/>
    <g id="Grupo_136187" data-name="Grupo 136187" transform="translate(1181.256 2657)">
      <g id="Grupo_136186" data-name="Grupo 136186" clip-path="url(#clip-path)">
        <path id="Trazado_129176" data-name="Trazado 129176" d="M70.651,54.622c.893.1,1.173.673,1.171,1.5-.008,2.637,0,5.275-.006,7.912,0,1.132-.419,1.55-1.549,1.554-2.9.01-5.805,0-8.708,0h-.893c-.007.092-.034.167-.012.188,2.483,2.353,3.33,5.449,3.875,8.692.228,1.357.253,1.353,1.595,1.353q7.312,0,14.623,0c1.381,0,1.712.368,1.751,1.772a7.633,7.633,0,0,1-1.167,4.912,6.353,6.353,0,0,1-5.4,2.8q-8.667.014-17.334,0-23.291,0-46.581,0A6.462,6.462,0,0,1,5.455,80.14a11.023,11.023,0,0,1-.107-3.234c.054-.731.576-1.078,1.491-1.079q5.668-.007,11.336,0c1.424,0,2.848-.016,4.272.009.438.007.625-.11.691-.577.1-.7.165-1.464.964-1.8,1.4-.192,2,.42,1.786,1.819-.081.521-.186,1.037-.307,1.549-.31,1.317-.783,1.717-2.113,1.73-1.969.019-3.939,0-5.908.007-1.228,0-1.255.032-1.26,1.239,0,.638.017,1.276-.005,1.913-.021.6.235.849.826.842,1.148-.014,2.3,0,3.446,0,2.27,0,4.54.008,6.81,0,1.6-.008,2.155-.556,2.217-2.2.037-1-.01-2,.019-2.994s.54-1.657,1.321-1.708a1.645,1.645,0,0,1,1.582,1.6c.094.911,0,1.829.053,2.743a7.757,7.757,0,0,1-.149,1.818c-.084.5.114.736.611.73.192,0,.383.006.574.006q10.333,0,20.666,0c1.208,0,1.2-.012,1.055-1.205a25.166,25.166,0,0,1-.049-3.984,2.143,2.143,0,0,1,.206-.8A1.461,1.461,0,0,1,57,75.66a1.441,1.441,0,0,1,1.185,1.309c.084.967.026,1.939.032,2.908a5.778,5.778,0,0,0,.167,1.646,1.581,1.581,0,0,0,1.565,1.007c3.611.047,7.222.019,10.833.019.526,0,.734-.259.746-.761.021-.86.007-1.719.009-2.579,0-.646-.435-.665-.9-.666-2.243,0-4.487.014-6.729-.006a1.678,1.678,0,0,1-1.593-1.523c-.3-1.466-.623-2.928-.917-4.4A9.036,9.036,0,0,0,52.44,65.2a1.538,1.538,0,0,1-.247,0c-1.023-.17-1.545.194-2,1.243A6.8,6.8,0,0,1,39.063,68.68a6.2,6.2,0,0,1-1.609-2.58c-.234-.713-.613-1-1.318-.895a8.942,8.942,0,0,0-7.478,2.885,16.327,16.327,0,0,0-1.638,2.383c-.516.788-1.077.933-1.769.521a1.372,1.372,0,0,1-.433-2.019,12.557,12.557,0,0,1,2.472-3.342c-.358-.017-.588-.037-.816-.038q-4.271,0-8.543,0c-1.663,0-1.936-.283-1.936-2q0-8.286.009-16.572a1.587,1.587,0,0,0-.538-1.284,8.238,8.238,0,0,1-2.39-8.559,4.224,4.224,0,0,1,2.371-2.819.857.857,0,0,0,.555-.94c-.006-3.136-.055-6.275.035-9.41C16.367,12.636,25.09,2.455,36.128.462A8.6,8.6,0,0,0,38.4,0h1.15a1.241,1.241,0,0,0,.986,0h6.739a1.24,1.24,0,0,0,.986,0h.986c1.106.218,2.217.412,3.317.659a25.106,25.106,0,0,1,18.9,20.275,49.324,49.324,0,0,1,.349,7.717c.015,1.637.009,3.274,0,4.911,0,.326.031.566.382.719a4.734,4.734,0,0,1,2.825,4.163,8.308,8.308,0,0,1-2.645,7.275,1.59,1.59,0,0,0-.57,1.354c.042,1.08-.033,2.166.026,3.245a1.537,1.537,0,0,1-1.21,1.839c-.749.069-1.251-.332-1.461-1.189a11.914,11.914,0,0,1-.1-1.905c-.03-.369.218-.89-.362-1.044a1.253,1.253,0,0,0-1.369.8A19.926,19.926,0,0,1,66.3,51.269,17.856,17.856,0,0,1,51.822,61.4a2.169,2.169,0,0,0-.325.041c-.257.071-.606.083-.589.45.017.391.38.362.633.348a15.159,15.159,0,0,1,4.945.611,3.623,3.623,0,0,0,.981.066q5.252,0,10.5,0c1.05,0,1.094-.049,1.1-1.139.006-1.747,0-3.494,0-5.241a2.352,2.352,0,0,1,.379-1.5c.3-.386.669-.673,1.2-.406" transform="translate(-2.993)"/>
        <path id="Trazado_129177" data-name="Trazado 129177" d="M103.19,0a.739.739,0,0,1-.986,0Z" transform="translate(-57.919)" fill="#212121"/>
        <path id="Trazado_129178" data-name="Trazado 129178" d="M85.362,0a.739.739,0,0,1-.986,0Z" transform="translate(-47.816)" fill="#212121"/>
        <path id="Trazado_129179" data-name="Trazado 129179" d="M46.434,162.886c-.019-.886-.029-1.771-.058-2.656-.029-.911-.494-1.472-1.214-1.489-.746-.017-1.234.566-1.245,1.525-.013,1.138.013,2.276-.008,3.413a1.8,1.8,0,0,1-2.03,2.037c-3.641.006-7.281-.009-10.922.014-.549,0-.776-.1-.744-.717a25.812,25.812,0,0,0,0-2.912c-.04-.673.131-.9.837-.886,2.244.048,4.489.02,6.733.017,1.085,0,1.4-.26,1.625-1.331.115-.542.222-1.085.329-1.628.281-1.421-.115-1.919-1.509-1.9a1.034,1.034,0,0,0,.86-1.1,7.645,7.645,0,0,1,.288-1.368c.895.241,1.412-.163,1.822-.958a9.149,9.149,0,0,1,9.029-5.048c.2.311-.015.529-.182.738a12.518,12.518,0,0,0-2.368,6.384c-.321,2.362-.537,4.738-.835,7.1-.037.292.069.7-.41.764" transform="translate(-17.119 -82.907)" fill="#c5cfd9"/>
        <path id="Trazado_129180" data-name="Trazado 129180" d="M129.868,115.439c-1.009.188-1.315.55-1.322,1.647-.011,2-.023,4,.008,6,.01.615-.111.878-.8.872-3.862-.033-7.724-.014-11.587-.02a2.481,2.481,0,0,1-.728-.089,14.38,14.38,0,0,0-4.866-.573c-.36.013-.762.128-.8-.519-.033-.624.333-.693.748-.722a16.538,16.538,0,0,0,4.329-.861,17.9,17.9,0,0,0,11.51-11.788,2.3,2.3,0,0,1,1.979-.889c.25.1.193.311.2.49.009.75-.006,1.5.007,2.249.018,1.057.282,1.4,1.293,1.74l.029,2.465" transform="translate(-62.21 -60.817)" fill="#544f57"/>
        <path id="Trazado_129181" data-name="Trazado 129181" d="M159.156,11.1a1.217,1.217,0,0,1-1.207,1.213c-.737.033-1.478.032-2.215,0-.4-.014-.524.131-.51.525.025.692.024,1.386,0,2.079-.027.893-.528,1.413-1.292,1.385-.732-.027-1.149-.523-1.166-1.407a14,14,0,0,1,.009-1.663c.07-.7-.1-1.025-.872-.926a11.13,11.13,0,0,1-1.8.008,1.236,1.236,0,0,1-.1-2.469,19.7,19.7,0,0,1,2.214-.015c.428.016.576-.123.555-.563-.033-.692-.021-1.386,0-2.08a1.221,1.221,0,0,1,1.169-1.332,1.263,1.263,0,0,1,1.284,1.323,14.558,14.558,0,0,1,0,1.829c-.049.617.095.9.779.829a11.165,11.165,0,0,1,1.885,0,1.271,1.271,0,0,1,1.271,1.259" transform="translate(-84.344 -3.284)"/>
        <path id="Trazado_129182" data-name="Trazado 129182" d="M171.944,129.519c-1.614,0-1.613,0-1.614,1.651a10.627,10.627,0,0,1-.024,1.164,1.178,1.178,0,0,1-1.247,1.164,1.158,1.158,0,0,1-1.179-1.224c-.036-.72-.039-1.444-.006-2.164.023-.489-.163-.621-.618-.6-.683.032-1.369.026-2.052,0a1.175,1.175,0,0,1-1.259-1.229,1.21,1.21,0,0,1,1.256-1.251,11.764,11.764,0,0,1,1.887,0c.7.075.834-.228.788-.845a15.637,15.637,0,0,1,0-1.831,1.223,1.223,0,1,1,2.442-.039,16.328,16.328,0,0,1,0,2.08c-.039.542.163.662.65.631.627-.04,1.259-.025,1.888-.006a1.252,1.252,0,0,1,1.381,1.3c-.027.74-.517,1.164-1.39,1.193-.3.01-.6,0-.9,0" transform="translate(-92.908 -68.994)"/>
        <path id="Trazado_129183" data-name="Trazado 129183" d="M6.38,57.871c0,1.537,0,1.537,1.545,1.538.41,0,.824-.024,1.231.013A1.211,1.211,0,0,1,10.3,60.694a1.19,1.19,0,0,1-1.2,1.2c-.711.029-1.425.038-2.134,0-.481-.026-.611.152-.59.613.032.692.028,1.388,0,2.08a1.223,1.223,0,1,1-2.442.032c-.04-.747-.027-1.5-.008-2.247.009-.356-.1-.488-.463-.475-.711.024-1.423.02-2.135,0A1.223,1.223,0,0,1,0,60.639a1.235,1.235,0,0,1,1.29-1.223c.711-.025,1.424-.031,2.134,0,.411.019.515-.127.5-.521-.029-.665-.022-1.332,0-2,.024-.905.5-1.468,1.222-1.478s1.208.557,1.237,1.45c.011.333,0,.666,0,1" transform="translate(0 -31.076)"/>
        <path id="Trazado_129184" data-name="Trazado 129184" d="M66.572,58.165c2.749-.708,5.529-1.291,8.241-2.15a47.892,47.892,0,0,0,13.325-6.054c1.2-.839,1.189-.847,1.982.356a23.032,23.032,0,0,0,7.663,7.73,6.128,6.128,0,0,0,1.4.673c.789.209.931.666.92,1.434-.045,3.441-.016,6.883-.021,10.324A15.57,15.57,0,0,1,87.067,86.259a11.546,11.546,0,0,1-1.224.1c-2.072.133-4.146.022-6.218.058a3.715,3.715,0,0,0-.573,0c-2.631.466-4.668-.8-6.544-2.391A16.883,16.883,0,0,1,66.855,74.9a1.5,1.5,0,0,1-.061-.816c.141-.3.448-.38.7-.537,1.395-.874,1.369-2.176-.048-3.03-.36-.217-.854-.257-1.029-.742a1.275,1.275,0,0,1,.072-.907c.264-.292.595-.208.92-.172a5.626,5.626,0,0,0,5.708-2.812,1.8,1.8,0,0,0,.3-.854.958.958,0,0,0-1.73-.747c-.234.274-.382.608-.589.9a3.689,3.689,0,0,1-3.945,1.351c-.385-.128-.706-.307-.784-.758-.107-2.283-.037-4.565-.04-6.847a1.127,1.127,0,0,1,.249-.767" transform="translate(-37.574 -27.682)" fill="#fecabd"/>
        <path id="Trazado_129185" data-name="Trazado 129185" d="M76.692,5.665a80.6,80.6,0,0,1,9.6.166,21.481,21.481,0,0,1,11.3,4.924,22.5,22.5,0,0,1,7.766,12.878,17.393,17.393,0,0,1,.444,3.7c0,3,.007,6,.009,9a1.061,1.061,0,0,1-1.1,1.087c-.369-.028-.238-.317-.241-.5-.015-1.027-.007-2.054-.008-3.082a1.344,1.344,0,0,0-.989-1.454c-3.759-1.042-6.266-3.71-8.514-6.714a25.731,25.731,0,0,1-2.1-3.374c-.65-1.223-1.36-1.335-2.4-.4A30.759,30.759,0,0,1,81.1,27.316a76.091,76.091,0,0,1-10.738,3.3,2.139,2.139,0,0,1-.409.021,4.977,4.977,0,0,1-.2-2.764c.175-2.261.132-4.534.452-6.789a37.435,37.435,0,0,1,3.42-12.251A19.247,19.247,0,0,1,75,6.664a2.061,2.061,0,0,1,1.692-1" transform="translate(-39.477 -3.142)" fill="#544f57"/>
        <path id="Trazado_129186" data-name="Trazado 129186" d="M67.166,162.835a19.483,19.483,0,0,0,.5-3.552c.406-2.933.435-5.938,1.653-8.713a7.1,7.1,0,0,1,1.326-2.166.8.8,0,0,0,.315-.558c.846-.219,1.245.024,1.538.966a6.609,6.609,0,0,0,12.584-.145c.222-.727.531-.871,1.234-.893a9.9,9.9,0,0,1,7.024,2.248,10.582,10.582,0,0,1,3.414,6.716c.176,1.065.449,2.112.631,3.176a1.374,1.374,0,0,0,1.187,1.286c2.35.124,4.7.024,7.052.053.914.011.914,0,.915.954,0,.61-.022,1.222.007,1.83.022.469-.2.652-.617.7a6.083,6.083,0,0,1-.737.032q-5.458,0-10.917,0a1.844,1.844,0,0,1-1.256-.275,18.445,18.445,0,0,1-.14-3.889c-.039-1.288-.38-1.888-1.193-1.916-.854-.029-1.311.61-1.272,1.921.047,1.572-.22,3.163.252,4.711.074.242.013.367-.257.346-.109-.008-.219,0-.328,0H67.354c-.162,0-.325-.018-.562-.032a10.155,10.155,0,0,0,.374-2.8" transform="translate(-37.851 -82.857)" fill="#e6ebf0"/>
        <path id="Trazado_129187" data-name="Trazado 129187" d="M57.439,5.743c-1.5.5-2.077,1.89-2.755,3.111a30.652,30.652,0,0,0-3.149,10.064,52.38,52.38,0,0,0-.705,7.654c-.023,1.377-.11,2.76-.127,4.142a41.528,41.528,0,0,1-5.749,1.155,49.316,49.316,0,0,1-6.584.688,1.249,1.249,0,0,0-1.3,1.4c-.019.943.011,1.887-.016,2.829-.007.241.2.746-.276.662-.378-.067-1,.007-1.051-.677-.006-.083,0-.166,0-.25.007-3.3-.126-6.61.056-9.9A21.575,21.575,0,0,1,40.5,14.357,22.246,22.246,0,0,1,50.864,6.926a20.764,20.764,0,0,1,6.575-1.183" transform="translate(-20.224 -3.22)" fill="#454045"/>
        <path id="Trazado_129188" data-name="Trazado 129188" d="M54.587,85.24a16.759,16.759,0,0,0,7.624,11.208,6.808,6.808,0,0,0,4.171,1.131c2.377-.085,4.761,0,7.141.006a3.736,3.736,0,0,1-1.461.123c-3.944.005-7.889.015-11.833-.012a15.45,15.45,0,0,1-15.414-13,13.969,13.969,0,0,1-.231-2.482c-.026-3.61-.013-7.22-.011-10.83,0-.309-.12-.674.416-.709,3.117-.2,6.183-.792,9.261-1.28q0,3.926,0,7.853c-.7.177-.9-.479-1.272-.821a7.359,7.359,0,0,1-.594-.892.967.967,0,0,0-1.36-.355,1.008,1.008,0,0,0-.38,1.382,5.519,5.519,0,0,0,2.589,2.78c.364.182.87.2,1.026.7q0,.513-.009,1.027c-.355.312-.771.2-1.172.169a4.735,4.735,0,0,0-2.9.655c-1.247.777-1.259,1.981-.008,2.736a5.019,5.019,0,0,0,3.464.647c.316-.049.629-.214.954-.039" transform="translate(-25.254 -38.912)" fill="#e9ab9c"/>
        <path id="Trazado_129189" data-name="Trazado 129189" d="M51.083,123.4a18.6,18.6,0,0,1-3.922.657c-3.527-.062-7.057-.037-10.585-.006-.655.006-.831-.193-.828-.846q.038-6.946.005-13.893c0-.622.11-.746.79-.671,1.03.114,1.319.677,1.655,1.556a17.7,17.7,0,0,0,12.339,11.387.77.77,0,0,1,.2.135c.362.508.177,1.132.345,1.681" transform="translate(-20.258 -60.909)" fill="#454045"/>
        <path id="Trazado_129190" data-name="Trazado 129190" d="M89.683,146.066a4.156,4.156,0,0,1-4.977-3.767c-.046-.746.007-1.5-.031-2.247-.023-.456.153-.553.567-.55q3.655.024,7.31,0c.4,0,.619.076.57.542-.041.384-.028.774-.039,1.162a1.367,1.367,0,0,1-1.013.234c-1.286.007-2.573-.006-3.859.006-.9.008-1.059.194-.921,1.1a4.2,4.2,0,0,0,2.395,3.514" transform="translate(-47.985 -78.223)" fill="#e9ab9c"/>
        <path id="Trazado_129191" data-name="Trazado 129191" d="M92.717,148.216a1.6,1.6,0,0,1-1.465-.713,5.744,5.744,0,0,1-1.219-3.266c-.043-.671.145-.92.85-.9,1.743.051,3.488.018,5.233.019.166,2.6-1.159,4.488-3.4,4.859" transform="translate(-51.019 -80.373)" fill="#fecabd"/>
        <path id="Trazado_129192" data-name="Trazado 129192" d="M32.9,91.707a5.9,5.9,0,0,1-4.524-7.548,2.263,2.263,0,0,1,4.327.552,4.245,4.245,0,0,0-2.577-.147c-.848.273-1.283.869-1.1,1.574.192.741.8,1.056,1.683.874a1.564,1.564,0,0,1,2.042,1.624,21.226,21.226,0,0,0,.149,3.07" transform="translate(-15.902 -46.41)" fill="#e9ab9c"/>
        <path id="Trazado_129193" data-name="Trazado 129193" d="M149.817,84.7a2.282,2.282,0,0,1,2.322-1.933,2.208,2.208,0,0,1,2.163,1.9,6,6,0,0,1-4.068,6.968c-.509.15-.643.053-.555-.461a14.9,14.9,0,0,0,.105-2.491,1.561,1.561,0,0,1,2.075-1.662,1.265,1.265,0,0,0,1.506-.535,1.142,1.142,0,0,0-.139-1.458,2.466,2.466,0,0,0-1.735-.618,6.066,6.066,0,0,0-1.675.287" transform="translate(-84.81 -46.41)" fill="#e9ab9c"/>
        <path id="Trazado_129194" data-name="Trazado 129194" d="M127.324,181.593c4.216,0,8.431-.009,12.647.018.618,0,.849-.176.776-.8-.09-.762.329-1.743-.179-2.238-.464-.452-1.41-.126-2.144-.134-1.588-.019-3.175,0-4.763-.01-.264,0-.552.086-.785-.133,2.49-.01,4.98-.009,7.47-.039.459-.006.548.181.539.59-.025,1.137-.033,2.275-.015,3.412.006.409-.138.513-.523.512-3.8-.013-7.609,0-11.413-.017a1.575,1.575,0,0,1-1.61-1.162" transform="translate(-72.155 -99.955)" fill="#c5cfd9"/>
        <path id="Trazado_129195" data-name="Trazado 129195" d="M11.315,180.3a4.49,4.49,0,0,1-.208-.519c-.369-1.374-.282-1.488,1.113-1.488,1.338,0,2.676.017,4.014-.009.451-.009.631.11.607.6-.046.91-.039,1.823-.055,2.735a5.591,5.591,0,0,1-5.107-.988,1.833,1.833,0,0,0-.364-.326" transform="translate(-6.189 -99.968)" fill="#fecabd"/>
        <path id="Trazado_129196" data-name="Trazado 129196" d="M164.3,181.62c-.016-.966-.027-1.931-.053-2.9-.009-.322.115-.433.432-.431,1.664.011,3.328.014,4.992,0,.381,0,.465.158.44.5a2.757,2.757,0,0,1-.362,1.5c-1.008,1.428-4.149,1.953-5.448,1.334" transform="translate(-93.081 -99.972)" fill="#fecabd"/>
        <path id="Trazado_129197" data-name="Trazado 129197" d="M11.831,182.874c.723.227,1.282.769,2.006,1.02a11.382,11.382,0,0,0,3.465.294c.1,1.166.1,1.132-1.023,1.173-1.987.074-3.6-.489-4.448-2.487" transform="translate(-6.705 -102.543)" fill="#e8ab9c"/>
        <path id="Trazado_129198" data-name="Trazado 129198" d="M164.314,184.168a7.811,7.811,0,0,0,5.448-1.334,3.73,3.73,0,0,1-3.357,2.483,8.771,8.771,0,0,1-1.064.014c-1.136,0-1.136,0-1.027-1.163" transform="translate(-93.092 -102.52)" fill="#e8ab9c"/>
        <path id="Trazado_129199" data-name="Trazado 129199" d="M70.635,140.122c-.73-.43-.166-1.134-.345-1.681,1.055.112,2.089.383,3.157.4.468.006.636.264.622.754-.016.584-.384.493-.731.5q-1.352.018-2.7.032" transform="translate(-39.81 -77.628)" fill="#524e55"/>
        <path id="Trazado_129200" data-name="Trazado 129200" d="M111.044,87.128a5.96,5.96,0,0,1-5.327-3.314c-.45-.851-.29-1.6.365-1.961s1.345-.1,1.794.757a3.444,3.444,0,0,0,6.246-.018c.434-.846,1.137-1.11,1.808-.734a1.307,1.307,0,0,1,.385,1.888,5.961,5.961,0,0,1-5.271,3.383" transform="translate(-59.765 -45.806)"/>
        <path id="Trazado_129201" data-name="Trazado 129201" d="M61.779,86.941a6.345,6.345,0,0,1-3.707-3.153c-.422-.864-.276-1.59.389-1.944s1.345-.08,1.793.762a3.024,3.024,0,0,0,1.515,1.537,3.322,3.322,0,0,0,4.45-1.079c.126-.212.234-.436.359-.648a1.24,1.24,0,0,1,1.671-.584,1.256,1.256,0,0,1,.524,1.713,5.884,5.884,0,0,1-4.154,3.425,7.483,7.483,0,0,1-2.841-.029" transform="translate(-32.775 -45.807)"/>
        <path id="Trazado_129202" data-name="Trazado 129202" d="M87.135,107.775a5.844,5.844,0,0,1-5.269-3.346,1.29,1.29,0,0,1,.45-1.925c.668-.336,1.286-.08,1.726.756a3.456,3.456,0,0,0,6.249.025c.463-.879,1.105-1.138,1.788-.756a1.316,1.316,0,0,1,.382,1.949,5.857,5.857,0,0,1-5.326,3.3" transform="translate(-46.26 -57.394)"/>
        <path id="Trazado_129203" data-name="Trazado 129203" d="M60.367,100.036a5.08,5.08,0,0,1-4.628-.47,1.667,1.667,0,0,1,.108-3.078,4.679,4.679,0,0,1,3.2-.64,6.363,6.363,0,0,0,.983.021c.4.213.826.4,1.207.645a1.759,1.759,0,0,1-.054,3.17,6.292,6.292,0,0,1-.816.352" transform="translate(-31.034 -53.708)" fill="#e38fb6"/>
        <path id="Trazado_129204" data-name="Trazado 129204" d="M120.5,100.364a4.734,4.734,0,0,1-2.835-.891,1.671,1.671,0,0,1,.027-2.842,5.379,5.379,0,0,1,5.624-.123c1.38.936,1.357,2.295-.081,3.146a5.039,5.039,0,0,1-2.736.71" transform="translate(-66.243 -53.703)" fill="#e38fb6"/>
        <path id="Trazado_129205" data-name="Trazado 129205" d="M89.974,89.447c.711,0,1.423-.018,2.134.005A1.18,1.18,0,0,1,93.365,90.6a1.2,1.2,0,0,1-1.181,1.321q-2.255.065-4.513,0A1.2,1.2,0,0,1,86.5,90.6a1.186,1.186,0,0,1,1.263-1.144c.738-.023,1.477,0,2.215,0" transform="translate(-49.015 -50.152)" fill="#010100"/>
      </g>
    </g>
  </g>
</svg>
