<svg xmlns="http://www.w3.org/2000/svg" xmlns:xlink="http://www.w3.org/1999/xlink" width="109" height="107" viewBox="0 0 109 107">
  <defs>
    <clipPath id="clip-path">
      <rect id="Rectángulo_36365" data-name="Rectángulo 36365" width="77.655" height="89.639" fill="none"/>
    </clipPath>
  </defs>
  <g id="Grupo_136191" data-name="Grupo 136191" transform="translate(2361 9051.534)">
    <ellipse id="Elipse_4973" data-name="Elipse 4973" cx="53.051" cy="53.5" rx="53.051" ry="53.5" transform="translate(-2361 -9051.534)" fill="#ffb12e"/>
    <g id="Grupo_134517" data-name="Grupo 134517" transform="translate(-2252 -8989.481) rotate(180)">
      <path id="Trazado_113538" data-name="Trazado 113538" d="M23.092,3.491c-1.053,0-1.573-.84-1.99-1.516s-.709-1.1-1.248-1.1-.825.419-1.247,1.1-.937,1.516-1.99,1.516-1.573-.84-1.99-1.516-.709-1.1-1.247-1.1-.825.419-1.247,1.1-.937,1.516-1.99,1.516-1.572-.84-1.989-1.516S7.446.873,6.908.873s-.824.419-1.246,1.1S4.725,3.491,3.672,3.491,2.1,2.651,1.683,1.975.975.873.437.873A.436.436,0,1,1,.437,0C1.489,0,2.008.841,2.426,1.516s.708,1.1,1.246,1.1S4.5,2.2,4.919,1.516,5.856,0,6.908,0,8.479.841,8.9,1.516s.708,1.1,1.247,1.1.825-.419,1.247-1.1S12.327,0,13.38,0s1.572.841,1.99,1.516.708,1.1,1.247,1.1.825-.419,1.247-1.1S18.8,0,19.854,0s1.573.841,1.991,1.516.709,1.1,1.248,1.1.826-.419,1.248-1.1S25.278,0,26.331,0a.436.436,0,1,1,0,.873c-.539,0-.826.419-1.248,1.1S24.146,3.491,23.092,3.491Z" transform="translate(0)" fill="#133d60"/>
      <path id="Trazado_126924" data-name="Trazado 126924" d="M23.092,3.491c-1.053,0-1.573-.84-1.99-1.516s-.709-1.1-1.248-1.1-.825.419-1.247,1.1-.937,1.516-1.99,1.516-1.573-.84-1.99-1.516-.709-1.1-1.247-1.1-.825.419-1.247,1.1-.937,1.516-1.99,1.516-1.572-.84-1.989-1.516S7.446.873,6.908.873s-.824.419-1.246,1.1S4.725,3.491,3.672,3.491,2.1,2.651,1.683,1.975.975.873.437.873A.436.436,0,1,1,.437,0C1.489,0,2.008.841,2.426,1.516s.708,1.1,1.246,1.1S4.5,2.2,4.919,1.516,5.856,0,6.908,0,8.479.841,8.9,1.516s.708,1.1,1.247,1.1.825-.419,1.247-1.1S12.327,0,13.38,0s1.572.841,1.99,1.516.708,1.1,1.247,1.1.825-.419,1.247-1.1S18.8,0,19.854,0s1.573.841,1.991,1.516.709,1.1,1.248,1.1.826-.419,1.248-1.1S25.278,0,26.331,0a.436.436,0,1,1,0,.873c-.539,0-.826.419-1.248,1.1S24.146,3.491,23.092,3.491Z" transform="translate(0 8.059)" fill="#133d60"/>
      <path id="Trazado_113539" data-name="Trazado 113539" d="M23.092,3.491c-1.053,0-1.573-.84-1.99-1.516s-.709-1.1-1.248-1.1-.825.419-1.247,1.1-.937,1.516-1.99,1.516-1.573-.84-1.99-1.516-.709-1.1-1.247-1.1-.825.419-1.247,1.1-.937,1.516-1.99,1.516-1.572-.84-1.989-1.516S7.446.873,6.908.873s-.824.419-1.246,1.1S4.725,3.491,3.672,3.491,2.1,2.651,1.683,1.975.975.873.437.873A.436.436,0,1,1,.437,0C1.489,0,2.008.841,2.426,1.516s.708,1.1,1.246,1.1S4.5,2.2,4.919,1.516,5.856,0,6.908,0,8.479.841,8.9,1.516s.708,1.1,1.247,1.1.825-.419,1.247-1.1S12.327,0,13.38,0s1.572.841,1.99,1.516.708,1.1,1.247,1.1.825-.419,1.247-1.1S18.8,0,19.854,0s1.573.841,1.991,1.516.709,1.1,1.248,1.1.826-.419,1.248-1.1S25.278,0,26.331,0a.436.436,0,1,1,0,.873c-.539,0-.826.419-1.248,1.1S24.146,3.491,23.092,3.491Z" transform="translate(0 4.03)" fill="#133d60"/>
      <path id="Trazado_126923" data-name="Trazado 126923" d="M23.092,3.491c-1.053,0-1.573-.84-1.99-1.516s-.709-1.1-1.248-1.1-.825.419-1.247,1.1-.937,1.516-1.99,1.516-1.573-.84-1.99-1.516-.709-1.1-1.247-1.1-.825.419-1.247,1.1-.937,1.516-1.99,1.516-1.572-.84-1.989-1.516S7.446.873,6.908.873s-.824.419-1.246,1.1S4.725,3.491,3.672,3.491,2.1,2.651,1.683,1.975.975.873.437.873A.436.436,0,1,1,.437,0C1.489,0,2.008.841,2.426,1.516s.708,1.1,1.246,1.1S4.5,2.2,4.919,1.516,5.856,0,6.908,0,8.479.841,8.9,1.516s.708,1.1,1.247,1.1.825-.419,1.247-1.1S12.327,0,13.38,0s1.572.841,1.99,1.516.708,1.1,1.247,1.1.825-.419,1.247-1.1S18.8,0,19.854,0s1.573.841,1.991,1.516.709,1.1,1.248,1.1.826-.419,1.248-1.1S25.278,0,26.331,0a.436.436,0,1,1,0,.873c-.539,0-.826.419-1.248,1.1S24.146,3.491,23.092,3.491Z" transform="translate(0 12.089)" fill="#133d60"/>
    </g>
    <path id="Trazado_113320" data-name="Trazado 113320" d="M2602.212,1501.185a6.741,6.741,0,1,1,6.741-6.741A6.749,6.749,0,0,1,2602.212,1501.185Zm0-10.3a3.558,3.558,0,1,0,3.558,3.558A3.562,3.562,0,0,0,2602.212,1490.886Z" transform="translate(-4945.923 -10499.375)" fill="#133d60"/>
    <g id="Grupo_136190" data-name="Grupo 136190" transform="translate(-2345.27 -9045.774)">
      <g id="Grupo_136189" data-name="Grupo 136189" clip-path="url(#clip-path)">
        <path id="Trazado_129206" data-name="Trazado 129206" d="M104.49,0l.324.382a1.117,1.117,0,0,1-.029,1.632,1.2,1.2,0,0,1-1.649,0,1.116,1.116,0,0,1-.021-1.632L103.44,0Z" transform="translate(-55.685)" fill="#88d14a"/>
        <path id="Trazado_129207" data-name="Trazado 129207" d="M22.163,61.575c-.819-.875-1.527-1.645-2.251-2.4-.443-.462-.624-.965-.1-1.438.493-.445.96-.21,1.364.225.813.877,1.659,1.725,2.442,2.627a.883.883,0,0,0,1.2.3c1.429-.715,2.9-1.355,4.28-2.158a4.082,4.082,0,0,0,1.935-3.952.8.8,0,0,0-.46-.676,14.156,14.156,0,0,1-6.086-9.517c-.076-.433-.267-.48-.629-.512a6.473,6.473,0,0,1-4.317-10.844,1.538,1.538,0,0,0,.383-1.093,70.7,70.7,0,0,1,.151-7.254A14.809,14.809,0,0,1,32.844,12.364a41.83,41.83,0,0,1,6.292-.092,8.118,8.118,0,0,1,5.99,3.016.7.7,0,0,0,.942.235A8.514,8.514,0,0,1,57.7,23.382c.065,3.033.023,6.067.005,9.1a2.009,2.009,0,0,0,.416,1.273,6.461,6.461,0,0,1-4.654,10.3c-.53.048-.679.227-.761.688a14.029,14.029,0,0,1-5.619,9.043,1.087,1.087,0,0,0-.473.947,4.32,4.32,0,0,0,2.654,4.41c1.158.542,2.294,1.132,3.441,1.7a.967.967,0,0,0,1.36-.269c.76-.921,1.62-1.758,2.435-2.633.411-.441.885-.63,1.364-.171s.315.944-.1,1.38c-.718.762-1.435,1.526-2.266,2.41,1.464.376,2.819.725,4.175,1.072.874.224,1.747.449,2.624.663a9.978,9.978,0,0,1,5.069,2.924.827.827,0,0,0,.98.265c.667-.206,1.345-.374,2.019-.553a.866.866,0,1,1,.462,1.662,10.466,10.466,0,0,1-1.342.381c-.593.09-.581.3-.356.789,2.152,4.65,4.748,9.067,7.122,13.6a11.266,11.266,0,0,1,1.292,3.591,8.871,8.871,0,0,1-8.712,10.275q-30.015.046-60.031,0A8.921,8.921,0,0,1,1.078,82.983c2.009-3.872,4.111-7.7,6.151-11.552.489-.924.866-1.907,1.353-2.831.237-.451.07-.522-.318-.608-.51-.112-1.01-.273-1.51-.429A.856.856,0,1,1,7.17,65.9c.9.21,1.884.778,2.673.575s1.36-1.2,2.135-1.731c1.8-1.238,3.922-1.573,5.969-2.113,1.347-.356,2.7-.679,4.216-1.058" transform="translate(0 -6.61)"/>
        <path id="Trazado_129208" data-name="Trazado 129208" d="M124.137,13.586a1.07,1.07,0,0,1-1.1-1.168c0-.526-.092-.81-.712-.771a1.008,1.008,0,0,1-1.2-1.075,1.007,1.007,0,0,1,1.218-1.047c.549.046.7-.185.689-.7-.007-.683.281-1.193,1.062-1.217a1.04,1.04,0,0,1,1.156,1.21c-.016.622.251.739.78.713a.97.97,0,0,1,1.119,1.05.99.99,0,0,1-1.117,1.069c-.63-.039-.777.216-.791.8a1.075,1.075,0,0,1-1.106,1.144" transform="translate(-65.63 -4.119)" fill="#70d5f8"/>
        <path id="Trazado_129209" data-name="Trazado 129209" d="M10.8,109.2a4.251,4.251,0,0,0-3.372,3.26,4.431,4.431,0,0,0-3.283-3.274A4.216,4.216,0,0,0,7.4,105.976a4.435,4.435,0,0,0,3.4,3.221" transform="translate(-2.245 -57.421)" fill="#f4c74c"/>
        <path id="Trazado_129210" data-name="Trazado 129210" d="M33.624,100.8a.911.911,0,0,1,.765.344c.693.749,1.393,1.491,2.089,2.237a.826.826,0,0,1,.026,1.3.853.853,0,0,1-1.307-.122c-.718-.765-1.438-1.528-2.15-2.3a.812.812,0,0,1-.178-.964.8.8,0,0,1,.756-.5" transform="translate(-17.761 -54.616)" fill="#010101"/>
        <path id="Trazado_129211" data-name="Trazado 129211" d="M131.928,101.524a.986.986,0,0,1-.308.787l-2.092,2.234a.856.856,0,0,1-1.307.134.819.819,0,0,1,.016-1.3q1.073-1.152,2.146-2.3a.885.885,0,0,1,1.042-.219.8.8,0,0,1,.5.667" transform="translate(-69.305 -54.604)" fill="#010101"/>
        <path id="Trazado_129212" data-name="Trazado 129212" d="M132.718,77.716a2.984,2.984,0,0,0,2.116-2.028,3.035,3.035,0,0,0,2.257,2.02,3.172,3.172,0,0,0-2.265,2.2,2.987,2.987,0,0,0-2.108-2.189" transform="translate(-71.911 -41.01)" fill="#f4c84e"/>
        <path id="Trazado_129213" data-name="Trazado 129213" d="M24.473,94.1A1.23,1.23,0,0,1,23.3,92.925a1.248,1.248,0,0,1,1.256-1.188,1.261,1.261,0,0,1,1.129,1.228A1.235,1.235,0,0,1,24.473,94.1" transform="translate(-12.625 -49.705)" fill="#fb6880"/>
        <path id="Trazado_129214" data-name="Trazado 129214" d="M13.9,125.261a7.49,7.49,0,0,1,3.477-2.018c2.529-.681,5.079-1.282,7.613-1.947a1.018,1.018,0,0,1,1.124.413q2.735,2.954,5.5,5.882c.657.7,1.4.661,1.677-.064.189-.5-.114-.831-.418-1.155q-2.335-2.49-4.671-4.978c-.216-.23-.425-.467-.668-.734a7.72,7.72,0,0,1,2.42-1.116c.871-.063,1.1,1.081,1.647,1.66a12.614,12.614,0,0,0,19.519-1.232c.362-.5.61-.641,1.158-.3.589.368,1.243.632,1.962.988-1.22,1.308-2.4,2.579-3.59,3.847q-.926.991-1.86,1.975c-.415.438-.576.915-.085,1.374s.957.258,1.366-.179c1.874-2,3.758-3.995,5.618-6.011a1,1,0,0,1,1.13-.371c2.476.656,4.964,1.268,7.443,1.912a8.238,8.238,0,0,1,3.643,2.064c-1.762.494-3.423.963-5.087,1.426-1.065.3-2.129.6-3.2.871-.624.16-1.046.485-.843,1.167.187.63.71.69,1.283.531,2.776-.768,5.558-1.517,8.328-2.309.576-.164.9-.089,1.164.487,2.23,4.941,5.018,9.592,7.5,14.4a7.2,7.2,0,0,1-6.53,10.766c-3.793.011-7.586-.018-11.378.021-.684.007-.8-.2-.8-.829.034-2.946.04-5.894,0-8.84-.012-.852.3-1.119,1.121-1.114,4.113.027,8.227.012,12.341.011a7.377,7.377,0,0,0,.787-.017c.534-.056.877-.332.857-.9a.8.8,0,0,0-.849-.816c-.232-.019-.466-.013-.7-.013-2.947,0-5.894-.017-8.84.013-.617.006-.922-.1-.834-.8.1-.8-.338-1.875.177-2.337.443-.4,1.495-.132,2.277-.126.656.005,1.224-.143,1.208-.912-.016-.711-.56-.878-1.182-.845a1.393,1.393,0,0,1-.175,0c-.746-.054-1.739.326-2.17-.16-.367-.414-.11-1.384-.124-2.108-.007-.35,0-.7,0-1.05,0-.615-.257-1.051-.906-1.036-.6.013-.846.433-.845,1.01,0,.846-.042,1.695.014,2.537.042.633-.113.838-.795.827-2.683-.046-5.368-.015-8.052-.023a1.027,1.027,0,0,0-1.038.493.774.774,0,0,0,.033.828,1.09,1.09,0,0,0,1.07.437c2.684-.006,5.369.012,8.052-.016.555-.005.822.12.718.71a1.613,1.613,0,0,0,0,.262c-.007.7.213,1.522-.082,2.065-.323.593-1.221.114-1.856.268a1.956,1.956,0,0,0-1.327.767c-.553.95-1.316.724-2.108.515a1.879,1.879,0,0,1-.9-.517c-1.473-1.575-3.377-1.547-5.288-1.4a1.616,1.616,0,0,0-1.533,1.353c-.114.68-.437.777-1,.728a7.652,7.652,0,0,0-1.137,0,3.114,3.114,0,0,0-3,2.789,31.022,31.022,0,0,0,.029,5.679,5.233,5.233,0,0,0,1.139,2.5H38.275c1.336-1.489,1.336-3.235,1.3-4.993-.017-.875.022-1.751-.011-2.625A3.252,3.252,0,0,0,36.1,141.6a6.155,6.155,0,0,0-.7,0c-.594.062-.912-.067-1.054-.773a1.715,1.715,0,0,0-1.739-1.336c-1.9-.114-3.727-.009-5.179,1.51a2.6,2.6,0,0,1-2.128.6.446.446,0,0,1-.427-.229,2.485,2.485,0,0,0-2.679-1.239c-.8.083-1.024-.21-.935-.963a6.919,6.919,0,0,0,0-1.573c-.073-.648.2-.752.782-.745,2.6.032,5.193.008,7.79.017.677,0,1.406-.005,1.385-.9s-.769-.856-1.432-.855c-2.6.006-5.193-.011-7.79.014-.541.005-.779-.093-.738-.7.057-.842.005-1.691.017-2.537.009-.637-.2-1.139-.905-1.126-.652.012-.859.488-.851,1.092.011.846-.027,1.693.014,2.538.027.543-.093.794-.7.736s-1.224,0-1.837-.015c-.636-.013-1.139.191-1.127.9.011.654.486.864,1.089.854.671-.011,1.343.016,2.013-.01.393-.015.585.066.562.518a16.21,16.21,0,0,0,0,2.1c.047.594-.226.654-.715.651-3-.018-6.01-.01-9.015-.007a4.587,4.587,0,0,0-.87.055.743.743,0,0,0-.626.738.758.758,0,0,0,.57.869,3.723,3.723,0,0,0,.952.083q6.171.008,12.341,0c1.17,0,1.228.062,1.228,1.24,0,2.918-.017,5.835.015,8.752.007.6-.138.779-.761.774-3.851-.031-7.7,0-11.553-.02a7.162,7.162,0,0,1-6.468-10.565c2.01-3.941,4.155-7.813,6.22-11.726.488-.925.92-1.883,1.336-2.843.259-.6.613-.7,1.227-.522,2.713.781,5.44,1.509,8.159,2.27.476.133.92.222,1.276-.22.437-.542.149-1.192-.668-1.423-2.52-.711-5.048-1.4-7.572-2.1-.219-.06-.433-.139-.71-.229" transform="translate(-2.046 -64.741)" fill="#70d5f8"/>
        <path id="Trazado_129215" data-name="Trazado 129215" d="M81.988,54.411c-.066,1.816.115,4.035-.093,6.247A12.569,12.569,0,0,1,57.2,62.532a11.581,11.581,0,0,1-.383-2.94c.007-3.355.019-6.71-.014-10.064-.006-.657.154-.716.779-.631,5.438.731,10.242-.5,14.042-4.693.186-.206.3-.494.669-.175a14.818,14.818,0,0,0,8.933,3.306c.695.049.781.31.771.9-.033,1.925-.012,3.85-.012,6.175" transform="translate(-30.779 -23.779)" fill="#f8cfb3"/>
        <path id="Trazado_129216" data-name="Trazado 129216" d="M81.577,33.885a7.6,7.6,0,0,0-2.5-.708c-.375-.034-.471-.181-.5-.537-.165-1.769-.462-2.009-2.175-2.142a13.747,13.747,0,0,1-8.491-3.222c-.869-.78-1.776-.606-2.628.443a11.93,11.93,0,0,1-6.04,3.969A14.113,14.113,0,0,1,52.421,32c-1-.2-1.94-.2-2.436.937a.36.36,0,0,1-.349.219,12.837,12.837,0,0,0-2.339.476c0-3.674-.411-7.344,1.508-10.706a12.85,12.85,0,0,1,11.3-6.888,25.694,25.694,0,0,1,5.234.11,6.667,6.667,0,0,1,4.506,2.885c.637.909.788.947,1.787.449a6.805,6.805,0,0,1,9.939,6.062c.026,2.737,0,5.475,0,8.346" transform="translate(-25.606 -8.645)" fill="#5b5d60"/>
        <path id="Trazado_129217" data-name="Trazado 129217" d="M55.416,178.33c-1.459,0-2.918-.018-4.375.01-.481.009-.652-.11-.648-.624q.037-4.025,0-8.051c-.005-.526.189-.626.657-.619a3.985,3.985,0,0,0,3-1.2c1.039-1.067,2.327-.9,3.6-.9.331,0,.32.266.383.485a1.925,1.925,0,0,0,2.145,1.624c2.814.041,2.9.126,2.9,2.927,0,.9.02,1.809-.006,2.713a3.469,3.469,0,0,1-3.721,3.63c-1.313.007-2.626,0-3.938,0" transform="translate(-27.304 -90.453)" fill="#f8cfb3"/>
        <path id="Trazado_129218" data-name="Trazado 129218" d="M99.1,178.308c-1.371,0-2.742.01-4.113,0a3.414,3.414,0,0,1-3.587-3.4c-.064-1.427-.045-2.859-.007-4.288.028-1.051.61-1.559,1.685-1.584.438-.01.876.006,1.313,0a1.854,1.854,0,0,0,2.006-1.567c.1-.431.274-.537.7-.558a4.347,4.347,0,0,1,3.608,1.153,3.573,3.573,0,0,0,2.735.961c.511-.018.63.167.626.648q-.03,4.026,0,8.051c0,.458-.125.6-.587.594-1.458-.027-2.917-.01-4.375-.01" transform="translate(-49.503 -90.431)" fill="#f8cfb3"/>
        <path id="Trazado_129219" data-name="Trazado 129219" d="M64.869,111.415a5.85,5.85,0,0,0,3.007-4.6c.04-.424.191-.461.559-.316a14.164,14.164,0,0,0,11.043-.153c.444-.186.549-.1.583.344a5.586,5.586,0,0,0,2.672,4.468c.38.245.246.41.055.657a10.9,10.9,0,0,1-17.92-.4" transform="translate(-35.148 -57.574)" fill="#f8cfb3"/>
        <path id="Trazado_129220" data-name="Trazado 129220" d="M47.429,62.067c0,1.367-.017,2.734.01,4.1.009.473-.077.665-.614.614a4.759,4.759,0,0,1,.1-9.445c.479-.036.515.164.511.542-.015,1.4-.006,2.792-.006,4.188" transform="translate(-23.138 -31.064)" fill="#f8cfb3"/>
        <path id="Trazado_129221" data-name="Trazado 129221" d="M115.568,62.025c0-1.368.024-2.737-.012-4.1-.014-.553.2-.62.67-.548a4.755,4.755,0,0,1,.171,9.382c-.616.116-.882.01-.847-.714.064-1.336.018-2.677.018-4.016" transform="translate(-62.607 -31.074)" fill="#f8cfb3"/>
        <path id="Trazado_129222" data-name="Trazado 129222" d="M83.334,141.76a4.461,4.461,0,0,1-1.226,2.946c-1.653,1.687-3.316,3.366-5.005,5.016a1.915,1.915,0,0,1-2.942-.043c-1.624-1.593-3.241-3.194-4.822-4.828a4.636,4.636,0,0,1,5.687-7.237,1.082,1.082,0,0,0,1.307-.037,4.675,4.675,0,0,1,7,4.182" transform="translate(-36.827 -74.197)"/>
        <path id="Trazado_129223" data-name="Trazado 129223" d="M107.179,142.451c-.681.017-1.018-.169-1.124-.639a.771.771,0,0,1,.5-.991q2.56-.871,5.138-1.689a.779.779,0,0,1,.992.51.741.741,0,0,1-.344,1.052c-1.775.639-3.572,1.22-5.164,1.757" transform="translate(-57.448 -75.365)" fill="#000101"/>
        <path id="Trazado_129224" data-name="Trazado 129224" d="M54.519,142.484c-.147-.042-.371-.1-.591-.172-1.466-.476-2.928-.963-4.4-1.428-.605-.192-.91-.576-.7-1.179.193-.554.645-.679,1.212-.49,1.573.524,3.154,1.022,4.73,1.537a.874.874,0,0,1,.706,1.045c-.084.472-.411.678-.959.687" transform="translate(-26.422 -75.387)" fill="#000101"/>
        <path id="Trazado_129225" data-name="Trazado 129225" d="M78.647,87.036a10.434,10.434,0,0,1-4.322-.9c-.545-.24-.91-.624-.663-1.224.27-.657.809-.62,1.394-.372a9.016,9.016,0,0,0,7.292,0c.545-.23,1.063-.288,1.35.309.307.638-.061,1.039-.641,1.3a10.418,10.418,0,0,1-4.41.9" transform="translate(-39.87 -45.714)" fill="#010000"/>
        <path id="Trazado_129226" data-name="Trazado 129226" d="M72.581,67.51a1.74,1.74,0,1,1-3.478-.066,1.74,1.74,0,0,1,3.478.066" transform="translate(-37.442 -35.629)" fill="#010101"/>
        <path id="Trazado_129227" data-name="Trazado 129227" d="M94.528,69.235a1.759,1.759,0,0,1-1.736-1.717,1.74,1.74,0,1,1,1.736,1.717" transform="translate(-50.278 -35.629)" fill="#010101"/>
        <path id="Trazado_129228" data-name="Trazado 129228" d="M71.783,143.661a2.846,2.846,0,0,1,1.534-2.547,2.9,2.9,0,0,1,3.208.262c1.168.835,1.22.843,2.409-.016a2.972,2.972,0,0,1,3.964.351,2.832,2.832,0,0,1-.083,3.952c-1.535,1.593-3.127,3.132-4.676,4.711-.329.336-.537.3-.849-.019-1.55-1.578-3.124-3.134-4.683-4.7a2.991,2.991,0,0,1-.824-1.989" transform="translate(-38.894 -76.262)" fill="#fb657d"/>
      </g>
    </g>
  </g>
</svg>
