<svg xmlns="http://www.w3.org/2000/svg" xmlns:xlink="http://www.w3.org/1999/xlink" width="109" height="107" viewBox="0 0 109 107">
  <defs>
    <clipPath id="clip-path">
      <rect id="Rectángulo_36367" data-name="Rectángulo 36367" width="108.568" height="100.756" fill="none"/>
    </clipPath>
  </defs>
  <g id="Grupo_136197" data-name="Grupo 136197" transform="translate(1918 9051.534)">
    <ellipse id="Elipse_4973" data-name="Elipse 4973" cx="54.5" cy="53.5" rx="54.5" ry="53.5" transform="translate(-1918 -9051.534)" fill="#ffb12e"/>
    <g id="Grupo_134517" data-name="Grupo 134517" transform="translate(-1809 -8977.481) rotate(180)">
      <path id="Trazado_113538" data-name="Trazado 113538" d="M23.092,3.491c-1.053,0-1.573-.84-1.99-1.516s-.709-1.1-1.248-1.1-.825.419-1.247,1.1-.937,1.516-1.99,1.516-1.573-.84-1.99-1.516-.709-1.1-1.247-1.1-.825.419-1.247,1.1-.937,1.516-1.99,1.516-1.572-.84-1.989-1.516S7.446.873,6.908.873s-.824.419-1.246,1.1S4.725,3.491,3.672,3.491,2.1,2.651,1.683,1.975.975.873.437.873A.436.436,0,1,1,.437,0C1.489,0,2.008.841,2.426,1.516s.708,1.1,1.246,1.1S4.5,2.2,4.919,1.516,5.856,0,6.908,0,8.479.841,8.9,1.516s.708,1.1,1.247,1.1.825-.419,1.247-1.1S12.327,0,13.38,0s1.572.841,1.99,1.516.708,1.1,1.247,1.1.825-.419,1.247-1.1S18.8,0,19.854,0s1.573.841,1.991,1.516.709,1.1,1.248,1.1.826-.419,1.248-1.1S25.278,0,26.331,0a.436.436,0,1,1,0,.873c-.539,0-.826.419-1.248,1.1S24.146,3.491,23.092,3.491Z" transform="translate(0)" fill="#133d60"/>
      <path id="Trazado_126924" data-name="Trazado 126924" d="M23.092,3.491c-1.053,0-1.573-.84-1.99-1.516s-.709-1.1-1.248-1.1-.825.419-1.247,1.1-.937,1.516-1.99,1.516-1.573-.84-1.99-1.516-.709-1.1-1.247-1.1-.825.419-1.247,1.1-.937,1.516-1.99,1.516-1.572-.84-1.989-1.516S7.446.873,6.908.873s-.824.419-1.246,1.1S4.725,3.491,3.672,3.491,2.1,2.651,1.683,1.975.975.873.437.873A.436.436,0,1,1,.437,0C1.489,0,2.008.841,2.426,1.516s.708,1.1,1.246,1.1S4.5,2.2,4.919,1.516,5.856,0,6.908,0,8.479.841,8.9,1.516s.708,1.1,1.247,1.1.825-.419,1.247-1.1S12.327,0,13.38,0s1.572.841,1.99,1.516.708,1.1,1.247,1.1.825-.419,1.247-1.1S18.8,0,19.854,0s1.573.841,1.991,1.516.709,1.1,1.248,1.1.826-.419,1.248-1.1S25.278,0,26.331,0a.436.436,0,1,1,0,.873c-.539,0-.826.419-1.248,1.1S24.146,3.491,23.092,3.491Z" transform="translate(0 8.059)" fill="#133d60"/>
      <path id="Trazado_113539" data-name="Trazado 113539" d="M23.092,3.491c-1.053,0-1.573-.84-1.99-1.516s-.709-1.1-1.248-1.1-.825.419-1.247,1.1-.937,1.516-1.99,1.516-1.573-.84-1.99-1.516-.709-1.1-1.247-1.1-.825.419-1.247,1.1-.937,1.516-1.99,1.516-1.572-.84-1.989-1.516S7.446.873,6.908.873s-.824.419-1.246,1.1S4.725,3.491,3.672,3.491,2.1,2.651,1.683,1.975.975.873.437.873A.436.436,0,1,1,.437,0C1.489,0,2.008.841,2.426,1.516s.708,1.1,1.246,1.1S4.5,2.2,4.919,1.516,5.856,0,6.908,0,8.479.841,8.9,1.516s.708,1.1,1.247,1.1.825-.419,1.247-1.1S12.327,0,13.38,0s1.572.841,1.99,1.516.708,1.1,1.247,1.1.825-.419,1.247-1.1S18.8,0,19.854,0s1.573.841,1.991,1.516.709,1.1,1.248,1.1.826-.419,1.248-1.1S25.278,0,26.331,0a.436.436,0,1,1,0,.873c-.539,0-.826.419-1.248,1.1S24.146,3.491,23.092,3.491Z" transform="translate(0 4.03)" fill="#133d60"/>
      <path id="Trazado_126923" data-name="Trazado 126923" d="M23.092,3.491c-1.053,0-1.573-.84-1.99-1.516s-.709-1.1-1.248-1.1-.825.419-1.247,1.1-.937,1.516-1.99,1.516-1.573-.84-1.99-1.516-.709-1.1-1.247-1.1-.825.419-1.247,1.1-.937,1.516-1.99,1.516-1.572-.84-1.989-1.516S7.446.873,6.908.873s-.824.419-1.246,1.1S4.725,3.491,3.672,3.491,2.1,2.651,1.683,1.975.975.873.437.873A.436.436,0,1,1,.437,0C1.489,0,2.008.841,2.426,1.516s.708,1.1,1.246,1.1S4.5,2.2,4.919,1.516,5.856,0,6.908,0,8.479.841,8.9,1.516s.708,1.1,1.247,1.1.825-.419,1.247-1.1S12.327,0,13.38,0s1.572.841,1.99,1.516.708,1.1,1.247,1.1.825-.419,1.247-1.1S18.8,0,19.854,0s1.573.841,1.991,1.516.709,1.1,1.248,1.1.826-.419,1.248-1.1S25.278,0,26.331,0a.436.436,0,1,1,0,.873c-.539,0-.826.419-1.248,1.1S24.146,3.491,23.092,3.491Z" transform="translate(0 12.089)" fill="#133d60"/>
    </g>
    <path id="Trazado_113320" data-name="Trazado 113320" d="M2602.212,1501.185a6.741,6.741,0,1,1,6.741-6.741A6.749,6.749,0,0,1,2602.212,1501.185Zm0-10.3a3.558,3.558,0,1,0,3.558,3.558A3.562,3.562,0,0,0,2602.212,1490.886Z" transform="translate(-4502.923 -10499.375)" fill="#133d60"/>
    <g id="Grupo_136196" data-name="Grupo 136196" transform="translate(-1918 -9048.568)">
      <g id="Grupo_136195" data-name="Grupo 136195" clip-path="url(#clip-path)">
        <path id="Trazado_129258" data-name="Trazado 129258" d="M63.809,204.679c-.224-.16-.354-.432-.707-.428q-2.225.024-4.45,0c-.352,0-.486.266-.71.426a26.911,26.911,0,0,1-1.159-4.536c-1.129-4.546-2.189-9.109-4.438-13.293a5.791,5.791,0,0,0-.937-1.437c-.214-.213-.48-.379-.773-.184-.246.164-.191.44-.121.688a1.629,1.629,0,0,0,.178.39c2.772,4.595,3.9,9.738,5.132,14.845a13.024,13.024,0,0,1,.532,2.728.5.5,0,0,1-.178.376l-14.6,0a1.326,1.326,0,0,1-.509-1.024,27.747,27.747,0,0,1,.87-14.067,12.31,12.31,0,0,1,1.928-3.46,4.417,4.417,0,0,1,2.953-1.652,3.408,3.408,0,0,0,.855-.156.479.479,0,0,0,.352-.485.5.5,0,0,0-.421-.433,2.582,2.582,0,0,0-1.083-.023,5.73,5.73,0,0,0-3.912,2.493,17.588,17.588,0,0,0-2.913,8.322,29.6,29.6,0,0,0,.207,9.383c.066.373.23.776-.141,1.1h-9.74c-.361-.237-.32-.616-.339-.965a53,53,0,0,1,3.9-23.584c.715-1.72,1.552-3.384,2.39-5.049a1.579,1.579,0,0,1,1.91-.973,27.139,27.139,0,0,1,9.108,3.444,58.731,58.731,0,0,1,9.663,7.127,10.41,10.41,0,0,1,2.761,3.785,58.5,58.5,0,0,1,4.368,13.1c.141.81.142,1.634.288,2.445a1.063,1.063,0,0,1-.265,1.092" transform="translate(-17.566 -104.376)" fill="#c9e6ee"/>
        <path id="Trazado_129259" data-name="Trazado 129259" d="M46.242,132.942c-.226-6.572-2.817-12.458-5.523-18.31a1.7,1.7,0,0,0-.371-.521c-4.517-4.233-9.339-8.047-15.149-10.472a21.136,21.136,0,0,0-5.224-1.448c-.553-.077-.842-.007-1.113.507a51.322,51.322,0,0,0-6.446,23.4c-.032,2.14.026,4.28.043,6.42-.147.5-.443.861-1.008.764-.6-.1-.75-.568-.782-1.122a54.165,54.165,0,0,1,8.022-32.53,19.914,19.914,0,0,1,3.179-3.93c.521-.5.559-.74.019-1.319a9.149,9.149,0,0,0-7.843-3.112C6.22,91.769-.107,85.2,0,77.042c.054-4.126,2.238-7.373,5.247-10.107a18.351,18.351,0,0,1,5.563-3.509,74.376,74.376,0,0,0,10.655-5.793A20,20,0,0,1,32.882,54.32a13.277,13.277,0,0,1,7.454,2.362,8.759,8.759,0,0,1,3.6,9.529,3.325,3.325,0,0,0,.161,2.147,14.913,14.913,0,0,1,1.1,4.774c.009.241.308.589-.238.628A4.288,4.288,0,0,0,43.2,71.65a2.543,2.543,0,0,1-.54-1.482,2.773,2.773,0,0,1-1.019,1.47,4.492,4.492,0,0,0-1.714,2.37,13.88,13.88,0,0,1-4.986,4.79c-.532.328-1.131.08-1.694-.076a2.686,2.686,0,0,0-2.579.4,2.6,2.6,0,0,0-1.095,2.634,2.853,2.853,0,0,0,2.057,2.159,1.847,1.847,0,0,0,.319.071c.734.1,1.382.327,1.386,1.208,0,.675-.561,1.057-1.607,1.044a1.029,1.029,0,0,0-1.123.617,39.987,39.987,0,0,1-4.32,6.671c-.8,1.086-.792,1.174.422,1.831a30.035,30.035,0,0,1,2.86,1.764c.591.411,1.059.455,1.4-.254C32.3,94.1,34.6,93.182,37.58,93.432a21.306,21.306,0,0,0,3.805,0,3,3,0,0,0,2.6-1.678c.289-.578.228-1.033-.464-1.274a3.79,3.79,0,0,1-.882-.419c-.564-.381-1.049-.847-.869-1.581.2-.814.918-.649,1.523-.65.263.079.417.338.65.358-.069-.083-.243-.117-.366-.223-.245-.232-.552-.148-.832-.141a.864.864,0,0,1-1-.767,1.106,1.106,0,0,1,.621-1.156.736.736,0,0,1,.521-.127c2.177.561,2.53-1.448,3.562-2.465.4-.391.234-.942-.144-1.364-.263-.293-.586-.547-.594-.987.109-.594.217-1.189.339-1.855.158.114.275.183.373.272,3.089,2.8,3.126,3.328.472,6.527a2.42,2.42,0,0,0-.622,1.774,13.825,13.825,0,0,1,.117,1.912c-.278,4.36-1.776,5.785-6.252,5.925-1.416.044-2.836-.059-4.253-.03-1.433.03-3.719,2.267-3.794,3.629-.015.266.169.374.322.515,5.34,4.927,8.587,11.16,11.431,17.645.071.161.167.311.252.466a6.22,6.22,0,0,1,1.283,2.55A44.65,44.65,0,0,1,47.5,127a2.284,2.284,0,0,1,.047,1.052c.087,1.407.418,2.793.382,4.212a1.027,1.027,0,0,1-.562,1.058.907.907,0,0,1-1.127-.377" transform="translate(0 -32.638)"/>
        <path id="Trazado_129260" data-name="Trazado 129260" d="M162.25,133.973c-.239.491-.47,1.042-1.175.862s-.591-.742-.6-1.3a7.931,7.931,0,0,0-1.629-5.31c-3.406-3.995-3.377-8.188-.836-12.6,1.923-3.337,4.32-6.346,6.534-9.482.909-1.289,1.738-2.635,2.555-3.983a6.492,6.492,0,0,0-.656-6.942,2.29,2.29,0,0,0-1.891-.631c-1.088,0-2.175.158-3.264.174-3.088.044-4.891-1.47-5.367-4.484a8.8,8.8,0,0,1-.193-2.126,2.808,2.808,0,0,0-1.44-2.788c-.211-.138-.417-.286-.623-.433-1.783-1.277-1.955-2.983-.388-4.543a4.921,4.921,0,0,0,1.57-5.147,1.085,1.085,0,0,0-.525-.755c-3.116-1.741-4.282-4.218-3.616-7.658a6.417,6.417,0,0,1,1.722-3.282A21.527,21.527,0,0,1,167.1,56.873a26.767,26.767,0,0,1,11.8,1.451c5.175,2.05,8.431,5.919,10.656,10.771a19.806,19.806,0,0,0,2.653,4.771,15.527,15.527,0,0,0,2.417,2.313c3.8,2.9,4.375,7.3,1.389,11.023a22.987,22.987,0,0,1-11.4,7.346,18.05,18.05,0,0,1-5.463.9c-.745,0-.876.239-.543.89a20.234,20.234,0,0,0,1.507,2.715,29.791,29.791,0,0,1,5.286,16.073,64.2,64.2,0,0,1-1.972,18.681c-.113.48-.3.923-.851.987-.571.066-.844-.315-.976-.811a1.642,1.642,0,0,1-.022-1.35,59.026,59.026,0,0,0,1.761-17.521,27.733,27.733,0,0,0-4.131-13.716c-.715-1.109-.817-1.143-2.013-.634a30.983,30.983,0,0,1-7.766,2.454,1.279,1.279,0,0,0-.952.645c-2.3,3.817-5.24,7.206-7.615,10.972a16.481,16.481,0,0,0-2.522,5.424,6.865,6.865,0,0,0,.812,4.755,11.866,11.866,0,0,0,1.36,2.067,10.082,10.082,0,0,1,2.023,5.782,1.259,1.259,0,0,1-.283,1.105" transform="translate(-89.349 -34.126)"/>
        <path id="Trazado_129261" data-name="Trazado 129261" d="M173.052,199.162a11,11,0,0,0-2.367-7.264c-2.718-3.274-2.389-6.734-.354-10.257,2.016-3.49,4.578-6.6,6.848-9.918.77-1.125,1.266-2.589,2.306-3.331.989-.706,2.542-.617,3.818-.975a30.1,30.1,0,0,0,5.162-2c.745-.367,1.049-.16,1.455.449a27.5,27.5,0,0,1,4.315,12.324,57.855,57.855,0,0,1-1.581,19.842c-.088.382-.169.765-.254,1.147l-4.224-.012c-.465-.8.043-1.526.244-2.244.926-3.306,1.888-6.6,2.524-9.977a31.5,31.5,0,0,0,.581-7.244c-.037-.83-.082-1.663-.935-2.153a1.873,1.873,0,0,1-.822-1.309c.137-1.079-.046-1.384-1.078-1.546a5.049,5.049,0,0,0-4.623,1.295,12.88,12.88,0,0,0-2.843,4.267,69.569,69.569,0,0,0-3.312,11.734c-.445,1.985-.811,3.986-1.233,5.975-.094.443-.095.942-.583,1.206l-3.044-.008" transform="translate(-100.151 -99.315)" fill="#1b88e4"/>
        <path id="Trazado_129262" data-name="Trazado 129262" d="M82.565,110.651c1.746,1.543,1.781,1.971.006,3.665a.609.609,0,0,0-.139.165c-.519,1.119-1.253,1.722-2.6,1.237-.529-.19-.913.2-1.006.722-.1.566.284.847.78.986.271.077.584-.1.842.114q-.071.267-.262.064c-.56-.046-1.145-.087-1.35.583-.178.58.26.939.657,1.241a2.3,2.3,0,0,0,1.05.525c1.023.1.916.651.694,1.345a3.1,3.1,0,0,1-2.968,2.117,18.482,18.482,0,0,1-4.134.008,5.584,5.584,0,0,0-6.181,3.509c-.4.858-.75.779-1.4.3a26.8,26.8,0,0,0-3.992-2.4c-.5-.247-.612-.427-.251-.934,1.853-2.594,3.918-5.061,5.147-8.039.135-.328.354-.364.7-.284a3.837,3.837,0,0,0,1.184.089.74.74,0,0,0,.674-.728.772.772,0,0,0-.512-.856,3.967,3.967,0,0,0-.747-.115,3.016,3.016,0,0,1-2.514-2.1,3.019,3.019,0,0,1,3.99-3.686,1.984,1.984,0,0,0,2.271-.383,33.863,33.863,0,0,0,4.289-4.093,12.621,12.621,0,0,0,.635,7.334c.542,1.22,1.191,2.359,2.736,2.406,1.137.035,1.975-1.015,2.413-2.788" transform="translate(-36.855 -62.33)" fill="#fe967b"/>
        <path id="Trazado_129263" data-name="Trazado 129263" d="M202.984,192.11l.641,1.01a5.485,5.485,0,0,0-.118,2.636,35.746,35.746,0,0,1-1.261,10.062c-.634,2.787-1.526,5.51-2.268,8.27a1.257,1.257,0,0,1-.536.895h-8.4c-.363-.234-.227-.582-.163-.873,1.16-5.3,2.063-10.666,3.816-15.83a18.255,18.255,0,0,1,2.166-4.429,4.454,4.454,0,0,1,6.121-1.74" transform="translate(-113.256 -115.129)" fill="#fe967b"/>
        <path id="Trazado_129264" data-name="Trazado 129264" d="M112.613,0c1.975.073,4.27-.185,6.529.4a11.584,11.584,0,0,1,8.729,10.432c.212,3.375-.236,6.559-2.485,9.28-2.2,2.658-5.031,4.395-8.526,4.278s-6.573.461-9.186,2.836a2.954,2.954,0,0,1-.96.493c-.817.3-1.4-.051-1.384-.9a6.2,6.2,0,0,1,.281-1.895c.194-.563.039-.728-.476-.891a11.518,11.518,0,0,1-8.575-11.523c-.075-5.165,2.028-9.026,6.758-11.394a11.414,11.414,0,0,1,5.06-1.114c1.309-.012,2.619,0,4.235,0" transform="translate(-57.314 0)"/>
        <path id="Trazado_129265" data-name="Trazado 129265" d="M108.976,188.048a1.39,1.39,0,0,1,.708-1.631c.927-.628,1.83-1.292,2.745-1.936.147-.1.3-.258.465-.27,2.085-.148,1.863-1.6,1.819-3-.062-1.964-.073-3.929-.081-5.894-.008-1.661.444-2.5,1.462-2.82,1.157-.361,2.257.17,3.164,1.53.1.148.189.3.331.531.357-.523.667-1.03,1.029-1.5a4,4,0,0,1,5.583-1.033,8.507,8.507,0,0,1,2.689,11.517,12.55,12.55,0,0,1-3.837,3.6c-1.344.849-2.694,1.689-4.04,2.537-.309.2-.583.339-.156.763.387.384.177.851-.147,1.251a37.141,37.141,0,0,1-5.661,5.636c-.444.355-.871.511-1.365.118-.8-.627-.423-1.157.148-1.662a43.97,43.97,0,0,0,3.9-3.71c.482-.545.63-.853-.075-1.318a18.113,18.113,0,0,1-3.924-3.675.877.877,0,0,0-1.383-.168c-.6.406-1.116.915-1.74,1.284-.579.343-1.144.468-1.633-.15" transform="translate(-64.65 -102.974)"/>
        <path id="Trazado_129266" data-name="Trazado 129266" d="M108.723,210.564a1.511,1.511,0,0,0,1.863-.292c.691-.572,1.421-1.411,2.2-1.488.871-.085,1.194,1.156,1.827,1.755a19.447,19.447,0,0,0,3.216,2.71c.716.43.615.713.113,1.253a37.309,37.309,0,0,1-4.155,3.926c-.578.457-.786.9-.356,1.536-.6.156-.952.68-1.484.935a81.911,81.911,0,0,0-3.456-10.309l.232-.026" transform="translate(-64.398 -125.489)" fill="#77c4ee"/>
        <path id="Trazado_129267" data-name="Trazado 129267" d="M200.645,189.86a1.51,1.51,0,0,1-1.054-.083,3.629,3.629,0,0,0-4.044,1.044,14,14,0,0,0-2.788,5.022,104.5,104.5,0,0,0-3.474,13.966c-.207.972-.388,1.95-.58,2.925-.165.46-.421.854-.979.826-.5-.025-.734-.389-.864-.825,1.043-4.554,1.816-9.168,3.063-13.678a25.956,25.956,0,0,1,3.5-8.371c1.772-2.5,4.243-3.441,6.668-2.567,1.084.391,1.2.746.554,1.742" transform="translate(-110.916 -112.879)"/>
        <path id="Trazado_129268" data-name="Trazado 129268" d="M53.679,217.764a31.34,31.34,0,0,1,.251-13.782,13.431,13.431,0,0,1,3.143-6.136,5.469,5.469,0,0,1,4.293-1.723c.609.019,1.114.22,1.083.916-.028.623-.489.827-1.068.8a4.3,4.3,0,0,0-3.975,2.356,17.054,17.054,0,0,0-2.374,7.259,30.171,30.171,0,0,0,.462,10.313c-.652,1.088-1.145,1.088-1.815,0" transform="translate(-31.481 -117.88)"/>
        <path id="Trazado_129269" data-name="Trazado 129269" d="M212.062,217.36c1.165-4.594,2.69-9.1,3.407-13.8a20.748,20.748,0,0,0,.177-6.809,1.1,1.1,0,0,1,.6-1.251,1.038,1.038,0,0,1,1.145,1.02,25.281,25.281,0,0,1-.363,8.4c-.725,4.223-2.133,8.282-3.127,12.44a.956.956,0,0,1-.97.83c-.5-.018-.718-.408-.868-.827" transform="translate(-125.875 -117.506)"/>
        <path id="Trazado_129270" data-name="Trazado 129270" d="M85.981,220.924c-1.093-5.268-2.234-10.525-4.467-15.474a21.643,21.643,0,0,0-1.315-2.333c-.337-.551-.695-1.128.028-1.573s1.107.131,1.462.659a29.637,29.637,0,0,1,3.393,7.719c1.093,3.436,1.809,6.966,2.63,10.469a4.87,4.87,0,0,1,.035.955c-.9.689-1.147.63-1.765-.422" transform="translate(-47.371 -121.045)"/>
        <path id="Trazado_129271" data-name="Trazado 129271" d="M102.017,104.813a4.91,4.91,0,0,1,.441-2.257c.269-.66.671-.7,1.071-.1a2.613,2.613,0,0,1,.644,1.309,20.334,20.334,0,0,0,.611,4.077c-.1.585-.18,1.175-.311,1.753-.092.408-.208.924-.676.989-.564.077-.733-.5-.916-.885a16.629,16.629,0,0,1-.6-1.682,1.963,1.963,0,0,0,.961-2.338c-.138-.721-.773-.641-1.224-.866" transform="translate(-60.548 -61.327)" fill="#fd977b"/>
        <path id="Trazado_129272" data-name="Trazado 129272" d="M101.947,108.862c1.123-.268,1.523.02,1.567,1.126.07,1.743-.074,1.971-1.3,2.078a7.781,7.781,0,0,1-.263-3.2" transform="translate(-60.478 -65.377)" fill="#362e45"/>
        <path id="Trazado_129273" data-name="Trazado 129273" d="M107.668,110.455a5.092,5.092,0,0,1-.611-4.077,9.269,9.269,0,0,1,.611,4.077" transform="translate(-63.432 -63.94)" fill="#4f4255"/>
        <path id="Trazado_129274" data-name="Trazado 129274" d="M102.456,94.957l1.017-1.859a4.057,4.057,0,0,1,.541,1.871l-1.559-.012" transform="translate(-60.815 -55.958)" fill="#f3947b"/>
        <path id="Trazado_129275" data-name="Trazado 129275" d="M110.63,102.132c.328-.118.114-.435.238-.628a1.293,1.293,0,0,1,.128,1.113.5.5,0,0,1-.366-.485" transform="translate(-65.667 -61.01)" fill="#c4c2c9"/>
        <path id="Trazado_129276" data-name="Trazado 129276" d="M17.729,92.193A12.276,12.276,0,0,1,8.9,89.581a11.757,11.757,0,0,1-4.385-7.618c-.961-5.556,1.91-9.383,6.144-12.506a28.133,28.133,0,0,1,5.584-2.864,76.767,76.767,0,0,0,8.371-4.763c3.23-1.924,6.632-3.4,10.522-3.284A11.253,11.253,0,0,1,42.8,61.367a6.81,6.81,0,0,1,2.154,5.982c-.381,3.348-2.163,5.965-4.224,8.492a25.663,25.663,0,0,1-3.062,3.011,1.69,1.69,0,0,1-1.586.425c-4.044-.805-6.977,2.368-5.706,6.206a.979.979,0,0,1-.162,1.125c-2.862,3.455-6.346,5.689-11.066,5.586-.473-.01-.946,0-1.418,0" transform="translate(-2.571 -35.186)" fill="#3c3854"/>
        <path id="Trazado_129277" data-name="Trazado 129277" d="M67.24,172.53c-5.2-4.119-10.565-7.749-17.411-8.943a22.413,22.413,0,0,1,3.418-4.141c.243-.236.474-.048.692.057a30.067,30.067,0,0,1,13.334,12.676c.028.049-.01.134-.033.351" transform="translate(-29.577 -95.769)" fill="#77c4ee"/>
        <path id="Trazado_129278" data-name="Trazado 129278" d="M59.325,132.834a32.52,32.52,0,0,1-3.445,5.633c-.478.665-1.026,1.285-1.462,1.976-.3.476-.5.371-.812.057a13.519,13.519,0,0,0-2.005-1.787c-.249-.166-.741-.553-.062-.752,3-.876,5.218-2.826,7.322-4.959.043-.044.129-.049.464-.168" transform="translate(-30.388 -79.841)" fill="#322f4c"/>
        <path id="Trazado_129279" data-name="Trazado 129279" d="M106.6,138.457l.263-.064c.144.018.288.039.432.053.246.025.547-.016.523.363-.008.129-.043.327-.128.367a.55.55,0,0,1-.592-.163,6.14,6.14,0,0,1-.5-.556" transform="translate(-63.277 -83.183)" fill="#fdfdfd"/>
        <path id="Trazado_129280" data-name="Trazado 129280" d="M171.889,61.185c4.571-.1,8.579.687,12.171,3.115a17.976,17.976,0,0,1,5.61,6.543,42.529,42.529,0,0,1,2.078,4.47,10.7,10.7,0,0,0,4.328,4.827,5.891,5.891,0,0,1,.784,9.051A22.625,22.625,0,0,1,182.991,96.3a27.931,27.931,0,0,1-9.075-.233c-4.382-.839-5.833-3.088-4.919-7.376.712-3.34.416-6.533-1.842-9.288a10.077,10.077,0,0,0-5.985-3.211c-1.092-.234-2.194-.428-3.3-.586A3.2,3.2,0,0,1,155.38,73.6c-1.341-2.773-.452-5.565,2.383-7.775a20.573,20.573,0,0,1,9.349-4.3,21.738,21.738,0,0,1,4.777-.344" transform="translate(-91.866 -36.76)" fill="#3c3854"/>
        <path id="Trazado_129281" data-name="Trazado 129281" d="M171.5,120.612a11.173,11.173,0,0,0-4.46-.141c-3.371.312-4.4-1.212-4.5-4.761-.009-.308.085-.448.434-.43a6.986,6.986,0,0,0,.973-.082c.61-.056.966-.388.875-.983a.817.817,0,0,0-1.044-.7,1.936,1.936,0,0,1-2.167-.98,10.888,10.888,0,0,0-1.884-1.607c-.722-.575-.886-1.118-.149-1.853,1.713-1.708,2.75-3.672,2.134-6.173-.141-.57.256-.453.575-.405,5.329.794,8.288,3.627,7.768,9.253-.069.744-.2,1.482-.306,2.223-.454,3.155-.217,4.086,1.749,6.643" transform="translate(-94.44 -61.579)" fill="#fe967b"/>
        <path id="Trazado_129282" data-name="Trazado 129282" d="M194.3,156.986c-.094-4.11-.394-5.223-2.027-7.3a18.8,18.8,0,0,0,8.368,1.743c.67.017.715.491.893.89.869,1.941.875,1.966-1.089,2.758a25.6,25.6,0,0,1-6.145,1.907" transform="translate(-114.131 -89.972)" fill="#fe967a"/>
        <path id="Trazado_129283" data-name="Trazado 129283" d="M76.387,118.445a2.228,2.228,0,0,1,2,1.443.821.821,0,0,1-.4,1.1.768.768,0,0,1-1.054-.253,1.709,1.709,0,0,0-.916-.693c-.522-.157-.574-.607-.449-1.054a.745.745,0,0,1,.821-.545" transform="translate(-44.82 -71.192)" fill="#352d44"/>
        <path id="Trazado_129284" data-name="Trazado 129284" d="M109.978,27.841c-.156-.529.119-.728.2-.985.35-1.1.145-1.466-1.017-1.716-5.231-1.127-8.222-4.869-8.309-10.173-.068-4.133,1.457-7.348,5.126-9.5a8.185,8.185,0,0,1,3.918-1.2,67.786,67.786,0,0,1,10.566.132,9.74,9.74,0,0,1,8.2,8.891c.191,3.2-.162,6.21-2.5,8.692a9.627,9.627,0,0,1-6.995,3.237c-1.345.033-2.694.067-4.036.006a3.675,3.675,0,0,0-2.61.831c-.779.623-1.637,1.151-2.548,1.78" transform="translate(-59.863 -2.482)" fill="#42a3f5"/>
        <path id="Trazado_129285" data-name="Trazado 129285" d="M137.613,182.3a5.754,5.754,0,0,1-1.747,3.9,11.892,11.892,0,0,1-2.95,2.35,34.084,34.084,0,0,0-4.354,2.835.726.726,0,0,1-1.108.013,24.28,24.28,0,0,1-2.787-2.7c-.393-.454-.382-.739.034-1.148a3.6,3.6,0,0,0,.969-2.943c-.1-2.315-.089-4.636-.108-6.954,0-.335-.093-.782.4-.873.421-.077.642.276.846.568a1.574,1.574,0,0,1,.339.663c.182,1.862,1.444,2.973,2.805,4.049.447.353.845.615,1.333.206s.406-.872.009-1.314c-.168-.187-.3-.444-.506-.554-1.259-.659-.891-1.473-.377-2.434,1.543-2.886,3.684-3.059,5.6-.374a7.756,7.756,0,0,1,1.6,4.707" transform="translate(-73.83 -105.597)" fill="#fe967b"/>
        <path id="Trazado_129286" data-name="Trazado 129286" d="M168.746,108c.03.766-.205,1.423-1.093,1.4-.819-.022-1.015-.675-1.019-1.385,0-.745.169-1.451,1.057-1.455s1.095.679,1.055,1.44" transform="translate(-98.91 -64.047)" fill="#3a3046"/>
        <path id="Trazado_129287" data-name="Trazado 129287" d="M120.826,30.709a1.651,1.651,0,1,1,1.67-1.6,1.614,1.614,0,0,1-1.67,1.6" transform="translate(-70.744 -16.473)" fill="#fdfdfe"/>
        <path id="Trazado_129288" data-name="Trazado 129288" d="M134.129,31.672a1,1,0,0,1,1.062-1.087,1.019,1.019,0,0,1,1.147,1.121,1.106,1.106,0,0,1-2.21-.035" transform="translate(-79.616 -18.383)" fill="#fbfdfe"/>
        <path id="Trazado_129289" data-name="Trazado 129289" d="M147.976,29.68c-.11.464-.366.783-.888.735a.711.711,0,0,1-.7-.789.73.73,0,0,1,.868-.728c.491.03.654.362.719.782" transform="translate(-86.892 -17.368)" fill="#f5fafe"/>
      </g>
    </g>
  </g>
</svg>
