<svg xmlns="http://www.w3.org/2000/svg" xmlns:xlink="http://www.w3.org/1999/xlink" width="203" height="203" viewBox="0 0 203 203">
  <defs>
    <clipPath id="clip-path">
      <circle id="Elipse_4994" data-name="Elipse 4994" cx="101.5" cy="101.5" r="101.5" transform="translate(389.256 1036)" fill="#3ba3f8"/>
    </clipPath>
    <clipPath id="clip-path-2">
      <rect id="Rectángulo_36360" data-name="Rectángulo 36360" width="192.917" height="192.938" fill="none"/>
    </clipPath>
  </defs>
  <g id="Grupo_136176" data-name="Grupo 136176" transform="translate(-389.256 -1036)">
    <circle id="Elipse_4985" data-name="Elipse 4985" cx="101.5" cy="101.5" r="101.5" transform="translate(389.256 1036)" fill="#3ba3f8"/>
    <g id="Enmascarar_grupo_104" data-name="Enmascarar grupo 104" clip-path="url(#clip-path)">
      <g id="Grupo_136175" data-name="Grupo 136175" transform="translate(399.339 1046.063)">
        <g id="Grupo_136174" data-name="Grupo 136174" clip-path="url(#clip-path-2)">
          <path id="Trazado_129081" data-name="Trazado 129081" d="M99.372,71.584c-.9-2.748-1.677-5.335-2.593-7.872a3.491,3.491,0,0,1,.956-4.04c3-2.961,5.9-6.019,8.968-8.9,1.156-1.087,1.116-1.834.252-3.03q-2.613-3.616-4.959-7.421c-.656-1.063-1.281-1.251-2.355-.738a11.585,11.585,0,0,1-2.39.787,3.058,3.058,0,0,1-3.772-3.746c2.026-6.4,4.209-12.759,6.38-19.116a2.84,2.84,0,0,1,2.876-1.916,24.547,24.547,0,0,1,3.884.023c2.326.332,3.857-.584,5.2-2.43a72.324,72.324,0,0,1,4.792-5.616,22.215,22.215,0,0,1,26.046-5.477,22.751,22.751,0,0,1,12.775,23.624,33.4,33.4,0,0,1-10.042,20.066c-8.076,7.963-16.058,16.022-24.086,24.035-.489.488-1.019.934-1.935,1.768,3.892,0,7.224-.011,10.557,0,2.775.012,3.86,1.1,3.867,3.892.013,5.379.036,10.759-.021,16.138-.012,1.192.1,1.695,1.55,1.88a12.4,12.4,0,0,1-1.638,24.705,2.625,2.625,0,0,0-2.88,1.987,36.085,36.085,0,0,1-14.238,16.984,2.621,2.621,0,0,0-1.475,2.6q.156,5.537,0,11.08c-.038,1.364.356,1.664,1.688,1.729a107.4,107.4,0,0,1,64.858,25.1,109.826,109.826,0,0,1,9.726,9.227c1.122,1.187,2.038,2.39,1.263,4.131-.765,1.718-2.24,1.9-3.888,1.9q-88.667-.022-177.333-.012c-2.593,0-5.185-.022-7.778.009a3.222,3.222,0,0,1-3.324-1.861,3.12,3.12,0,0,1,.83-3.7A107.583,107.583,0,0,1,60.1,154.44a105.155,105.155,0,0,1,16.386-1.887c.943-.039,1.35-.191,1.332-1.272-.069-4.018-.05-8.037-.009-12.055a1.751,1.751,0,0,0-.923-1.724,36.185,36.185,0,0,1-15.114-18.167c-.55-1.43-1.544-1.059-2.49-1.074a12.469,12.469,0,0,1-1.554-24.856c.517-.075,1.343.389,1.422-.764.067-.987-.353-1.335-1.209-1.611-3.871-1.251-7.706-2.613-11.587-3.832a3.535,3.535,0,0,1-2.806-3.845c.06-3.693,0-7.388.021-11.082.012-2.673,1.11-3.781,3.764-3.795,3.759-.019,7.519.023,11.278-.017a3.249,3.249,0,0,1,3.473,2.227c.227.64.5.921,1.212.913a84.257,84.257,0,0,0,9.983-.465,17.137,17.137,0,0,1-1.593-1.26Q60.4,58.616,49.156,47.312a2.573,2.573,0,0,0-3.021-.8c-3.506,1.116-7.085,2-10.613,3.057a3.654,3.654,0,0,1-3.31-.478c-2.9-1.951-5.83-3.855-8.709-5.834-2.119-1.457-2.332-3.39-.547-5.223,2.893-2.972,5.863-5.868,8.784-8.814a3.286,3.286,0,0,1,4.055-.8c.688.318,1.4.582,2.305.952-.808-4.353-1.2-8.522-.01-12.661C40.515,8.293,45.926,2.8,54.438.723c8.375-2.042,15.7.269,21.541,6.549C80.565,12.2,84.826,17.436,89.2,22.565c1.531,1.8,1.436,3.221-.271,4.952-3,3.046-6.008,6.093-9.093,9.054-.86.826-.824,1.3-.1,2.176,3.129,3.8,6.179,7.664,9.25,11.511,1.792,2.246,1.705,3.461-.333,5.548-1.4,1.432-3.52,2.692-3.955,4.38s.812,3.809,1.364,5.728c.533,1.852.59,4.4,1.836,5.332,1.261.946,3.722.309,5.659.333,1.866.023,3.732.005,5.818.005" transform="translate(0 0)"/>
          <path id="Trazado_129082" data-name="Trazado 129082" d="M357.419,158.821a3.082,3.082,0,0,1-3.033-2.57c-1.079-5.126-2.089-10.267-3.107-15.406a3.348,3.348,0,0,1,1.111-3.152c2.941-2.925,5.841-5.892,8.812-8.786,1.95-1.9,4.144-1.556,5.393.859,2.02,3.9,3.939,7.858,5.921,11.781a3.229,3.229,0,0,1-.6,4.085q-6.037,6.061-12.1,12.1a3.49,3.49,0,0,1-2.4,1.094" transform="translate(-214.303 -77.911)"/>
          <path id="Trazado_129083" data-name="Trazado 129083" d="M167.464,227.943c-.023-3.887-.029-7.773-.085-11.659a1.2,1.2,0,0,1,.917-1.368c2.02-.83,2.569-2.117,1.916-4.2-.754-2.4-1.582-4.784-2.377-7.174-.122-.368-.271-.73-.356-1.106-.563-2.475-.239-2.88,2.281-2.88,3.5,0,7,.035,10.5-.022a2.852,2.852,0,0,1,2.376.964c1.226,1.335,2.564,2.566,3.823,3.872s2.663,1.959,4.322.921a3.083,3.083,0,0,0,1.2-4.079,14.018,14.018,0,0,1-.387-1.655c3.748,0,7.426.027,11.1-.021.793-.011.989.432,1.176,1,.3.92.561,1.857.9,2.764,1,2.69,3.41,3.29,5.491,1.339,1.464-1.373,2.873-2.808,4.259-4.26a2.533,2.533,0,0,1,2.036-.837c3.887.042,7.776.053,11.663,0,1.051-.016,1.435.207,1.428,1.357-.054,9.33.124,18.664-.082,27.99-.366,16.55-15.117,30.386-31.445,29.721a33.055,33.055,0,0,1-30.659-30.662" transform="translate(-102.048 -121.752)" fill="#fce0d4"/>
          <path id="Trazado_129084" data-name="Trazado 129084" d="M293.866,41.156q.006-6.211.012-12.422a39.5,39.5,0,0,1,4.623-8.927,15.021,15.021,0,0,1,16.466-2.656c6.172,2.544,9.555,7.426,9.9,14.094a22.662,22.662,0,0,1-5.981,17.149c-8.721,9.289-17.845,18.2-26.988,27.075a1.576,1.576,0,0,1-.969-1.13c-1.074-3.043-2.064-6.114-3.063-9.182a1.773,1.773,0,0,1,.069-1.5c1.047-1.461,2.907-2.42,2.824-4.578.548-1.46,1.838-2.3,2.848-3.366,1.2-1.265,2.455-2.471,3.687-3.7,2.079-2.08,2.041-2.056.4-4.609-1.32-2.053-2.955-3.918-3.827-6.246" transform="translate(-175.568 -9.643)" fill="#e16b7a"/>
          <path id="Trazado_129085" data-name="Trazado 129085" d="M337.523,439.069H297.3c-13.349,0-26.7-.026-40.046.035-1.521.007-2-.374-1.923-1.917.129-2.768.036-5.547.036-8.613,2.512,1.243,4.808,2.388,7.112,3.518,2.6,1.278,3.728.973,5.366-1.46,1.338-1.988,2.712-3.954,3.967-5.993a2.217,2.217,0,0,1,2.212-1.15c3.952.055,7.905.04,11.858.016,2.556-.015,3.669-1.13,3.706-3.666.025-1.684.07-3.372-.016-5.053-.062-1.194.285-1.342,1.415-1.085a100.761,100.761,0,0,1,25.175,9.451,98.835,98.835,0,0,1,20.554,14.559,11.027,11.027,0,0,1,.925.987c.04.047-.062.214-.113.371" transform="translate(-155.79 -252.366)" fill="#307fc0"/>
          <path id="Trazado_129086" data-name="Trazado 129086" d="M70.674,417.183a74.718,74.718,0,0,1,11.654-3.562c.972-.232,1.255-.08,1.224.921-.056,1.811-.044,3.625-.007,5.437.048,2.3,1.184,3.459,3.487,3.481,3.949.037,7.9.071,11.846-.024a2.64,2.64,0,0,1,2.64,1.452c1.245,2.042,2.614,4.01,3.96,5.989,1.411,2.074,2.661,2.4,4.951,1.282,2.368-1.152,4.722-2.332,7.33-3.622,0,3.351-.016,6.433.011,9.514.007.78-.331,1.04-1.047.977-.193-.017-.388,0-.582,0q-37.679,0-75.358,0c-.258,0-.516-.039-.773-.059.021-1.519,1.312-2.16,2.211-2.983a109.524,109.524,0,0,1,19.751-14.638c2.8-1.592,5.793-2.79,8.7-4.16" transform="translate(-24.414 -252.324)" fill="#307fc0"/>
          <path id="Trazado_129087" data-name="Trazado 129087" d="M131.288,49.037l-1.126-1.443a30.342,30.342,0,0,1-9.547-11.973c-1.737-4.082-2.93-8.289-1.741-12.794,4.93-7.988,17.092-9.351,24.019-2.391,4.145,4.165,7.737,8.878,11.631,13.3.772.877.115,1.208-.357,1.681q-4.39,4.4-8.785,8.8c-2.049,2.061-2.109,3.271-.3,5.542,3.028,3.795,6.017,7.623,9.127,11.35.877,1.051.753,1.58-.16,2.492-1.49,1.489-3.375,2.686-4.067,4.853-.8.2-1.153-.408-1.574-.867-3.345-3.651-6.777-7.221-10.138-10.855-2.35-2.541-4.882-4.925-6.986-7.691" transform="translate(-72.242 -9.725)" fill="#e16b7a"/>
          <path id="Trazado_129088" data-name="Trazado 129088" d="M215.511,362.222c13.781,2.431,13.781,2.431,24.88-.046,0,4.088-.009,8.12.01,12.153,0,.6-.434.747-.8.968-3.544,2.133-7.112,4.228-10.631,6.4a1.74,1.74,0,0,1-2.109-.052c-3.417-2.094-6.869-4.133-10.3-6.2-.468-.283-1.067-.428-1.061-1.21.026-3.993.012-7.987.012-12.01" transform="translate(-131.492 -220.991)" fill="#fce0d4"/>
          <path id="Trazado_129089" data-name="Trazado 129089" d="M276.442,413.343c-1.488,0-2.983.094-4.462-.023a4.349,4.349,0,0,0-4.449,2.431c-.98,1.669-2.183,3.207-3.191,4.861-.547.9-1.029,1.109-2.005.571-1.922-1.057-3.929-1.958-5.884-2.958a2.05,2.05,0,0,1-.16-3.726c3.808-2.319,7.644-4.591,11.451-6.911a3.61,3.61,0,0,1,2.03-.462c3.952.038,7.87.5,11.8.856,1.369.124,1.792.646,1.747,2.052-.108,3.3-.021,3.307-3.381,3.307h-3.494" transform="translate(-155.7 -248.419)" fill="#3e9ee0"/>
          <path id="Trazado_129090" data-name="Trazado 129090" d="M167.345,410.387c-.669-1.87.587-2.355,2.383-2.487q4.061-.3,8.111-.74a10.4,10.4,0,0,1,7.47,1.811c2.854,1.991,5.955,3.628,8.931,5.448a2.05,2.05,0,0,1-.147,3.821c-1.9.97-3.842,1.852-5.7,2.887-1.039.578-1.57.355-2.162-.618-1.108-1.82-2.378-3.54-3.521-5.341a3.794,3.794,0,0,0-3.568-1.872c-3.039.053-6.079.016-9.119.016-2.675,0-2.675,0-2.675-2.926" transform="translate(-101.999 -248.388)" fill="#3e9ee0"/>
          <path id="Trazado_129091" data-name="Trazado 129091" d="M145.788,100.846a31.8,31.8,0,0,1,5.135,4.927c4.412,4.673,8.731,9.434,13.092,14.155a2.687,2.687,0,0,0,.471.332c.564,3.634,2.044,7.038,2.706,10.337L142.159,105.49c3.669-1.5,3.8-1.659,3.629-4.644" transform="translate(-86.742 -61.534)" fill="#db4051"/>
          <path id="Trazado_129092" data-name="Trazado 129092" d="M286.24,80.839c2.137,2.576,3.748,5.515,5.685,8.228.439.615.129.919-.252,1.294q-4.272,4.2-8.54,8.4c-1.51-3.308-3.873-6.078-5.782-9.134-.646-1.034-1.333-2.042-2.115-3.235,2.735-.926,5.319-1.866,7.945-2.666a3.979,3.979,0,0,0,3.06-2.888" transform="translate(-167.942 -49.326)" fill="#db4051"/>
          <path id="Trazado_129093" data-name="Trazado 129093" d="M274.272,138.564l3.963,11.812c-1.66,1.705-3.338,3.393-4.974,5.122-1.081,1.144-2.446.388-3.654.644-1.827.387-2.072-.921-2.452-2.165-.637-2.087-2.088-4.288-1.768-6.2.324-1.946,2.8-3.2,4.32-4.767,1.479-1.522,3.04-2.965,4.564-4.443" transform="translate(-161.906 -84.549)" fill="#db4051"/>
          <path id="Trazado_129094" data-name="Trazado 129094" d="M114.791,33.61a27.445,27.445,0,0,0,3.5,15.236,36.678,36.678,0,0,0,5.383,6.795c.84.873,1.918,1.549,2.4,2.737L115.2,53.746c-.594-.253-1.225-.448-1.488-1.138-2.342-6.155-3.163-12.273.449-18.278a5.3,5.3,0,0,1,.629-.72" transform="translate(-68.158 -20.508)" fill="#db4051"/>
          <path id="Trazado_129095" data-name="Trazado 129095" d="M63.379,422.907c-1.359,1.359-3.233,1.8-4.866,2.652A99.493,99.493,0,0,0,37.02,440.548a35.012,35.012,0,0,0-4.305,4.14H28.054a23.116,23.116,0,0,1,4.666-4.427,101.258,101.258,0,0,1,29.713-17.174,5.476,5.476,0,0,1,.945-.179" transform="translate(-17.118 -258.048)" fill="#25658c"/>
          <path id="Trazado_129096" data-name="Trazado 129096" d="M260.155,66.5c1.154-3.473,2.2-6.568,3.2-9.679.252-.786.754-.935,1.467-.924,1.55.023,3.1.06,4.651-.012,1.057-.049,1.4.4,1.284,1.365a1.287,1.287,0,0,0,0,.194c.151,5.495.152,5.5-5.02,7.225-1.71.571-3.426,1.125-5.584,1.831" transform="translate(-158.741 -34.095)" fill="#9b2f3f"/>
          <path id="Trazado_129097" data-name="Trazado 129097" d="M137.888,202.075c-3.474-1.16-6.74-1.792-9.518-3.314-2.5-1.371-.767-4.3-.992-6.5-.14-1.372,1.369-.755,2.116-.766,4.87-.071,4.87-.041,6.383,4.526.624,1.884,1.251,3.767,2.01,6.054" transform="translate(-77.493 -116.766)" fill="#9b2f3f"/>
          <path id="Trazado_129098" data-name="Trazado 129098" d="M93.855,94.715c-4.2,1.2-7.825,2.247-11.46,3.263-.474.132-4.823-2.514-5.074-2.965-.276-.5.134-.7.377-.946,1.22-1.242,2.46-2.465,3.685-3.7a1.144,1.144,0,0,1,1.368-.407c3.528,1.514,7.057,3.024,11.1,4.757" transform="translate(-47.123 -54.831)" fill="#9b2f3f"/>
          <path id="Trazado_129099" data-name="Trazado 129099" d="M141.936,260.91a25.818,25.818,0,0,0,.376,5.6c.245,1.255-.149,1.619-1.388,1.4a6.256,6.256,0,0,1-.224-12.292c.9-.179,1.313-.028,1.254,1-.074,1.291-.018,2.59-.018,4.291" transform="translate(-82.812 -155.931)" fill="#dfb0a9"/>
          <path id="Trazado_129100" data-name="Trazado 129100" d="M348.752,261.84a6.323,6.323,0,0,1-5.288,6.071c-.853.122-1.553.175-1.33-1.094a54.492,54.492,0,0,0,.376-10.078c-.012-1.1.311-1.332,1.336-1.1a6.384,6.384,0,0,1,4.906,6.2" transform="translate(-208.737 -155.935)" fill="#dfb0a9"/>
          <path id="Trazado_129101" data-name="Trazado 129101" d="M167.763,272.408c.727,3.255,1.148,6.57,2.562,9.667,5.377,11.784,14.269,18.877,27.211,20.682a4.605,4.605,0,0,1,.886.313c-12.849.526-25.829-9.319-29.517-22.438a24.861,24.861,0,0,1-1.142-8.223" transform="translate(-102.347 -166.217)" fill="#ddafa8"/>
          <path id="Trazado_129102" data-name="Trazado 129102" d="M307.047,26.074A53.79,53.79,0,0,1,302.424,35c-1.721-2.7.153-4.33,1.772-6.058a13.474,13.474,0,0,1,2.85-2.868" transform="translate(-184.114 -15.91)" fill="#d94051"/>
          <path id="Trazado_129103" data-name="Trazado 129103" d="M373.037,148.771c1.147,2.293,2.084,4.194,3.053,6.08a.918.918,0,0,1-.224,1.2c-1.927,1.993-3.841,4-6.142,6.4-.6-3.009-1.088-5.441-1.562-7.875a1.171,1.171,0,0,1,.416-1.037c1.414-1.5,2.821-3.015,4.459-4.768" transform="translate(-224.634 -90.777)" fill="#9b2f3f"/>
          <path id="Trazado_129104" data-name="Trazado 129104" d="M229.974,303.357c4.082.184,7.922,2.395,10.546,6.74.577.955.454,1.484-.6,1.822a5.135,5.135,0,0,0-.69.352,11.088,11.088,0,0,1-3.132,1.479c-1.342.174-1.459-1.5-2.262-2.244a6.876,6.876,0,0,0-10.606,1.3c-.727,1.136-1.27,1.182-2.263.574a9.989,9.989,0,0,0-2.252-1.119c-2.068-.625-1.667-1.656-.724-3.031,2.518-3.674,6.567-5.88,11.982-5.875" transform="translate(-132.544 -185.101)"/>
          <path id="Trazado_129105" data-name="Trazado 129105" d="M197.83,247.438c1.618,0,3.24.066,4.854-.023,1.051-.058,1.258.325,1.279,1.307.11,4.939.14,4.939-4.81,4.939-2.136,0-4.274-.059-6.407.025-1.052.041-1.26-.316-1.281-1.309-.105-4.939-.137-4.939,4.812-4.939h1.553" transform="translate(-116.812 -150.963)"/>
          <path id="Trazado_129106" data-name="Trazado 129106" d="M277.407,253.669c-1.618,0-3.241-.069-4.853.024-1.073.062-1.246-.349-1.266-1.321-.1-4.926-.133-4.926,4.823-4.926,2.071,0,4.144.046,6.213-.02,1.006-.032,1.452.117,1.47,1.317.074,4.926.124,4.925-4.833,4.925h-1.553" transform="translate(-165.517 -150.972)"/>
        </g>
      </g>
    </g>
  </g>
</svg>
