<svg xmlns="http://www.w3.org/2000/svg" xmlns:xlink="http://www.w3.org/1999/xlink" width="295" height="85" viewBox="0 0 295 85">
  <defs>
    <clipPath id="clip-path">
      <rect id="Rectángulo_36338" data-name="Rectángulo 36338" width="51.972" height="46.567" fill="#133d60"/>
    </clipPath>
  </defs>
  <g id="Grupo_136239" data-name="Grupo 136239" transform="translate(-810 -6887)">
    <path id="Trazado_129342" data-name="Trazado 129342" d="M37.5,0H206.352a37.5,37.5,0,0,1,0,75H37.5a37.5,37.5,0,0,1,0-75Z" transform="translate(861.148 6892)" fill="#133d60"/>
    <path id="Trazado_129343" data-name="Trazado 129343" d="M10.063,15H8.555L2.828,6.234V15H1.32V3.625H2.828l5.742,8.8v-8.8h1.492Zm7.656-.836a3.07,3.07,0,0,1-2.477.992,2.628,2.628,0,0,1-2.059-.785,3.4,3.4,0,0,1-.715-2.324v-5.5h1.445v5.461q0,1.922,1.563,1.922a2.163,2.163,0,0,0,2.2-1.234V6.547h1.445V15H17.75ZM23.281,4.5V6.547h1.578V7.664H23.281v5.249a1.173,1.173,0,0,0,.211.763.888.888,0,0,0,.719.254,3.5,3.5,0,0,0,.688-.094V15a4.215,4.215,0,0,1-1.109.155,1.8,1.8,0,0,1-1.461-.586,2.517,2.517,0,0,1-.492-1.664V7.664H20.3V6.547h1.539V4.5Zm7.352,3.344a4.331,4.331,0,0,0-.711-.055A1.9,1.9,0,0,0,27.992,9v6H26.547V6.547h1.406l.023.977a2.251,2.251,0,0,1,2.016-1.133,1.477,1.477,0,0,1,.641.109ZM33.531,15H32.086V6.547h1.445ZM31.969,4.3a.863.863,0,0,1,.215-.594.807.807,0,0,1,.637-.242.819.819,0,0,1,.641.242.854.854,0,0,1,.219.594.826.826,0,0,1-.219.586.834.834,0,0,1-.641.234.821.821,0,0,1-.637-.234A.834.834,0,0,1,31.969,4.3ZM39.93,7.844a4.331,4.331,0,0,0-.711-.055A1.9,1.9,0,0,0,37.289,9v6H35.844V6.547H37.25l.023.977a2.251,2.251,0,0,1,2.016-1.133,1.477,1.477,0,0,1,.641.109Zm6.25,4.914a1.064,1.064,0,0,0-.441-.91,4.249,4.249,0,0,0-1.539-.559,7.277,7.277,0,0,1-1.742-.562,2.479,2.479,0,0,1-.953-.781A1.869,1.869,0,0,1,41.2,8.867a2.193,2.193,0,0,1,.879-1.758,3.432,3.432,0,0,1,2.246-.719,3.532,3.532,0,0,1,2.332.742,2.357,2.357,0,0,1,.895,1.9H46.094a1.3,1.3,0,0,0-.5-1.023,1.888,1.888,0,0,0-1.27-.43,1.976,1.976,0,0,0-1.234.344,1.082,1.082,0,0,0-.445.9.877.877,0,0,0,.414.789,5.1,5.1,0,0,0,1.5.508A7.8,7.8,0,0,1,46.3,10.7a2.558,2.558,0,0,1,1,.809,1.988,1.988,0,0,1,.324,1.152,2.163,2.163,0,0,1-.906,1.816,3.8,3.8,0,0,1-2.352.684,4.257,4.257,0,0,1-1.8-.359,2.922,2.922,0,0,1-1.223-1,2.42,2.42,0,0,1-.441-1.395h1.445a1.5,1.5,0,0,0,.582,1.152,2.258,2.258,0,0,0,1.434.426,2.331,2.331,0,0,0,1.316-.332A1.02,1.02,0,0,0,46.18,12.758Zm6.836,2.4a3.693,3.693,0,0,1-2.8-1.129,4.19,4.19,0,0,1-1.078-3.02v-.266a5.073,5.073,0,0,1,.48-2.246,3.748,3.748,0,0,1,1.344-1.547,3.378,3.378,0,0,1,1.871-.559A3.166,3.166,0,0,1,55.4,7.477a4.7,4.7,0,0,1,.914,3.109v.6H50.586a3,3,0,0,0,.73,2.02,2.3,2.3,0,0,0,1.777.77,2.517,2.517,0,0,0,1.3-.312,3.259,3.259,0,0,0,.93-.828l.883.688A3.55,3.55,0,0,1,53.016,15.156Zm-.18-7.578a1.928,1.928,0,0,0-1.469.637A3.1,3.1,0,0,0,50.633,10h4.234V9.891a2.753,2.753,0,0,0-.594-1.707A1.815,1.815,0,0,0,52.836,7.578Z" transform="translate(932.744 6920)" fill="#fff"/>
    <g id="Grupo_134434" data-name="Grupo 134434" transform="translate(827.744 6887)">
      <circle id="Elipse_4969" data-name="Elipse 4969" cx="42.5" cy="42.5" r="42.5" transform="translate(0.256)" fill="#aed4f5"/>
    </g>
    <g id="Grupo_136154" data-name="Grupo 136154" transform="translate(845 6906)">
      <g id="Grupo_136154-2" data-name="Grupo 136154" clip-path="url(#clip-path)">
        <path id="Trazado_128959" data-name="Trazado 128959" d="M51.972,37.394a1.834,1.834,0,0,1-1.586,1.146,31.18,31.18,0,0,0-3.362.694c.335.087.666.2,1.006.257,2.434.388,2.071,1.543,1.764,3.078a1.368,1.368,0,0,1-1.677,1.03c-1.833-.306-3.661-.643-5.491-.966-.16-.028-.322-.046-.526-.075a3.744,3.744,0,0,1-.652,2.535,3.425,3.425,0,0,1-2.417,1.423,6.6,6.6,0,0,1-.811.033q-14.871.007-29.741.017a8.662,8.662,0,0,1-5.972-2.113,7.134,7.134,0,0,1-.385-10.507,1.088,1.088,0,0,0,.333-.847q-.013-10.684-.008-21.367A3.633,3.633,0,0,1,4.494,8.17,9.655,9.655,0,0,1,5.96,7.712V6.185c-.937-.264-1.054-1.006-1.027-1.861.031-.963,0-1.928.009-2.893A1.278,1.278,0,0,1,6.345.007q2.944-.016,5.887,0a1.3,1.3,0,0,1,1.435,1.407c.016,1.1.009,2.2,0,3.3a1.38,1.38,0,0,1-.825,1.39.46.46,0,0,0-.232.321,2.31,2.31,0,0,0,.032,1.145c.122.228.6.279.928.383a3.583,3.583,0,0,1,2.557,3.462c.019.912,0,1.824,0,2.809a4.082,4.082,0,0,1,2.7.136c.088.035.253-.045.348-.116a3.8,3.8,0,0,1,4.943-.106,1.622,1.622,0,0,0,.169.086c.685-.683,1.378-1.371,2.068-2.06.515-.514,1.015-1.043,1.545-1.541a1.254,1.254,0,0,1,1.995.087c.553.693.994,1.476,1.476,2.225a4.3,4.3,0,0,1,.229.474,5.568,5.568,0,0,1,3.043-.907,11.422,11.422,0,0,1,2.478.4,1.207,1.207,0,0,1,.691.78c.222.993.332,2.011.493,3.071a4,4,0,0,1,3.1.818,4.058,4.058,0,0,1,1.545,2.848c.747.146,1.457.273,2.161.426a1.176,1.176,0,0,1,.889.876,6.052,6.052,0,0,1-.13,4.146,1.46,1.46,0,0,1,.725,1.6c-.085.975-.15,1.951-.229,2.995,1.035-.076,1.4.721,1.806,1.468a1.513,1.513,0,0,1-.541,2.3,12.531,12.531,0,0,0-1.385,1.025c1.14-.206,2.281-.408,3.421-.617,1.286-.236,1.875.155,2.137,1.421.044.213.107.422.161.633ZM34.675,25.73l.2.039a.75.75,0,0,1-.112,1.5c-.169.007-.338,0-.507,0H10l.183,2.336c.987-.12,1.136.008,1.329,1.087a.658.658,0,0,0,.14.014c.134-.014.268-.036.4-.053a7.475,7.475,0,0,1,3.458.26,2.483,2.483,0,0,1,1.433,1.064,1.7,1.7,0,0,0,.548.6,7.718,7.718,0,0,1,2.833,2.771c.317.55.561,1.141.842,1.723.668-.251,1.327-.513,2-.744a.749.749,0,0,1,.57,1.385,4.272,4.272,0,0,1-.468.192l-3.987,1.52c.089.5.182.961.25,1.427a.751.751,0,0,1-.589.918.739.739,0,0,1-.887-.628c-.093-.367-.158-.742-.247-1.17-1.11.435-2.177.812-3.206,1.272a1.73,1.73,0,0,0-1.017,1.635,1.99,1.99,0,0,0,2.143,2.156c2.775.009,5.55,0,8.325,0a3.787,3.787,0,0,0,.4-.044c-.126-.67-.245-1.3-.362-1.931-.108-.582.1-.986.552-1.085.472-.1.823.194.944.809.145.74.285,1.482.424,2.2h6.077c-.087-.5-.176-.943-.24-1.393a.765.765,0,0,1,.577-.973c.424-.09.776.164.9.681.107.46.168.932.282,1.39.031.126.177.315.276.319.774.026,1.549.015,2.389.015-.143-.766-.277-1.473-.407-2.182-.108-.59.1-.995.545-1.088.49-.1.834.183.952.8.136.714.26,1.43.409,2.141a.465.465,0,0,0,.234.318,2.047,2.047,0,0,0,2.544-2.344q-.728-4.041-1.489-8.076a1.985,1.985,0,0,0-2.844-1.6c-1.362.5-2.717,1.029-4.074,1.546-.563.214-1.125.431-1.695.65.131.7.257,1.342.374,1.99a.8.8,0,0,1-.577,1.024c-.443.09-.8-.187-.913-.726-.117-.561-.22-1.125-.338-1.735-.329.121-.626.232-.924.338-.564.2-1,.061-1.155-.366-.168-.454.038-.835.6-1.051,2.73-1.041,5.458-2.088,8.2-3.108a3.438,3.438,0,0,1,4.01.955,9.746,9.746,0,0,1,.782,1.242c1.017-.6,2.008-1.255,3.063-1.781a2.024,2.024,0,0,0,1.264-1.814c.067-.949.2-1.892.312-2.893h-.533c-1.777,0-3.553.005-5.33-.005-.539,0-.836-.291-.837-.747,0-.432.277-.715.783-.761.245-.023.494,0,.728,0a1.869,1.869,0,0,0-1.391-2.265,1.223,1.223,0,0,1-1.128-1.235A1.8,1.8,0,0,0,36.017,20.7a1.741,1.741,0,0,0-1.783.456c.874.43,1.095.719.982,1.708-.108.947-.348,1.879-.541,2.869M4,23.428H4.59c1.742,0,3.484-.018,5.226.009a2.157,2.157,0,0,0,1.8-.557c.181-.194.319-.3.281-.614a3.823,3.823,0,0,1,1.364-3.53.77.77,0,0,0,.208-.553,3.717,3.717,0,0,1,.881-2.727,1.012,1.012,0,0,0,.216-1c-.405,0-.792,0-1.178,0-.609-.008-.937-.275-.937-.754s.335-.753.937-.766c.4-.009.8,0,1.225,0,0-.475,0-.879,0-1.283A2.118,2.118,0,0,0,12.257,9.3q-2.968-.01-5.936,0a4.012,4.012,0,0,0-.656.056,1.933,1.933,0,0,0-1.606,1.558c-.1.643-.077,1.3-.112,2.019H4.57c1.4,0,2.808-.007,4.211,0,.565,0,.887.3.887.763s-.319.749-.886.752c-1.218.008-2.435,0-3.653,0H4ZM5.818,34.106c-.379-.091-.808-.35-1.063-.232a5.742,5.742,0,0,0-3.037,6.584A6.407,6.407,0,0,0,7.521,45c1.62.067,3.245.027,4.868.032a1.111,1.111,0,0,0,.22-.052c-.077-.162-.139-.3-.2-.428a3.465,3.465,0,0,1,.84-4.2,7.788,7.788,0,0,1,1.964-1.009c1.466-.593,2.954-1.132,4.426-1.69a5.756,5.756,0,0,0-2.487-3.495c-.72-.49-.835-.485-1.558.075.487,1.348-.187,2.262-1.629,2.11a4.812,4.812,0,0,1-1.982-.539,2.175,2.175,0,0,0-2.585,0,3.626,3.626,0,0,1-2.732.491,1.27,1.27,0,0,1-.994-1.764c.035-.109.075-.217.148-.425M25.7,21.156c.2-.479.348-.929.565-1.343.363-.693.357-.916-.278-1.4a2.276,2.276,0,0,0-.943-.455A1.1,1.1,0,0,1,24,16.821,2.113,2.113,0,0,0,22.354,14.9a2.229,2.229,0,0,0-2.421.752c-.545.632-.709.655-1.463.236a2.219,2.219,0,0,0-2.405.053,1.978,1.978,0,0,0-1.036,2.1A1.638,1.638,0,0,1,14.2,20a2.065,2.065,0,0,0-.255,3.106c.091-.325.179-.646.271-.965a1.009,1.009,0,0,1,.762-.805A14.488,14.488,0,0,1,17.312,21a5.273,5.273,0,0,1,2.882.937,1.553,1.553,0,0,1,1.587-.784H25.7M3.986,32.4l.1.071c.1-.119.189-.241.289-.356a3.445,3.445,0,0,1,.767-.84,5.541,5.541,0,0,1,1.6-.575,18.332,18.332,0,0,1,2.006-.176c-.082-1.137-.178-2.263-.239-3.391a1.168,1.168,0,0,1,.9-1.3c.567-.088.592-.42.609-.834H3.986Zm44.494,8.77c-.2-.052-.35-.092-.5-.126q-2.468-.565-4.936-1.129c-.448-.1-.82-.3-.8-.824s.4-.7.853-.776q1.745-.312,3.489-.631c1.275-.235,2.55-.475,3.85-.718l-.182-.89c-.121.016-.2.024-.283.038-2.358.431-4.717.857-7.073,1.3-.447.084-.834.041-1.028-.4-.2-.468.032-.8.43-1.06.975-.639,1.941-1.291,2.91-1.94.571-.382,1.141-.768,1.74-1.171l-.482-.833c-1.835,1.082-3.641,2.138-5.429,3.224a.683.683,0,0,0-.2.575c.272,1.58.59,3.153.863,4.733a.482.482,0,0,0,.474.463c1,.169,1.994.36,2.991.538,1.043.186,2.087.368,3.179.56l.138-.931M28.913,25.828l.123-.136c-.093-.45-.027-.838.427-1.028s.767.1,1.058.395a.873.873,0,0,1,.106.109,1.3,1.3,0,0,0,1.385.581c.165-.026.339.01.506-.01.107-.013.256-.048.3-.124a5.42,5.42,0,0,0,.877-2.906H21.689a5.853,5.853,0,0,0,.632,2.508.876.876,0,0,0,.893.551,1.606,1.606,0,0,0,1.562-.67.733.733,0,0,1,.334-.3,1.288,1.288,0,0,1,.787-.082c.205.1.311.427.429.669.042.085-.009.216-.031.506a9.611,9.611,0,0,0,.942-.439.822.822,0,0,1,.987.016,6.474,6.474,0,0,0,.689.36m4.262-6.082,1.935-.63c.062-.02.147-.031.179-.075a10.282,10.282,0,0,0,1.018-1.5,4.26,4.26,0,0,0,.2-2.971.687.687,0,0,0-.409-.412A4.694,4.694,0,0,0,30.3,17.808a3.922,3.922,0,0,1,.711.209.574.574,0,0,0,.783-.188c.423-.46.877-.891,1.32-1.333.506-.5.961-.578,1.309-.217s.266.8-.218,1.273c-.505.5-1.022.983-1.537,1.477l.512.717M6.494,4.639h5.624V1.555H6.494Zm8.987,27.94a4.466,4.466,0,0,0-.538-.249,6.273,6.273,0,0,0-3.689.071,1.631,1.631,0,0,1-1.006.048A6.351,6.351,0,0,0,7.3,32.139a8.554,8.554,0,0,0-1.288.316c0,.059.007.118.01.177a9.625,9.625,0,0,1,1.3.333,1.1,1.1,0,0,1,.634.552,1.179,1.179,0,0,1-.255.8c-.106.163-.355.233-.541.344l.171.193a5.553,5.553,0,0,0,2.5-.992c.853-.586.854-.584,1.684-.012a5.323,5.323,0,0,0,2.623,1,4.126,4.126,0,0,0-.336-.37.89.89,0,0,1-.409-1.006c.136-.424.508-.489.882-.566.355-.073.7-.187,1.2-.325m2-6.836c-.4-.691-.38-1.061.006-1.34.354-.256.738-.164,1.2.289a4.141,4.141,0,0,1,.5.505,1.419,1.419,0,0,0,1.665.488,7.677,7.677,0,0,0-.68-1.718,4.138,4.138,0,0,0-4.246-1.326.6.6,0,0,0-.356.34,3.942,3.942,0,0,0,.108,2.483.45.45,0,0,0,.291.266c.483.029.968.013,1.52.013m11.894-9.976c.244-.341.508-.673.725-1.032a.787.787,0,0,0,.111-.545,5.5,5.5,0,0,0-1.339-2.37c-1.179,1.176-2.352,2.342-3.516,3.516a.377.377,0,0,0-.086.307c.127.459.192.973.824,1.051a.747.747,0,0,1,.353.189c.5.42.983.851,1.506,1.307.322-.177.958-.13.8-.911a8.471,8.471,0,0,1-.848-.005.751.751,0,0,1,.031-1.5c.468-.021.938,0,1.435,0M36.9,19.378a3.61,3.61,0,0,1,2,2.38c.1.375.3.354.6.145a8.364,8.364,0,0,1,1.5-.916.547.547,0,0,0,.394-.717,2.516,2.516,0,0,0-1.934-1.981A2.4,2.4,0,0,0,36.9,19.378m4.528,4.929c.093-.081.177-.157.263-.229a.761.761,0,0,1,1.128-.039.752.752,0,0,1-.075,1.122,3.918,3.918,0,0,1-.554.406l.135.176c.569,0,1.138.014,1.705-.012.109-.005.252-.147.31-.261a4.137,4.137,0,0,0,.3-2.95.484.484,0,0,0-.269-.312,4.171,4.171,0,0,0-3.74.742l.8,1.358M27.4,21.12h4.669a2.378,2.378,0,0,0-2.454-1.8,2.339,2.339,0,0,0-2.215,1.8M11.051,6.243H7.534V7.749h3.517Zm1.6,17.777a2.421,2.421,0,0,0-1.2,1.687h2.681c-.175-.908-1.186-.952-1.485-1.687" transform="translate(0 0)" fill="#133d60"/>
        <path id="Trazado_128960" data-name="Trazado 128960" d="M75.656,81.375a2.312,2.312,0,0,1,1.482-2.064,2.346,2.346,0,0,1,2.531.51.753.753,0,1,1-.963,1.158c-.836-.563-1.3-.382-1.569.6a.754.754,0,0,1-.838.633.771.771,0,0,1-.644-.841" transform="translate(-59.67 -62.417)" fill="#133d60"/>
        <path id="Trazado_128961" data-name="Trazado 128961" d="M99.306,89.99c-.121.138-.266.449-.483.511A1.533,1.533,0,0,1,98,90.346c-.1-.037-.157-.212-.243-.315a.63.63,0,0,0-1.065.037c-.12.16-.224.41-.378.448a1.087,1.087,0,0,1-.826-.04,1.019,1.019,0,0,1-.26-.833,2.107,2.107,0,0,1,1.962-1.419,2.214,2.214,0,0,1,2.042,1.328,3.9,3.9,0,0,1,.076.437" transform="translate(-75.095 -69.582)" fill="#133d60"/>
        <path id="Trazado_128962" data-name="Trazado 128962" d="M107.973,109.161c.186,0,.372-.012.557,0a.7.7,0,0,1,.7.67.671.671,0,0,1-.613.791,5.259,5.259,0,0,1-1.256,0,.676.676,0,0,1-.629-.78.7.7,0,0,1,.736-.689c.168-.008.337,0,.506,0v0" transform="translate(-84.176 -86.091)" fill="#133d60"/>
        <path id="Trazado_128963" data-name="Trazado 128963" d="M144.842,109.179a4.787,4.787,0,0,1,.606,0,.679.679,0,0,1,.631.678.639.639,0,0,1-.532.749,5.6,5.6,0,0,1-1.4.008.644.644,0,0,1-.556-.777.677.677,0,0,1,.646-.661,4.912,4.912,0,0,1,.606,0v0" transform="translate(-113.247 -86.101)" fill="#133d60"/>
        <path id="Trazado_128964" data-name="Trazado 128964" d="M130.184,62.307a2.258,2.258,0,0,1-1.449,1.467.735.735,0,0,1-.645-1.114,4.105,4.105,0,0,1,.993-.992.716.716,0,0,1,1.1.638" transform="translate(-100.933 -48.541)" fill="#133d60"/>
      </g>
    </g>
    <path id="Trazado_129344" data-name="Trazado 129344" d="M15.142,0A15.142,15.142,0,1,1,0,15.142,15.142,15.142,0,0,1,15.142,0Z" transform="translate(810 6914)" fill="#fcd189"/>
    <path id="Trazado_129345" data-name="Trazado 129345" d="M-1.436-6.365H-.271A1.211,1.211,0,0,0,1.113-7.72a1.172,1.172,0,0,0-.33-.861,1.25,1.25,0,0,0-.93-.333A1.338,1.338,0,0,0-1-8.628a.871.871,0,0,0-.363.71H-3.831a2.527,2.527,0,0,1,.469-1.5,3.1,3.1,0,0,1,1.3-1.029,4.445,4.445,0,0,1,1.827-.37,4.367,4.367,0,0,1,2.8.813A2.7,2.7,0,0,1,3.582-7.771a2.253,2.253,0,0,1-.421,1.3,3,3,0,0,1-1.227.992,2.867,2.867,0,0,1,1.333.934A2.459,2.459,0,0,1,3.75-3,2.752,2.752,0,0,1,2.651-.71,4.56,4.56,0,0,1-.234.146a4.729,4.729,0,0,1-1.945-.4A3.047,3.047,0,0,1-3.538-1.359,2.875,2.875,0,0,1-4-2.966h2.483a1.111,1.111,0,0,0,.4.85,1.4,1.4,0,0,0,.974.359A1.463,1.463,0,0,0,.894-2.12a1.212,1.212,0,0,0,.388-.927,1.417,1.417,0,0,0-.4-1.143A1.684,1.684,0,0,0-.234-4.526h-1.2Z" transform="translate(825.249 6934.057)" fill="#12263f"/>
  </g>
</svg>
