<svg xmlns="http://www.w3.org/2000/svg" xmlns:xlink="http://www.w3.org/1999/xlink" width="295" height="85" viewBox="0 0 295 85">
  <defs>
    <clipPath id="clip-path">
      <rect id="Rectángulo_36339" data-name="Rectángulo 36339" width="41.577" height="49.611" fill="#133d60"/>
    </clipPath>
  </defs>
  <g id="Grupo_136241" data-name="Grupo 136241" transform="translate(-1125 -6887)">
    <path id="Trazado_129352" data-name="Trazado 129352" d="M37.5,0H220.756a37.5,37.5,0,0,1,0,75H37.5a37.5,37.5,0,0,1,0-75Z" transform="translate(1161.744 6892)" fill="#133d60"/>
    <path id="Trazado_129355" data-name="Trazado 129355" d="M10.063,15H8.555V9.742H2.82V15H1.32V3.625h1.5V8.516H8.555V3.625h1.508Zm4.008,0H12.625V6.547H14.07ZM12.508,4.3a.863.863,0,0,1,.215-.594.807.807,0,0,1,.637-.242A.819.819,0,0,1,14,3.711a.854.854,0,0,1,.219.594A.826.826,0,0,1,14,4.891a.834.834,0,0,1-.641.234.821.821,0,0,1-.637-.234A.834.834,0,0,1,12.508,4.3Zm3.523,6.4a4.952,4.952,0,0,1,.922-3.129,2.915,2.915,0,0,1,2.414-1.184,2.932,2.932,0,0,1,2.352,1.016V3h1.445V15H21.836l-.07-.906a2.943,2.943,0,0,1-2.414,1.063,2.887,2.887,0,0,1-2.395-1.2,5.008,5.008,0,0,1-.926-3.141Zm1.445.164a3.749,3.749,0,0,0,.594,2.25,1.92,1.92,0,0,0,1.641.813A2.108,2.108,0,0,0,21.719,12.7V8.813a2.125,2.125,0,0,0-1.992-1.2,1.929,1.929,0,0,0-1.656.82A4.128,4.128,0,0,0,17.477,10.867ZM29.492,7.844a4.331,4.331,0,0,0-.711-.055A1.9,1.9,0,0,0,26.852,9v6H25.406V6.547h1.406l.023.977a2.251,2.251,0,0,1,2.016-1.133,1.477,1.477,0,0,1,.641.109ZM35.727,15a3.036,3.036,0,0,1-.2-.891,3.225,3.225,0,0,1-2.406,1.047,2.984,2.984,0,0,1-2.051-.707,2.287,2.287,0,0,1-.8-1.793,2.39,2.39,0,0,1,1-2.051,4.733,4.733,0,0,1,2.824-.73H35.5V9.211A1.623,1.623,0,0,0,35.047,8a1.821,1.821,0,0,0-1.336-.449,2.107,2.107,0,0,0-1.3.391,1.151,1.151,0,0,0-.523.945H30.438a2,2,0,0,1,.449-1.223,3.066,3.066,0,0,1,1.219-.934A4.1,4.1,0,0,1,33.8,6.391a3.342,3.342,0,0,1,2.289.73,2.635,2.635,0,0,1,.859,2.012v3.891a4.757,4.757,0,0,0,.3,1.852V15Zm-2.4-1.1a2.54,2.54,0,0,0,1.289-.352,2.127,2.127,0,0,0,.883-.914V10.9H34.367q-2.656,0-2.656,1.555a1.316,1.316,0,0,0,.453,1.063A1.742,1.742,0,0,0,33.328,13.9Zm7.844-9.4V6.547H42.75V7.664H41.172v5.249a1.173,1.173,0,0,0,.211.763.888.888,0,0,0,.719.254,3.5,3.5,0,0,0,.688-.094V15a4.215,4.215,0,0,1-1.109.155,1.8,1.8,0,0,1-1.461-.586,2.517,2.517,0,0,1-.492-1.664V7.664H38.188V6.547h1.539V4.5ZM49.656,15a3.036,3.036,0,0,1-.2-.891,3.225,3.225,0,0,1-2.406,1.047A2.984,2.984,0,0,1,45,14.449a2.287,2.287,0,0,1-.8-1.793,2.39,2.39,0,0,1,1-2.051,4.733,4.733,0,0,1,2.824-.73H49.43V9.211A1.623,1.623,0,0,0,48.977,8a1.821,1.821,0,0,0-1.336-.449,2.107,2.107,0,0,0-1.3.391,1.151,1.151,0,0,0-.523.945H44.367a2,2,0,0,1,.449-1.223,3.066,3.066,0,0,1,1.219-.934,4.1,4.1,0,0,1,1.691-.344,3.342,3.342,0,0,1,2.289.73,2.635,2.635,0,0,1,.859,2.012v3.891a4.757,4.757,0,0,0,.3,1.852V15Zm-2.4-1.1a2.54,2.54,0,0,0,1.289-.352,2.127,2.127,0,0,0,.883-.914V10.9H48.3q-2.656,0-2.656,1.555a1.316,1.316,0,0,0,.453,1.063A1.742,1.742,0,0,0,47.258,13.9Zm9.969-6.055a4.331,4.331,0,0,0-.711-.055A1.9,1.9,0,0,0,54.586,9v6H53.141V6.547h1.406l.023.977a2.251,2.251,0,0,1,2.016-1.133,1.477,1.477,0,0,1,.641.109Zm6.25,4.914a1.064,1.064,0,0,0-.441-.91,4.249,4.249,0,0,0-1.539-.559,7.277,7.277,0,0,1-1.742-.562,2.479,2.479,0,0,1-.953-.781,1.869,1.869,0,0,1-.309-1.078,2.193,2.193,0,0,1,.879-1.758,3.432,3.432,0,0,1,2.246-.719,3.532,3.532,0,0,1,2.332.742,2.357,2.357,0,0,1,.895,1.9H63.391a1.3,1.3,0,0,0-.5-1.023,1.888,1.888,0,0,0-1.27-.43,1.976,1.976,0,0,0-1.234.344,1.082,1.082,0,0,0-.445.9.877.877,0,0,0,.414.789,5.1,5.1,0,0,0,1.5.508A7.8,7.8,0,0,1,63.6,10.7a2.558,2.558,0,0,1,1,.809,1.988,1.988,0,0,1,.324,1.152,2.163,2.163,0,0,1-.906,1.816,3.8,3.8,0,0,1-2.352.684,4.257,4.257,0,0,1-1.8-.359,2.922,2.922,0,0,1-1.223-1A2.42,2.42,0,0,1,58.2,12.4h1.445a1.5,1.5,0,0,0,.582,1.152,2.258,2.258,0,0,0,1.434.426,2.331,2.331,0,0,0,1.316-.332A1.02,1.02,0,0,0,63.477,12.758Zm6.836,2.4a3.693,3.693,0,0,1-2.8-1.129,4.19,4.19,0,0,1-1.078-3.02v-.266a5.073,5.073,0,0,1,.48-2.246,3.748,3.748,0,0,1,1.344-1.547,3.378,3.378,0,0,1,1.871-.559A3.166,3.166,0,0,1,72.7,7.477a4.7,4.7,0,0,1,.914,3.109v.6H67.883a3,3,0,0,0,.73,2.02,2.3,2.3,0,0,0,1.777.77,2.517,2.517,0,0,0,1.3-.312,3.259,3.259,0,0,0,.93-.828l.883.688A3.55,3.55,0,0,1,70.313,15.156Zm-.18-7.578a1.928,1.928,0,0,0-1.469.637A3.1,3.1,0,0,0,67.93,10h4.234V9.891a2.753,2.753,0,0,0-.594-1.707A1.815,1.815,0,0,0,70.133,7.578Z" transform="translate(1247.744 6920)" fill="#fff"/>
    <path id="Trazado_129351" data-name="Trazado 129351" d="M42.5,0A42.5,42.5,0,1,1,0,42.5,42.5,42.5,0,0,1,42.5,0Z" transform="translate(1143 6887)" fill="#aed4f5"/>
    <g id="Grupo_136155" data-name="Grupo 136155" transform="translate(1165 6905)">
      <g id="Grupo_136155-2" data-name="Grupo 136155" clip-path="url(#clip-path)">
        <path id="Trazado_128965" data-name="Trazado 128965" d="M2.708,2.624c.123,1.49.235,2.891.356,4.291q.564,6.52,1.134,13.039.623,7.135,1.251,14.27c.269,3.071.519,6.143.812,9.211a3.815,3.815,0,0,0,3.826,3.548q10.683.04,21.367,0a3.9,3.9,0,0,0,3.883-3.72q.882-10.25,1.786-20.5.859-9.86,1.711-19.721c.009-.106,0-.214,0-.419h-.766q-5.5,0-11.01,0a3.282,3.282,0,0,1-.9-.1A1.249,1.249,0,0,1,25.3,1.154,1.253,1.253,0,0,1,26.4.039a4.676,4.676,0,0,1,.585-.02q6.449,0,12.9,0c1.343,0,1.8.516,1.68,1.843q-.78,8.886-1.547,17.774-.82,9.373-1.646,18.746c-.14,1.6-.3,3.2-.409,4.8A6.57,6.57,0,0,1,31.131,49.6c-6.753.011-13.507.019-20.26-.015a8.849,8.849,0,0,1-2.934-.421,6.1,6.1,0,0,1-4.254-5.417C3.014,36.7,2.44,29.651,1.825,22.6Q.941,12.483.041,2.365C-.12.587.119-.03,2.16,0,6.2.06,10.238.017,14.277.018a6.994,6.994,0,0,1,.716.016,1.275,1.275,0,0,1,.2,2.507,3.536,3.536,0,0,1-.838.079q-5.374.007-10.749,0Z" transform="translate(0 0.001)" fill="#133d60"/>
        <path id="Trazado_128966" data-name="Trazado 128966" d="M39.488,90.624q-5.081,0-10.163,0c-1.261,0-1.682-.36-1.794-1.624-.376-4.237-.731-8.477-1.1-12.715-.305-3.547-.62-7.092-.916-10.639-.09-1.084.15-1.421,1.2-1.767a16.874,16.874,0,0,1,12.927.725,15.529,15.529,0,0,0,11.995.926c1.077-.354,1.856.332,1.758,1.536-.215,2.661-.459,5.32-.691,7.979q-.558,6.389-1.116,12.779c-.04.454-.083.908-.123,1.362a1.375,1.375,0,0,1-1.563,1.437q-5.211.011-10.423,0m-9.426-2.662H48.971c.563-6.486,1.122-12.919,1.682-19.374a2.326,2.326,0,0,0-.389,0,17.421,17.421,0,0,1-11.4-1.5,14.472,14.472,0,0,0-7.313-1.5c-1.131.068-2.251.308-3.394.472.643,7.4,1.272,14.639,1.9,21.9" transform="translate(-18.735 -46.232)" fill="#133d60"/>
        <path id="Trazado_128967" data-name="Trazado 128967" d="M75.809,1.406A1.333,1.333,0,0,1,74.5,2.683a1.3,1.3,0,0,1-1.281-1.357A1.261,1.261,0,0,1,74.545.1a1.292,1.292,0,0,1,1.264,1.306" transform="translate(-53.789 -0.073)" fill="#133d60"/>
      </g>
    </g>
    <path id="Trazado_129353" data-name="Trazado 129353" d="M15.142,0A15.142,15.142,0,1,1,0,15.142,15.142,15.142,0,0,1,15.142,0Z" transform="translate(1125 6914)" fill="#fcd189"/>
    <path id="Trazado_129354" data-name="Trazado 129354" d="M2.827-4.167H3.911v1.9H2.827V0H.359V-2.263H-3.765l-.146-1.509,4.27-6.87v-.022H2.827Zm-4.387,0H.359V-7.449L.205-7.2Z" transform="translate(1140.249 6934.057)" fill="#12263f"/>
  </g>
</svg>
