<svg xmlns="http://www.w3.org/2000/svg" width="85" height="73.231" viewBox="0 0 85 73.231">
  <g id="Grupo_136120" data-name="Grupo 136120" transform="translate(11034.756 12017.259)">
    <path id="Trazado_99257" data-name="Trazado 99257" d="M418.506,104.83a2.148,2.148,0,1,1-2.147-2.051A2.1,2.1,0,0,1,418.506,104.83Z" transform="translate(-11447.244 -12118.313)" fill="#133d60"/>
    <path id="Trazado_99257_-_Contorno" data-name="Trazado 99257 - Contorno" d="M417.084,101.779a3.779,3.779,0,1,1-3.87,3.777A3.83,3.83,0,0,1,417.084,101.779Zm0,4.1a.337.337,0,1,0-.419-.328A.389.389,0,0,0,417.084,105.884Z" transform="translate(-11447.97 -12119.038)" fill="#133d60"/>
    <path id="Trazado_99258" data-name="Trazado 99258" d="M426.952,104.83a2.148,2.148,0,1,1-2.145-2.051A2.1,2.1,0,0,1,426.952,104.83Z" transform="translate(-11436.378 -12118.313)" fill="#133d60"/>
    <path id="Trazado_99258_-_Contorno" data-name="Trazado 99258 - Contorno" d="M425.533,101.779a3.779,3.779,0,1,1-3.873,3.777A3.829,3.829,0,0,1,425.533,101.779Zm0,4.1a.337.337,0,1,0-.422-.328A.387.387,0,0,0,425.533,105.884Z" transform="translate(-11437.103 -12119.038)" fill="#133d60"/>
    <path id="Trazado_99259" data-name="Trazado 99259" d="M435.4,104.83a2.148,2.148,0,1,1-2.145-2.051A2.1,2.1,0,0,1,435.4,104.83Z" transform="translate(-11425.509 -12118.313)" fill="#133d60"/>
    <path id="Trazado_99259_-_Contorno" data-name="Trazado 99259 - Contorno" d="M433.979,101.779a3.779,3.779,0,1,1-3.873,3.777A3.829,3.829,0,0,1,433.979,101.779Zm0,4.1a.337.337,0,1,0-.422-.328A.387.387,0,0,0,433.979,105.884Z" transform="translate(-11426.234 -12119.038)" fill="#133d60"/>
    <path id="Trazado_99260" data-name="Trazado 99260" d="M443.845,104.83a2.148,2.148,0,1,1-2.147-2.051A2.1,2.1,0,0,1,443.845,104.83Z" transform="translate(-11414.64 -12118.313)" fill="#133d60"/>
    <path id="Trazado_99260_-_Contorno" data-name="Trazado 99260 - Contorno" d="M442.423,101.779a3.779,3.779,0,1,1-3.87,3.777A3.83,3.83,0,0,1,442.423,101.779Zm0,4.1a.337.337,0,1,0-.419-.328A.389.389,0,0,0,442.423,105.884Z" transform="translate(-11415.366 -12119.038)" fill="#133d60"/>
    <path id="Trazado_99261" data-name="Trazado 99261" d="M452.291,104.83a2.148,2.148,0,1,1-2.145-2.051A2.1,2.1,0,0,1,452.291,104.83Z" transform="translate(-11403.772 -12118.313)" fill="#133d60"/>
    <path id="Trazado_99261_-_Contorno" data-name="Trazado 99261 - Contorno" d="M450.872,101.779A3.779,3.779,0,1,1,447,105.556,3.829,3.829,0,0,1,450.872,101.779Zm0,4.1a.337.337,0,1,0-.422-.328A.387.387,0,0,0,450.872,105.884Z" transform="translate(-11404.498 -12119.038)" fill="#133d60"/>
    <ellipse id="Elipse_3975" data-name="Elipse 3975" cx="2.146" cy="2.052" rx="2.146" ry="2.052" transform="translate(-11033.03 -11999.116)" fill="#133d60"/>
    <path id="Elipse_3975_-_Contorno" data-name="Elipse 3975 - Contorno" d="M2.872-1A3.83,3.83,0,0,1,6.743,2.778,3.83,3.83,0,0,1,2.872,6.556,3.83,3.83,0,0,1-1,2.778,3.83,3.83,0,0,1,2.872-1Zm0,4.1a.388.388,0,0,0,.42-.327.388.388,0,0,0-.42-.327.388.388,0,0,0-.42.327A.388.388,0,0,0,2.872,3.1Z" transform="translate(-11033.756 -11999.842)" fill="#133d60"/>
    <path id="Trazado_99268" data-name="Trazado 99268" d="M426.952,112.338a2.148,2.148,0,1,1-2.145-2.051A2.1,2.1,0,0,1,426.952,112.338Z" transform="translate(-11436.378 -12109.403)" fill="#133d60"/>
    <path id="Trazado_99268_-_Contorno" data-name="Trazado 99268 - Contorno" d="M425.533,109.287a3.779,3.779,0,1,1-3.873,3.777A3.829,3.829,0,0,1,425.533,109.287Zm0,4.1a.337.337,0,1,0-.422-.328A.387.387,0,0,0,425.533,113.392Z" transform="translate(-11437.103 -12110.129)" fill="#133d60"/>
    <ellipse id="Elipse_3976" data-name="Elipse 3976" cx="2.146" cy="2.052" rx="2.146" ry="2.052" transform="translate(-10994.402 -11999.116)" fill="#133d60"/>
    <path id="Elipse_3976_-_Contorno" data-name="Elipse 3976 - Contorno" d="M2.872-1A3.83,3.83,0,0,1,6.743,2.778,3.83,3.83,0,0,1,2.872,6.556,3.83,3.83,0,0,1-1,2.778,3.83,3.83,0,0,1,2.872-1Zm0,4.1a.388.388,0,0,0,.42-.327.388.388,0,0,0-.42-.327.388.388,0,0,0-.42.327A.388.388,0,0,0,2.872,3.1Z" transform="translate(-10995.129 -11999.842)" fill="#133d60"/>
    <path id="Trazado_99269" data-name="Trazado 99269" d="M443.845,112.338a2.148,2.148,0,1,1-2.147-2.051A2.1,2.1,0,0,1,443.845,112.338Z" transform="translate(-11414.64 -12109.403)" fill="#133d60"/>
    <path id="Trazado_99269_-_Contorno" data-name="Trazado 99269 - Contorno" d="M442.423,109.287a3.779,3.779,0,1,1-3.87,3.777A3.83,3.83,0,0,1,442.423,109.287Zm0,4.1a.337.337,0,1,0-.419-.328A.387.387,0,0,0,442.423,113.392Z" transform="translate(-11415.366 -12110.129)" fill="#133d60"/>
    <path id="Trazado_99270" data-name="Trazado 99270" d="M452.291,112.338a2.148,2.148,0,1,1-2.145-2.051A2.1,2.1,0,0,1,452.291,112.338Z" transform="translate(-11403.772 -12109.403)" fill="#133d60"/>
    <path id="Trazado_99270_-_Contorno" data-name="Trazado 99270 - Contorno" d="M450.872,109.287A3.779,3.779,0,1,1,447,113.064,3.829,3.829,0,0,1,450.872,109.287Zm0,4.1a.337.337,0,1,0-.422-.328A.388.388,0,0,0,450.872,113.392Z" transform="translate(-11404.498 -12110.129)" fill="#133d60"/>
    <path id="Trazado_99274" data-name="Trazado 99274" d="M418.506,119.847a2.148,2.148,0,1,1-2.147-2.053A2.1,2.1,0,0,1,418.506,119.847Z" transform="translate(-11447.244 -12100.494)" fill="#133d60"/>
    <path id="Trazado_99274_-_Contorno" data-name="Trazado 99274 - Contorno" d="M417.084,124.352a3.78,3.78,0,1,1,3.873-3.779A3.83,3.83,0,0,1,417.084,124.352Zm0-4.107a.338.338,0,1,0,.422.328A.387.387,0,0,0,417.084,120.245Z" transform="translate(-11447.97 -12101.22)" fill="#133d60"/>
    <path id="Trazado_99275" data-name="Trazado 99275" d="M426.952,119.847a2.148,2.148,0,1,1-2.145-2.053A2.1,2.1,0,0,1,426.952,119.847Z" transform="translate(-11436.378 -12100.494)" fill="#133d60"/>
    <path id="Trazado_99275_-_Contorno" data-name="Trazado 99275 - Contorno" d="M425.533,124.352a3.78,3.78,0,1,1,3.87-3.779A3.831,3.831,0,0,1,425.533,124.352Zm0-4.107a.338.338,0,1,0,.419.328A.387.387,0,0,0,425.533,120.245Z" transform="translate(-11437.103 -12101.22)" fill="#133d60"/>
    <path id="Trazado_99276" data-name="Trazado 99276" d="M435.4,119.847a2.148,2.148,0,1,1-2.145-2.053A2.1,2.1,0,0,1,435.4,119.847Z" transform="translate(-11425.509 -12100.494)" fill="#133d60"/>
    <path id="Trazado_99276_-_Contorno" data-name="Trazado 99276 - Contorno" d="M433.979,124.352a3.78,3.78,0,1,1,3.87-3.779A3.831,3.831,0,0,1,433.979,124.352Zm0-4.107a.338.338,0,1,0,0,.656.338.338,0,1,0,0-.656Z" transform="translate(-11426.234 -12101.22)" fill="#133d60"/>
    <path id="Trazado_99277" data-name="Trazado 99277" d="M443.845,119.847a2.148,2.148,0,1,1-2.147-2.053A2.1,2.1,0,0,1,443.845,119.847Z" transform="translate(-11414.64 -12100.494)" fill="#133d60"/>
    <path id="Trazado_99277_-_Contorno" data-name="Trazado 99277 - Contorno" d="M442.423,124.352a3.78,3.78,0,1,1,3.873-3.779A3.83,3.83,0,0,1,442.423,124.352Zm0-4.107a.338.338,0,1,0,.422.328A.387.387,0,0,0,442.423,120.245Z" transform="translate(-11415.366 -12101.22)" fill="#133d60"/>
    <path id="Trazado_99278" data-name="Trazado 99278" d="M452.291,119.847a2.148,2.148,0,1,1-2.145-2.053A2.1,2.1,0,0,1,452.291,119.847Z" transform="translate(-11403.772 -12100.494)" fill="#133d60"/>
    <path id="Trazado_99278_-_Contorno" data-name="Trazado 99278 - Contorno" d="M450.872,124.352a3.78,3.78,0,1,1,3.871-3.779A3.831,3.831,0,0,1,450.872,124.352Zm0-4.107a.338.338,0,1,0,.419.328A.387.387,0,0,0,450.872,120.245Z" transform="translate(-11404.498 -12101.22)" fill="#133d60"/>
    <ellipse id="Elipse_3980" data-name="Elipse 3980" cx="2.146" cy="2.052" rx="2.146" ry="2.052" transform="translate(-11033.03 -11966.279)" fill="#133d60"/>
    <path id="Elipse_3980_-_Contorno" data-name="Elipse 3980 - Contorno" d="M2.872-1A3.83,3.83,0,0,1,6.743,2.778,3.83,3.83,0,0,1,2.872,6.556,3.83,3.83,0,0,1-1,2.778,3.83,3.83,0,0,1,2.872-1Zm0,4.1a.388.388,0,0,0,.42-.327.388.388,0,0,0-.42-.327.388.388,0,0,0-.42.327A.388.388,0,0,0,2.872,3.1Z" transform="translate(-11033.756 -11967.005)" fill="#133d60"/>
    <path id="Trazado_99285" data-name="Trazado 99285" d="M426.952,127.355a2.148,2.148,0,1,1-2.145-2.053A2.1,2.1,0,0,1,426.952,127.355Z" transform="translate(-11436.378 -12091.583)" fill="#133d60"/>
    <path id="Trazado_99285_-_Contorno" data-name="Trazado 99285 - Contorno" d="M425.533,131.858a3.779,3.779,0,1,1,3.87-3.777A3.83,3.83,0,0,1,425.533,131.858Zm0-4.1a.337.337,0,1,0,.419.328A.387.387,0,0,0,425.533,127.753Z" transform="translate(-11437.103 -12092.308)" fill="#133d60"/>
    <ellipse id="Elipse_3981" data-name="Elipse 3981" cx="2.146" cy="2.052" rx="2.146" ry="2.052" transform="translate(-10994.402 -11966.279)" fill="#133d60"/>
    <path id="Elipse_3981_-_Contorno" data-name="Elipse 3981 - Contorno" d="M2.872-1A3.83,3.83,0,0,1,6.743,2.778,3.83,3.83,0,0,1,2.872,6.556,3.83,3.83,0,0,1-1,2.778,3.83,3.83,0,0,1,2.872-1Zm0,4.1a.388.388,0,0,0,.42-.327.388.388,0,0,0-.42-.327.388.388,0,0,0-.42.327A.388.388,0,0,0,2.872,3.1Z" transform="translate(-10995.129 -11967.005)" fill="#133d60"/>
    <path id="Trazado_99286" data-name="Trazado 99286" d="M443.845,127.355A2.148,2.148,0,1,1,441.7,125.3,2.1,2.1,0,0,1,443.845,127.355Z" transform="translate(-11414.64 -12091.583)" fill="#133d60"/>
    <path id="Trazado_99286_-_Contorno" data-name="Trazado 99286 - Contorno" d="M442.423,131.858a3.779,3.779,0,1,1,3.873-3.777A3.829,3.829,0,0,1,442.423,131.858Zm0-4.1a.337.337,0,1,0,.422.328A.387.387,0,0,0,442.423,127.753Z" transform="translate(-11415.366 -12092.308)" fill="#133d60"/>
    <path id="Trazado_99287" data-name="Trazado 99287" d="M452.291,127.355a2.148,2.148,0,1,1-2.145-2.053A2.1,2.1,0,0,1,452.291,127.355Z" transform="translate(-11403.772 -12091.583)" fill="#133d60"/>
    <path id="Trazado_99287_-_Contorno" data-name="Trazado 99287 - Contorno" d="M450.872,131.858a3.779,3.779,0,1,1,3.871-3.777A3.83,3.83,0,0,1,450.872,131.858Zm0-4.1a.337.337,0,1,0,.419.328A.387.387,0,0,0,450.872,127.753Z" transform="translate(-11404.498 -12092.308)" fill="#133d60"/>
    <ellipse id="Elipse_3985" data-name="Elipse 3985" cx="2.146" cy="2.052" rx="2.146" ry="2.052" transform="translate(-11033.03 -11949.86)" fill="#133d60"/>
    <path id="Elipse_3985_-_Contorno" data-name="Elipse 3985 - Contorno" d="M2.872-1A3.83,3.83,0,0,1,6.743,2.778,3.83,3.83,0,0,1,2.872,6.556,3.83,3.83,0,0,1-1,2.778,3.83,3.83,0,0,1,2.872-1Zm0,4.1a.388.388,0,0,0,.42-.327.388.388,0,0,0-.42-.327.388.388,0,0,0-.42.327A.388.388,0,0,0,2.872,3.1Z" transform="translate(-11033.756 -11950.587)" fill="#133d60"/>
    <path id="Trazado_99291" data-name="Trazado 99291" d="M426.952,134.863a2.148,2.148,0,1,1-2.145-2.053A2.1,2.1,0,0,1,426.952,134.863Z" transform="translate(-11436.378 -12082.67)" fill="#133d60"/>
    <path id="Trazado_99291_-_Contorno" data-name="Trazado 99291 - Contorno" d="M425.533,139.366a3.779,3.779,0,1,1,3.87-3.777A3.83,3.83,0,0,1,425.533,139.366Zm0-4.1a.337.337,0,1,0,.419.328A.389.389,0,0,0,425.533,135.261Z" transform="translate(-11437.103 -12083.395)" fill="#133d60"/>
    <ellipse id="Elipse_3986" data-name="Elipse 3986" cx="2.146" cy="2.052" rx="2.146" ry="2.052" transform="translate(-10994.402 -11949.86)" fill="#133d60"/>
    <path id="Elipse_3986_-_Contorno" data-name="Elipse 3986 - Contorno" d="M2.872-1A3.83,3.83,0,0,1,6.743,2.778,3.83,3.83,0,0,1,2.872,6.556,3.83,3.83,0,0,1-1,2.778,3.83,3.83,0,0,1,2.872-1Zm0,4.1a.388.388,0,0,0,.42-.327.388.388,0,0,0-.42-.327.388.388,0,0,0-.42.327A.388.388,0,0,0,2.872,3.1Z" transform="translate(-10995.129 -11950.587)" fill="#133d60"/>
    <path id="Trazado_99292" data-name="Trazado 99292" d="M443.845,134.863a2.148,2.148,0,1,1-2.147-2.053A2.1,2.1,0,0,1,443.845,134.863Z" transform="translate(-11414.64 -12082.67)" fill="#133d60"/>
    <path id="Trazado_99292_-_Contorno" data-name="Trazado 99292 - Contorno" d="M442.423,139.366a3.779,3.779,0,1,1,3.873-3.777A3.829,3.829,0,0,1,442.423,139.366Zm0-4.1a.337.337,0,1,0,.422.328A.387.387,0,0,0,442.423,135.261Z" transform="translate(-11415.366 -12083.395)" fill="#133d60"/>
    <path id="Trazado_99293" data-name="Trazado 99293" d="M452.291,134.863a2.148,2.148,0,1,1-2.145-2.053A2.1,2.1,0,0,1,452.291,134.863Z" transform="translate(-11403.772 -12082.67)" fill="#133d60"/>
    <path id="Trazado_99293_-_Contorno" data-name="Trazado 99293 - Contorno" d="M450.872,139.366a3.779,3.779,0,1,1,3.871-3.777A3.83,3.83,0,0,1,450.872,139.366Zm0-4.1a.337.337,0,1,0,.419.328A.389.389,0,0,0,450.872,135.261Z" transform="translate(-11404.498 -12083.395)" fill="#133d60"/>
  </g>
</svg>
