<svg xmlns="http://www.w3.org/2000/svg" xmlns:xlink="http://www.w3.org/1999/xlink" width="109.899" height="107" viewBox="0 0 109.899 107">
  <defs>
    <clipPath id="clip-path">
      <rect id="Rectángulo_36355" data-name="Rectángulo 36355" width="76.039" height="100.65" fill="none"/>
    </clipPath>
  </defs>
  <g id="Grupo_136163" data-name="Grupo 136163" transform="translate(-642 -8787.001)">
    <g id="Grupo_136080" data-name="Grupo 136080" transform="translate(642 8787)">
      <g id="Grupo_135992" data-name="Grupo 135992" transform="translate(0 0)">
        <circle id="Elipse_4973" data-name="Elipse 4973" cx="53.5" cy="53.5" r="53.5" transform="translate(0 0.001)" fill="#ffb12e"/>
        <g id="Grupo_134517" data-name="Grupo 134517" transform="translate(109.899 62.053) rotate(180)">
          <path id="Trazado_113538" data-name="Trazado 113538" d="M23.092,3.491c-1.053,0-1.573-.84-1.99-1.516s-.709-1.1-1.248-1.1-.825.419-1.247,1.1-.937,1.516-1.99,1.516-1.573-.84-1.99-1.516-.709-1.1-1.247-1.1-.825.419-1.247,1.1-.937,1.516-1.99,1.516-1.572-.84-1.989-1.516S7.446.873,6.908.873s-.824.419-1.246,1.1S4.725,3.491,3.672,3.491,2.1,2.651,1.683,1.975.975.873.437.873A.436.436,0,1,1,.437,0C1.489,0,2.008.841,2.426,1.516s.708,1.1,1.246,1.1S4.5,2.2,4.919,1.516,5.856,0,6.908,0,8.479.841,8.9,1.516s.708,1.1,1.247,1.1.825-.419,1.247-1.1S12.327,0,13.38,0s1.572.841,1.99,1.516.708,1.1,1.247,1.1.825-.419,1.247-1.1S18.8,0,19.854,0s1.573.841,1.991,1.516.709,1.1,1.248,1.1.826-.419,1.248-1.1S25.278,0,26.331,0a.436.436,0,1,1,0,.873c-.539,0-.826.419-1.248,1.1S24.146,3.491,23.092,3.491Z" transform="translate(0 0)" fill="#133d60"/>
          <path id="Trazado_126924" data-name="Trazado 126924" d="M23.092,3.491c-1.053,0-1.573-.84-1.99-1.516s-.709-1.1-1.248-1.1-.825.419-1.247,1.1-.937,1.516-1.99,1.516-1.573-.84-1.99-1.516-.709-1.1-1.247-1.1-.825.419-1.247,1.1-.937,1.516-1.99,1.516-1.572-.84-1.989-1.516S7.446.873,6.908.873s-.824.419-1.246,1.1S4.725,3.491,3.672,3.491,2.1,2.651,1.683,1.975.975.873.437.873A.436.436,0,1,1,.437,0C1.489,0,2.008.841,2.426,1.516s.708,1.1,1.246,1.1S4.5,2.2,4.919,1.516,5.856,0,6.908,0,8.479.841,8.9,1.516s.708,1.1,1.247,1.1.825-.419,1.247-1.1S12.327,0,13.38,0s1.572.841,1.99,1.516.708,1.1,1.247,1.1.825-.419,1.247-1.1S18.8,0,19.854,0s1.573.841,1.991,1.516.709,1.1,1.248,1.1.826-.419,1.248-1.1S25.278,0,26.331,0a.436.436,0,1,1,0,.873c-.539,0-.826.419-1.248,1.1S24.146,3.491,23.092,3.491Z" transform="translate(0 8.059)" fill="#133d60"/>
          <path id="Trazado_113539" data-name="Trazado 113539" d="M23.092,3.491c-1.053,0-1.573-.84-1.99-1.516s-.709-1.1-1.248-1.1-.825.419-1.247,1.1-.937,1.516-1.99,1.516-1.573-.84-1.99-1.516-.709-1.1-1.247-1.1-.825.419-1.247,1.1-.937,1.516-1.99,1.516-1.572-.84-1.989-1.516S7.446.873,6.908.873s-.824.419-1.246,1.1S4.725,3.491,3.672,3.491,2.1,2.651,1.683,1.975.975.873.437.873A.436.436,0,1,1,.437,0C1.489,0,2.008.841,2.426,1.516s.708,1.1,1.246,1.1S4.5,2.2,4.919,1.516,5.856,0,6.908,0,8.479.841,8.9,1.516s.708,1.1,1.247,1.1.825-.419,1.247-1.1S12.327,0,13.38,0s1.572.841,1.99,1.516.708,1.1,1.247,1.1.825-.419,1.247-1.1S18.8,0,19.854,0s1.573.841,1.991,1.516.709,1.1,1.248,1.1.826-.419,1.248-1.1S25.278,0,26.331,0a.436.436,0,1,1,0,.873c-.539,0-.826.419-1.248,1.1S24.146,3.491,23.092,3.491Z" transform="translate(0 4.03)" fill="#133d60"/>
          <path id="Trazado_126923" data-name="Trazado 126923" d="M23.092,3.491c-1.053,0-1.573-.84-1.99-1.516s-.709-1.1-1.248-1.1-.825.419-1.247,1.1-.937,1.516-1.99,1.516-1.573-.84-1.99-1.516-.709-1.1-1.247-1.1-.825.419-1.247,1.1-.937,1.516-1.99,1.516-1.572-.84-1.989-1.516S7.446.873,6.908.873s-.824.419-1.246,1.1S4.725,3.491,3.672,3.491,2.1,2.651,1.683,1.975.975.873.437.873A.436.436,0,1,1,.437,0C1.489,0,2.008.841,2.426,1.516s.708,1.1,1.246,1.1S4.5,2.2,4.919,1.516,5.856,0,6.908,0,8.479.841,8.9,1.516s.708,1.1,1.247,1.1.825-.419,1.247-1.1S12.327,0,13.38,0s1.572.841,1.99,1.516.708,1.1,1.247,1.1.825-.419,1.247-1.1S18.8,0,19.854,0s1.573.841,1.991,1.516.709,1.1,1.248,1.1.826-.419,1.248-1.1S25.278,0,26.331,0a.436.436,0,1,1,0,.873c-.539,0-.826.419-1.248,1.1S24.146,3.491,23.092,3.491Z" transform="translate(0 12.089)" fill="#133d60"/>
        </g>
      </g>
      <g id="Grupo_135995" data-name="Grupo 135995" transform="translate(10.549 39.862)">
        <path id="Trazado_113320" data-name="Trazado 113320" d="M2602.212,1501.185a6.741,6.741,0,1,1,6.741-6.741A6.749,6.749,0,0,1,2602.212,1501.185Zm0-10.3a3.558,3.558,0,1,0,3.558,3.558A3.562,3.562,0,0,0,2602.212,1490.886Z" transform="translate(-2595.472 -1487.703)" fill="#133d60"/>
      </g>
    </g>
    <g id="Grupo_136162" data-name="Grupo 136162" transform="translate(660.737 8788.964)" clip-path="url(#clip-path)">
      <path id="Trazado_128976" data-name="Trazado 128976" d="M20.918,54.657c-1.236.276-1.7.049-2.244-1.106a1.993,1.993,0,0,1-.241-.533c-.242-1.846-1.4-2.074-3.025-1.993-2.677.135-5.366.042-8.05.035a6.978,6.978,0,0,1-7.15-5.375,6.916,6.916,0,0,1,3.825-7.9,1.3,1.3,0,0,0,.634-.68,9.857,9.857,0,0,1,7.3-5.929c.628-.131.76-.377.74-.954-.041-1.21-.039-2.423,0-3.633.017-.532-.167-.641-.667-.649a27.942,27.942,0,0,1-4.8-.142A8.822,8.822,0,0,1,6.191,8.712a1.4,1.4,0,0,0,1.038-.985,6.088,6.088,0,0,1,6.147-3.961,1.939,1.939,0,0,0,1.55-.558A12.4,12.4,0,0,1,21.4.18c.131-.019.257-.029.3-.181h3.342a11.172,11.172,0,0,1,4.031.976,1.1,1.1,0,0,0,.862.047A21.82,21.82,0,0,1,35.462,0h3.931a.255.255,0,0,0,.393,0h.786a22.219,22.219,0,0,1,6.1,1.248,30.574,30.574,0,0,1,3.734,1.731,1.637,1.637,0,0,0,1.83.075,1.688,1.688,0,0,1,1.022-.311,4.57,4.57,0,0,0,3.288-1.233A8.35,8.35,0,0,1,61.015,0h.393c.512.247,1.077-.022,1.6.164A1.517,1.517,0,0,1,64.185,1.77c.239.6-.145.923-.569,1.2A2.639,2.639,0,0,1,62.2,3.3a6.645,6.645,0,0,0-5,2.142,2.42,2.42,0,0,1-2.306.763c-1.377-.189-1.978.222-2.294,1.529a2.357,2.357,0,0,1-2.061,1.81,3.74,3.74,0,0,0,.373,7.394,9.8,9.8,0,0,0,2.252.086c4.879,0,9.758-.015,14.638-.008a8.878,8.878,0,0,0,1.856-.149,3.666,3.666,0,0,0,3.028-3.07,3.589,3.589,0,0,0-2.208-3.975,3.249,3.249,0,0,1-2.021-2.1,10.444,10.444,0,0,0-1.088-1.974,1.463,1.463,0,0,1,.333-2.2c1.2-.563,1.755-.523,2.4.581a13.944,13.944,0,0,0,3.628,4.025,6.532,6.532,0,0,1,1.828,7.5,6.943,6.943,0,0,1-6.509,4.52c-1.865.043-3.732.02-5.6,0-.5,0-.6.079-.575.651.071,1.634.549,2.555,2.4,2.988A8.836,8.836,0,0,1,71.241,29.1a1.933,1.933,0,0,0,.946,1.025,6.944,6.944,0,0,1-3.046,13.15c-.295.005-.59.015-.884,0-1.509-.08-2.862-.018-4.055,1.277A5.364,5.364,0,0,1,60.147,46c-.63,0-.858.135-.946.837a21.037,21.037,0,0,1-10.924,16.4,1.375,1.375,0,0,0-.854,1.42c.057,1.766.036,3.536.008,5.3-.008.521.151.712.677.839,3.395.817,6.78,1.675,10.163,2.54a16.7,16.7,0,0,1,5.81,2.744c.976.718,1.1,1.18.637,2.353a1.389,1.389,0,0,1-2.15.454,23.263,23.263,0,0,0-3.209-1.837,18.082,18.082,0,0,0-2.615-.773c-.669-.162-1.347-.3-2-.505-.813-.26-1.2.045-1.446.82a15.124,15.124,0,0,1-2.516,4.863,15.778,15.778,0,0,1-12.423,6.318,16.027,16.027,0,0,1-15.6-11.094c-.346-1.09-.464-1.141-1.556-.874s-2.164.527-3.232.844A14.069,14.069,0,0,0,8.024,89.96c0,2.129.021,4.259-.011,6.387-.012.807.288,1.1,1.092,1.087,2.751-.03,5.5,0,8.254-.015,1.008,0,1.1-.11,1.116-1.148.015-1.081-.023-2.163.015-3.243.041-1.156.557-1.772,1.494-1.849a1.755,1.755,0,0,1,1.931,1.676,27.967,27.967,0,0,1,.063,3.337c.02,1.152.076,1.226,1.229,1.227q8.942.008,17.884,0c3.83-.047,7.659-.008,11.488-.022,1.4-.005,1.437-.045,1.451-1.419.009-.949-.04-1.9.033-2.847a1.976,1.976,0,0,1,1.029-1.782,1.635,1.635,0,0,1,2.442,1.358c.125,1.172.023,2.355.052,3.533.025,1.031.121,1.146,1.122,1.152,2.716.015,5.433.008,8.149,0,.542,0,1.109,0,1.105-.765-.013-2.812.175-5.63-.108-8.436a14.517,14.517,0,0,0-1.326-4.4c-.519-1.173-.307-1.881.628-2.391,1.294-.312,1.735-.106,2.329,1.107a16.644,16.644,0,0,1,1.754,7.275c.021,3.013.014,6.026.009,9.038,0,1.324-.509,1.823-1.852,1.823q-31.386,0-62.771,0c-1.335,0-1.836-.5-1.839-1.834q-.011-4.126,0-8.253A17.342,17.342,0,0,1,18.477,73.14c3.14-.772,6.269-1.585,9.415-2.331.573-.136.722-.363.712-.917-.032-1.833-.041-3.668.005-5.5a.988.988,0,0,0-.663-1.033,19.824,19.824,0,0,1-4.387-3.115c-.92-.851-.989-1.254-.427-2.409a1.32,1.32,0,0,1,1.832-.492,4.8,4.8,0,0,1,1.1.811A17.51,17.51,0,0,0,37.8,62.639,18.1,18.1,0,0,0,56,46.7a6.951,6.951,0,0,0-.361-3.184c-1.586-4.337-3.2-8.662-4.768-13.007a3.029,3.029,0,0,0-.991-1.656c-.622-.475-1.04-.24-1.464.33a20.116,20.116,0,0,1-13.983,8.181,44.482,44.482,0,0,1-6.655.245,6.139,6.139,0,0,0-5.687,3.182,39.418,39.418,0,0,0-1.868,3.67,4.564,4.564,0,0,0-.141,2.608,20.186,20.186,0,0,0,1.6,5.438,1.446,1.446,0,0,1-.771,2.153" transform="translate(0 0.001)"/>
      <path id="Trazado_128977" data-name="Trazado 128977" d="M216.159.164c-.533-.043-1.1.236-1.6-.164h1.573q.015.082.023.164" transform="translate(-153.155)" fill="#848484"/>
      <path id="Trazado_128978" data-name="Trazado 128978" d="M138.035,0c-.131.239-.262.207-.393,0Z" transform="translate(-98.249)" fill="#404040"/>
      <path id="Trazado_128979" data-name="Trazado 128979" d="M86.888,133.257A17.672,17.672,0,0,1,74.7,128.5c-1.028-.915-1.388-.961-2.5-.3l-2.215-3.177a1.715,1.715,0,0,0,.442-2.345,16.715,16.715,0,0,1-1.671-6.709,1.824,1.824,0,0,1,.068-.866,35.489,35.489,0,0,1,2.733-4.977,6.008,6.008,0,0,1,4.826-2.432,52.384,52.384,0,0,0,7.939-.358,19.492,19.492,0,0,0,13.049-8.125c.589-.835,1.075-.774,1.732-.221a2.42,2.42,0,0,1,.283,1.127c.006,3.555.02,7.109-.008,10.664a2.157,2.157,0,0,1-.081.577.741.741,0,0,1-.637.531,1.562,1.562,0,0,0-1.351,1.461,1.918,1.918,0,0,1-.835,1.281,1.818,1.818,0,0,1-2.8-.712c-.166-.357-.224-.75-.363-1.117a1.124,1.124,0,0,0-1.277-.832c-.671.087-.9.555-.95,1.174a4.31,4.31,0,0,0,6.725,3.6,1.988,1.988,0,0,1,.857-.45c.672.282.48.873.409,1.345a20.5,20.5,0,0,1-4.5,10.168,21.284,21.284,0,0,1-5.512,4.636,6.389,6.389,0,0,1-2.175.814" transform="translate(-49.064 -70.366)" fill="#fdd1a3"/>
      <path id="Trazado_128980" data-name="Trazado 128980" d="M169.319,271.163a1.778,1.778,0,0,0-.339,2.378,13.883,13.883,0,0,1,1.487,6.43c-.012,2.257-.017,4.515.009,6.772.006.533-.114.734-.694.729q-4.808-.041-9.617,0c-.519,0-.676-.165-.665-.673.029-1.308.021-2.617,0-3.926-.014-1.14-.5-1.717-1.422-1.735-.947-.019-1.5.6-1.517,1.762-.021,1.276-.025,2.552,0,3.828.012.517-.086.752-.684.747-4.252-.035-8.5-.035-12.755-.047-.059-.531.371-.728.693-.98a48.834,48.834,0,0,0,10.424-11.4,43.827,43.827,0,0,0,4.179-7.994,3.219,3.219,0,0,1,.624-1.211,12.364,12.364,0,0,1,5.385,2.342,1.727,1.727,0,0,0,2.445.006,15.769,15.769,0,0,1,2.438,2.972" transform="translate(-102.163 -189.758)" fill="#5391f8"/>
      <path id="Trazado_128981" data-name="Trazado 128981" d="M168.573,21.54a3.871,3.871,0,0,1-3.486-3.711,3.928,3.928,0,0,1,3.288-4.127,1.868,1.868,0,0,0,1.828-1.782,1.893,1.893,0,0,1,2.466-1.591,2.094,2.094,0,0,0,2.244-.741A6.7,6.7,0,0,1,180.1,7.468a1.694,1.694,0,0,0,1.92-1.282c.916.444,2.011.533,2.727,1.375.324.437.147.875-.01,1.3a25.091,25.091,0,0,1-5.386,8.67,32.422,32.422,0,0,1-3.553,3.36,2.927,2.927,0,0,1-2.05.732c-1.723-.089-3.453.079-5.176-.086" transform="translate(-117.837 -4.416)" fill="#e5f6fd"/>
      <path id="Trazado_128982" data-name="Trazado 128982" d="M177.275,24.969a26.671,26.671,0,0,1,3.726,0,5.191,5.191,0,0,0,4.432-1.732,28.114,28.114,0,0,0,7.656-10.74,3.5,3.5,0,0,0,.361-1.508l.8.4a1.848,1.848,0,0,0,.021,2.323c1,1.759,1.874,3.441,3.924,4.41,1.436.679,1.687,2.442,1.256,4.01a3.772,3.772,0,0,1-3.161,2.853,4.951,4.951,0,0,1-.876.087q-8.687.01-17.374.007a1.256,1.256,0,0,1-.762-.113" transform="translate(-126.539 -7.845)" fill="#d2eefc"/>
      <path id="Trazado_128983" data-name="Trazado 128983" d="M76,263.811a7.9,7.9,0,0,1-.88,2.474,48.51,48.51,0,0,1-14.585,18.6,3.412,3.412,0,0,0-.456.509c-6.222.011-12.445.015-18.667.047-.61,0-.683-.25-.674-.755.025-1.343.044-2.687-.008-4.029a1.467,1.467,0,0,0-2-1.473,1.439,1.439,0,0,0-.926,1.476c0,1.31-.024,2.621.009,3.93.015.592-.085.863-.787.854-3.144-.041-6.288-.014-9.433-.024-.314,0-.765.183-.749-.449.077-3.01-.288-6.046.167-9.028.961-6.294,4.658-10.271,10.734-12.063,1.033-.3,2.1-.494,3.132-.808.643-.2.893-.042,1.091.61,1.932,6.355,6.186,10.19,12.712,11.359A15.623,15.623,0,0,0,72.24,263.9c.225-.823.5-1.062,1.311-.765.793.289,1.631.458,2.449.679" transform="translate(-19.112 -187.728)" fill="#62a3fa"/>
      <path id="Trazado_128984" data-name="Trazado 128984" d="M22.862,30.317c-2.323.009-4.648.077-6.97.012A5.857,5.857,0,0,1,15,18.771c1.371-.243,2.122-.7,2.345-2.209a3.055,3.055,0,0,1,3.931-2.394,2.1,2.1,0,0,0,2.338-.714,9.882,9.882,0,0,1,13.4-1c.246.329.031.627-.08.92a34.22,34.22,0,0,1-6.539,10.5,44.391,44.391,0,0,1-6.009,5.589,5.423,5.423,0,0,1-1.526.86" transform="translate(-7.448 -7.346)" fill="#e5f6fd"/>
      <path id="Trazado_128985" data-name="Trazado 128985" d="M76.026,74.875a16.008,16.008,0,0,1-5.382.9c-1.471.062-2.947-.006-4.42.03a9.164,9.164,0,0,0-7,3.424c-.147.172-.292.346-.442.515-.015.018-.059.01-.195.029,0-1.7,0-3.381,0-5.066,0-1.732-.348-2.077-2.061-2.083-1.9-.007-1.9-.007-1.9-1.908,0-.851.029-1.7-.01-2.554-.026-.574.117-.809.754-.8,2.946.032,5.893.014,9.074.014-.653.856-1.212,1.586-1.769,2.317-.258.339-.513.679-.77,1.018a1.39,1.39,0,0,0-.031,1.885,1.447,1.447,0,0,0,1.867.354c.747-.332,1.476-.7,2.209-1.066Q73.422,68.193,80.9,64.5c1.743-.861,1.868-1.78.436-3.124-1.407-1.32-1.408-1.321.21-2.208.746-.409,1.477-1.094,2.246-1.141.807-.05.956,1.179,1.63,1.63a4.737,4.737,0,0,1,.63.61,1.3,1.3,0,0,1-.168,1.032,41.815,41.815,0,0,1-8.942,12.859c-.284.274-.638.444-.917.718" transform="translate(-38.978 -41.419)" fill="#b26d3c"/>
      <path id="Trazado_128986" data-name="Trazado 128986" d="M132.158,134.283a19.527,19.527,0,0,0,6.265-4.231,19.731,19.731,0,0,0,5.52-10.565,3.205,3.205,0,0,0,.064-2.1c-.206-.246,0-.435.114-.605.926-1.322,1.33-2.664.212-4.089q.019-6.34.037-12.681a2.028,2.028,0,0,1,.915,1.335q2.6,7.083,5.186,14.17a7.237,7.237,0,0,1-.069,3.871,18.388,18.388,0,0,1-17.953,14.927,2.463,2.463,0,0,1-.291-.037" transform="translate(-94.335 -71.392)" fill="#febc85"/>
      <path id="Trazado_128987" data-name="Trazado 128987" d="M129.45,80.466a47.262,47.262,0,0,1,3.219-3.516,42.967,42.967,0,0,0,6.808-11.092,9,9,0,0,0,5.318,1.368c2.124-.055,4.254.046,6.377-.04.884-.036,1.113.327,1.243,1.069a43.722,43.722,0,0,1,.385,7.627c0,2.29,0,2.29-2.269,2.341-1.27.028-1.671.433-1.688,1.74a16.731,16.731,0,0,1-.181,2.852c-.249-.646-.506-1.29-.746-1.94-.632-1.716-1.235-3.444-1.888-5.151a5.236,5.236,0,0,0-5.228-3.531,2.079,2.079,0,0,0-1.924,1.089,15.717,15.717,0,0,1-9.426,7.184" transform="translate(-92.402 -47.01)" fill="#985e34"/>
      <path id="Trazado_128988" data-name="Trazado 128988" d="M53.856,35.71a47.081,47.081,0,0,0,6.012-5.118,34.486,34.486,0,0,0,8.142-12.747A9.6,9.6,0,0,1,71.5,22.8a.917.917,0,0,1-.3,1.033q-2.366,2.557-4.695,5.148c-1,1.116-.928,1.845.25,2.78,1.552,1.231,1.491,1.189.386,2.787a2.583,2.583,0,0,1-2.495,1.229c-3.6-.093-7.194-.054-10.792-.065" transform="translate(-38.442 -12.738)" fill="#d2eefc"/>
      <path id="Trazado_128989" data-name="Trazado 128989" d="M101.814,268.416a12.8,12.8,0,0,1-12.239-9.144c-.222-.738-.185-1.131.692-1.241.74-.093,1.542-.6,2.171-.425s.54,1.217.83,1.854a9.53,9.53,0,0,0,9.253,5.553,9.394,9.394,0,0,0,8.342-6.682c.231-.8.525-.932,1.208-.627a4.145,4.145,0,0,0,.665.164c1.768.454,1.768.455,1.157,2.159a12.722,12.722,0,0,1-12.079,8.39" transform="translate(-63.857 -183.842)" fill="#e5f6fd"/>
      <path id="Trazado_128990" data-name="Trazado 128990" d="M123.2,245.01a6.39,6.39,0,0,1-12.638.005c-.141-1.008-.008-2.023-.073-3.032-.044-.674.309-.777.846-.694.968.15,1.93.33,2.9.452a24.11,24.11,0,0,0,7.509-.334,7.732,7.732,0,0,1,.871-.136c.438-.031.675.122.652.609-.051,1.042.074,2.089-.071,3.13" transform="translate(-78.864 -172.215)" fill="#febc85"/>
      <path id="Trazado_128991" data-name="Trazado 128991" d="M102.187,50.9c1.205-1.564,2.415-3.125,3.614-4.694a1.591,1.591,0,0,0-.315-2.6c-1.5-1.232-1.5-1.234-.182-2.685,1.673-1.842,3.366-3.666,5.014-5.529.4-.446.627-.45,1.082-.077,1.536,1.261,3.116,2.467,4.733,3.736-1.76.972-3.42,1.882-5.074,2.8-1.453.81-1.557,1.781-.325,2.93.452.422.908.84,1.451,1.343l-9.921,4.891-.076-.123" transform="translate(-72.941 -25.015)" fill="#f7e782"/>
      <path id="Trazado_128992" data-name="Trazado 128992" d="M16.709,124.693a7.726,7.726,0,0,0-.313,4.884A7.292,7.292,0,0,0,23.306,135c1.444.023.831,1.1.957,1.677.177.811-.621.422-.957.426-2.882.036-5.765.028-8.648.018a4.076,4.076,0,0,1-4.235-3.215,3.99,3.99,0,0,1,2.841-4.641,2,2,0,0,0,1.283-1.36,6.16,6.16,0,0,1,2.162-3.209" transform="translate(-7.385 -89.006)" fill="#b1e4fa"/>
      <path id="Trazado_128993" data-name="Trazado 128993" d="M226.5,106.064c-1.377,0-1.351,0-1.314-1.364a7.231,7.231,0,0,0-3.314-6.515,1.219,1.219,0,0,1-.64-1.178c.039-1.375.061-2.754,0-4.127-.042-.871.263-.891.955-.65a7.026,7.026,0,0,1,4.595,4.616,1.908,1.908,0,0,0,1.17,1.337c2.286.859,3.343,2.536,2.958,4.665a4.013,4.013,0,0,1-4.4,3.215" transform="translate(-157.91 -65.74)" fill="#b1e4fa"/>
      <path id="Trazado_128994" data-name="Trazado 128994" d="M116.752,15.457a14.125,14.125,0,0,0-2.879-4.345c4.781-1.707,12.734-.592,16.995,2.57-.345.342-.824.373-1.219.563a6.76,6.76,0,0,0-3.473,3.574c-.282.686-.471.855-1.11.321-1.481-1.236-3.026-2.394-4.541-3.59-1.441-1.138-1.939-1.094-3.187.3-.152.169-.316.328-.586.606" transform="translate(-81.283 -7.363)" fill="#b26d3c"/>
      <path id="Trazado_128995" data-name="Trazado 128995" d="M122.916,234.7c-.009-.945-.038-1.89-.019-2.835.011-.539-.075-.739-.71-.6a26.293,26.293,0,0,1-6.276.63,25.853,25.853,0,0,1-4.906-.633c-.649-.142-.714.079-.705.607.016.944-.012,1.89-.021,2.835a7.163,7.163,0,0,1-.156-2.524c-.029-1.734-.009-3.469-.009-5.328a26.032,26.032,0,0,0,6.488.943,24.462,24.462,0,0,0,6.495-.977c-.148,2.679.206,5.283-.179,7.88" transform="translate(-78.581 -161.903)" fill="#f5a86c"/>
      <path id="Trazado_128996" data-name="Trazado 128996" d="M45.83,123.78c0,1.209-.042,2.419.016,3.625.035.73-.242.868-.9.822a4.475,4.475,0,0,1,.118-8.927c.61-.027.8.153.781.757-.038,1.24-.011,2.482-.011,3.723" transform="translate(-29.155 -85.154)" fill="#e99a58"/>
      <path id="Trazado_128997" data-name="Trazado 128997" d="M207.363,123.772c0-1.274.019-2.548-.009-3.821-.011-.527.19-.655.69-.649a4.472,4.472,0,0,1,.1,8.933c-.584.023-.815-.108-.791-.74.047-1.239.014-2.482.014-3.723" transform="translate(-148.005 -85.157)" fill="#e99a58"/>
      <path id="Trazado_128998" data-name="Trazado 128998" d="M92.232,150.324a4.674,4.674,0,0,1-4.612-4.233,1.557,1.557,0,0,1,1.3-1.865c.849-.094,1.453.444,1.624,1.447.187,1.1.774,1.687,1.691,1.7s1.495-.532,1.719-1.653c.217-1.081.828-1.617,1.7-1.488s1.311.833,1.217,1.919a4.613,4.613,0,0,1-4.638,4.174" transform="translate(-62.535 -102.939)"/>
      <path id="Trazado_128999" data-name="Trazado 128999" d="M153.941,144.256c1.056.792,1.208,1.472.7,2.964a6.821,6.821,0,0,1-1.024,1.729,4.678,4.678,0,0,1-7.786-1.828,4.006,4.006,0,0,1-.2-1.542,1.346,1.346,0,0,1,1.314-1.333,1.293,1.293,0,0,1,1.513,1.086c.195,1.073.476,2.007,1.79,2.045.958.028,1.272-.39,1.763-2.049a1.544,1.544,0,0,1,1.93-1.073" transform="translate(-103.943 -102.95)"/>
      <path id="Trazado_129000" data-name="Trazado 129000" d="M123.992,193.251a1.473,1.473,0,0,1-2.542,1.012,4.79,4.79,0,0,0-4.14-1.294,4.873,4.873,0,0,0-2.512,1.22c-.838.722-1.637.723-2.246.05a1.5,1.5,0,0,1,.284-2.232,7.773,7.773,0,0,1,10.5-.012,1.635,1.635,0,0,1,.66,1.256" transform="translate(-80.069 -135.595)"/>
    </g>
  </g>
</svg>
