<svg xmlns="http://www.w3.org/2000/svg" xmlns:xlink="http://www.w3.org/1999/xlink" width="119" height="136.961" viewBox="0 0 119 136.961">
  <defs>
    <clipPath id="clip-path">
      <rect id="Rectángulo_36330" data-name="Rectángulo 36330" width="106.57" height="130.428" fill="none"/>
    </clipPath>
  </defs>
  <g id="Grupo_136137" data-name="Grupo 136137" transform="translate(-325.823 -10896.589)">
    <circle id="Elipse_4993" data-name="Elipse 4993" cx="59.5" cy="59.5" r="59.5" transform="translate(325.823 10914.55)" fill="#fcd189"/>
    <g id="Grupo_136136" data-name="Grupo 136136" transform="translate(332.038 10896.589)">
      <g id="Grupo_136135" data-name="Grupo 136135" clip-path="url(#clip-path)">
        <path id="Trazado_128764" data-name="Trazado 128764" d="M95.385,140.761a2.878,2.878,0,0,0,1.386.99L98.026,143q1.044-1.231,2.138-2.418-1.609-1.61-3.219-3.22-2.482-2.484-4.967-4.964a3.668,3.668,0,0,0-4.327-.884,4.645,4.645,0,0,1-5.628-1.229c-2.482-2.546-5.021-5.037-7.533-7.553a4.608,4.608,0,0,1-.945-1.139c-.279-.554-.442-1.263.045-1.629.519-.39.778.381,1.1.67.972.87,1.794,1.9,2.823,2.709a1.706,1.706,0,0,0,2.351.02,1.644,1.644,0,0,0,.114-2.224,7.07,7.07,0,0,0-1.225-1.432c-4.613-4.617-9.238-9.222-13.829-13.862-.5-.509-1.675-1.1-.861-1.912.851-.851,1.5.292,2.06.838,2.668,2.615,5.3,5.273,7.937,7.914,1.018,1.019,2.028,2.046,3.058,3.054,1.269,1.241,2.036,1.386,2.886.576.818-.781.659-1.695-.509-2.888-.472-.483-.961-.948-1.427-1.437-.244-.255-.584-.533-.2-.907.344-.34.664-.112.939.146.59.555,1.137,1.156,1.731,1.707.941.873,1.793.98,2.5.337.769-.7.731-1.634-.13-2.625-.472-.544-1.019-1.018-1.509-1.545-.265-.285-.742-.634-.4-1.009.387-.425.7.111.971.358.6.544,1.115,1.18,1.758,1.675a1.677,1.677,0,0,0,2.427.073c.742-.7.734-1.544-.039-2.526-.469-.6-1.076-1.081-1.654-1.745a3.984,3.984,0,0,1,3.238,1.485q11.127,11.137,22.26,22.268a16.487,16.487,0,0,0,1.575-2.92l-.883-.884c-.346-.345-.66-.721-.989-1.083a3.163,3.163,0,0,0-1.018-1.389c-1.887-1.917-3.833-3.775-5.679-5.729-4.284-4.308-8.6-8.583-12.881-12.9a7.475,7.475,0,0,0-10.852.076c-.606.664-1.263,1.284-1.906,1.912-2.539,2.478-1.84,2.508-4.48-.025a2.469,2.469,0,0,1-.781-2.523,8.853,8.853,0,0,0-1.229-6.739,9.146,9.146,0,0,0-9.227-4.375,8.973,8.973,0,0,0-7.636,6.032,2.057,2.057,0,0,1-2.3,1.511c-3.329-.061-6.66-.025-9.99-.02-1.53,0-3.062-.059-4.589.029-1.575.091-2.181.752-2.2,2.255.6,1.391,1.852,1.428,3.073,1.436q6.945.046,13.891,0a1.831,1.831,0,0,1,2.011,1.354,9.084,9.084,0,0,0,5.625,5.631,1.888,1.888,0,0,1,1.45,2.075c-.036,3.6-.017,7.195-.012,10.792,0,2.832-.022,5.666.013,8.5.014,1.133.259,2.161,1.507,2.59,1.181.159,1.734-.526,2.041-1.525a7.182,7.182,0,0,0,.176-2.142q0-9.237.008-18.474c0-.477-.127-1.076.431-1.316.538-.231.929.2,1.28.546,1.349,1.32,2.672,2.667,4.011,4a1.187,1.187,0,0,1,.215,1.564c-1.348,2.773-1.02,4.642,1.145,6.815,2.695,2.707,5.45,5.357,8.086,8.121,2.353,2.466,5.042,3.321,8.294,2.181a1.51,1.51,0,0,1,1.745.265c1.887,1.76,3.661,3.632,5.5,5.438" transform="translate(-9.5 -25.326)" fill="#1c1d21"/>
        <path id="Trazado_128765" data-name="Trazado 128765" d="M81.67,119.739c2.268,2.058,4.411,4.241,6.5,6.479-.614.428-1.263.827-1.407,1.653-1.334-.62-2.378-.018-3.443.736a48.514,48.514,0,0,1-21.328,8.6,50.745,50.745,0,0,1-24.973-2.422A50.865,50.865,0,0,1,3.783,93.672a49.143,49.143,0,0,1,3.6-26.657,5.566,5.566,0,0,0,.5-3.385l1.1-2.446a2.73,2.73,0,0,0,2.363-3.792,10.3,10.3,0,0,0,1.974-2.5c1.363-.115,2.169-1,3.043-1.957A50.384,50.384,0,0,1,39.9,38.09a48.641,48.641,0,0,1,13.955-2.118,51.116,51.116,0,0,1,21.808,4.86,50.668,50.668,0,0,1,28.975,39.95,48.849,48.849,0,0,1-2.105,21.844c-.117.341-.231.682-.337,1.026-.567,1.857-.552,1.9,1.041,2.9-1.516.265-1.559,1.718-2.181,2.7-2.348-2.172-4.6-4.446-6.787-6.775a1.476,1.476,0,0,1-.039-1.178A47.772,47.772,0,0,0,96.766,88.66a1.041,1.041,0,0,1,.179-.355c1.322-1.509,1.323-1.509-.1-2.907A72.067,72.067,0,0,0,95.7,77.561,42.084,42.084,0,0,0,87.02,59.85a6.037,6.037,0,0,1-1.565-2.311c.126-1.774,0-1.884-2.085-1.889a8.518,8.518,0,0,1-1.955-1.426,41.586,41.586,0,0,0-21.554-9.491c-1.34-.186-2.684-.218-4.024-.344a1.072,1.072,0,0,1-.547-.367c-1.095-1.361-1.257-1.359-2.338.011a1.145,1.145,0,0,1-.3.263,36.014,36.014,0,0,1-4.139.411A42.74,42.74,0,0,0,25.847,55.152a2.236,2.236,0,0,1-.788.5,1.839,1.839,0,0,1-.529.034c-1.477-.082-1.632.071-1.555,1.522a2.148,2.148,0,0,1-.024.533c-.92,1.434-2.093,2.672-3.094,4.046a41.1,41.1,0,0,0-8.093,22.584,2.406,2.406,0,0,1-.2,1.047c-.4.582-1.53.767-1.186,1.739.349.992,1.35.846,2.186.922a3.043,3.043,0,0,0,2.949-1.221A2.388,2.388,0,0,1,17.16,86.4q3.833-.032,7.666,0c.622.006,1.281-.02,1.664.638.27,1.218,1.2,1.289,2.2,1.288,5.04-.005,10.081.028,15.12-.028,1.046-.012,1.391.314,1.7,1.322a8.573,8.573,0,0,0,6.166,6.04c.982.275,1.129.689,1.126,1.565-.031,6.707-.011,13.413-.024,20.12,0,1.027.16,1.9,1.333,2.178.71,1.119.3,2.364.386,3.551a8.579,8.579,0,0,1-.066,2.016,1.329,1.329,0,0,1-.448.8c-1.4,1.159-.945,2.694-.713,4.1.159.956.985,1.048,1.672.3.239-.26.391-.6.747-.747a52.319,52.319,0,0,0,10.19-1.682,42.319,42.319,0,0,0,14.106-7.065,4.224,4.224,0,0,1,1.692-1.052" transform="translate(-0.898 -9.793)" fill="#ebf3f6"/>
        <path id="Trazado_128766" data-name="Trazado 128766" d="M106.827,96.764c-1.7-.044-2.166-.663-1.584-2.316a51.537,51.537,0,0,0,3.006-16.223,50.488,50.488,0,0,0-29.6-47.071,49.172,49.172,0,0,0-29.879-3.72A49.947,49.947,0,0,0,19.607,44.058c-.721.82-1.405,1.732-2.707,1.044-.731-.916-.461-1.675.252-2.5A53.7,53.7,0,0,1,44.626,25.468a42.334,42.334,0,0,1,4.226-.851c.735-.115.959-.416.948-1.144-.04-2.476-.026-4.952-.012-7.428.013-2.316.944-3.231,3.287-3.268.45-.007.9,0,1.351,0,1.939,0,1.939,0,1.939-2,0-.405-.033-.814.007-1.215.067-.68-.257-.843-.873-.821-.989.036-1.982.042-2.97,0A2.54,2.54,0,0,1,49.8,6.043c-.045-1.124-.048-2.252.005-3.376A2.512,2.512,0,0,1,52.467.039Q57.8-.038,63.133.044a2.553,2.553,0,0,1,2.629,2.683c.052,1.033.036,2.071.009,3.105a2.631,2.631,0,0,1-2.824,2.9c-.989.041-1.98.01-2.971.012-.362,0-.785-.032-.8.479-.028,1.035-.022,2.071-.007,3.106.009.572.471.434.8.44.946.016,1.892-.028,2.836.015a2.74,2.74,0,0,1,2.964,3.07c.023,2.477.042,4.954-.015,7.428-.02.889.227,1.208,1.145,1.37a53.372,53.372,0,0,1,42.875,41.006,53.261,53.261,0,0,1-1.926,29.74,2.244,2.244,0,0,1-1.024,1.366" transform="translate(-4.483 0)" fill="#1c1d21"/>
        <path id="Trazado_128767" data-name="Trazado 128767" d="M6.984,73.941c.865.789.647,1.653.225,2.573A47.4,47.4,0,0,0,2.777,96.36c-.033,14.927,5.313,27.624,16.213,37.886a48.16,48.16,0,0,0,23.97,12.433,49.631,49.631,0,0,0,38.267-7.361c.713-.469,1.426-.943,2.106-1.459a1.558,1.558,0,0,1,2.529.322,1.853,1.853,0,0,1-.91,1.931c-11.434,8.256-24.165,11.74-38.156,9.97-15.905-2.012-28.5-9.809-37.56-22.966A51.561,51.561,0,0,1,.185,92.889,53.61,53.61,0,0,1,4.717,75.238c.472-1.06,1.068-1.636,2.267-1.3" transform="translate(0 -20.103)" fill="#1c1d21"/>
        <path id="Trazado_128768" data-name="Trazado 128768" d="M13.26,65.365c.993.9.625,1.79.016,2.724-.579.889-1.193,1.586-2.38,1.068a1.617,1.617,0,0,1-.174-2.26c.6-.947,1.114-1.976,2.538-1.533" transform="translate(-2.817 -17.766)" fill="#1f2024"/>
        <path id="Trazado_128769" data-name="Trazado 128769" d="M114.169,140.8a53.459,53.459,0,0,0,6.638-7.653Q109.838,122.172,98.871,111.2a10.6,10.6,0,0,0-1.1-.989,4.049,4.049,0,0,0-3.642-.657c.909.834,1.647,1.47,2.335,2.155a1.388,1.388,0,1,1-1.938,1.955c-.711-.689-1.424-1.378-2.1-2.1-.4-.425-.664-.563-1.159-.055-.515.531-.3.8.111,1.188q1.079,1.021,2.1,2.1a1.376,1.376,0,1,1-1.955,1.921c-.744-.719-1.5-1.428-2.186-2.2-.512-.581-.779-.238-1.171.114-.445.4-.41.674.013,1.068.79.734,1.552,1.5,2.287,2.293a1.266,1.266,0,0,1,.01,1.923,1.3,1.3,0,0,1-1.932,0c-.274-.233-.52-.5-.775-.751-3.66-3.66-7.309-7.33-10.986-10.971-.654-.647-1.354-1.857-2.421-.811-1.087,1.065.142,1.756.787,2.406q7.421,7.471,14.881,14.9c.67.671,1.07,1.436.3,2.23s-1.547.442-2.227-.239c-.924-.923-1.816-1.878-2.785-2.75-.339-.306-.556-1.143-1.206-.707a1.635,1.635,0,0,0-.5,1.842,2.44,2.44,0,0,0,.724,1.117c2.864,2.864,5.718,5.738,8.6,8.588a4.273,4.273,0,0,0,5.178.932c1.937-.87,2.813-.67,4.339.855q4.05,4.048,8.1,8.1c1.2-1.311,2.421-2.593,3.632-3.859" transform="translate(-20.125 -29.121)" fill="#fcde7f"/>
        <path id="Trazado_128770" data-name="Trazado 128770" d="M73.129,147.809q-.01-2.976-.02-5.952c1.41-.172,1.483-1.2,1.482-2.293-.005-6.7.018-13.4-.025-20.1-.007-.984.322-1.406,1.266-1.444.429-.017.635.282.883.531,1.592,1.587,3.166,3.194,4.782,4.756.475.459.536.739.106,1.315a4.534,4.534,0,0,0,.4,6.337c2.99,3.051,6,6.08,9.066,9.057a6.42,6.42,0,0,0,7.454,1.412c1.119-.484,1.629-.219,2.151.648a21.082,21.082,0,0,1-4.818,3.634,41.737,41.737,0,0,1-20.322,6.382c-.313.015-.629-.028-.942-.043a1.274,1.274,0,0,1-.221-.885,4.115,4.115,0,0,0-1.243-3.354" transform="translate(-19.903 -32.129)" fill="#82e0e4"/>
        <path id="Trazado_128771" data-name="Trazado 128771" d="M77.129,104.512c-1.571-1.471-2.776-3.149-5.006-2.894a3.877,3.877,0,0,0-3.3,5.01c.412,1.354,1.566,2.13,2.426,3.2a6.164,6.164,0,0,1-6.72-5.73,6.313,6.313,0,0,1,6.361-6.842c3.731.015,6.524,3.1,6.235,7.253" transform="translate(-17.565 -26.478)" fill="#a9b0b9"/>
        <path id="Trazado_128772" data-name="Trazado 128772" d="M130.515,106.908c-.888-.026-1.778-.029-2.664-.084-.9-.057-1.589-.478-1.549-1.464.038-.9.706-1.291,1.554-1.335.887-.045,1.777-.048,2.666-.069.749.231,1.445.533,1.445,1.478s-.721,1.226-1.452,1.474" transform="translate(-34.384 -28.301)" fill="#1e2125"/>
        <path id="Trazado_128773" data-name="Trazado 128773" d="M13.843,103.944c.795.023,1.589.05,2.384.067,1.165.024,1.85.516,1.76,1.778a1.6,1.6,0,0,1-1.684,1.036c-.665.012-1.331,0-2,0-.9,0-1.766-.135-1.945-1.191-.183-1.081.622-1.448,1.482-1.695" transform="translate(-3.358 -28.298)" fill="#1f2125"/>
        <path id="Trazado_128774" data-name="Trazado 128774" d="M74.07,46.638c-.01.9.006,1.8-.039,2.7a1.292,1.292,0,0,1-1.332,1.4c-.941.014-1.366-.6-1.424-1.466-.059-.9-.053-1.8-.076-2.693.217-.822.571-1.552,1.569-1.488.915.057,1.2.754,1.3,1.551" transform="translate(-19.383 -12.274)" fill="#1d1f23"/>
        <path id="Trazado_128775" data-name="Trazado 128775" d="M72.63,158.953a1.719,1.719,0,0,1,1.464,2c-.017.745,0,1.492,0,2.238-.148.849-.469,1.587-1.489,1.5-1.091-.091-1.324-.9-1.322-1.838,0-.627.021-1.254-.005-1.88a1.763,1.763,0,0,1,1.352-2.022" transform="translate(-19.404 -43.273)" fill="#1e1f23"/>
        <path id="Trazado_128776" data-name="Trazado 128776" d="M34.447,144.269a1.387,1.387,0,0,1-.384.971c-.71.745-1.424,1.49-2.183,2.183a1.238,1.238,0,0,1-1.816,0,1.274,1.274,0,0,1-.092-1.919,29.955,29.955,0,0,1,2.177-2.186,1.243,1.243,0,0,1,1.493-.221,1.486,1.486,0,0,1,.8,1.174" transform="translate(-8.053 -38.914)" fill="#1e1f23"/>
        <path id="Trazado_128777" data-name="Trazado 128777" d="M32.018,62.725c.646.677,1.3,1.346,1.934,2.033A1.381,1.381,0,1,1,32,66.7c-.688-.632-1.356-1.286-2.033-1.931-.341-.652-.578-1.319.007-1.951.633-.683,1.341-.479,2.041-.1" transform="translate(-8.064 -16.98)" fill="#1d1f23"/>
        <path id="Trazado_128778" data-name="Trazado 128778" d="M114.74,64.617c-.736.72-1.456,1.461-2.216,2.156a1.261,1.261,0,0,1-1.919,0,1.285,1.285,0,0,1,0-1.929c.651-.738,1.354-1.43,2.035-2.142.668-.352,1.337-.544,1.959.078a1.4,1.4,0,0,1,.139,1.837" transform="translate(-29.993 -16.981)" fill="#1d1f23"/>
        <path id="Trazado_128779" data-name="Trazado 128779" d="M71.264,7.009c-1.394,0-2.791-.061-4.18.021-.931.056-1.1-.3-1.091-1.143.03-2.1-.009-2.1,2.151-2.1,2.383,0,4.768.057,7.148-.026,1.055-.036,1.383.323,1.23,1.3a2.065,2.065,0,0,0,0,.672c.205,1.127-.345,1.355-1.349,1.3-1.3-.077-2.606-.019-3.91-.019" transform="translate(-17.966 -1.023)" fill="#fbdd7e"/>
        <path id="Trazado_128780" data-name="Trazado 128780" d="M79,25.627c0,1.121-.041,2.247.014,3.364.036.747-.248.881-.937.846C75.1,29.69,75.1,29.711,75.1,26.761c0-1.48.026-2.962-.01-4.442-.017-.693.217-.912.924-.941C79,21.254,79,21.229,79,24.147v1.48" transform="translate(-20.443 -5.809)" fill="#fadc7e"/>
        <path id="Trazado_128781" data-name="Trazado 128781" d="M66.012,25.638a27.779,27.779,0,0,0-.022-2.955c-.122-1.125.361-1.314,1.354-1.293,2.5.052,2.5.009,2.5,2.556,0,1.569-.031,3.139.014,4.706.02.717-.153.99-.94,1.036-2.905.17-2.9.206-2.9-2.7V25.638" transform="translate(-17.96 -5.823)" fill="#fcde7e"/>
        <path id="Trazado_128782" data-name="Trazado 128782" d="M107.561,117.409a1.807,1.807,0,0,1,1.635,1.623,1.263,1.263,0,0,1-1.241,1.447,1.845,1.845,0,0,1-1.783-1.653,1.428,1.428,0,0,1,1.389-1.416" transform="translate(-28.904 -31.963)" fill="#232324"/>
        <path id="Trazado_128783" data-name="Trazado 128783" d="M103.682,124.72a1.832,1.832,0,0,1-1.632-1.669,1.182,1.182,0,0,1,1.315-1.359,1.584,1.584,0,0,1,1.66,1.6c.06.866-.5,1.282-1.343,1.432" transform="translate(-27.781 -33.129)" fill="#1f2022"/>
        <path id="Trazado_128784" data-name="Trazado 128784" d="M100.867,127.574c-.181.843-.621,1.392-1.482,1.3a1.589,1.589,0,0,1-1.549-1.707,1.188,1.188,0,0,1,1.407-1.268,1.851,1.851,0,0,1,1.624,1.675" transform="translate(-26.635 -34.272)" fill="#1f2022"/>
        <path id="Trazado_128785" data-name="Trazado 128785" d="M57.047,50.72c-.815-.076-.829-.795-.91-1.421-.1-.728.205-1.531-.4-2.166A37.26,37.26,0,0,0,44,49.11a43.444,43.444,0,0,0-16.124,9.465c.107.9.927,1.266,1.421,1.873.473.582.972,1.186.279,1.867s-1.287.164-1.868-.3c-.605-.488-.953-1.335-1.881-1.386-.977,1.167-1.988,2.3-2.9,3.528a41.3,41.3,0,0,0-8.522,24.325,1.191,1.191,0,0,0,1.1.359,2.959,2.959,0,0,1,3.04,1.486,1.422,1.422,0,0,1,1.319-.458c1.7.017,3.406-.034,5.106.018,1.513.047,3.042-.239,4.538.191.118-1.316,1.017-1.53,2.108-1.528,5.129.009,10.258-.007,15.386.015.742,0,1.2-.085,1.443-.952a9.047,9.047,0,0,1,9.384-6.756v-30.4a.894.894,0,0,1-.79.266" transform="translate(-3.922 -12.831)" fill="#ebf3f6"/>
        <path id="Trazado_128786" data-name="Trazado 128786" d="M113.353,89.024a4.916,4.916,0,0,1,1.451-.154c.52-.028,1.081.083,1.5-.365a35.838,35.838,0,0,0-.237-3.613,42.61,42.61,0,0,0-8.467-20.91,26.565,26.565,0,0,1-2.685-3.494c-.58-.143-.72.405-1.02.676a9.843,9.843,0,0,1-1.52,1.287.94.94,0,0,1-1.226-.036.99.99,0,0,1-.171-1.33,7.466,7.466,0,0,1,1.041-1.207c.341-.386.861-.67.8-1.306a44.548,44.548,0,0,0-14.21-8.76,36.914,36.914,0,0,0-13.752-2.6c-.413.7-.146,1.492-.327,2.222a2.334,2.334,0,0,1-.444,1.036v30.4a9.79,9.79,0,0,1,1.055.122,8.806,8.806,0,0,1,7.347,8.732h30.1a1.14,1.14,0,0,1,.768-.7" transform="translate(-20.169 -12.85)" fill="#ebf3f6"/>
        <path id="Trazado_128787" data-name="Trazado 128787" d="M116.426,106.82c-.435-.169-.819-.421-.8-.945a.879.879,0,0,1,.052-.243h-30.1a8,8,0,0,1-.071.817c-.362,2.552.552,3.9,2.21,5.268a1.076,1.076,0,0,1,.19.191c.592.817,1.117.918,1.849.059.9-1.058,1.951-1.991,2.938-2.976,3.751-3.744,7.65-3.735,11.408.008q6.258,6.233,12.533,12.452c.1-.341.175-.69.293-1.023a39.872,39.872,0,0,0,2.461-13.064c-.437-.417-.994-.312-1.517-.339a4.571,4.571,0,0,1-1.444-.205" transform="translate(-23.256 -28.757)" fill="#82e0e4"/>
      </g>
    </g>
  </g>
</svg>
