<svg xmlns="http://www.w3.org/2000/svg" xmlns:xlink="http://www.w3.org/1999/xlink" width="109" height="107" viewBox="0 0 109 107">
  <defs>
    <clipPath id="clip-path">
      <rect id="Rectángulo_36361" data-name="Rectángulo 36361" width="92.913" height="93.051" fill="none"/>
    </clipPath>
  </defs>
  <g id="Grupo_136179" data-name="Grupo 136179" transform="translate(-544.256 -2646)">
    <g id="Grupo_136080" data-name="Grupo 136080" transform="translate(544.256 2646)">
      <g id="Grupo_135992" data-name="Grupo 135992" transform="translate(0 0)">
        <ellipse id="Elipse_4973" data-name="Elipse 4973" cx="53.431" cy="53.5" rx="53.431" ry="53.5" fill="#ffb12e"/>
        <g id="Grupo_134517" data-name="Grupo 134517" transform="translate(109 76.52) rotate(180)">
          <path id="Trazado_113538" data-name="Trazado 113538" d="M26.749,4.044c-1.22,0-1.822-.973-2.305-1.756S23.622,1.011,23,1.011s-.956.485-1.444,1.277-1.086,1.756-2.3,1.756-1.822-.973-2.305-1.756S16.122,1.011,15.5,1.011s-.955.485-1.444,1.277-1.086,1.756-2.3,1.756-1.821-.973-2.3-1.756S8.625,1.011,8,1.011,7.047,1.5,6.558,2.288s-1.085,1.756-2.3,1.756-1.82-.973-2.3-1.756S1.129,1.011.506,1.011A.505.505,0,1,1,.506,0c1.218,0,1.82.974,2.3,1.757s.821,1.276,1.444,1.276S5.208,2.548,5.7,1.757,6.783,0,8,0s1.82.974,2.3,1.756.821,1.277,1.444,1.277.955-.485,1.444-1.277S14.279,0,15.5,0,17.319.974,17.8,1.756s.821,1.277,1.445,1.277.955-.485,1.444-1.277S21.779,0,23,0,24.82.974,25.3,1.756s.822,1.277,1.446,1.277.956-.485,1.446-1.277S29.281,0,30.5,0a.505.505,0,1,1,0,1.011c-.624,0-.956.485-1.446,1.277S27.969,4.044,26.749,4.044Z" transform="translate(0 0)" fill="#133d60"/>
          <path id="Trazado_126924" data-name="Trazado 126924" d="M26.749,4.044c-1.22,0-1.822-.973-2.305-1.756S23.622,1.011,23,1.011s-.956.485-1.444,1.277-1.086,1.756-2.3,1.756-1.822-.973-2.305-1.756S16.122,1.011,15.5,1.011s-.955.485-1.444,1.277-1.086,1.756-2.3,1.756-1.821-.973-2.3-1.756S8.625,1.011,8,1.011,7.047,1.5,6.558,2.288s-1.085,1.756-2.3,1.756-1.82-.973-2.3-1.756S1.129,1.011.506,1.011A.505.505,0,1,1,.506,0c1.218,0,1.82.974,2.3,1.757s.821,1.276,1.444,1.276S5.208,2.548,5.7,1.757,6.783,0,8,0s1.82.974,2.3,1.756.821,1.277,1.444,1.277.955-.485,1.444-1.277S14.279,0,15.5,0,17.319.974,17.8,1.756s.821,1.277,1.445,1.277.955-.485,1.444-1.277S21.779,0,23,0,24.82.974,25.3,1.756s.822,1.277,1.446,1.277.956-.485,1.446-1.277S29.281,0,30.5,0a.505.505,0,1,1,0,1.011c-.624,0-.956.485-1.446,1.277S27.969,4.044,26.749,4.044Z" transform="translate(0 9.335)" fill="#133d60"/>
          <path id="Trazado_113539" data-name="Trazado 113539" d="M26.749,4.044c-1.22,0-1.822-.973-2.305-1.756S23.622,1.011,23,1.011s-.956.485-1.444,1.277-1.086,1.756-2.3,1.756-1.822-.973-2.305-1.756S16.122,1.011,15.5,1.011s-.955.485-1.444,1.277-1.086,1.756-2.3,1.756-1.821-.973-2.3-1.756S8.625,1.011,8,1.011,7.047,1.5,6.558,2.288s-1.085,1.756-2.3,1.756-1.82-.973-2.3-1.756S1.129,1.011.506,1.011A.505.505,0,1,1,.506,0c1.218,0,1.82.974,2.3,1.757s.821,1.276,1.444,1.276S5.208,2.548,5.7,1.757,6.783,0,8,0s1.82.974,2.3,1.756.821,1.277,1.444,1.277.955-.485,1.444-1.277S14.279,0,15.5,0,17.319.974,17.8,1.756s.821,1.277,1.445,1.277.955-.485,1.444-1.277S21.779,0,23,0,24.82.974,25.3,1.756s.822,1.277,1.446,1.277.956-.485,1.446-1.277S29.281,0,30.5,0a.505.505,0,1,1,0,1.011c-.624,0-.956.485-1.446,1.277S27.969,4.044,26.749,4.044Z" transform="translate(0 4.668)" fill="#133d60"/>
          <path id="Trazado_126923" data-name="Trazado 126923" d="M26.749,4.044c-1.22,0-1.822-.973-2.305-1.756S23.622,1.011,23,1.011s-.956.485-1.444,1.277-1.086,1.756-2.3,1.756-1.822-.973-2.305-1.756S16.122,1.011,15.5,1.011s-.955.485-1.444,1.277-1.086,1.756-2.3,1.756-1.821-.973-2.3-1.756S8.625,1.011,8,1.011,7.047,1.5,6.558,2.288s-1.085,1.756-2.3,1.756-1.82-.973-2.3-1.756S1.129,1.011.506,1.011A.505.505,0,1,1,.506,0c1.218,0,1.82.974,2.3,1.757s.821,1.276,1.444,1.276S5.208,2.548,5.7,1.757,6.783,0,8,0s1.82.974,2.3,1.756.821,1.277,1.444,1.277.955-.485,1.444-1.277S14.279,0,15.5,0,17.319.974,17.8,1.756s.821,1.277,1.445,1.277.955-.485,1.444-1.277S21.779,0,23,0,24.82.974,25.3,1.756s.822,1.277,1.446,1.277.956-.485,1.446-1.277S29.281,0,30.5,0a.505.505,0,1,1,0,1.011c-.624,0-.956.485-1.446,1.277S27.969,4.044,26.749,4.044Z" transform="translate(0 14.003)" fill="#133d60"/>
        </g>
      </g>
      <g id="Grupo_135995" data-name="Grupo 135995" transform="translate(4.549 39.862)">
        <path id="Trazado_113320" data-name="Trazado 113320" d="M2602.212,1501.185a6.741,6.741,0,1,1,6.741-6.741A6.749,6.749,0,0,1,2602.212,1501.185Zm0-10.3a3.558,3.558,0,1,0,3.558,3.558A3.562,3.562,0,0,0,2602.212,1490.886Z" transform="translate(-2595.472 -1487.703)" fill="#133d60"/>
      </g>
    </g>
    <g id="Grupo_136178" data-name="Grupo 136178" transform="translate(557.342 2652.973)">
      <g id="Grupo_136177" data-name="Grupo 136177" clip-path="url(#clip-path)">
        <path id="Trazado_129107" data-name="Trazado 129107" d="M50.023,0c-1,.237-2.021.433-3.012.716A17.8,17.8,0,0,0,35.938,25.55c.337.694.155.87-.439,1.129a14.429,14.429,0,0,0-5.335,4.1c-.686.825-.66,1.31.054,2.138.664.71,1.394.648,2.17-.235a14.027,14.027,0,0,1,2.277-2.156,6.836,6.836,0,0,1,1.309-.779c.083-.037.163-.081.243-.121,1.451-.738,1.484-.655,2.578.511a17.559,17.559,0,0,0,10.437,5.524,13.662,13.662,0,0,0,2.522.2c.2-.007.464-.057.546.2.076.238-.136.38-.29.518a14.515,14.515,0,0,1-9.978,4.082,25.744,25.744,0,0,0-4.141.322,10.133,10.133,0,0,0-7.5,5.263c-.174.228-.171.688-.522.654-.313-.03-.361-.446-.459-.722a12.419,12.419,0,0,1-.017-7.468,5.727,5.727,0,0,0,.258-1.143,1.26,1.26,0,0,0-1.039-1.415c-1.2-.131-1.616.118-1.938,1.241a16.559,16.559,0,0,0-.42,8.686,8.545,8.545,0,0,0,1.27,2.883c.189.269.247.436-.088.635-3.42,2.032-3.111,6.84-.265,9.356a6.153,6.153,0,0,0,3.215,1.553.979.979,0,0,1,.8.6,28.133,28.133,0,0,0,6.448,7.894,1.033,1.033,0,0,1,.451,1.066c-.16.985-.28,1.979-.345,2.974a.683.683,0,0,1-.626.72,5.868,5.868,0,0,0-.606.18c-.794.267-1.49.509-2.26-.276a2.421,2.421,0,0,0-2.492-.319c-1.414.426-2.834.833-4.245,1.27-5.324,1.649-8.326,5.289-9.24,10.756a50.64,50.64,0,0,1-1.085,5.669v1.09c.4.544.84,1.041,1.612.88a1.525,1.525,0,0,0,1.171-1.428,3.382,3.382,0,0,0,.528-1.708,56.778,56.778,0,0,1,1.254-6.223,9.09,9.09,0,0,1,5.748-5.88c1.275-.476,2.587-.837,3.885-1.242,1.255-.392,1.278-.372,1.395.947a50.744,50.744,0,0,0,2.114,10.466,9.115,9.115,0,0,0,1.661,3.673,4.112,4.112,0,0,1,.225.387,1.419,1.419,0,0,0,1.516,1.015A1.387,1.387,0,0,0,39.53,91.6c.211-.387-.036-.7-.18-1.018a42.633,42.633,0,0,1-3.218-12.107,2.791,2.791,0,0,1-.019-.361c0-.407-.147-.844.387-1.087a.9.9,0,0,1,1.233.374,8.815,8.815,0,0,0,8.479,5.494,1.462,1.462,0,0,0,1.483-.957c.3-1.21-.222-1.9-1.55-2.016a7.809,7.809,0,0,1-3.6-1.046,4.336,4.336,0,0,1-1.967-2.591c-.3-1.43.177-2.81.273-4.215.018-.275.191-.353.444-.267a2.849,2.849,0,0,1,.331.144,11.379,11.379,0,0,0,10.192.033c.3-.138.735-.546.855.2.07.691.105,1.394.241,2.065a4.286,4.286,0,0,1-1.452,4.31,1.4,1.4,0,0,0-.188,2.124c.946.73,1.419.728,2.3-.045a5.657,5.657,0,0,0,2.071-3.118c.209-1.109.719-.984,1.442-.618.473.45.325,1.013.239,1.537A60.724,60.724,0,0,1,54.3,89.973c-.214.569-.638,1.13-.306,1.8a1.4,1.4,0,0,0,1.335,1.258c.9.045,1.229-.619,1.522-1.307a2.339,2.339,0,0,0,.67-1.259,63.091,63.091,0,0,0,3.231-13.293c.114-.949.177-1,1.072-.715,1.413.443,2.853.8,4.235,1.339a9.223,9.223,0,0,1,6.019,6.951c.432,1.95.726,3.928,1.08,5.893a1.777,1.777,0,0,0,.414,1.08c.353,1.039.972,1.49,1.748,1.274.8-.224,1.11-.908.917-1.978-.408-2.261-.729-4.541-1.222-6.783a12.337,12.337,0,0,0-8.571-9.474c-1.508-.522-3.061-.914-4.588-1.383a2.825,2.825,0,0,0-3.092.668c-.4.423-.743.231-1.138.113-1.808-.545-1.664-.573-2.033-2.424a3.51,3.51,0,0,1,1.381-3.774,23.031,23.031,0,0,0,5.373-6.906,1,1,0,0,1,.841-.547,6.534,6.534,0,0,0,5.18-7.925,5.223,5.223,0,0,0-1.653-2.547c-.216-.188-.495-.27-.231-.7,2.63-4.263,2.612-8.741,1.012-13.334a2.131,2.131,0,0,1-.051-.318H81.163a5.743,5.743,0,0,0,1.667,5.428,5.529,5.529,0,0,0,4.3,1.577c3.459-.186,5.775-3.278,5.222-7.034a18.585,18.585,0,0,0,6.1-1.123,18.467,18.467,0,0,0,3.922-2.041c.912-.623,1.038-1.066.636-2.159a1.336,1.336,0,0,0-1.9-.543c-.479.239-.908.566-1.366.845a14.87,14.87,0,0,1-8.257,1.985,2.48,2.48,0,0,1-1.243-.5,5.863,5.863,0,0,0-6.96.014,2.913,2.913,0,0,1-1.7.5c-10.125-.007-20.251.036-30.376-.028a13.571,13.571,0,0,1-8.7-3.4A14.066,14.066,0,0,1,37.48,20.9,14.626,14.626,0,0,1,40.167,8.876a14.481,14.481,0,0,1,11.72-5.891c2.236-.046,4.474.008,6.71-.016,1.141-.012,1.52-.308,1.944-1.4A1.506,1.506,0,0,0,59.457,0Z" transform="translate(-17.186)"/>
        <path id="Trazado_129108" data-name="Trazado 129108" d="M41.814,27.774a1.687,1.687,0,0,0,2.068-.994A17.822,17.822,0,0,0,30.777.167C30.655.15,30.541.141,30.5,0H1.108a1.387,1.387,0,0,0-1.1,1.59A1.7,1.7,0,0,0,1.776,2.977c.362.018.725.012,1.087.012q12.774,0,25.55,0A14.852,14.852,0,0,1,43.276,18.68a14.11,14.11,0,0,1-1.833,6.306,4.206,4.206,0,0,0-.506,1.159,1.277,1.277,0,0,0,.878,1.629" transform="translate(46.606)"/>
        <path id="Trazado_129109" data-name="Trazado 129109" d="M117.427,1.453A1.886,1.886,0,0,1,118.353,0H112.91a2.17,2.17,0,0,1,.887,1.454,5.026,5.026,0,0,0,3.63,0" transform="translate(-70.639)" fill="#fdfdfd"/>
        <path id="Trazado_129110" data-name="Trazado 129110" d="M32.08,3.625H28.45a1.678,1.678,0,0,1-1.887,1.289c-2.923.032-5.862-.268-8.766.174a14.231,14.231,0,0,0-9.663,5.764A13.359,13.359,0,0,0,7.5,20.332,16.856,16.856,0,0,0,22.217,32.99a26.222,26.222,0,0,0,2.982.162q11.694,0,23.388,0a2.781,2.781,0,0,0,1.744-.351c.12-.087.262-.183.25-.354-.016-.227-.22-.265-.387-.305-.412-.1-.847,0-1.255-.134a8.764,8.764,0,0,1-4.93-2.683A5.311,5.311,0,0,1,42.7,26.875c-.211-.945-.474-1.06-1.273-.466a17.505,17.505,0,0,1-4.213,2.464,10.517,10.517,0,0,1-6.129.657,3.938,3.938,0,0,0-2.3.223,11.068,11.068,0,0,1-13.142-4.766A9.018,9.018,0,0,1,18.232,13.18,9.553,9.553,0,0,1,21.125,11.7a2.205,2.205,0,0,0,1.321-1.025,19.007,19.007,0,0,1,1.739-2.437,3.423,3.423,0,0,1,.57-.582,1.023,1.023,0,0,1,1.407,0,1.009,1.009,0,0,1,.193,1.392,11.6,11.6,0,0,1-.751,1.024c-.163.216-.385.442-.261.731.142.334.49.32.787.323a19.787,19.787,0,0,1,5.246.956,11.916,11.916,0,0,1,2.042.747.921.921,0,0,0,1.31-.352c3.064-3.962,7.19-5.056,11.946-4.345A7.123,7.123,0,0,1,50.4,9.892a1.767,1.767,0,0,0,1.737.424,10.882,10.882,0,0,1,8.9,1.663,8.9,8.9,0,0,1,2.665,2.81,5.844,5.844,0,0,0,.391.612c.147.191.3.433.566.392.31-.047.388-.35.466-.612a3.759,3.759,0,0,0,.049-1.883c-.247-1.2-.01-1.774.728-1.93s1.255.407,1.49,1.58a5.557,5.557,0,0,1-1.932,5.616,1.55,1.55,0,0,0-.573,1.088c-.349,4.151-2.831,6.53-6.568,7.793a2.75,2.75,0,0,0-1.8,1.361,4.828,4.828,0,0,1-1.542,1.638c-.265.2-.676.342-.557.821a1.133,1.133,0,0,0,.85.245,7.059,7.059,0,0,1,3.687,1.108,3.927,3.927,0,0,0,2.073.542c1.844-.014,3.688-.01,5.532,0a4,4,0,0,0,1.51-.251,8.039,8.039,0,0,0,.845-.494,1.513,1.513,0,0,1,2.185.094c.987-.732,1.555-1.893,2.6-2.563-.871-.846-.93-1.242-.343-2.294A15.083,15.083,0,0,0,63.21,5.168a15.783,15.783,0,0,0-3.242-.275c-8.668.008-17.337,0-26,.016-.975,0-1.642-.286-1.883-1.284" transform="translate(14.708 -2.172)" fill="#f9f7f7"/>
        <path id="Trazado_129111" data-name="Trazado 129111" d="M107.976,205.234c-.417-2.381-.747-4.781-1.272-7.138a9.47,9.47,0,0,0-6.27-7.08c-1.548-.586-3.168-.98-4.753-1.468-.394-.121-.684-.184-.735.4a60.282,60.282,0,0,1-3.657,15.111,1.176,1.176,0,0,0-.035.176l16.721,0" transform="translate(-51.594 -113.509)" fill="#f4dd46"/>
        <path id="Trazado_129112" data-name="Trazado 129112" d="M198.929,207.04a45.484,45.484,0,0,1-3.442-13.684,3.792,3.792,0,0,0-.124-.524.97.97,0,0,0-1.027-.06c-.714.241-1.447.416-2.16.66a11.05,11.05,0,0,0-7.647,8.621c-.285,1.3-.494,2.607-.743,3.91a1.085,1.085,0,0,0,.125,1.031Z" transform="translate(-179.562 -115.419)" fill="#f4dd46"/>
        <path id="Trazado_129113" data-name="Trazado 129113" d="M141.9,184c.289,1.731,1.555,2.577,2.986,3.233a7.127,7.127,0,0,0,2.635.577c1.315.065,1.7.477,1.688,1.788.2-.223.4-.476.725-.484a13.15,13.15,0,0,0,2.858-.771,1.53,1.53,0,0,1,.465-2.075,4.065,4.065,0,0,0,1.469-4.124c-.132-.773-.211-1.554-.314-2.332-.342-.234-.638-.018-.928.115a11.524,11.524,0,0,1-9.029.57c-1.363-.489-1.867-.115-2.1,1.3a7.6,7.6,0,0,1-.455,2.2" transform="translate(-118.7 -107.66)" fill="#f1d0a4"/>
        <path id="Trazado_129114" data-name="Trazado 129114" d="M79.832,103.826a4.088,4.088,0,1,0-4.079-4.112,4.1,4.1,0,0,0,4.079,4.112" transform="translate(-21.325 -57.304)"/>
        <path id="Trazado_129115" data-name="Trazado 129115" d="M194.193,205.182c.6-3.47.775-7.064,3.237-9.942a11.214,11.214,0,0,1,5.958-3.651,7.437,7.437,0,0,1,2.257-.568c0-1.586,0-1.586-1.538-1.123-1.008.3-2.013.618-3.024.91a9.735,9.735,0,0,0-7.356,8.065c-.4,2.1-.736,4.215-1.1,6.323l1.569-.013" transform="translate(-189.841 -113.606)" fill="#f2d232"/>
        <path id="Trazado_129116" data-name="Trazado 129116" d="M176.658,191.806c-.148-.289.183-.885-.493-.832-1.012.078-1.483.471-1.413,1.133a39.857,39.857,0,0,0,3.49,13.3,5.856,5.856,0,0,1,.213.595c.45.019.824.006.486-.622a35.027,35.027,0,0,1-3.173-10.209,18.944,18.944,0,0,1-.239-2.054,1.082,1.082,0,0,1,1.129-1.314" transform="translate(-156.112 -114.41)" fill="#eee7e4"/>
        <path id="Trazado_129117" data-name="Trazado 129117" d="M131.652,206.689c.7-2.212,1.434-4.413,2.09-6.638a46.615,46.615,0,0,0,1.606-7.52c.066-.533-.089-.732-.593-.72-.335,2.126-.59,4.261-1.041,6.372a29.47,29.47,0,0,1-2.622,7.64c-.4.762-.2.951.56.866" transform="translate(-94.847 -114.913)" fill="#eee7e4"/>
        <path id="Trazado_129118" data-name="Trazado 129118" d="M185.413,80.379a1.575,1.575,0,0,1,.669,2.1,13.721,13.721,0,0,0-.478,6.77,5.88,5.88,0,0,0,1.173,2.663l.606-1.361c.035-.88-.262-1.715-.3-2.6a16.71,16.71,0,0,1,5.008-13.1c.279-.277.709-.509.576-1.033a10.191,10.191,0,0,0-3.606,2.923,1.383,1.383,0,0,1-2.04.4l-1.609,3.237" transform="translate(-173.991 -44.222)" fill="#685e68"/>
        <path id="Trazado_129119" data-name="Trazado 129119" d="M144.394,100.113c-.3-.614-.465-1.531-.946-1.752-.438-.2-1.006.67-1.554,1.015-.276.174-.527.387-.79.582a15.823,15.823,0,0,1-8.981,3.2c-1.359.044-2.71.148-4.062.246a6.7,6.7,0,0,0-3.31,1.11,5.572,5.572,0,0,0-2.386,4.189,33.268,33.268,0,0,0,.376,7.592,7.657,7.657,0,0,0,.813,2.391,24.306,24.306,0,0,0,8.131,8.845c3.811,2.415,7.493,1.961,11.045-.591a25.64,25.64,0,0,0,6.835-7.533,9.884,9.884,0,0,0,1.368-4.182,43.294,43.294,0,0,0,.154-6.338,8.361,8.361,0,0,0-3.4-4.536,10.374,10.374,0,0,1-3.3-4.238" transform="translate(-107.184 -58.91)" fill="#f1d0a4"/>
        <path id="Trazado_129120" data-name="Trazado 129120" d="M88.381,43.71q-3.671-.013-7.341-.023a1.986,1.986,0,0,1-1.137-.218,7.963,7.963,0,0,0-4.942-1.44c-.078.005-.161-.072-.242-.11-.309-.2-.587-.028-.847.1a7.273,7.273,0,0,1-3.51.693c-.434-.014-.916-.117-1.273.279.494.344,1.064.064,1.639.213a1.466,1.466,0,0,1-1.232.484c-8.548,0-17.1.121-25.642-.046a16.3,16.3,0,0,1-13.3-7.09,15.735,15.735,0,0,1-3-10.395,20.741,20.741,0,0,1,.876-4.5A13.988,13.988,0,0,0,25.3,30.973a15,15,0,0,0,15.085,14.9c10.028.025,20.056,0,30.084.011a1.7,1.7,0,0,0,1.144-.384,5.574,5.574,0,0,1,7.1-.012,1.749,1.749,0,0,0,1.139.4,14.631,14.631,0,0,0,8.529-2.179" transform="translate(-5.595 -12.973)" fill="#efe8e5"/>
        <path id="Trazado_129121" data-name="Trazado 129121" d="M149.039,72.593a39.45,39.45,0,0,0-3.127,3.727,17.352,17.352,0,0,0-2.68,8.52,9.482,9.482,0,0,0,.522,4.485,10.5,10.5,0,0,1,9.295-5.313c2.582-.073,5.194-.1,7.64-1.187a19.049,19.049,0,0,0,4.938-3.323c.209-.187.413-.4.281-.7s-.424-.166-.645-.167a17.536,17.536,0,0,1-13.809-6.442c-.358-.419-.67-.547-1.145-.281-.419.234-.846.453-1.269.679" transform="translate(-130.36 -43)" fill="#7a6d79"/>
        <path id="Trazado_129122" data-name="Trazado 129122" d="M118.776,101.55a4.406,4.406,0,0,0,1.388-2.116,13.143,13.143,0,0,0-.361-9.8,1.122,1.122,0,0,0-1.217-.8c-2.354.047-4.709.017-7.063.02-.864,0-1.165.274-.924,1.064.678,2.223,1.573,4.348,3.661,5.646a9.445,9.445,0,0,1,4.516,5.991" transform="translate(-72.272 -53.217)" fill="#796d78"/>
        <path id="Trazado_129123" data-name="Trazado 129123" d="M55.323,89.491a2.946,2.946,0,0,0-4.3-3.978,1.044,1.044,0,0,0-.142.94A4.655,4.655,0,0,0,54.3,89.684a1.21,1.21,0,0,0,1.024-.194" transform="translate(16.653 -50.786)" fill="#f9f7f7"/>
        <path id="Trazado_129124" data-name="Trazado 129124" d="M143.028,182.966a.623.623,0,0,0,.545-.715,15,15,0,0,1,.2-1.7c.074-.967.483-1.269,1.437-.955a13.482,13.482,0,0,0,3.853.808,12.512,12.512,0,0,0,5.728-1.33c.243-.114.5-.2.748-.3.043-.633.078-1.062-.819-.593a10.908,10.908,0,0,1-10.712-.028c-.608-.323-.741-.2-.782.435-.059.9-.221,1.794-.3,2.695a2.8,2.8,0,0,0,.1,1.679" transform="translate(-119.828 -106.629)" fill="#f0ba87"/>
        <path id="Trazado_129125" data-name="Trazado 129125" d="M57.7,90.6a4.112,4.112,0,0,1-4.3-3.978,2.709,2.709,0,0,0-1,2.958,2.809,2.809,0,0,0,2.33,2.231A2.738,2.738,0,0,0,57.7,90.6" transform="translate(14.277 -51.895)" fill="#eee7e5"/>
        <path id="Trazado_129126" data-name="Trazado 129126" d="M147.366,106.946c2.541-.976,5.2-.99,7.874-1.113a14.677,14.677,0,0,0,8.222-3.081,1.477,1.477,0,0,0,.257-.362c-3.6,2.321-7.667,2.618-11.784,2.744a6.343,6.343,0,0,0-4.569,1.812" transform="translate(-129.799 -61.341)" fill="#f0b987"/>
        <path id="Trazado_129127" data-name="Trazado 129127" d="M110.578,134.668c2.255-.847,3.038-3.933,1.41-5.306-.278-.235-.622-.539-.946-.437-.372.118-.148.577-.166.879-.048.811-.022,1.628-.07,2.439s-.148,1.594-.229,2.424" transform="translate(-64.206 -77.226)" fill="#efb986"/>
        <path id="Trazado_129128" data-name="Trazado 129128" d="M202.465,134.817a41.049,41.049,0,0,1-.347-5.388c-.01-.511-.2-.538-.6-.346a2.51,2.51,0,0,0-1.3,2.738,3.847,3.847,0,0,0,2.247,3" transform="translate(-189.688 -77.267)" fill="#efb886"/>
        <path id="Trazado_129129" data-name="Trazado 129129" d="M122.425,102.774a6.994,6.994,0,0,0,2.759,4.1,10.6,10.6,0,0,1,3.672,4.316,2.5,2.5,0,0,0,.262.357,5.438,5.438,0,0,0-2.612-4.774,13.633,13.633,0,0,1-4.082-4" transform="translate(-85.215 -61.571)" fill="#f0b987"/>
        <path id="Trazado_129130" data-name="Trazado 129130" d="M60.547,37.344a9.77,9.77,0,0,0,5.629-1.07,6.724,6.724,0,0,0,2.71-2.843c.183-.422.587-.374.914-.471,3.547-1.064,6.117-3.161,6.921-6.914a5.871,5.871,0,0,1,1.476-3,5.547,5.547,0,0,0,.959-5.868A1.356,1.356,0,1,0,76.575,18a3.845,3.845,0,0,1-.13,2.889.3.3,0,0,1-.289-.2,10.849,10.849,0,0,0-12.431-5.425,1.218,1.218,0,0,1-1.34-.324,8.273,8.273,0,0,0-5.193-2.088,12.785,12.785,0,0,0-9.43,2.935,5.7,5.7,0,0,0-.706.7c-.42.5-.744,1.321-1.243,1.44-.521.124-1.192-.449-1.815-.668a21.365,21.365,0,0,0-6.8-1.277,4.451,4.451,0,0,1,.978-1.384,1.372,1.372,0,0,0-.044-2.019,1.343,1.343,0,0,0-2,.223,15.027,15.027,0,0,0-2.092,2.842,1.972,1.972,0,0,1-1.2.969,9.418,9.418,0,0,0-6.794,8.033c-.51,3.7,1.113,6.576,3.928,8.739a10.908,10.908,0,0,0,11.112,1.584,1.555,1.555,0,0,1,.954-.185c4.27,1.015,7.888-.447,11.222-2.978.233-.177.474-.342.747-.54.733,3.653,3.206,5.333,6.536,6.076" transform="translate(2.949 -7.329)"/>
        <path id="Trazado_129131" data-name="Trazado 129131" d="M83.516,102.818a1.175,1.175,0,0,0-.839,1.537,1.23,1.23,0,0,0,1.291,1.025,1.254,1.254,0,0,0,1.342-1.254,5.477,5.477,0,0,1-1.795-1.307" transform="translate(-25.475 -61.598)" fill="#ede6e3"/>
        <path id="Trazado_129132" data-name="Trazado 129132" d="M82.629,102.679c.375.743.807,1.407,1.795,1.307-.1-1.173-.7-1.611-1.795-1.307" transform="translate(-24.588 -61.458)" fill="#f4f2f2"/>
        <path id="Trazado_129133" data-name="Trazado 129133" d="M152.361,152.612c-.149.007-.391.013-.632.03-.988.072-1.576.614-1.542,1.417a1.411,1.411,0,0,0,1.644,1.3,6.405,6.405,0,0,1,2.926.447A7.129,7.129,0,0,1,156.565,157a1.379,1.379,0,0,0,2.082-.027,1.344,1.344,0,0,0-.282-2,8.614,8.614,0,0,0-6.005-2.359" transform="translate(-126.185 -91.429)"/>
        <path id="Trazado_129134" data-name="Trazado 129134" d="M154.5,141.838a3.4,3.4,0,0,0,1.964-.554,1.367,1.367,0,0,0,.578-1.79,1.306,1.306,0,0,0-1.754-.618,1.806,1.806,0,0,1-1.629,0,1.3,1.3,0,0,0-1.759.6,1.345,1.345,0,0,0,.549,1.8,3.459,3.459,0,0,0,2.052.562" transform="translate(-125.014 -83.121)" fill="#010000"/>
        <path id="Trazado_129135" data-name="Trazado 129135" d="M144.185,126.232c0-.393.028-.789-.007-1.18a1.326,1.326,0,0,0-1.377-1.279,1.271,1.271,0,0,0-1.311,1.246,20.147,20.147,0,0,0-.006,2.541,1.332,1.332,0,0,0,1.374,1.286,1.357,1.357,0,0,0,1.322-1.343c.029-.422.005-.847,0-1.271" transform="translate(-107.906 -74.151)"/>
        <path id="Trazado_129136" data-name="Trazado 129136" d="M171.375,126.282c0-.393.023-.789,0-1.18a1.357,1.357,0,0,0-1.325-1.341,1.329,1.329,0,0,0-1.372,1.287,20.07,20.07,0,0,0,.007,2.541,1.272,1.272,0,0,0,1.312,1.246,1.326,1.326,0,0,0,1.375-1.282c.036-.421.006-.847.007-1.27" transform="translate(-145.981 -74.145)"/>
        <path id="Trazado_129137" data-name="Trazado 129137" d="M122.526,34.306a17.582,17.582,0,0,1,.187-3.407c.108-.447-.093-.647-.471-.815a18.185,18.185,0,0,0-8.431-1.638.736.736,0,0,0-.763.582c-2.011,5.484,1.383,10.466,5.772,12.281a.873.873,0,0,0,.906-.181,5.752,5.752,0,0,0,2.8-4.893c.024-.724,0-1.45,0-1.929" transform="translate(-74.846 -17.028)" fill="#f9f7f7"/>
        <path id="Trazado_129138" data-name="Trazado 129138" d="M80.848,30.48a27.126,27.126,0,0,1,2.2-5.057,10.536,10.536,0,0,1,2.778-3.311c.54-.4.427-.572-.084-.833a9.013,9.013,0,0,0-7.295-.214,7.259,7.259,0,0,0-3.9,2.8c-.183.274-.407.514.008.828a65.548,65.548,0,0,1,6.026,5.634,1.4,1.4,0,0,0,.263.154" transform="translate(-23.026 -12.222)" fill="#f9f7f7"/>
        <path id="Trazado_129139" data-name="Trazado 129139" d="M134.377,31.4a6.457,6.457,0,0,0-2.4,9.308,8.452,8.452,0,0,0,7.388,3.844c.143,0,.307.025.4-.137-5.1-4.779-5.762-6.382-5.385-13.015" transform="translate(-99.25 -18.814)" fill="#f9f7f7"/>
        <path id="Trazado_129140" data-name="Trazado 129140" d="M39.447,34.5a8.166,8.166,0,0,1,7.529-.4,5.71,5.71,0,0,1,3.834,5.414c.038.844.262.866.912.524a6.372,6.372,0,0,0,3.618-4.664,12.353,12.353,0,0,1-8.152-2.313,14.23,14.23,0,0,1-3.467-3.3c-.4-.55-.655-.472-1.1-.1A12.4,12.4,0,0,0,39.447,34.5" transform="translate(21.781 -17.592)" fill="#f9f7f7"/>
        <path id="Trazado_129141" data-name="Trazado 129141" d="M93.614,37.637c-.144,1.862.049,3.58-.183,5.29A8.616,8.616,0,0,1,91.194,47.6c3.468-.3,5.948-2.155,8.36-4.272-1.96-1.869-3.758-3.865-5.94-5.694" transform="translate(-43.147 -22.548)" fill="#f9f7f7"/>
        <path id="Trazado_129142" data-name="Trazado 129142" d="M65.262,51.029c1.387.027,1.448-.03,1.389-1.191-.109-2.215-1.143-3.214-4.018-3.675-2-.32-3.525.733-4.979,1.921-.482.394-.012.483.18.62A12.35,12.35,0,0,0,63.7,50.878c.6.068,1.2.116,1.565.151" transform="translate(3.253 -27.621)" fill="#f9f7f7"/>
        <path id="Trazado_129143" data-name="Trazado 129143" d="M40.346,25.917c2.223,2.606,4.747,4.369,8.148,4.547.313.016.755.166.923-.122.2-.34-.158-.677-.344-.966A7.89,7.89,0,0,0,43.1,25.754a6.931,6.931,0,0,0-2.753.163" transform="translate(27.288 -15.389)" fill="#f9f7f7"/>
        <path id="Trazado_129144" data-name="Trazado 129144" d="M69.859,61.134a16.4,16.4,0,0,1-8.74-2.723A3.929,3.929,0,0,0,63.8,61.817a6.031,6.031,0,0,0,6.063-.682" transform="translate(-1.413 -34.994)" fill="#f8f6f6"/>
      </g>
    </g>
  </g>
</svg>
