<svg xmlns="http://www.w3.org/2000/svg" xmlns:xlink="http://www.w3.org/1999/xlink" width="109" height="107" viewBox="0 0 109 107">
  <defs>
    <clipPath id="clip-path">
      <rect id="Rectángulo_36363" data-name="Rectángulo 36363" width="92" height="83.643" fill="#12263f"/>
    </clipPath>
  </defs>
  <g id="Grupo_136184" data-name="Grupo 136184" transform="translate(-749.479 -2645.999)">
    <ellipse id="Elipse_4973" data-name="Elipse 4973" cx="53.051" cy="53.5" rx="53.051" ry="53.5" transform="translate(749.479 2645.999)" fill="#ffb12e"/>
    <path id="Trazado_113320" data-name="Trazado 113320" d="M2602.212,1501.185a6.741,6.741,0,1,1,6.741-6.741A6.749,6.749,0,0,1,2602.212,1501.185Zm0-10.3a3.558,3.558,0,1,0,3.558,3.558A3.562,3.562,0,0,0,2602.212,1490.886Z" transform="translate(-1811.062 1165.047)" fill="#133d60"/>
    <g id="Grupo_136183" data-name="Grupo 136183" transform="translate(753.806 2666.231)">
      <g id="Grupo_136182" data-name="Grupo 136182" clip-path="url(#clip-path)">
        <path id="Trazado_129169" data-name="Trazado 129169" d="M35.364,3.179c.8-1.034,1.272-1.144,2.459-.582a26.076,26.076,0,0,1,6.448,4.394c.194.178.391.351.592.531.288-.232.3-.557.41-.824a10.673,10.673,0,0,1,15.39-5.15,1.126,1.126,0,0,0,1.356.014A10.444,10.444,0,0,1,75.047,3.212a.969.969,0,0,0,1.026.29,11.4,11.4,0,0,1,14.206,9.246A11.1,11.1,0,0,1,88.8,20.674c-.294.488-.326.761.115,1.2a10.483,10.483,0,0,1,2.89,5.522c.033.161-.045.377.193.452v.545A3.658,3.658,0,0,0,92,30.2v.907a4.228,4.228,0,0,0-.484,1.5A10.554,10.554,0,0,1,89.1,36.8a.771.771,0,0,0-.132,1.083c3.612,6.731.283,14.3-7.079,16.069-.527.127-.64.35-.667.848a10.762,10.762,0,0,1-9.953,10.212c-.553.04-.744.169-.8.754a10.666,10.666,0,0,1-9.8,10.061c-.641.075-.858.244-.953.919a7.6,7.6,0,0,1-11.772,5.611c-.3-.184-.452-.357-.752.089a2.244,2.244,0,0,1-3.792.29q-6.486-6.6-12.952-13.22Q19.242,58.064,8.035,46.611A27.279,27.279,0,0,1,.006,26.241C.268,13.163,10.383,1.815,23.167.241,24.027.135,24.9.1,25.761.036A1.525,1.525,0,0,1,27.548,1.3c.271,1.273-.379,2.06-1.845,2.089a21.023,21.023,0,0,0-5.4.84,22.554,22.554,0,0,0-10.389,6.36A23.353,23.353,0,0,0,3.444,24.9,23.1,23.1,0,0,0,9.861,43.658c5.012,5.237,10.028,10.474,15.175,15.579,2.243,2.224,4.508,4.43,6.659,6.743,3.793,4.078,7.783,7.955,11.67,11.938a3.776,3.776,0,0,0,.662.609,1.621,1.621,0,0,0,.1-.914q.007-32.332.02-64.665a3.133,3.133,0,0,0-.959-2.407,26.952,26.952,0,0,0-6.57-4.851A3.3,3.3,0,0,1,35.386,4.8c-.383-.53-.571-1.075-.022-1.624" transform="translate(0 0)"/>
        <path id="Trazado_129170" data-name="Trazado 129170" d="M183.876,58.069a2.058,2.058,0,0,1,0-1.815Z" transform="translate(-91.876 -27.866)" fill="#494949"/>
        <path id="Trazado_129171" data-name="Trazado 129171" d="M38.431,4.456a1.605,1.605,0,0,0,1,2.126,25.453,25.453,0,0,1,7.6,5.693,1.507,1.507,0,0,1,.472,1.112q-.016,33.3-.011,66.6c0,.12-.017.239-.026.366-.36.1-.471-.217-.637-.386Q29.858,62.647,12.916,45.306a23.434,23.434,0,0,1-6.758-17.95A23.858,23.858,0,0,1,25.945,4.666a25.328,25.328,0,0,1,2.769-.24c1.357-.073,1.834-.519,1.9-1.847.2.341.559.325.867.343a25.074,25.074,0,0,1,6.95,1.534" transform="translate(-3.067 -1.278)" fill="#ed5e69"/>
        <path id="Trazado_129172" data-name="Trazado 129172" d="M126.174,25.355c2.9-1.447,7.066-.121,9.034,2.85A7.758,7.758,0,0,1,130.7,39.973a7.256,7.256,0,0,0-.867.229,1.535,1.535,0,0,0-.93,1.833,1.5,1.5,0,0,0,1.708,1.132,8.439,8.439,0,0,0,2.475-.778c.448-.234.652-.124.9.3a7.746,7.746,0,0,1-4.917,11.248,7.616,7.616,0,0,1-8.524-3.86c-.288-.557-.275-.8.392-.995a8.516,8.516,0,0,0,4.351-2.9,1.557,1.557,0,0,0-.049-2.264,1.51,1.51,0,0,0-2.231.228,6.2,6.2,0,0,1-8.561.965,1.473,1.473,0,0,0-2.219.255,1.549,1.549,0,0,0,.485,2.275,8.359,8.359,0,0,0,3.65,1.651,1,1,0,0,1,.855.756A10.419,10.419,0,0,0,125.08,57c.523.122.674.3.661.825-.091,3.752-3.887,7.356-7.572,7.187-.448-.02-.6-.218-.744-.6a10.633,10.633,0,0,0-5.232-5.958c-.434-.224-.478-.383-.205-.792a9.059,9.059,0,0,0,1.5-4.592c.065-1.181-.521-1.963-1.46-2.007-.9-.042-1.513.645-1.595,1.79a6.2,6.2,0,0,1-5.9,5.961c-1.137.088-1.824.709-1.773,1.605a1.643,1.643,0,0,0,1.986,1.479,8.667,8.667,0,0,0,3.692-1.021,1.532,1.532,0,0,1,1.365-.084A7.715,7.715,0,1,1,103.369,74.7c-1.055-.631-1.915-.473-2.41.377s-.179,1.643.889,2.3a7.888,7.888,0,0,0,1.946.914c.422.122.533.389.518.812a4.618,4.618,0,0,1-4.559,4.454,4.541,4.541,0,0,1-4.624-4.349c-.015-.3-.014-.6-.014-.907,0-21.32.029-42.641-.025-63.961a7.892,7.892,0,0,1,5.456-7.855,7.632,7.632,0,0,1,5.431.377c.5.227.594.417.238.914a9.743,9.743,0,0,0-1.727,4.233.8.8,0,0,1-.651.746,5.054,5.054,0,0,0-2.288,1.377,1.532,1.532,0,0,0,1.964,2.349c2.043-1.4,2.59-1.4,4.657.013a1.564,1.564,0,0,0,2.11-.246,1.521,1.521,0,0,0-.162-2.122,4.918,4.918,0,0,0-2.045-1.274c-.5-.153-.566-.412-.469-.865a7.794,7.794,0,0,1,6.463-5.773,7.68,7.68,0,0,1,8.611,7.434c.06,1.115.7,1.835,1.606,1.794.926-.042,1.465-.756,1.458-1.911a8.88,8.88,0,0,0-.661-3.357c-.268-.65-.088-.817.542-.882a8.453,8.453,0,0,1,9.315,8.425,8.553,8.553,0,0,1-1.173,4.408c-.231.4-.43.515-.917.318a10.154,10.154,0,0,0-8.523.24.931.931,0,0,1-.985-.058,7.125,7.125,0,0,0-3.507-.983,1.546,1.546,0,1,0-.157,3.083,4.643,4.643,0,0,1,4.564,4.475c.144,1.227.762,1.828,1.743,1.692.928-.129,1.422-.968,1.293-2.136a8.785,8.785,0,0,0-1.1-3.407" transform="translate(-47.566 -3.051)" fill="#ec8cc1"/>
        <path id="Trazado_129173" data-name="Trazado 129173" d="M31.82,12.335c.209,0,.419,0,.629,0,1.1.013,1.72.56,1.722,1.523a1.556,1.556,0,0,1-1.724,1.559,17.467,17.467,0,0,0-4.77.745A17.859,17.859,0,0,0,15.45,31.184c-.034.421-.094.84-.138,1.261a1.484,1.484,0,0,1-1.641,1.517,1.537,1.537,0,0,1-1.41-1.681,19.951,19.951,0,0,1,1.386-6.614c2.922-7.112,8.068-11.544,15.589-13.058a11.068,11.068,0,0,1,2.585-.273" transform="translate(-6.132 -6.108)"/>
        <path id="Trazado_129174" data-name="Trazado 129174" d="M15.264,61.355c1.518.145,1.534,1.519,1.908,2.576a1.526,1.526,0,0,1-.76,1.916,1.436,1.436,0,0,1-2.027-.735,9.838,9.838,0,0,1-.649-1.968,1.564,1.564,0,0,1,1.528-1.789" transform="translate(-6.857 -30.392)"/>
        <path id="Trazado_129175" data-name="Trazado 129175" d="M104.295,59.52A10.916,10.916,0,0,1,114.548,49.1c1.223-.042,1.935.479,1.984,1.453q.076,1.512-1.8,1.642a7.753,7.753,0,0,0-7.375,7.471c-.081,1.24-.648,1.853-1.65,1.787-.931-.062-1.444-.763-1.416-1.937" transform="translate(-52.171 -24.323)"/>
      </g>
    </g>
    <g id="Grupo_134517" data-name="Grupo 134517" transform="translate(858.479 2708.053) rotate(180)">
      <path id="Trazado_113538" data-name="Trazado 113538" d="M23.092,3.491c-1.053,0-1.573-.84-1.99-1.516s-.709-1.1-1.248-1.1-.825.419-1.247,1.1-.937,1.516-1.99,1.516-1.573-.84-1.99-1.516-.709-1.1-1.247-1.1-.825.419-1.247,1.1-.937,1.516-1.99,1.516-1.572-.84-1.989-1.516S7.446.873,6.908.873s-.824.419-1.246,1.1S4.725,3.491,3.672,3.491,2.1,2.651,1.683,1.975.975.873.437.873A.436.436,0,1,1,.437,0C1.489,0,2.008.841,2.426,1.516s.708,1.1,1.246,1.1S4.5,2.2,4.919,1.516,5.856,0,6.908,0,8.479.841,8.9,1.516s.708,1.1,1.247,1.1.825-.419,1.247-1.1S12.327,0,13.38,0s1.572.841,1.99,1.516.708,1.1,1.247,1.1.825-.419,1.247-1.1S18.8,0,19.854,0s1.573.841,1.991,1.516.709,1.1,1.248,1.1.826-.419,1.248-1.1S25.278,0,26.331,0a.436.436,0,1,1,0,.873c-.539,0-.826.419-1.248,1.1S24.146,3.491,23.092,3.491Z" transform="translate(0 0)" fill="#133d60"/>
      <path id="Trazado_126924" data-name="Trazado 126924" d="M23.092,3.491c-1.053,0-1.573-.84-1.99-1.516s-.709-1.1-1.248-1.1-.825.419-1.247,1.1-.937,1.516-1.99,1.516-1.573-.84-1.99-1.516-.709-1.1-1.247-1.1-.825.419-1.247,1.1-.937,1.516-1.99,1.516-1.572-.84-1.989-1.516S7.446.873,6.908.873s-.824.419-1.246,1.1S4.725,3.491,3.672,3.491,2.1,2.651,1.683,1.975.975.873.437.873A.436.436,0,1,1,.437,0C1.489,0,2.008.841,2.426,1.516s.708,1.1,1.246,1.1S4.5,2.2,4.919,1.516,5.856,0,6.908,0,8.479.841,8.9,1.516s.708,1.1,1.247,1.1.825-.419,1.247-1.1S12.327,0,13.38,0s1.572.841,1.99,1.516.708,1.1,1.247,1.1.825-.419,1.247-1.1S18.8,0,19.854,0s1.573.841,1.991,1.516.709,1.1,1.248,1.1.826-.419,1.248-1.1S25.278,0,26.331,0a.436.436,0,1,1,0,.873c-.539,0-.826.419-1.248,1.1S24.146,3.491,23.092,3.491Z" transform="translate(0 8.059)" fill="#133d60"/>
      <path id="Trazado_113539" data-name="Trazado 113539" d="M23.092,3.491c-1.053,0-1.573-.84-1.99-1.516s-.709-1.1-1.248-1.1-.825.419-1.247,1.1-.937,1.516-1.99,1.516-1.573-.84-1.99-1.516-.709-1.1-1.247-1.1-.825.419-1.247,1.1-.937,1.516-1.99,1.516-1.572-.84-1.989-1.516S7.446.873,6.908.873s-.824.419-1.246,1.1S4.725,3.491,3.672,3.491,2.1,2.651,1.683,1.975.975.873.437.873A.436.436,0,1,1,.437,0C1.489,0,2.008.841,2.426,1.516s.708,1.1,1.246,1.1S4.5,2.2,4.919,1.516,5.856,0,6.908,0,8.479.841,8.9,1.516s.708,1.1,1.247,1.1.825-.419,1.247-1.1S12.327,0,13.38,0s1.572.841,1.99,1.516.708,1.1,1.247,1.1.825-.419,1.247-1.1S18.8,0,19.854,0s1.573.841,1.991,1.516.709,1.1,1.248,1.1.826-.419,1.248-1.1S25.278,0,26.331,0a.436.436,0,1,1,0,.873c-.539,0-.826.419-1.248,1.1S24.146,3.491,23.092,3.491Z" transform="translate(0 4.03)" fill="#133d60"/>
      <path id="Trazado_126923" data-name="Trazado 126923" d="M23.092,3.491c-1.053,0-1.573-.84-1.99-1.516s-.709-1.1-1.248-1.1-.825.419-1.247,1.1-.937,1.516-1.99,1.516-1.573-.84-1.99-1.516-.709-1.1-1.247-1.1-.825.419-1.247,1.1-.937,1.516-1.99,1.516-1.572-.84-1.989-1.516S7.446.873,6.908.873s-.824.419-1.246,1.1S4.725,3.491,3.672,3.491,2.1,2.651,1.683,1.975.975.873.437.873A.436.436,0,1,1,.437,0C1.489,0,2.008.841,2.426,1.516s.708,1.1,1.246,1.1S4.5,2.2,4.919,1.516,5.856,0,6.908,0,8.479.841,8.9,1.516s.708,1.1,1.247,1.1.825-.419,1.247-1.1S12.327,0,13.38,0s1.572.841,1.99,1.516.708,1.1,1.247,1.1.825-.419,1.247-1.1S18.8,0,19.854,0s1.573.841,1.991,1.516.709,1.1,1.248,1.1.826-.419,1.248-1.1S25.278,0,26.331,0a.436.436,0,1,1,0,.873c-.539,0-.826.419-1.248,1.1S24.146,3.491,23.092,3.491Z" transform="translate(0 12.089)" fill="#133d60"/>
    </g>
  </g>
</svg>
