<svg xmlns="http://www.w3.org/2000/svg" xmlns:xlink="http://www.w3.org/1999/xlink" width="109" height="107" viewBox="0 0 109 107">
  <defs>
    <clipPath id="clip-path">
      <rect id="Rectángulo_36362" data-name="Rectángulo 36362" width="83.131" height="86.931" fill="none"/>
    </clipPath>
  </defs>
  <g id="Grupo_136185" data-name="Grupo 136185" transform="translate(-962.479 -2645.999)">
    <ellipse id="Elipse_4973" data-name="Elipse 4973" cx="53.051" cy="53.5" rx="53.051" ry="53.5" transform="translate(962.479 2645.999)" fill="#ffb12e"/>
    <g id="Grupo_134517" data-name="Grupo 134517" transform="translate(1071.479 2708.053) rotate(180)">
      <path id="Trazado_113538" data-name="Trazado 113538" d="M23.092,3.491c-1.053,0-1.573-.84-1.99-1.516s-.709-1.1-1.248-1.1-.825.419-1.247,1.1-.937,1.516-1.99,1.516-1.573-.84-1.99-1.516-.709-1.1-1.247-1.1-.825.419-1.247,1.1-.937,1.516-1.99,1.516-1.572-.84-1.989-1.516S7.446.873,6.908.873s-.824.419-1.246,1.1S4.725,3.491,3.672,3.491,2.1,2.651,1.683,1.975.975.873.437.873A.436.436,0,1,1,.437,0C1.489,0,2.008.841,2.426,1.516s.708,1.1,1.246,1.1S4.5,2.2,4.919,1.516,5.856,0,6.908,0,8.479.841,8.9,1.516s.708,1.1,1.247,1.1.825-.419,1.247-1.1S12.327,0,13.38,0s1.572.841,1.99,1.516.708,1.1,1.247,1.1.825-.419,1.247-1.1S18.8,0,19.854,0s1.573.841,1.991,1.516.709,1.1,1.248,1.1.826-.419,1.248-1.1S25.278,0,26.331,0a.436.436,0,1,1,0,.873c-.539,0-.826.419-1.248,1.1S24.146,3.491,23.092,3.491Z" transform="translate(0 0)" fill="#133d60"/>
      <path id="Trazado_126924" data-name="Trazado 126924" d="M23.092,3.491c-1.053,0-1.573-.84-1.99-1.516s-.709-1.1-1.248-1.1-.825.419-1.247,1.1-.937,1.516-1.99,1.516-1.573-.84-1.99-1.516-.709-1.1-1.247-1.1-.825.419-1.247,1.1-.937,1.516-1.99,1.516-1.572-.84-1.989-1.516S7.446.873,6.908.873s-.824.419-1.246,1.1S4.725,3.491,3.672,3.491,2.1,2.651,1.683,1.975.975.873.437.873A.436.436,0,1,1,.437,0C1.489,0,2.008.841,2.426,1.516s.708,1.1,1.246,1.1S4.5,2.2,4.919,1.516,5.856,0,6.908,0,8.479.841,8.9,1.516s.708,1.1,1.247,1.1.825-.419,1.247-1.1S12.327,0,13.38,0s1.572.841,1.99,1.516.708,1.1,1.247,1.1.825-.419,1.247-1.1S18.8,0,19.854,0s1.573.841,1.991,1.516.709,1.1,1.248,1.1.826-.419,1.248-1.1S25.278,0,26.331,0a.436.436,0,1,1,0,.873c-.539,0-.826.419-1.248,1.1S24.146,3.491,23.092,3.491Z" transform="translate(0 8.059)" fill="#133d60"/>
      <path id="Trazado_113539" data-name="Trazado 113539" d="M23.092,3.491c-1.053,0-1.573-.84-1.99-1.516s-.709-1.1-1.248-1.1-.825.419-1.247,1.1-.937,1.516-1.99,1.516-1.573-.84-1.99-1.516-.709-1.1-1.247-1.1-.825.419-1.247,1.1-.937,1.516-1.99,1.516-1.572-.84-1.989-1.516S7.446.873,6.908.873s-.824.419-1.246,1.1S4.725,3.491,3.672,3.491,2.1,2.651,1.683,1.975.975.873.437.873A.436.436,0,1,1,.437,0C1.489,0,2.008.841,2.426,1.516s.708,1.1,1.246,1.1S4.5,2.2,4.919,1.516,5.856,0,6.908,0,8.479.841,8.9,1.516s.708,1.1,1.247,1.1.825-.419,1.247-1.1S12.327,0,13.38,0s1.572.841,1.99,1.516.708,1.1,1.247,1.1.825-.419,1.247-1.1S18.8,0,19.854,0s1.573.841,1.991,1.516.709,1.1,1.248,1.1.826-.419,1.248-1.1S25.278,0,26.331,0a.436.436,0,1,1,0,.873c-.539,0-.826.419-1.248,1.1S24.146,3.491,23.092,3.491Z" transform="translate(0 4.03)" fill="#133d60"/>
      <path id="Trazado_126923" data-name="Trazado 126923" d="M23.092,3.491c-1.053,0-1.573-.84-1.99-1.516s-.709-1.1-1.248-1.1-.825.419-1.247,1.1-.937,1.516-1.99,1.516-1.573-.84-1.99-1.516-.709-1.1-1.247-1.1-.825.419-1.247,1.1-.937,1.516-1.99,1.516-1.572-.84-1.989-1.516S7.446.873,6.908.873s-.824.419-1.246,1.1S4.725,3.491,3.672,3.491,2.1,2.651,1.683,1.975.975.873.437.873A.436.436,0,1,1,.437,0C1.489,0,2.008.841,2.426,1.516s.708,1.1,1.246,1.1S4.5,2.2,4.919,1.516,5.856,0,6.908,0,8.479.841,8.9,1.516s.708,1.1,1.247,1.1.825-.419,1.247-1.1S12.327,0,13.38,0s1.572.841,1.99,1.516.708,1.1,1.247,1.1.825-.419,1.247-1.1S18.8,0,19.854,0s1.573.841,1.991,1.516.709,1.1,1.248,1.1.826-.419,1.248-1.1S25.278,0,26.331,0a.436.436,0,1,1,0,.873c-.539,0-.826.419-1.248,1.1S24.146,3.491,23.092,3.491Z" transform="translate(0 12.089)" fill="#133d60"/>
    </g>
    <path id="Trazado_113320" data-name="Trazado 113320" d="M2602.212,1501.185a6.741,6.741,0,1,1,6.741-6.741A6.749,6.749,0,0,1,2602.212,1501.185Zm0-10.3a3.558,3.558,0,1,0,3.558,3.558A3.562,3.562,0,0,0,2602.212,1490.886Z" transform="translate(-1622.444 1198.158)" fill="#133d60"/>
    <g id="Grupo_136181" data-name="Grupo 136181" transform="translate(974.964 2656.797)">
      <g id="Grupo_136180" data-name="Grupo 136180" clip-path="url(#clip-path)">
        <path id="Trazado_129145" data-name="Trazado 129145" d="M63.912,86.918c-8.448,0-16.9-.025-25.343.013-3.319.014-3.4-.1-3.34-3.428a16.621,16.621,0,0,1,.341-3.41,12.669,12.669,0,0,1,3.223-6.044c1.221-1.282,2.459-2.55,3.734-3.778a12.539,12.539,0,0,1,8.89-3.631c2-.016,4-.033,6,.015.65.016.8-.185.764-.8a9.748,9.748,0,0,0-.077-2.6c-.3-.8-1.4-.84-2.121-1.284a12.921,12.921,0,0,1-6.216-9.153c-.094-.545-.264-.7-.782-.674A6.017,6.017,0,0,1,47.03,52a4.329,4.329,0,0,1-3.184-4.015c-.032-.964-.016-1.931-.009-2.9a4.323,4.323,0,0,1,4.437-4.523c1.294-.014,1.294-.014,1.294-1.319,0-1.478-.015-2.957.009-4.435a.872.872,0,0,0-.5-.916,7.054,7.054,0,0,1-3.791-6.586,1.237,1.237,0,0,0-.387-.942,8.646,8.646,0,0,1,.023-12.189,1.247,1.247,0,0,0,.362-.952,7.145,7.145,0,0,1,5.306-7.171.85.85,0,0,0,.669-.684A7.137,7.137,0,0,1,58.45,0Q63.823-.006,69.2,0c1.394,0,1.863.484,1.868,1.907,0,1,.017,1.992-.008,2.987a.683.683,0,0,0,.465.749c.371.171.54,0,.755-.223.627-.646,1.255-1.291,1.9-1.921a1.435,1.435,0,0,1,2.335-.038q2.743,2.732,5.446,5.5a1.471,1.471,0,0,1-.007,2.361c-.6.631-1.219,1.242-1.835,1.857-.255.255-.5.45-.285.91.191.4.454.4.789.4,1.044-.007,2.09-.014,3.134,0a1.468,1.468,0,0,1,1.639,1.68q.016,4.118,0,8.237a1.469,1.469,0,0,1-1.655,1.665c-1.074.013-2.15.014-3.224,0a.609.609,0,0,0-.682.419.6.6,0,0,0,.164.778c.671.644,1.324,1.307,1.965,1.982a1.475,1.475,0,0,1-.014,2.361c-1.063,1.1-2.135,2.194-3.23,3.262a1.446,1.446,0,0,0-.5,1.173c.034,1.3.037,2.6,0,3.892-.016.528.156.662.65.637a5.8,5.8,0,0,1,1.865.133,4.323,4.323,0,0,1,3.22,4.078c.028,1,.021,1.992.005,2.987a4.326,4.326,0,0,1-4.311,4.378c-1.449.031-1.428.036-1.762,1.432A12.734,12.734,0,0,1,70.313,62.7c-.518.23-.733.465-.7,1.043.062.928-.316,2.186.148,2.707.529.594,1.791.147,2.734.184,2.2.087,4.414-.185,6.6.306a12.809,12.809,0,0,1,6.345,3.5c1.128,1.122,2.25,2.249,3.355,3.393a12.977,12.977,0,0,1,3.759,9.284c0,.664,0,1.328,0,1.992-.01,1.3-.506,1.81-1.783,1.812q-5.731.008-11.462,0Z" transform="translate(-22.335 0)"/>
        <path id="Trazado_129146" data-name="Trazado 129146" d="M188.814,27.421c.895,0,1.79-.013,2.685,0a1.478,1.478,0,0,1,1.6,1.63c.043.892-.386,2.084.178,2.586.491.437,1.646.107,2.507.128a1.456,1.456,0,0,1,1.606,1.622q.025,2.713,0,5.427a1.475,1.475,0,0,1-1.591,1.644c-.883.044-2.061-.387-2.565.169-.436.481-.118,1.657-.14,2.525a1.477,1.477,0,0,1-1.676,1.646q-2.64.018-5.28,0c-1.1-.009-1.622-.553-1.64-1.679-.011-.723-.025-1.448.007-2.171.018-.408-.126-.514-.509-.5-.745.027-1.492.024-2.237,0a1.436,1.436,0,0,1-1.556-1.577q-.029-2.759,0-5.518a1.435,1.435,0,0,1,1.546-1.587c.686-.02,1.374-.038,2.057.006.522.033.763-.076.7-.674A17.62,17.62,0,0,1,184.5,29.3c.007-1.405.477-1.87,1.9-1.874.806,0,1.611,0,2.416,0" transform="translate(-114.275 -17.278)"/>
        <path id="Trazado_129147" data-name="Trazado 129147" d="M0,40c0-.844-.005-1.688,0-2.533.01-1.289.505-1.777,1.8-1.786.626,0,1.255-.037,1.878.01.529.041.652-.165.626-.659-.039-.721-.028-1.447,0-2.17a1.414,1.414,0,0,1,1.519-1.52q2.774-.033,5.548,0A1.432,1.432,0,0,1,12.9,32.861c.052.922-.385,2.155.179,2.677.492.456,1.7.113,2.586.143A1.418,1.418,0,0,1,17.192,37.2q.037,2.8,0,5.608a1.438,1.438,0,0,1-1.574,1.56c-.716.018-1.434.038-2.147-.008-.5-.031-.6.163-.579.614.032.722.024,1.447,0,2.17A1.42,1.42,0,0,1,11.418,48.7q-2.818.04-5.638,0a1.4,1.4,0,0,1-1.469-1.478c-.029-.753-.033-1.509,0-2.261.021-.461-.1-.639-.585-.608-.683.043-1.371.02-2.057.009A1.475,1.475,0,0,1,.007,42.711C-.007,41.806,0,40.9,0,40" transform="translate(0 -19.74)"/>
        <path id="Trazado_129148" data-name="Trazado 129148" d="M31.772,110.555a1.426,1.426,0,0,1-1.445-1.319,4.48,4.48,0,0,1-.007-.992c.057-.491-.142-.633-.6-.588a4.562,4.562,0,0,1-.982-.009,1.408,1.408,0,0,1-1.283-1.475,1.373,1.373,0,0,1,1.276-1.388c.493-.07,1.139.128,1.461-.126.352-.278.064-.958.127-1.458a1.429,1.429,0,0,1,2.853.033c.06.5-.23,1.156.144,1.452.3.237.914.049,1.385.092a1.425,1.425,0,0,1,1.336,1.43,1.456,1.456,0,0,1-1.324,1.448c-.494.064-1.144-.226-1.442.135-.24.29-.063.917-.1,1.391a1.433,1.433,0,0,1-1.4,1.372" transform="translate(-17.412 -64.203)"/>
        <path id="Trazado_129149" data-name="Trazado 129149" d="M184.905,129.707a1.46,1.46,0,0,1-1.586,1.462c-1.242.045-1.242.045-1.275,1.243-.028,1-.562,1.629-1.4,1.649-.872.021-1.442-.628-1.464-1.673a4,4,0,0,1,0-.632c.066-.477-.121-.645-.589-.594a4.448,4.448,0,0,1-.982-.008,1.408,1.408,0,0,1-1.29-1.469,1.372,1.372,0,0,1,1.269-1.394c.493-.072,1.138.13,1.464-.122.357-.277.067-.957.129-1.457a1.429,1.429,0,0,1,2.853.02c.061.5-.228,1.156.141,1.454.3.239.912.054,1.382.1a1.427,1.427,0,0,1,1.343,1.424" transform="translate(-111.819 -79.018)"/>
        <path id="Trazado_129150" data-name="Trazado 129150" d="M82.28,97.136a7.385,7.385,0,0,0,4.631,2.733,10.076,10.076,0,0,0,1.424.1q5.327.012,10.653,0c1.416,0,1.893-.475,1.9-1.878,0-1,.013-1.991-.005-2.986a.7.7,0,0,1,.437-.77c.413-.2.579.048.829.26.971.822,1.6,2.042,2.893,2.493.27.094.141.367.141.554,0,4.313.072,8.629-.028,12.94a10,10,0,0,1-9.559,9.639,20.122,20.122,0,0,1-5.785-.3,10.064,10.064,0,0,1-7.536-9.619c-.052-4.222-.014-8.446-.015-12.669,0-.107.009-.213.021-.494" transform="translate(-52.159 -59.408)" fill="#f6cba8"/>
        <path id="Trazado_129151" data-name="Trazado 129151" d="M79.877,25.187c0,5.52-.012,11.039.016,16.558,0,.669-.144.88-.826.844-1.19-.063-2.387.015-3.58-.028a4.245,4.245,0,0,1-3.746-2.382c-.237-.43-.309-.669.3-.882a7.06,7.06,0,0,0,4.88-5.813A5.076,5.076,0,0,0,77,32.675a1.471,1.471,0,0,0-1.359-1.686c-.836-.041-1.42.564-1.5,1.552a4.293,4.293,0,1,1-8.529-.761,1.993,1.993,0,0,0-.794-2.109,5.759,5.759,0,0,1,0-8.967,1.975,1.975,0,0,0,.795-2.108,4.293,4.293,0,1,1,8.514-1.034,2.168,2.168,0,0,0,.288,1.208,1.338,1.338,0,0,0,1.576.547,1.455,1.455,0,0,0,1.021-1.524A7.134,7.134,0,0,0,72.3,11.181c-.855-.294-.821-.616-.433-1.221a4.267,4.267,0,0,1,3.62-2.145c1.193-.033,2.389.036,3.58-.026.675-.035.834.163.831.839-.03,5.519-.017,11.039-.017,16.559" transform="translate(-39.746 -4.907)" fill="#dfb898"/>
        <path id="Trazado_129152" data-name="Trazado 129152" d="M55.164,202.539c-3.757,0-7.515-.018-11.271.017-.664.006-.847-.155-.838-.839a10.241,10.241,0,0,1,2.9-7.263c1.23-1.271,2.465-2.54,3.744-3.759a9.944,9.944,0,0,1,5.858-2.622c.612-.074.892.115,1.08.723.655,2.125,1.369,4.231,2.064,6.343.463,1.408.734,1.606,2.182,1.606,1.938,0,3.877.02,5.814-.012.564-.01.775.119.755.735-.046,1.445-.044,2.894,0,4.34.018.6-.166.749-.745.745-3.847-.025-7.693-.013-11.54-.013" transform="translate(-27.305 -118.518)" fill="#3396e7"/>
        <path id="Trazado_129153" data-name="Trazado 129153" d="M129.645,202.54c-3.787,0-7.574-.015-11.361.015-.618,0-.817-.142-.795-.789.05-1.445.045-2.894,0-4.339-.017-.578.172-.7.707-.693,1.968.031,3.936.013,5.9.012,1.389,0,1.676-.209,2.123-1.563.706-2.14,1.429-4.275,2.1-6.427a.807.807,0,0,1,1.017-.683,9.85,9.85,0,0,1,5.87,2.591c1.324,1.259,2.609,2.563,3.869,3.888a10.206,10.206,0,0,1,2.807,7.209c.007.636-.16.8-.788.8-3.817-.031-7.634-.015-11.451-.015" transform="translate(-74.509 -118.52)" fill="#3396e7"/>
        <path id="Trazado_129154" data-name="Trazado 129154" d="M117.509,38.958c0-.935.031-1.871-.011-2.8-.026-.58.077-.809.744-.859a10.132,10.132,0,0,0-.007-20.195c-.568-.043-.751-.175-.74-.768q.057-2.894,0-5.79c-.013-.614.191-.738.755-.737,2.126,0,2.126-.017,2.126,2.141,0,.332,0,.663,0,1,.006,1.19.255,1.528,1.338,1.945.639.246,1.268.524,1.882.827a1.491,1.491,0,0,0,1.877-.307c.574-.571,1.152-1.139,1.705-1.731.269-.287.458-.278.728,0,.98,1.014,1.967,2.021,2.977,3,.338.329.237.528-.048.8-.543.517-1.056,1.065-1.588,1.593a1.584,1.584,0,0,0-.339,2.042,17.987,17.987,0,0,1,.835,1.992,1.6,1.6,0,0,0,1.681,1.2c.894-.022,1.791.019,2.685-.014.465-.017.617.122.608.605q-.043,2.306,0,4.614c.01.5-.173.607-.621.592-.894-.029-1.79.006-2.686-.012a1.561,1.561,0,0,0-1.637,1.126q-.414,1.094-.912,2.155a1.517,1.517,0,0,0,.27,1.827c.122.133.258.252.376.388.526.6,1.576,1.1,1.513,1.766-.06.635-.99,1.19-1.548,1.771-.5.52-1.031,1.007-1.51,1.544-.325.365-.545.327-.856-.016-.525-.577-1.089-1.117-1.642-1.667a1.491,1.491,0,0,0-1.878-.3c-.7.34-1.412.639-2.133.921a1.54,1.54,0,0,0-1.081,1.584c.009.9-.02,1.81.011,2.715.016.477-.078.676-.62.688-2.256.05-2.255.071-2.255-2.194Z" transform="translate(-74.512 -4.919)" fill="#3396e7"/>
        <path id="Trazado_129155" data-name="Trazado 129155" d="M117.514,42.515c0-2.171.018-4.341-.012-6.511-.008-.57.1-.782.722-.718a7.274,7.274,0,0,1,0,14.455c-.616.065-.732-.141-.724-.715.031-2.17.012-4.34.012-6.511" transform="translate(-74.517 -22.231)" fill="#e8edf1"/>
        <path id="Trazado_129156" data-name="Trazado 129156" d="M108.643,172.288c.746,0,1.495.047,2.235-.016.543-.045.645.152.633.642-.029,1.175,0,2.351-.013,3.526a1.474,1.474,0,0,1-1.664,1.658c-.835.013-1.67.019-2.5,0a1.437,1.437,0,0,1-1.554-1.581c-.021-1.235.01-2.472-.014-3.707-.009-.437.118-.562.558-.537.773.045,1.55.013,2.325.013v0" transform="translate(-67.071 -108.566)" fill="#dfb898"/>
        <path id="Trazado_129157" data-name="Trazado 129157" d="M94.327,193.813c-1.4.01-2.794.013-4.19.033a.571.571,0,0,1-.654-.45c-.555-1.739-1.136-3.469-1.755-5.345,1.29,0,2.487,0,3.685,0,.252,0,.35.147.446.356a4.937,4.937,0,0,0,2.481,2.344,3.74,3.74,0,0,1-.013,3.064" transform="translate(-55.635 -118.513)" fill="#2977b7"/>
        <path id="Trazado_129158" data-name="Trazado 129158" d="M120.875,190.744a4.848,4.848,0,0,0,2.476-2.346.567.567,0,0,1,.63-.356c1.127.006,2.255,0,3.5,0-.611,1.865-1.2,3.647-1.777,5.434-.108.334-.341.364-.626.362-1.4-.014-2.794-.021-4.19-.031a3.744,3.744,0,0,1-.014-3.064" transform="translate(-76.453 -118.508)" fill="#2977b7"/>
        <path id="Trazado_129159" data-name="Trazado 129159" d="M69.46,120.168c0,.784-.016,1.568.007,2.351.011.379-.091.505-.493.529-1.851.111-2.379-.363-2.38-2.218,0-.693-.023-1.387.007-2.08a1.932,1.932,0,0,1,2.7-1.494c.244.136.153.367.155.56.011.784,0,1.567,0,2.351" transform="translate(-42.227 -73.781)" fill="#dfb898"/>
        <path id="Trazado_129160" data-name="Trazado 129160" d="M152.77,120.382c0-.723.027-1.448-.009-2.169-.026-.511.061-.734.66-.731,1.8.007,2.215.386,2.215,2.207,0,.663.015,1.326,0,1.989a1.916,1.916,0,0,1-2.69,1.6c-.256-.132-.165-.359-.168-.549-.011-.783,0-1.567,0-2.35" transform="translate(-96.875 -74.04)" fill="#dfb898"/>
        <path id="Trazado_129161" data-name="Trazado 129161" d="M105.767,198.415q.007-1.532.013-3.064c1.426.237,1.426.237,1.426,1.636a2.764,2.764,0,0,0,0,.447c.138.819-.189,1.154-1,1.012a4.178,4.178,0,0,0-.442-.031" transform="translate(-67.075 -123.115)" fill="#12619f"/>
        <path id="Trazado_129162" data-name="Trazado 129162" d="M118.961,195.35q.007,1.532.014,3.064c-1.439.075-1.439.075-1.439-1.339v-.09c0-1.4,0-1.4,1.426-1.636" transform="translate(-74.538 -123.115)" fill="#12619f"/>
        <path id="Trazado_129163" data-name="Trazado 129163" d="M195.19,36.944c0,.3,0,.6,0,.905.018,1.226.526,1.727,1.765,1.742.149,0,.3-.009.447,0,.675.047,1.7-.3,1.945.141.344.627.113,1.572.143,2.38.017.439-.279.373-.54.375-.746,0-1.493-.017-2.238.007a1.424,1.424,0,0,0-1.516,1.528c-.024.754-.029,1.509,0,2.263.018.437-.131.542-.554.561-2.32.1-2.32.114-2.321-2.206,0-1.77-.384-2.151-2.167-2.152-2.172,0-2.152,0-2.146-2.2,0-.544.114-.75.686-.707a18.584,18.584,0,0,0,2.148.005,1.417,1.417,0,0,0,1.471-1.483c.03-.784.027-1.57,0-2.353-.014-.4.123-.547.511-.507a7,7,0,0,0,.716,0c1.647,0,1.647,0,1.647,1.7" transform="translate(-119.232 -22.206)" fill="#fed23a"/>
        <path id="Trazado_129164" data-name="Trazado 129164" d="M12.059,48.943c0-.3.007-.6,0-.905A1.481,1.481,0,0,0,10.375,46.4c-.686-.01-1.374-.023-2.059.006-.414.018-.549-.1-.57-.545C7.638,43.5,7.623,43.5,9.917,43.5c1.761,0,2.141-.387,2.142-2.178,0-2.2,0-2.175,2.168-2.186.631,0,.742.227.707.776-.04.631-.018,1.267-.007,1.9.019,1.131.535,1.664,1.638,1.685.716.014,1.434.02,2.149,0,.377-.013.571.092.51.5a.5.5,0,0,0,0,.09c.093,2.31.093,2.31-2.2,2.312-1.734,0-2.095.384-2.1,2.222,0,2.148,0,2.13-2.121,2.136-.548,0-.841-.089-.754-.723a8,8,0,0,0,.009-1.085" transform="translate(-4.889 -24.662)" fill="#fed23a"/>
        <path id="Trazado_129165" data-name="Trazado 129165" d="M103.933,138.994a7.374,7.374,0,0,1-3.925-.913,4.21,4.21,0,0,1-2.024-2.944,1.538,1.538,0,0,1,1.076-1.908,1.469,1.469,0,0,1,1.743,1.259,1.3,1.3,0,0,0,.051.264c.694,1.324,1.935,1.353,3.172,1.324,1.419-.033,2.261-.581,2.527-1.566.261-.966.931-1.465,1.723-1.285a1.55,1.55,0,0,1,1.086,1.979,4.532,4.532,0,0,1-3.723,3.567,5.766,5.766,0,0,1-1.707.223" transform="translate(-62.116 -83.938)"/>
        <path id="Trazado_129166" data-name="Trazado 129166" d="M99.394,117.543a1.445,1.445,0,1,1-1.433,1.415,1.446,1.446,0,0,1,1.433-1.415" transform="translate(-62.125 -74.079)" fill="#030202"/>
        <path id="Trazado_129167" data-name="Trazado 129167" d="M122.9,117.543a1.445,1.445,0,1,1-1.433,1.415,1.446,1.446,0,0,1,1.433-1.415" transform="translate(-77.031 -74.079)" fill="#030202"/>
        <path id="Trazado_129168" data-name="Trazado 129168" d="M82.688,52.806A4.357,4.357,0,0,1,78.39,49c-.134-1.077.348-1.85,1.225-1.969.846-.115,1.45.438,1.618,1.51A1.418,1.418,0,0,0,82.64,49.9c.775.046,1.306-.492,1.455-1.4.165-1.007.747-1.553,1.569-1.471A1.519,1.519,0,0,1,86.95,48.86a4.352,4.352,0,0,1-4.262,3.946" transform="translate(-49.699 -29.629)"/>
      </g>
    </g>
  </g>
</svg>
