<svg xmlns="http://www.w3.org/2000/svg" width="67.745" height="47.34" viewBox="0 0 67.745 47.34">
  <g id="Grupo_133814" data-name="Grupo 133814" transform="translate(-104.499 -51.803)">
    <path id="Trazado_113510" data-name="Trazado 113510" d="M162.942,79.892c-2.665,0-3.98-2.127-5.037-3.837-1.07-1.73-1.8-2.79-3.16-2.79s-2.088,1.06-3.156,2.79c-1.057,1.71-2.372,3.837-5.035,3.837s-3.98-2.127-5.037-3.837c-1.069-1.73-1.794-2.79-3.157-2.79s-2.087,1.06-3.156,2.79c-1.057,1.71-2.372,3.837-5.035,3.837s-3.979-2.128-5.034-3.838c-1.069-1.729-1.793-2.789-3.155-2.789s-2.085,1.06-3.155,2.789c-1.057,1.711-2.371,3.838-5.034,3.838s-3.977-2.127-5.034-3.838c-1.069-1.729-1.793-2.789-3.155-2.789a1.1,1.1,0,1,1,0-2.209c2.662,0,3.977,2.127,5.034,3.837,1.068,1.73,1.793,2.79,3.155,2.79s2.085-1.06,3.155-2.79c1.057-1.71,2.372-3.837,5.034-3.837s3.977,2.127,5.033,3.837c1.069,1.73,1.793,2.79,3.156,2.79s2.087-1.06,3.156-2.79c1.057-1.71,2.372-3.837,5.035-3.837s3.979,2.127,5.037,3.837c1.068,1.73,1.793,2.79,3.157,2.79s2.087-1.06,3.156-2.79c1.055-1.71,2.372-3.837,5.035-3.837s3.981,2.127,5.038,3.837c1.07,1.73,1.8,2.79,3.158,2.79s2.089-1.06,3.16-2.79c1.057-1.71,2.373-3.837,5.038-3.837a1.1,1.1,0,1,1,0,2.209c-1.364,0-2.089,1.06-3.16,2.79C166.924,77.765,165.608,79.892,162.942,79.892Z" transform="translate(0)" fill="#fff"/>
    <path id="Trazado_126917" data-name="Trazado 126917" d="M162.942,79.892c-2.665,0-3.98-2.127-5.037-3.837-1.07-1.73-1.8-2.79-3.16-2.79s-2.088,1.06-3.156,2.79c-1.057,1.71-2.372,3.837-5.035,3.837s-3.98-2.127-5.037-3.837c-1.069-1.73-1.794-2.79-3.157-2.79s-2.087,1.06-3.156,2.79c-1.057,1.71-2.372,3.837-5.035,3.837s-3.979-2.128-5.034-3.838c-1.069-1.729-1.793-2.789-3.155-2.789s-2.085,1.06-3.155,2.789c-1.057,1.711-2.371,3.838-5.034,3.838s-3.977-2.127-5.034-3.838c-1.069-1.729-1.793-2.789-3.155-2.789a1.1,1.1,0,1,1,0-2.209c2.662,0,3.977,2.127,5.034,3.837,1.068,1.73,1.793,2.79,3.155,2.79s2.085-1.06,3.155-2.79c1.057-1.71,2.372-3.837,5.034-3.837s3.977,2.127,5.033,3.837c1.069,1.73,1.793,2.79,3.156,2.79s2.087-1.06,3.156-2.79c1.057-1.71,2.372-3.837,5.035-3.837s3.979,2.127,5.037,3.837c1.068,1.73,1.793,2.79,3.157,2.79s2.087-1.06,3.156-2.79c1.055-1.71,2.372-3.837,5.035-3.837s3.981,2.127,5.038,3.837c1.07,1.73,1.8,2.79,3.158,2.79s2.089-1.06,3.16-2.79c1.057-1.71,2.373-3.837,5.038-3.837a1.1,1.1,0,1,1,0,2.209c-1.364,0-2.089,1.06-3.16,2.79C166.924,77.765,165.608,79.892,162.942,79.892Z" transform="translate(0 -19.253)" fill="#fff"/>
    <path id="Trazado_113511" data-name="Trazado 113511" d="M162.942,87.555c-2.665,0-3.98-2.128-5.037-3.837-1.07-1.731-1.8-2.792-3.16-2.792s-2.088,1.06-3.156,2.79c-1.057,1.71-2.372,3.838-5.035,3.838s-3.98-2.128-5.037-3.838c-1.069-1.73-1.794-2.79-3.157-2.79s-2.087,1.06-3.156,2.79c-1.057,1.71-2.372,3.838-5.035,3.838s-3.979-2.129-5.034-3.838c-1.069-1.73-1.793-2.79-3.155-2.79s-2.085,1.06-3.155,2.79c-1.057,1.71-2.371,3.838-5.034,3.838s-3.977-2.128-5.034-3.838c-1.069-1.73-1.793-2.79-3.155-2.79a1.1,1.1,0,1,1,0-2.209c2.662,0,3.977,2.128,5.034,3.838,1.068,1.729,1.793,2.789,3.155,2.789s2.085-1.06,3.155-2.789c1.057-1.71,2.372-3.838,5.034-3.838s3.977,2.128,5.033,3.838c1.069,1.729,1.793,2.789,3.156,2.789s2.087-1.06,3.156-2.789c1.057-1.71,2.372-3.838,5.035-3.838s3.979,2.128,5.037,3.838c1.068,1.729,1.793,2.789,3.157,2.789s2.087-1.06,3.156-2.789c1.055-1.71,2.372-3.838,5.035-3.838s3.981,2.128,5.038,3.838c1.07,1.729,1.8,2.789,3.158,2.789s2.089-1.06,3.16-2.789c1.057-1.71,2.373-3.838,5.038-3.838a1.1,1.1,0,1,1,0,2.209c-1.364,0-2.089,1.06-3.16,2.79C166.924,85.427,165.608,87.555,162.942,87.555Z" transform="translate(0 1.964)" fill="#fff"/>
    <path id="Trazado_126918" data-name="Trazado 126918" d="M162.942,87.555c-2.665,0-3.98-2.128-5.037-3.837-1.07-1.731-1.8-2.792-3.16-2.792s-2.088,1.06-3.156,2.79c-1.057,1.71-2.372,3.838-5.035,3.838s-3.98-2.128-5.037-3.838c-1.069-1.73-1.794-2.79-3.157-2.79s-2.087,1.06-3.156,2.79c-1.057,1.71-2.372,3.838-5.035,3.838s-3.979-2.129-5.034-3.838c-1.069-1.73-1.793-2.79-3.155-2.79s-2.085,1.06-3.155,2.79c-1.057,1.71-2.371,3.838-5.034,3.838s-3.977-2.128-5.034-3.838c-1.069-1.73-1.793-2.79-3.155-2.79a1.1,1.1,0,1,1,0-2.209c2.662,0,3.977,2.128,5.034,3.838,1.068,1.729,1.793,2.789,3.155,2.789s2.085-1.06,3.155-2.789c1.057-1.71,2.372-3.838,5.034-3.838s3.977,2.128,5.033,3.838c1.069,1.729,1.793,2.789,3.156,2.789s2.087-1.06,3.156-2.789c1.057-1.71,2.372-3.838,5.035-3.838s3.979,2.128,5.037,3.838c1.068,1.729,1.793,2.789,3.157,2.789s2.087-1.06,3.156-2.789c1.055-1.71,2.372-3.838,5.035-3.838s3.981,2.128,5.038,3.838c1.07,1.729,1.8,2.789,3.158,2.789s2.089-1.06,3.16-2.789c1.057-1.71,2.373-3.838,5.038-3.838a1.1,1.1,0,1,1,0,2.209c-1.364,0-2.089,1.06-3.16,2.79C166.924,85.427,165.608,87.555,162.942,87.555Z" transform="translate(0 -17.289)" fill="#fff"/>
    <path id="Trazado_113512" data-name="Trazado 113512" d="M162.942,95.216c-2.665,0-3.98-2.127-5.037-3.837-1.07-1.73-1.8-2.79-3.16-2.79s-2.088,1.06-3.156,2.79c-1.057,1.71-2.372,3.837-5.035,3.837s-3.98-2.127-5.037-3.837c-1.069-1.73-1.794-2.79-3.157-2.79s-2.087,1.06-3.156,2.79c-1.057,1.71-2.372,3.837-5.035,3.837s-3.979-2.127-5.034-3.837c-1.069-1.73-1.793-2.79-3.155-2.79s-2.085,1.06-3.155,2.79c-1.057,1.71-2.371,3.837-5.034,3.837s-3.977-2.127-5.034-3.837c-1.069-1.73-1.793-2.79-3.155-2.79a1.1,1.1,0,1,1,0-2.209c2.662,0,3.977,2.128,5.034,3.838,1.068,1.729,1.793,2.789,3.155,2.789s2.085-1.06,3.155-2.789c1.057-1.71,2.372-3.838,5.034-3.838s3.977,2.128,5.033,3.837c1.069,1.73,1.793,2.79,3.156,2.79s2.087-1.06,3.156-2.79c1.057-1.709,2.372-3.837,5.035-3.837s3.979,2.128,5.037,3.837c1.068,1.73,1.793,2.79,3.157,2.79s2.087-1.06,3.156-2.79c1.055-1.709,2.372-3.837,5.035-3.837s3.981,2.128,5.038,3.837c1.07,1.73,1.8,2.79,3.158,2.79s2.089-1.06,3.16-2.79c1.057-1.709,2.373-3.837,5.038-3.837a1.1,1.1,0,1,1,0,2.209c-1.364,0-2.089,1.06-3.16,2.79C166.924,93.089,165.608,95.216,162.942,95.216Z" transform="translate(0 3.928)" fill="#fff"/>
  </g>
</svg>
